<?xml version="1.0" encoding="UTF-8"?>
<svg width="18px" height="14px" viewBox="0 0 18 14" version="1.1" xmlns="http://www.w3.org/2000/svg" xmlns:xlink="http://www.w3.org/1999/xlink">
    <!-- Generator: Sketch 54.1 (76490) - https://sketchapp.com -->
    <title>medium</title>
    <desc>Created with Sketch.</desc>
    <g id="Main" stroke="none" stroke-width="1" fill="none" fill-rule="evenodd">
        <g id="WhiteCapital_LandinPage" transform="translate(-401.000000, -5584.000000)" fill="#000000">
            <g id="08-Footer" transform="translate(121.000000, 5180.000000)">
                <g id="Group-3" transform="translate(221.000000, 402.000000)">
                    <g id="medium" transform="translate(59.000000, 2.000000)">
                        <path d="M18,2.06317753 L17.2880859,2.06317753 C17.0237813,2.06317753 16.65,2.43779204 16.65,2.67756468 L16.65,11.369478 C16.65,11.609527 17.0237813,11.9368225 17.2880859,11.9368225 L18,11.9368225 L18,14 L11.5500234,14 L11.5500234,11.9368225 L12.9000234,11.9368225 L12.9000234,2.79997237 L12.8338594,2.79997237 L9.68132813,14 L7.24064062,14 L4.12875,2.79997237 L4.05,2.79997237 L4.05,11.9368225 L5.4,11.9368225 L5.4,14 L0,14 L0,11.9368225 L0.691523438,11.9368225 C0.97621875,11.9368225 1.35,11.609527 1.35,11.369478 L1.35,2.6774956 C1.35,2.43772296 0.97621875,2.06310845 0.691523438,2.06310845 L0,2.06310845 L0,0 L6.75239063,0 L8.96934375,8.1052268 L9.03051562,8.1052268 L11.2677891,0 L18,0 L18,2.06317753" id="Path"></path>
                    </g>
                </g>
            </g>
        </g>
    </g>
</svg>