<?xml version="1.0" encoding="UTF-8"?>
<svg width="19px" height="15px" viewBox="0 0 19 15" version="1.1" xmlns="http://www.w3.org/2000/svg" xmlns:xlink="http://www.w3.org/1999/xlink">
    <!-- Generator: Sketch 54.1 (76490) - https://sketchapp.com -->
    <title>twitter</title>
    <desc>Created with Sketch.</desc>
    <g id="Main" stroke="none" stroke-width="1" fill="none" fill-rule="evenodd">
        <g id="WhiteCapital_LandinPage" transform="translate(-342.000000, -5584.000000)" fill="#000000">
            <g id="08-Footer" transform="translate(121.000000, 5180.000000)">
                <g id="Group-3" transform="translate(221.000000, 402.000000)">
                    <g id="twitter" transform="translate(0.000000, 2.000000)">
                        <path d="M12.6952209,0.00332963374 L12.6952209,0 L13.5861136,0 L13.9116321,0.0632630411 C14.1286501,0.104334073 14.3256745,0.158157603 14.5027051,0.224750277 C14.6797529,0.291342952 14.8510784,0.369039956 15.0166817,0.457824639 C15.1823021,0.546609323 15.3325032,0.637075472 15.4672849,0.729189789 C15.6009188,0.820205327 15.7208467,0.916764706 15.8270685,1.01886792 C15.9321253,1.12208657 16.0960325,1.14872364 16.3187556,1.09877913 C16.5414788,1.04883463 16.7813345,0.979461709 17.0383228,0.890677026 C17.2953111,0.801892342 17.5494554,0.70200333 17.8007214,0.591009989 C18.0520045,0.480016648 18.2050667,0.40954495 18.2598909,0.379578246 C18.3135672,0.348512764 18.3421271,0.331864595 18.3455537,0.32963374 L18.348963,0.32463929 L18.3660956,0.316315205 L18.3832281,0.307991121 L18.4003607,0.299667037 L18.4174932,0.291342952 L18.4209197,0.286348502 L18.4260595,0.283018868 L18.4312164,0.279689234 L18.4346258,0.274694784 L18.4517583,0.269700333 L18.4688909,0.266370699 L18.4654815,0.291342952 L18.4603246,0.316315205 L18.4517583,0.341287458 L18.4431921,0.366259711 L18.4346258,0.38290788 L18.4260595,0.399556049 L18.4174932,0.424528302 C18.4117881,0.441176471 18.406083,0.463368479 18.4003607,0.491120977 C18.3946555,0.518873474 18.3403968,0.629850166 18.2376014,0.824084351 C18.1348061,1.01831853 18.006312,1.21531632 17.852119,1.41509434 C17.6979261,1.61487236 17.5597349,1.76580466 17.4375284,1.86792453 C17.314174,1.97114317 17.2325032,2.04327969 17.1925158,2.08435072 C17.1525455,2.12652053 17.104009,2.16536071 17.0468891,2.2008879 L16.9612263,2.25582686 L16.9440938,2.26415094 L16.9269612,2.27247503 L16.9235518,2.27746948 L16.918395,2.28079911 L16.9132552,2.28412875 L16.9098287,2.2891232 L16.8926961,2.29744728 L16.8755636,2.30577137 L16.8721542,2.31076582 L16.8669973,2.31409545 L16.8618575,2.31742508 L16.858431,2.32241953 L16.8550216,2.32741398 L16.8498647,2.33074362 L16.844725,2.33407325 L16.8412985,2.3390677 L16.9269612,2.3390677 L17.4066727,2.23917869 C17.726486,2.17258602 18.0320108,2.09212542 18.3232642,1.99778024 L18.7858431,1.84794673 L18.8372408,1.83129856 L18.8629396,1.82297447 L18.8800721,1.81465039 L18.8972047,1.8063263 L18.9143372,1.79800222 L18.9314698,1.78967814 L18.9657349,1.78468368 L19,1.78135405 L19,1.81465039 L18.9914337,1.81798002 L18.9828674,1.82297447 L18.9794581,1.82796892 L18.9743012,1.83129856 L18.9691614,1.83462819 L18.9657349,1.83962264 L18.9623255,1.84461709 L18.9571686,1.84794673 L18.9520289,1.85127636 L18.9486023,1.85627081 L18.945193,1.86126526 L18.9400361,1.86459489 L18.9314698,1.88124306 L18.9229035,1.89789123 L18.9177638,1.90122087 C18.9154851,1.9045505 18.842963,1.99887902 18.7001803,2.18423973 C18.5574148,2.37069922 18.4803183,2.46502775 18.4688909,2.4672586 C18.4574806,2.47058824 18.4414788,2.4872364 18.4209197,2.51720311 C18.4015086,2.54826859 18.2804328,2.67203108 18.0577096,2.88845727 C17.8349865,3.10488346 17.6168548,3.29743618 17.4032633,3.46614872 C17.188541,3.63596004 17.0800234,3.84461154 17.0777448,4.09211987 C17.0743183,4.33851276 17.0611776,4.61710322 17.0383228,4.92785794 C17.0154851,5.2386293 16.9726537,5.57435627 16.9098287,5.93507214 C16.8470207,6.29578801 16.7499306,6.70366815 16.6185753,7.15871254 C16.4872372,7.61375694 16.3273219,8.05771365 16.1388638,8.49056604 C15.9504058,8.92341842 15.7533814,9.31187014 15.5477908,9.65593785 C15.3422002,10.0000055 15.1537421,10.2913485 14.9824166,10.5299667 C14.8110911,10.7685849 14.6369216,10.9933352 14.4598738,11.2042175 C14.2828431,11.4150999 14.0589892,11.6526193 13.7882949,11.9167592 C13.5164527,12.1798002 13.367982,12.3240899 13.3428485,12.3496115 C13.3165843,12.3740344 13.2046573,12.4650499 13.0070334,12.6226415 C12.8105915,12.7813485 12.5992786,12.9400555 12.3731289,13.0987791 C12.1481271,13.2563873 11.9413886,13.3879079 11.7529306,13.4933407 C11.5644725,13.5987736 11.3371921,13.7191898 11.071055,13.854606 C10.806083,13.991121 10.5193868,14.1176471 10.2110009,14.2341842 C9.90261497,14.3507214 9.57709648,14.4589345 9.23444545,14.5588235 C8.89179441,14.6587125 8.56057078,14.7364095 8.24075744,14.7918979 C7.92096123,14.8473862 7.5583165,14.8945671 7.1528404,14.9334073 L6.54463481,14.9916759 L6.54463481,15 L5.43101894,15 L5.43101894,14.9916759 L5.28539225,14.9833518 C5.18831921,14.977808 5.10836159,14.9722475 5.04553652,14.9667037 C4.98272858,14.9611598 4.74571686,14.9306271 4.33453562,14.8751387 C3.92335437,14.8196504 3.60069702,14.7641454 3.36654644,14.708657 C3.13241298,14.6531687 2.78403968,14.5477192 2.32146078,14.3923418 C1.85888188,14.2369645 1.46311993,14.0799057 1.13417493,13.9211987 C0.806377818,13.7635905 0.600787196,13.6637014 0.517403066,13.6215316 C0.435166817,13.5804606 0.342651037,13.5294173 0.239855726,13.4683685 L0.0856627592,13.3768036 L0.0822533814,13.3718091 L0.0770964833,13.3684795 L0.0719567178,13.3651498 L0.0685302074,13.3601554 L0.0513976555,13.3518313 L0.0342651037,13.3435072 L0.0308557259,13.3385128 L0.0256988278,13.3351831 L0.0205590622,13.3318535 L0.0171325518,13.326859 L0.013723174,13.3218646 L0.00856627592,13.318535 L0,13.318535 L0,13.2852386 L0.0171325518,13.2885683 L0.0342651037,13.2935627 L0.111361587,13.3018868 C0.162759243,13.3074306 0.302680794,13.3157547 0.531109107,13.326859 C0.759554554,13.3379634 1.00225428,13.3379634 1.25924256,13.326859 C1.51623084,13.3157547 1.77894139,13.2907825 2.04733995,13.2519423 C2.31575564,13.2131021 2.63270784,13.1465094 2.99819657,13.0521643 C3.36370243,12.9578191 3.69950045,12.845727 4.00560775,12.7158713 C4.31056718,12.5849168 4.52756808,12.487242 4.65664472,12.4228635 C4.78455636,12.3596004 4.97986745,12.2419478 5.24256087,12.0699223 L5.63660956,11.8118757 L5.64003607,11.8068812 L5.64517583,11.8035516 L5.65033273,11.800222 L5.65374211,11.7952275 L5.65716862,11.7902331 L5.66230839,11.7869034 L5.66746528,11.7835738 L5.67087466,11.7785794 L5.68800721,11.7735849 L5.70513977,11.7702553 L5.70856628,11.7536071 L5.71370604,11.7369589 L5.71886294,11.7336293 L5.72227232,11.7286349 L5.5852119,11.7203108 C5.493844,11.7147669 5.40532011,11.7092064 5.31965735,11.7036626 C5.23399459,11.6981188 5.09979531,11.6731465 4.91704238,11.6287458 C4.73430658,11.5843452 4.53728224,11.5177525 4.32596934,11.4289678 C4.11467358,11.3401831 3.90908296,11.2347336 3.70919748,11.1126526 C3.50932913,10.9905716 3.36483318,10.8890011 3.27574391,10.8079911 C3.18780252,10.7280633 3.0735798,10.6148724 2.93309288,10.4683685 C2.79375383,10.3207658 2.67267809,10.1692508 2.56988278,10.0138735 C2.46708747,9.85849612 2.36886655,9.67922863 2.27522002,9.47613762 L2.13300271,9.17314095 L2.12443643,9.1481687 L2.11587015,9.12319645 L2.11073039,9.10654828 L2.10730388,9.08990011 L2.13300271,9.09322974 L2.15870153,9.0982242 L2.3471596,9.12319645 C2.47280974,9.13984462 2.66983408,9.14538846 2.93823264,9.13984462 C3.20664833,9.13430078 3.39224527,9.12319645 3.49504058,9.10654828 C3.59783589,9.08990011 3.66066096,9.07879578 3.68349865,9.07325194 L3.71776375,9.06492786 L3.76059513,9.05660377 L3.80342651,9.04827969 L3.80685302,9.04328524 L3.81199279,9.0399556 L3.81714968,9.03662597 L3.82055906,9.03163152 L3.78629396,9.02330744 L3.75202885,9.01498335 L3.71776375,9.00665927 L3.68349865,8.99833518 L3.64923354,8.9900111 C3.62639585,8.98446726 3.58642561,8.97336293 3.52930568,8.95671476 C3.47220289,8.94006659 3.31800992,8.87901776 3.06672678,8.77358491 C2.81546078,8.66815205 2.61557529,8.5654828 2.46708747,8.46559378 C2.31823155,8.36541523 2.17629781,8.2558571 2.04220018,8.13762486 C1.90856628,8.01775805 1.76180884,7.86347947 1.6018936,7.67480577 C1.44199549,7.48613208 1.29922994,7.26692564 1.1735798,7.01720311 C1.0479468,6.76748058 0.953717764,6.52886238 0.890892696,6.30133185 C0.828320261,6.07513972 0.787037969,5.84388845 0.767555455,5.61043285 L0.736699729,5.26082131 L0.753832281,5.26415094 L0.770964833,5.26914539 L0.788097385,5.27746948 L0.805229937,5.28579356 L0.822362489,5.29411765 L0.839495041,5.30244173 L1.10504959,5.41897891 C1.28209739,5.49667592 1.50195942,5.56326859 1.76465284,5.61875694 C2.02736339,5.67424528 2.18440036,5.70477802 2.23579802,5.71032186 L2.3128945,5.71864595 L2.46708747,5.71864595 L2.46367809,5.7136515 L2.45852119,5.71032186 L2.45338142,5.70699223 L2.44995491,5.70199778 L2.44654554,5.69700333 L2.44138864,5.6936737 L2.43624887,5.69034406 L2.43282236,5.68534961 L2.41568981,5.67702553 L2.39855726,5.66870144 L2.39514788,5.66370699 L2.38999098,5.66037736 L2.38485122,5.65704772 L2.38142471,5.65205327 L2.36429216,5.64372919 L2.3471596,5.63540511 L2.34375023,5.63041065 C2.34032372,5.6281798 2.29120469,5.59266926 2.19639315,5.52386238 C2.10272949,5.45394007 2.00450857,5.36349057 1.90171326,5.25249723 C1.79891794,5.14150388 1.69612263,5.0249667 1.59332732,4.90288568 C1.49034275,4.78052494 1.39861671,4.64961129 1.31920649,4.51165372 C1.23926601,4.37292453 1.15473399,4.19643729 1.06564472,3.98224195 C0.977703336,3.76914539 0.910886384,3.55438402 0.865193868,3.33795782 C0.819518485,3.12153163 0.793819657,2.90788568 0.788097385,2.69700333 C0.782392245,2.48612098 0.788097385,2.30577137 0.805229937,2.15593785 C0.822362489,2.00610433 0.856627592,1.8368424 0.908025248,1.6481687 C0.959422904,1.45949501 1.03367538,1.25971698 1.13074842,1.04883463 L1.27637511,0.732519423 L1.28494139,0.70754717 L1.29350766,0.682574917 L1.29866456,0.679245283 L1.30207394,0.674250832 L1.30550045,0.669256382 L1.31064022,0.665926748 L1.31579711,0.669256382 L1.31920649,0.674250832 L1.322633,0.679245283 L1.32777277,0.682574917 L1.33292967,0.68590455 L1.33633904,0.690899001 L1.33976555,0.695893452 L1.34490532,0.699223085 L1.3534716,0.715871254 L1.36203787,0.732519423 L1.36719477,0.735849057 L1.37060415,0.740843507 L1.6018936,0.990566038 C1.75608656,1.15704772 1.9388395,1.34295782 2.15013526,1.54827969 C2.36144815,1.75360155 2.47851488,1.86014983 2.50135257,1.86792453 C2.52420739,1.876798 2.55275023,1.90231964 2.58701533,1.9445061 C2.62128043,1.98557714 2.73550316,2.08380133 2.92966637,2.23917869 C3.12384671,2.39455605 3.37797385,2.57492231 3.69206492,2.78024417 C4.00617313,2.98556604 4.35452931,3.18812431 4.73715059,3.38790233 C5.119789,3.58768036 5.53097024,3.76802997 5.97069432,3.92896781 C6.41043553,4.08990566 6.71882146,4.19533851 6.89585212,4.24528302 C7.07289991,4.29522752 7.37556357,4.35903996 7.80387737,4.43673696 C8.23219116,4.51443396 8.55486564,4.56437847 8.77186655,4.58657048 C8.98888458,4.60876249 9.13737241,4.62153163 9.21731289,4.62486127 L9.33724076,4.6281909 L9.33383138,4.60321865 L9.32867448,4.57824639 L9.29440938,4.37014428 C9.27157169,4.23141509 9.26014427,4.03718091 9.26014427,3.78745838 C9.26014427,3.53773585 9.28013796,3.30744173 9.32010821,3.09655938 C9.36009558,2.88567703 9.42005951,2.67203108 9.5,2.45560488 C9.57995762,2.23917869 9.65820198,2.0654717 9.73471596,1.9345172 C9.81239495,1.80466149 9.91404238,1.65649279 10.0396754,1.4900111 C10.1653255,1.32352941 10.3280848,1.15150388 10.5279531,0.973917869 C10.7278386,0.796331853 10.9562669,0.638174251 11.2132552,0.499445061 C11.4702435,0.360715871 11.7072552,0.255266371 11.9242561,0.183129856 C12.1412741,0.110993341 12.3240271,0.0638124306 12.4724977,0.0416204218 C12.6209856,0.0194284129 12.6952209,0.00665926748 12.6952209,0.00332963374 Z" id="Path"></path>
                    </g>
                </g>
            </g>
        </g>
    </g>
</svg>