<?xml version="1.0" encoding="UTF-8"?>
<svg width="199px" height="45px" viewBox="0 0 199 45" version="1.1" xmlns="http://www.w3.org/2000/svg" xmlns:xlink="http://www.w3.org/1999/xlink">
    <!-- Generator: Sketch 54.1 (76490) - https://sketchapp.com -->
    <title>credit-suisse</title>
    <desc>Created with Sketch.</desc>
    <g id="Main" stroke="none" stroke-width="1" fill="none" fill-rule="evenodd">
        <g id="WhiteCapital_LandinPage" transform="translate(-1287.000000, -4812.000000)">
            <g id="06-Partners" transform="translate(405.000000, 4613.000000)">
                <g id="01" transform="translate(853.000000, 198.000000)">
                    <g id="credit-suisse">
                        <path d="M116.883025,28.4101479 L103.796673,28.4101479 L103.796673,31.3825352 L104.203081,31.3397923 L104.212891,31.290743 C104.300479,30.8514014 105.08737,30.0105563 106.056444,30.0105563 L108.979081,30.0105563 L108.980482,45.2620845 L111.835852,45.2620845 L111.819035,30.0217676 L114.80894,30.0217676 C115.796232,30.0217676 116.443683,30.563412 116.553694,31.0728239 L116.566306,31.1281796 L116.980423,31.1155669 L116.952394,28.4101479 L116.883025,28.4101479 L116.883025,28.4101479 Z M31.9786937,27.3878204 L32.027743,27.4354683 L31.9786937,27.3878204 C30.0853908,29.3567993 29,32.0545106 29,34.7935634 C29,37.8409261 30.2290352,40.6115106 32.4621796,42.5945035 C34.5951232,44.4892077 37.4469894,45.5318556 40.4929507,45.5318556 C42.0884542,45.5318556 45.2170986,45.2599824 48.2357324,43.4423556 L48.35275,43.3715845 L48.7122113,39.0804718 L48.1481444,39.0075986 L48.0647606,39.1827746 C45.8484331,43.8172324 42.3589261,43.8172324 41.0451056,43.8172324 C35.1605915,43.8172324 32.4796972,38.9361268 32.4796972,34.401169 C32.4796972,30.0147606 35.1346655,25.5877113 41.0661268,25.5877113 C42.8851549,25.5877113 46.1924789,26.1833099 47.9134085,30.1612077 L48.0087042,30.3812289 L48.5622606,30.2116585 L48.2006972,25.7390634 L48.0535493,25.6752993 C45.2892711,24.4693873 43.0596303,23.9333486 40.8250845,23.9333486 C37.2136549,23.9333486 34.1543803,25.1280493 31.9786937,27.3878204 L31.9786937,27.3878204 Z M51.5255387,28.4080458 L51.4554683,28.4080458 L51.4603732,28.7976373 L51.4961092,28.8158556 C51.7350493,28.9433838 52.0020176,29.5915352 52.0020176,30.3188662 L52.0013169,45.2613838 L54.8048345,45.2613838 L54.7936232,37.5830669 L56.0198556,37.6145986 C57.1213627,37.6762606 57.5557993,38.4056937 58.1065528,39.3292218 L58.1752218,39.4434366 L58.5276761,40.0383345 C59.1267782,41.0494507 59.9480035,42.4368451 60.8014613,43.7030176 C61.4145775,44.6146338 62.1804472,45.1380599 63.1418134,45.3041268 C63.8278028,45.4232465 65.1976796,45.377 65.7133979,45.2186408 L66.3307183,45.0581796 L66.5647535,44.997919 L65.7133979,44.7351549 C65.3700528,44.6300493 64.8291092,44.3925106 64.1017782,43.5523662 C63.6512254,43.0324437 62.922493,41.8699754 61.8195845,40.1091056 L60.7264859,38.3699577 L60.7054648,38.3391268 C60.4132711,37.9123979 59.9241796,37.2194014 59.1022535,36.7793592 C60.6809401,36.2629401 62.2308979,34.8243944 62.2308979,32.6809401 C62.2308979,32.0734296 62.0746408,30.9060563 61.0312923,29.9173627 C59.9732289,28.9139542 58.3251725,28.4066444 56.1319683,28.4066444 L51.5255387,28.4080458 L51.5255387,28.4080458 Z M56.3218592,29.9271725 C59.1975493,30.0483944 59.2802324,32.4805387 59.2802324,32.7559155 C59.2802324,35.2027746 57.4731162,36.0709472 55.9259613,36.0709472 L54.8020317,36.0471232 L54.8020317,29.9530986 C55.3076467,29.9136519 55.8151929,29.9049939 56.3218592,29.9271725 L56.3218592,29.9271725 Z M80.2109683,28.4080458 L80.1331901,28.4080458 L80.185743,28.8256655 L80.2186761,28.8417817 C80.4632218,28.9637042 80.6937535,29.5670106 80.6937535,30.0834296 L80.6769366,45.2606831 L85.4816655,45.2606831 C88.6537535,45.2606831 91.2792923,44.2733908 93.0737958,42.4074155 C94.5734847,40.8334757 95.4128133,38.7445581 95.4190528,36.5705493 C95.4190528,35.265838 94.9790106,33.294757 93.743669,31.6789331 C92.0872042,29.5088521 89.4609648,28.4087465 85.9364225,28.4087465 L80.2109683,28.4080458 L80.2109683,28.4080458 Z M83.5337077,30.0252711 L85.037419,30.0294754 C85.4375211,30.035081 86.4479366,30.0596056 87.15775,30.1668134 C91.8783944,30.8822324 92.3878063,34.8832535 92.3878063,36.57125 C92.3878063,37.9537394 92.1411585,39.9206162 90.9674789,41.4425458 C89.8162218,42.9364472 88.0112077,43.6932077 85.6014859,43.6932077 C85.0269085,43.6932077 84.3121901,43.6918063 83.533007,43.6553697 L83.5337077,30.0252711 Z M101.222986,28.4080458 L97.9296761,28.4080458 L97.9408873,28.8158556 L97.9780246,28.8347746 C98.2814296,28.9854261 98.4776268,29.5333768 98.4776268,30.2298768 L98.4769261,45.2599824 L101.288151,45.2599824 L101.292356,28.4066444 L101.222986,28.4080458 L101.222986,28.4080458 Z M157.848996,28.4080458 L154.535366,28.4080458 L154.568299,28.7871268 L154.602634,28.8046444 C154.901134,28.9538944 155.102236,29.525669 155.102236,30.2298768 L155.102236,45.2599824 L157.913461,45.2599824 L157.917665,28.4066444 L157.848996,28.4080458 L157.848996,28.4080458 Z M76.5778169,28.4080458 L67.1561479,28.4080458 L67.2094014,28.803243 L67.2416338,28.8186585 C67.4987923,28.9461866 67.7650599,29.5417852 67.7650599,30.3174648 L67.7636585,45.2599824 L77.1734155,45.2599824 L77.8573028,42.273581 L77.4782218,42.1376444 L77.3717148,42.3037113 C76.5932324,43.5278415 75.802838,43.6904049 73.0728944,43.6904049 C72.1003169,43.7100246 71.1515634,43.6252394 70.5573662,43.5698838 L70.5573662,36.6931725 L75.31725,36.6931725 L75.31725,35.1740458 L70.5573662,35.1733451 L70.5573662,29.9306761 L74.4161444,29.9748204 C75.2857183,29.9748204 76.2414789,30.807257 76.3255634,31.3089613 L76.3360739,31.3678204 L76.7214613,31.3587113 L76.6457852,28.405243 L76.5778169,28.405243 L76.5778169,28.4080458 L76.5778169,28.4080458 Z M197.029574,28.4080458 L187.638736,28.4080458 L187.657655,28.8389789 L187.694792,28.8557958 C187.947746,28.9833239 188.217518,29.5389824 188.217518,30.3174648 L188.216116,45.2599824 L197.625173,45.2599824 L198.310461,42.2707782 L197.885835,42.1390458 L197.780729,42.3037113 C197.002246,43.5278415 196.220261,43.6904049 193.527454,43.6904049 C192.554176,43.7100246 191.606123,43.6252394 191.011926,43.5698838 L191.011926,36.6931725 L195.77181,36.6931725 L195.77181,35.1740458 L191.011926,35.1733451 L191.011926,29.9306761 L194.871405,29.9748204 C195.936475,29.9748204 196.73668,30.7862359 196.73668,31.3131655 L196.73668,31.3860387 L197.17462,31.3573099 L197.099644,28.4066444 L197.029574,28.4080458 L197.029574,28.4080458 Z M125.072155,25.2569789 C124.080658,25.9702958 122.894366,27.279912 122.871243,29.4794225 L122.871243,29.5438873 C122.871243,32.2479049 124.594275,33.6689331 127.370465,35.0766479 L127.360655,35.0493204 C127.432127,35.1081796 127.67387,35.2329049 128.427827,35.6168908 C130.746458,36.7807606 132.421141,37.6223063 132.421141,39.9885845 C132.421141,40.8007007 132.113532,41.9715775 131.255169,42.8222324 C130.53975,43.5306444 129.577683,43.8837993 128.396296,43.8711866 C124.857039,43.8340493 123.60418,40.7320317 123.230004,39.3978908 L123.165539,39.1673592 L122.570641,39.2661585 L122.735306,43.6707852 L122.863535,43.7436585 C123.99307,44.400919 125.88357,45.4996232 128.590391,45.5269507 C130.508218,45.5458697 132.452673,44.7652852 133.792419,43.4388521 C134.969602,42.2742817 135.590426,40.7978979 135.590426,39.1708627 C135.590426,35.5972711 133.031454,34.2568239 130.317627,32.8364965 L129.808215,32.5688275 C127.029923,31.1737254 125.722408,30.3244718 125.740627,28.5727113 C125.753239,27.3829155 126.64944,25.5015246 129.002405,25.5253486 C131.737954,25.5526761 133.249373,27.6120458 133.557683,28.9013415 L133.613739,29.1353768 L134.203032,29.0597007 L134.00193,25.247169 L133.89262,25.1728944 C132.271891,24.0804965 130.239849,23.9445599 129.440345,23.9368521 C127.855352,23.9207359 126.261951,24.401419 125.072155,25.2569789 L125.072155,25.2569789 Z M162.386757,32.6697289 C162.363634,35.0044754 163.765042,36.1872641 166.035324,37.3392218 L166.892285,37.7750599 C168.679782,38.6733627 169.86187,39.2661585 169.86187,40.9443451 C169.86187,41.2372394 169.801609,42.2532606 169.021725,43.0261373 C168.481482,43.5614754 167.731028,43.827743 166.794887,43.8179331 C164.113993,43.7913063 163.130204,41.7060106 162.781254,40.4657641 L162.715387,40.2345317 L162.146415,40.3284261 L162.278849,43.8781937 L162.407778,43.9510669 C163.301176,44.4709894 164.795778,45.3398627 166.945539,45.3629859 C168.470271,45.3784014 170.016725,44.7582782 171.081796,43.7016162 C172.019338,42.7738838 172.514736,41.5981021 172.514736,40.3003979 C172.514736,37.3490317 170.472884,36.2804577 168.311912,35.147419 L167.930028,34.9470176 C165.608595,33.7810458 164.798581,33.2576197 164.811894,31.956412 C164.820303,31.0426937 165.504891,29.6924366 167.351947,29.7106549 C169.610317,29.7330775 170.596908,31.3671197 170.803616,32.2289859 L170.858271,32.4637218 L171.427243,32.3901479 L171.26468,29.3070493 L171.153968,29.2334754 C169.864673,28.3646021 168.252352,28.255993 167.617514,28.251088 C165.103387,28.2237606 162.416887,29.7653099 162.386757,32.6697289 L162.386757,32.6697289 Z M175.005039,32.6697289 C174.981915,35.0037746 176.383324,36.1872641 178.655007,37.3399225 L179.510567,37.7750599 C181.299465,38.6733627 182.480151,39.2668592 182.480151,40.9443451 C182.480151,41.2372394 182.418489,42.2532606 181.640007,43.0261373 C181.099764,43.5614754 180.34931,43.827743 179.413169,43.8179331 C176.733676,43.7913063 175.748486,41.7060106 175.400236,40.4657641 L175.333669,40.2345317 L174.764697,40.3284261 L174.89713,43.877493 L175.02606,43.9510669 C175.919458,44.4709894 177.415461,45.3398627 179.56382,45.3629859 C181.089254,45.3784014 182.635007,44.7582782 183.700077,43.7016162 C184.63832,42.7738838 185.133718,41.5981021 185.133718,40.3003979 C185.133718,37.3490317 183.093268,36.2804577 180.930894,35.147419 L180.549011,34.9470176 C178.227577,33.7817465 177.416863,33.2576197 177.430176,31.956412 C177.443656,31.3631648 177.687113,30.7983643 178.109158,30.3812289 C178.562514,29.9341796 179.207863,29.7022465 179.97163,29.7106549 C182.230701,29.7330775 183.21519,31.3671197 183.420496,32.2296866 L183.477954,32.4637218 L184.045525,32.3901479 L183.882961,29.3070493 L183.77225,29.2334754 C182.482954,28.3646021 180.869232,28.255993 180.237197,28.251088 C177.72307,28.2237606 175.035169,29.7653099 175.005039,32.6697289 L175.005039,32.6697289 Z M150.856669,28.3940317 L148.642444,28.4087465 L148.67818,28.7878275 L148.712514,28.8046444 C148.823225,28.86 149.187592,29.1241655 149.187592,30.1892359 L149.200905,39.7685634 C149.200905,41.6240282 148.51982,43.8375528 145.277662,43.8375528 C142.214884,43.8375528 141.586352,42.005912 141.586352,39.2549472 L141.589155,28.4087465 L138.085634,28.4087465 L138.11156,28.7843239 L138.144493,28.8018415 C138.368718,28.9202606 138.746398,29.3652077 138.746398,30.2754225 L138.746398,39.2542465 C138.746398,44.8318521 142.412482,45.4772007 145.171856,45.4772007 C146.518609,45.4772007 150.914127,45.0686901 150.914127,39.8099049 L150.926739,28.393331 L150.856669,28.3940317 Z M221.212979,23.5942077 C223.19457,24.2304472 225.296683,25.1231444 227.501799,26.3549824 C222.088859,17.4132958 212.405127,7.67490845 202.904278,1.3643662 C205.35394,3.78880282 209.328335,9.1260669 210.35907,14.849419 C214.251482,17.6228063 217.924574,20.5741725 221.212979,23.5942077 L221.212979,23.5942077 Z M221.206673,23.5907042 C216.563106,22.0968028 212.605528,22.0225282 209.668176,22.3245317 C210.701715,19.9021972 210.80682,17.3467289 210.361873,14.8620317 C203.171246,9.7391831 195.246282,5.2126338 187.626123,1.98098592 C193.217743,5.76689085 199.381838,16.6880669 201.968838,28.4031408 C207.479877,26.7712007 215.968208,25.645169 226.909704,29.3273697 C225.188775,27.4067394 223.273049,25.4854085 221.206673,23.5907042 Z" id="Shape" fill="#000000" fill-rule="nonzero"></path>
                        <path d="M210.35907,14.8501197 C210.808222,17.3383204 210.702415,19.897993 209.668176,22.3252324 C212.606229,22.0218275 216.56731,22.0975035 221.21368,23.5942077 C217.924574,20.5741725 214.251482,17.6228063 210.35907,14.8501197 Z" id="Path"></path>
                    </g>
                </g>
            </g>
        </g>
    </g>
</svg>