<?xml version="1.0" encoding="UTF-8"?>
<svg width="454px" height="360px" viewBox="0 0 454 360" version="1.1" xmlns="http://www.w3.org/2000/svg" xmlns:xlink="http://www.w3.org/1999/xlink">
    <!-- Generator: Sketch 54.1 (76490) - https://sketchapp.com -->
    <title>Illustration</title>
    <desc>Created with Sketch.</desc>
    <defs>
        <linearGradient x1="14.7766821%" y1="21.2083987%" x2="81.0332314%" y2="88.0923981%" id="linearGradient-1">
            <stop stop-color="#796CE7" offset="0%"></stop>
            <stop stop-color="#8670B1" offset="100%"></stop>
        </linearGradient>
        <linearGradient x1="12.771811%" y1="33.9049905%" x2="82.7996075%" y2="71.2943179%" id="linearGradient-2">
            <stop stop-color="#796CE7" offset="0%"></stop>
            <stop stop-color="#8670B1" offset="100%"></stop>
        </linearGradient>
    </defs>
    <g id="Main" stroke="none" stroke-width="1" fill="none" fill-rule="evenodd">
        <g id="WhiteCapital_Elements" transform="translate(-1563.000000, -271.000000)" fill-rule="nonzero">
            <g id="Illustration" transform="translate(1563.000000, 271.000000)">
                <path d="M197.422012,22.8064869 C182.995991,18.3294461 168.569971,13.8524052 153.646501,13.8524052 C125.789359,13.8524052 99.4245627,30.2682216 83.0087464,53.1508746 C66.59293,75.5360787 58.6337464,103.890671 56.1465015,131.747813 C53.6592566,156.620262 55.1516035,182.487609 64.6031341,205.867711 C74.0546647,229.247813 91.465379,249.643222 114.348032,259.094752 C130.266399,265.561589 147.677114,266.556487 163.098032,274.515671 C187.473032,286.951895 199.909257,314.809038 221.299563,331.722303 C243.187318,349.630466 275.024052,355.599854 301.886297,346.645773 C331.235787,337.194242 353.620991,311.326895 366.057216,282.972303 C378.49344,254.120262 381.478134,222.780977 382.473032,191.441691 C383.965379,154.630466 380.980685,113.83965 356.108236,86.4799563 C337.702624,67.0794461 310.840379,58.1253644 285.470481,50.1661808 C255.623542,40.7146501 226.771501,31.7605685 197.422012,22.8064869 Z" id="Path" fill="url(#linearGradient-1)" opacity="0.2"></path>
                <path d="M37.8679162,308.055728 L32.1631073,304.061178 C31.3481346,303.490528 30.1256756,302.634553 29.5960279,301.656417 C29.1885415,301.371092 29.0663802,300.67828 29.6370302,299.863308 C29.9223552,299.455821 30.6151666,299.33366 31.4301393,299.90431 C32.245112,300.47496 33.467571,301.330935 33.9972187,302.309071 L39.7020276,306.303622 C40.109514,306.588947 40.2316753,307.281758 39.9463503,307.689244 C39.3757003,308.504217 38.6828889,308.626378 37.8679162,308.055728 Z M46.3029682,313.354742 C45.8954818,313.069417 45.7733205,312.376606 46.0586455,311.96912 C46.3439705,311.561633 47.3221069,311.031985 47.7295932,311.31731 C50.4598364,312.621774 53.5975658,314.211563 56.7352953,315.801352 C57.1427816,316.086677 57.6724293,317.064813 57.3871043,317.472299 C57.1017793,317.879786 56.1236429,318.409433 55.7161565,318.124108 C52.5784271,316.53432 49.4406976,314.944531 46.3029682,313.354742 Z M22.9950873,294.605296 L22.9950873,294.605296 C20.7133329,291.793048 18.1462535,289.388287 16.5573104,286.453878 C16.1498241,286.168553 16.3129878,285.068255 16.5983128,284.660769 C16.8836378,284.253282 17.9839355,284.416446 18.3914218,284.701771 C20.2656899,287.228694 22.5474443,290.040942 24.4217124,292.567864 C24.8291987,292.853189 24.6660351,293.953487 24.38071,294.360973 C23.81006,295.175946 23.4025737,294.890621 22.9950873,294.605296 Z M64.4775359,321.222527 C64.0700495,320.937202 63.9478882,320.244391 64.2332132,319.836904 C64.5185382,319.429418 65.0891882,318.614445 65.9041609,319.185095 C68.9197291,320.082073 72.3427835,321.264375 75.3583516,322.161352 C76.051163,322.039191 76.5808107,323.017327 76.2954857,323.424814 C76.0101607,323.8323 75.4395106,324.647273 75.0320243,324.361948 C71.3236448,323.587132 67.9005903,322.404829 64.4775359,321.222527 C64.8850222,321.507852 64.4775359,321.222527 64.4775359,321.222527 Z M11.2198312,278.465623 L10.8123449,278.180298 C9.22340184,275.245889 7.63445879,272.31148 6.33084075,268.969584 C6.20867942,268.276773 6.49400443,267.869287 6.77932944,267.4618 C7.4721408,267.339639 7.87962715,267.624964 8.2871135,267.910289 C9.18324519,270.966859 10.7721882,273.901269 12.3611313,276.835678 C12.4832926,277.528489 12.605454,278.2213 11.9126426,278.343462 C12.0348039,279.036273 11.6273176,278.750948 11.2198312,278.465623 Z M83.549081,326.074744 C83.1415946,325.789419 83.0194333,325.096607 83.0194333,325.096607 C82.8972719,324.403796 83.8754083,323.874148 84.2828947,324.159473 L94.1855741,325.627946 C94.8783854,325.505785 95.4080331,326.483921 95.1227081,326.891408 C95.2448694,327.584219 94.266733,328.113867 93.8592467,327.828542 L83.9565673,326.360069 C83.9565673,326.360069 83.9565673,326.360069 83.549081,326.074744 Z M4.04993203,260.085198 C3.64244568,259.799873 3.64244568,259.799873 3.52028434,259.107062 C2.62415265,256.050491 2.01334598,252.586434 1.4025393,249.122377 C1.28037796,248.429566 1.85102799,247.614593 2.54383935,247.492432 C3.23665071,247.370271 4.05162341,247.940921 4.17378474,248.633732 C4.37710507,251.812464 5.27323676,254.869034 5.88404344,258.333091 C6.00620478,259.025903 5.72087976,259.433389 4.74274339,259.963037 C4.45741838,260.370523 4.45741838,260.370523 4.04993203,260.085198 Z M103.517603,327.911392 C103.110117,327.626067 102.702631,327.340742 102.987956,326.933256 C102.865794,326.240444 103.843931,325.710797 104.251417,325.996122 C107.144824,326.200288 110.731042,326.282292 113.909774,326.078972 C114.602585,325.956811 115.417558,326.527461 114.846908,327.342433 C114.969069,328.035245 114.398419,328.850217 113.583446,328.279567 C110.404715,328.482888 106.818497,328.400883 103.517603,327.911392 C103.92509,328.196717 103.92509,328.196717 103.517603,327.911392 Z M123.527128,327.954931 C123.119642,327.669606 123.119642,327.669606 122.997481,326.976795 C122.875319,326.283984 123.445969,325.469011 124.138781,325.34685 C127.317512,325.143529 130.496244,324.940209 133.960301,324.329402 C134.653112,324.207241 135.468085,324.777891 135.590246,325.470702 C135.712408,326.163514 135.141758,326.978486 134.448946,327.100648 C130.98489,327.711454 127.806158,327.914775 124.627426,328.118095 C123.934615,328.240256 123.527128,327.954931 123.527128,327.954931 Z M1.32222599,240.564318 C0.914739645,240.278993 0.507253296,239.993668 0.792578309,239.586182 C0.874582993,235.999964 1.36407403,232.699071 1.85356506,229.398178 C1.73140372,228.705366 2.7095401,228.175719 3.11702644,228.461044 C3.80983781,228.338882 4.33948549,229.317019 4.05416048,229.724505 C3.56466945,233.025398 3.07517841,236.326291 3.27849874,239.505023 C3.40066008,240.197834 2.4225237,240.727482 2.01503736,240.442157 C1.72971234,240.849643 1.72971234,240.849643 1.32222599,240.564318 Z M143.170169,325.920037 C142.762683,325.634712 142.762683,325.634712 142.640521,324.9419 C142.51836,324.249089 143.08901,323.434116 143.781821,323.311955 C147.245878,322.701148 150.42461,322.497828 153.48118,321.601696 C154.173992,321.479535 154.988965,322.050185 155.111126,322.742996 C155.233287,323.435808 154.662637,324.25078 153.969826,324.372942 C150.505769,324.983748 147.327037,325.187069 144.270467,326.0832 C143.577655,326.205362 143.170169,325.920037 143.170169,325.920037 Z M4.66665854,221.044285 C4.25917219,220.75896 4.13701085,220.066148 4.42233586,219.658662 L4.58549954,218.558364 C5.48247692,215.542796 6.78694065,212.812553 7.80607937,210.489796 C8.09140438,210.08231 9.06954076,209.552662 9.4770271,209.837987 C9.88451345,210.123312 10.4141611,211.101449 10.1288361,211.508935 C8.82437239,214.239178 7.80523368,216.561935 6.9082563,219.577503 L6.74509262,220.677801 C6.45976761,221.085287 5.76695625,221.207448 4.66665854,221.044285 Z M162.568887,322.499519 C162.161401,322.214194 162.161401,322.214194 162.039239,321.521383 C161.917078,320.828572 162.487728,320.013599 163.18054,319.891438 C166.644596,319.280631 169.701167,318.384499 172.879899,318.181179 C173.57271,318.059018 174.387683,318.629668 174.509844,319.322479 C174.632005,320.01529 174.061355,320.830263 173.368544,320.952424 C169.904487,321.563231 166.847917,322.459363 163.669185,322.662683 C163.38386,323.070169 162.976373,322.784844 162.568887,322.499519 Z M13.349416,203.440367 C12.9419296,203.155042 12.8197683,202.462231 13.1050933,202.054744 L13.6757433,201.239772 C15.3876934,198.794854 17.0996435,196.349935 19.2190799,194.190342 C19.5044049,193.782856 20.4825413,193.253208 21.012189,194.231345 C21.4196753,194.51667 21.5418366,195.209481 20.9711866,196.024454 C18.8517502,198.184047 17.1398001,200.628965 15.42785,203.073883 L14.8572,203.888856 C14.7350387,203.196044 13.7569023,203.725692 13.349416,203.440367 Z M182.25293,318.671516 C181.845444,318.386191 181.845444,318.386191 181.723283,317.693379 C181.601121,317.000568 182.171771,316.185595 182.864583,316.063434 L192.563942,314.353175 C193.256753,314.231014 194.071726,314.801664 194.193887,315.494475 C194.316048,316.187287 193.745398,317.002259 193.052587,317.124421 L183.353228,318.834679 C183.067903,319.242166 182.660417,318.956841 182.25293,318.671516 Z M201.651648,315.250998 C201.244162,314.965673 201.244162,314.965673 201.122001,314.272862 C200.999839,313.58005 201.570489,312.765078 202.263301,312.642916 C205.727358,312.03211 208.906089,311.828789 212.370146,311.217983 C213.062958,311.095821 213.87793,311.666471 214.000092,312.359283 C214.122253,313.052094 213.551603,313.867067 212.858792,313.989228 C209.68006,314.192549 206.216003,314.803355 203.159432,315.699487 C202.466621,315.821648 202.059135,315.536323 201.651648,315.250998 Z M26.3923619,188.282213 C25.5773892,187.711563 25.7405528,186.611265 26.4333642,186.489104 C28.5528006,184.329511 31.3650484,182.047757 33.8919712,180.173489 C34.1772962,179.766002 35.2775939,179.929166 35.6850803,180.214491 C36.0925666,180.499816 35.9294029,181.600114 35.6440779,182.0076 C33.1171551,183.881868 30.3049074,186.163622 28.1854709,188.323215 C27.4926596,188.445377 26.7998482,188.567538 26.3923619,188.282213 Z M221.580014,312.808617 C221.172528,312.523292 221.172528,312.523292 221.050367,311.830481 C220.928205,311.137669 221.498855,310.322697 222.191667,310.200535 C225.370398,309.997215 228.834455,309.386408 232.420673,309.468413 C233.113485,309.346252 233.928457,309.916902 234.050619,310.609713 C234.17278,311.302525 233.60213,312.117497 232.909319,312.239659 L223.373123,312.84962 C221.987501,313.093942 221.580014,312.808617 221.580014,312.808617 Z M42.1245485,176.221632 L42.1245485,176.221632 C41.5949009,175.243496 41.4727395,174.550684 42.1655509,174.428523 C44.6924737,172.554255 47.6268828,170.965312 50.8466169,168.968882 C51.5394283,168.846721 52.2322396,168.72456 52.354401,169.417371 C52.4765623,170.110183 52.5987236,170.802994 51.9059123,170.925155 C48.9715032,172.514098 46.4445804,174.388366 43.5101713,175.977309 C43.2248462,176.384796 42.5320349,176.506957 42.1245485,176.221632 Z M241.467378,312.159345 C241.059891,311.87402 240.652405,311.588695 240.93773,311.181209 C240.815569,310.488398 241.793705,309.95875 242.201191,310.244075 C245.78741,310.32608 248.680816,310.530246 252.267034,310.61225 C252.959846,310.490089 253.489493,311.468225 253.204168,311.875712 C253.32633,312.568523 252.348193,313.098171 251.940707,312.812846 C248.639814,312.323355 245.461082,312.526675 242.160189,312.037184 C241.874864,312.44467 241.467378,312.159345 241.467378,312.159345 Z M261.843386,314.281319 L262.169714,312.080723 C265.470607,312.570214 268.486175,313.467192 272.194555,314.242008 C272.602041,314.527333 273.417014,315.097983 272.846364,315.912956 C272.561039,316.320442 271.990389,317.135415 271.175416,316.564765 C267.752361,315.382462 264.451468,314.892971 261.843386,314.281319 Z M59.2013556,165.709837 L58.7938692,165.424512 C58.6717079,164.731701 58.5495466,164.03889 59.2423579,163.916728 L60.2204943,163.387081 C62.1767671,162.327785 64.4183648,160.861004 66.7821239,160.087033 L68.0455853,159.149899 C68.7383967,159.027738 69.431208,158.905576 69.5533694,159.598388 C69.6755307,160.291199 69.797692,160.984011 69.1048807,161.106172 L67.8414193,162.043306 C65.8851465,163.102601 63.2360624,164.284058 61.2797897,165.343353 L60.3016533,165.873001 C60.0163283,166.280487 59.6088419,165.995162 59.2013556,165.709837 Z M280.22212,319.255697 C279.814634,318.970372 279.692473,318.27756 279.977798,317.870074 C280.263123,317.462588 280.833773,316.647615 281.648745,317.218265 C284.664313,318.115242 288.087368,319.297545 290.817611,320.602008 C291.225097,320.887333 292.04007,321.457983 291.46942,322.272956 C291.184095,322.680443 290.613445,323.495415 289.798472,322.924765 C286.660743,321.334976 283.645175,320.437999 280.22212,319.255697 Z M298.559852,326.023184 C298.152365,325.737859 298.030204,325.045047 298.315529,324.637561 C298.600854,324.230075 299.57899,323.700427 299.986477,323.985752 L309.155342,327.369495 C309.562829,327.65482 310.092476,328.632957 309.807151,329.040443 C309.521826,329.44793 308.54369,329.977577 308.136204,329.692252 L298.559852,326.023184 C298.967338,326.308509 298.967338,326.308509 298.559852,326.023184 Z M317.019744,333.483482 C316.612258,333.198157 316.490097,332.505346 316.775422,332.097859 C317.060747,331.690373 317.631397,330.8754 318.446369,331.44605 C321.461937,332.343028 324.599667,333.932816 327.615235,334.829794 C328.022721,335.115119 328.837694,335.685769 328.267044,336.500742 C327.981719,336.908228 327.411069,337.723201 326.596096,337.152551 C323.865853,335.848087 320.442799,334.665784 317.019744,333.483482 C317.427231,333.768807 317.427231,333.768807 317.019744,333.483482 Z M336.050287,340.128808 C335.642801,339.843483 335.520639,339.150671 335.805964,338.743185 C336.091289,338.335699 336.661939,337.520726 337.476912,338.091376 C338.57721,338.25454 338.984696,338.539865 340.084994,338.703028 C342.693076,339.314681 344.608346,340.048494 347.216428,340.660147 C347.909239,340.537985 348.438887,341.516122 348.153562,341.923608 C348.275723,342.61642 347.297587,343.146067 346.8901,342.860742 C344.282019,342.24909 342.081423,341.922763 339.758666,340.903624 C337.965557,340.862621 337.150585,340.291971 336.050287,340.128808 Z M76.5224853,156.583665 L76.114999,156.29834 C75.9928376,155.605529 75.8706763,154.912718 76.5634877,154.790556 L85.366715,150.023727 C86.0595264,149.901566 86.7523378,149.779404 86.8744991,150.472216 C86.9966604,151.165027 87.1188218,151.857839 86.4260104,151.98 L77.622783,156.746829 C77.622783,156.746829 76.9299717,156.86899 76.5224853,156.583665 Z M355.407157,344.573538 C354.999671,344.288213 354.877509,343.595402 354.877509,343.595402 C354.755348,342.90259 355.733484,342.372943 356.140971,342.658268 C359.441864,343.147759 362.742757,343.63725 365.921489,343.433929 C366.6143,343.311768 367.143948,344.289904 366.858623,344.697391 C366.980784,345.390202 366.002648,345.91985 365.595162,345.634525 C362.294268,345.145034 358.70805,345.063029 355.407157,344.573538 Z M375.253518,345.717375 C374.846032,345.43205 374.438546,345.146725 374.723871,344.739239 C374.601709,344.046427 375.172359,343.231455 375.987332,343.802105 C379.166064,343.598784 382.752282,343.680789 385.523527,343.192144 C386.216339,343.069982 387.031311,343.640632 387.153473,344.333444 C387.275634,345.026255 386.704984,345.841228 386.012173,345.963389 C382.833441,346.166709 379.369384,346.777516 375.783166,346.695511 C375.661005,346.0027 375.253518,345.717375 375.253518,345.717375 Z M93.5992924,146.071871 C93.0696447,145.093734 92.9474834,144.400923 93.6402947,144.278762 C96.4525425,141.997007 98.9794653,140.122739 101.506388,138.248471 C101.791713,137.840985 102.892011,138.004148 103.299497,138.289473 C103.706983,138.574798 103.54382,139.675096 103.258495,140.082583 C100.731572,141.956851 98.3268106,144.52393 95.3924015,146.112873 C94.4142651,146.642521 94.0067787,146.357196 93.5992924,146.071871 Z M394.774398,342.989669 C394.366911,342.704344 394.366911,342.704344 394.24475,342.011533 C394.122589,341.318721 394.407914,340.911235 395.38605,340.381587 L404.555761,337.693192 C405.248573,337.571031 405.656059,337.856356 406.063545,338.141681 C406.185707,338.834492 405.900382,339.241979 405.615057,339.649465 C402.558486,340.545597 399.216591,341.849215 396.16002,342.745346 C395.58937,343.560319 395.181884,343.274994 394.774398,342.989669 Z M108.516506,133.44064 L108.516506,133.44064 C107.701534,132.86999 107.579372,132.177178 108.557509,131.647531 L110.840109,128.38764 C111.981409,126.757694 112.837384,125.535235 113.571198,123.619965 C113.856523,123.212479 114.834659,122.682831 115.242145,122.968156 C115.649632,123.253481 116.179279,124.231617 115.893954,124.639104 C114.752654,126.269049 114.018841,128.184319 113.162866,129.406778 L110.59494,133.074156 C109.616804,133.603803 108.923993,133.725965 108.516506,133.44064 Z M413.562309,336.105095 L413.154823,335.81977 C413.032661,335.126958 412.9105,334.434147 413.603311,334.311986 C416.537721,332.723043 419.064643,330.848775 421.591566,328.974507 C421.876891,328.56702 422.977189,328.730184 423.384675,329.015509 C423.792162,329.300834 423.628998,330.401132 423.343673,330.808618 C420.81675,332.682886 417.597016,334.679315 414.662607,336.268259 C413.969795,336.39042 413.562309,336.105095 413.562309,336.105095 Z M118.299561,115.999886 C117.892075,115.714561 117.769914,115.021749 118.055239,114.614263 C119.359703,111.88402 120.25668,108.868452 121.438982,105.445397 C121.724307,105.037911 122.294957,104.222938 123.10993,104.793588 C123.517416,105.078913 124.332389,105.649563 123.761739,106.464536 C122.579437,109.88759 121.682459,112.903158 120.785482,115.918727 C120.092671,116.040888 119.114534,116.570536 118.299561,115.999886 Z M429.009171,324.452 C428.194198,323.88135 428.357362,322.781052 429.050173,322.658891 C429.620823,321.843918 429.906148,321.436432 430.884285,320.906784 C432.718396,319.154678 434.145021,317.117246 435.571646,315.079814 C435.856971,314.672328 436.549782,314.550166 436.957269,314.835491 C437.364755,315.120816 437.486917,315.813628 436.916266,316.628601 C435.489641,318.666032 434.063016,320.703464 432.228905,322.455571 C431.658255,323.270543 431.37293,323.67803 430.394794,324.207677 C430.109469,324.615164 429.416657,324.737325 429.009171,324.452 Z M124.252076,97.0915042 C123.844589,96.8061792 123.722428,96.1133678 124.007753,95.7058815 C124.904731,92.6903134 125.394222,89.3894202 126.291199,86.3738521 C126.169038,85.6810407 127.147174,85.1513931 127.55466,85.4367181 C128.247472,85.3145567 128.777119,86.2926931 128.491794,86.7001795 C128.002303,90.0010726 127.105326,93.0166407 125.923024,96.4396952 C125.637699,96.8471815 125.352374,97.2546679 124.252076,97.0915042 Z M440.422171,308.152546 C440.014685,307.867221 439.892524,307.17441 440.177849,306.766923 C441.482312,304.03668 443.072101,300.898951 443.969079,297.883383 C444.254404,297.475896 444.825054,296.660924 445.640026,297.231574 C446.047513,297.516899 446.862485,298.087549 446.291835,298.902522 C445.109533,302.325576 443.805069,305.055819 442.21528,308.193549 C442.21528,308.193549 441.237144,308.723196 440.422171,308.152546 C440.829658,308.437871 440.829658,308.437871 440.422171,308.152546 Z M128.696806,77.7346341 C128.28932,77.4493091 128.167158,76.7564977 128.452483,76.3490114 L128.900972,74.8412273 C129.512624,72.2331456 130.124277,69.6250638 131.021254,66.6094957 C131.306579,66.2020093 131.877229,65.3870366 132.692202,65.9576867 C133.507175,66.5283367 133.914661,66.8136617 133.344011,67.6286344 C132.732359,70.2367162 131.835381,73.2522843 131.509054,75.4528797 L131.060565,76.9606638 C130.489915,77.7756364 129.797104,77.8977978 128.696806,77.7346341 Z M447.474983,289.407328 C447.067497,289.122003 446.945336,288.429192 447.230661,288.021706 C448.127638,285.006138 448.617129,281.705244 449.10662,278.404351 C448.984459,277.71154 449.962595,277.181892 450.370082,277.467217 C451.062893,277.345056 451.592541,278.323192 451.307216,278.730679 C450.817725,282.031572 450.328233,285.332465 449.145931,288.755519 C449.268092,289.448331 448.697442,290.263304 447.474983,289.407328 C447.88247,289.692653 447.88247,289.692653 447.474983,289.407328 Z M134.241834,58.5409277 C133.834348,58.2556027 133.712186,57.5627913 133.997511,57.155305 C135.179814,53.7322505 136.076791,50.7166824 137.66658,47.5789529 C137.951905,47.1714666 138.930041,46.6418189 139.337528,46.9271439 C139.745014,47.2124689 140.274662,48.1906053 139.989337,48.5980916 C138.684873,51.3283348 137.50257,54.7513892 136.605593,57.7669573 C135.342132,58.7040914 135.056807,59.1115777 134.241834,58.5409277 Z M450.819416,269.887295 C450.41193,269.60197 450.004443,269.316645 450.289768,268.909158 C450.452932,267.808861 450.493934,266.015752 450.657098,264.915454 C450.6981,263.122345 451.024428,260.921749 451.06543,259.12864 C450.943269,258.435829 451.921405,257.906181 452.328891,258.191506 C453.021703,258.069345 453.55135,259.047481 453.266025,259.454968 C453.225023,261.248077 452.898696,263.448672 453.26518,265.527106 C453.102016,266.627404 453.061014,268.420513 452.89785,269.520811 C453.020011,270.213622 452.041875,270.74327 451.634389,270.457945 C451.226902,270.17262 450.819416,269.887295 450.819416,269.887295 Z M142.109619,40.36636 C141.702132,40.081035 141.579971,39.3882236 141.865296,38.9807373 C143.455085,35.8430078 145.45236,32.9906034 147.16431,30.5456853 C147.449635,30.1381989 148.142446,30.0160376 148.835258,29.8938763 C149.242744,30.1792013 149.364905,30.8720126 149.07958,31.279499 C147.36763,33.7244171 145.370355,36.5768215 143.780566,39.714551 C143.209916,40.5295237 142.517105,40.651685 142.109619,40.36636 Z M451.270442,250.163095 C450.862955,249.87777 450.862955,249.87777 450.740794,249.184959 C450.537474,246.006227 450.334153,242.827495 449.723347,239.363438 C449.601185,238.670627 450.171835,237.855654 450.864647,237.733493 C451.557458,237.611331 452.372431,238.181981 452.494592,238.874793 C452.697912,242.053525 453.308719,245.517581 453.226714,249.1038 C453.348876,249.796611 452.778226,250.611584 452.085414,250.733745 C451.677928,250.44842 451.270442,250.163095 451.270442,250.163095 Z M152.829808,24.1890674 C152.014835,23.6184174 151.892674,22.925606 152.87081,22.3959583 C155.275572,19.8288789 157.680333,17.2617995 160.207256,15.3875314 C160.492581,14.980045 161.592879,15.1432087 162.000365,15.4285337 C162.407851,15.7138588 162.244688,16.8141565 161.959363,17.2216428 C159.43244,19.0959109 157.027678,21.6629903 154.908242,23.8225834 C154.337592,24.6375561 153.644781,24.7597174 152.829808,24.1890674 Z M448.828061,230.234729 C448.420574,229.949404 448.420574,229.949404 448.298413,229.256593 L446.588154,219.557234 C446.465993,218.864422 447.036643,218.04945 447.729454,217.927288 C448.422266,217.805127 449.237238,218.375777 449.3594,219.068588 C450.255531,222.125159 450.866338,225.589216 451.069658,228.767947 C451.19182,229.460759 450.62117,230.275731 449.928358,230.397893 C449.643033,230.805379 449.235547,230.520054 448.828061,230.234729 Z M444.714732,210.958172 C444.307246,210.672847 444.307246,210.672847 444.185084,209.980036 C443.288952,206.923465 442.392821,203.866895 441.089203,200.525 C440.967041,199.832188 441.252366,199.424702 441.537691,199.017215 C442.230503,198.895054 442.637989,199.180379 443.045476,199.465704 C443.941607,202.522275 445.245225,205.86417 446.141357,208.920741 C446.263518,209.613552 445.978193,210.021038 445.000057,210.550686 C445.122218,211.243497 445.122218,211.243497 444.714732,210.958172 Z M168.439833,11.4356749 L168.032347,11.1503499 C167.910186,10.4575386 167.788024,9.7647272 168.480836,9.64256587 C171.415245,8.05362281 174.349654,6.46467976 177.691549,5.16106172 C178.384361,5.03890039 178.791847,5.3242254 179.199333,5.60955041 C179.321495,6.30236177 179.03617,6.70984812 178.750845,7.11733447 C175.694274,8.01346616 172.759865,9.60240921 170.232942,11.4766773 C169.254806,12.006325 168.84732,11.7209999 168.439833,11.4356749 Z M438.237644,192.455586 L437.830158,192.170261 C436.52654,188.828365 435.345083,186.179281 433.75614,183.244872 C433.633979,182.552061 433.511817,181.859249 434.204629,181.737088 C434.89744,181.614927 435.590251,181.492765 435.712413,182.185577 C437.301356,185.119986 438.604974,188.461881 439.78643,191.110966 C439.908592,191.803777 440.030753,192.496588 439.337942,192.61875 C438.64513,192.740911 438.237644,192.455586 438.237644,192.455586 Z M429.682122,174.319483 L429.274636,174.034158 C427.685693,171.099749 426.09675,168.16534 424.222482,165.638417 C424.10032,164.945606 423.978159,164.252795 424.67097,164.130633 C425.363782,164.008472 426.056593,163.886311 426.178754,164.579122 C427.767697,167.513531 429.641965,170.040454 431.230908,172.974863 C431.35307,173.667674 431.475231,174.360486 430.78242,174.482647 C430.497095,174.890133 430.089608,174.604808 429.682122,174.319483 Z M186.820258,4.26577572 C186.412772,3.98045071 186.412772,3.98045071 186.290611,3.28763935 C186.168449,2.59482798 186.453774,2.18734164 187.431911,1.65769395 C190.488481,0.76156226 193.952538,0.150755582 197.538756,0.232760266 C198.231567,0.11059893 199.04654,0.681248956 199.168701,1.37406032 C199.290863,2.06687168 198.720213,2.88184438 198.027401,3.00400571 C194.84867,3.20732604 191.384613,3.81813272 188.328042,4.71426441 C187.227745,4.55110073 186.820258,4.26577572 186.820258,4.26577572 Z M418.885002,157.650163 C416.603248,154.837915 414.72898,152.310992 412.447225,149.498744 C412.039739,149.213419 412.202903,148.113122 412.488228,147.705635 C412.773553,147.298149 413.873851,147.461313 414.281337,147.746638 C416.155605,150.27356 418.437359,153.085808 420.311627,155.612731 C420.719114,155.898056 420.55595,156.998354 420.270625,157.40584 C419.9853,157.813326 419.292489,157.935488 418.885002,157.650163 Z M206.463299,2.23088105 C206.055813,1.94555603 205.648326,1.66023102 205.933651,1.25274467 C205.81149,0.559933311 206.789626,0.0302856264 207.197113,0.315610639 C210.783331,0.397615323 213.676738,0.601781342 217.385117,1.37659739 C218.077929,1.25443605 218.607576,2.23257243 218.322251,2.64005877 C218.444413,3.33287014 217.466276,3.86251782 217.05879,3.57719281 C213.757897,3.08770178 210.457004,2.59821074 207.278272,2.80153107 C206.870785,2.51620606 206.870785,2.51620606 206.463299,2.23088105 Z M406.824421,141.917976 C404.542667,139.105728 401.975587,136.700967 399.815994,134.58153 C399.408508,134.296205 399.571672,133.195908 399.856997,132.788421 C400.142322,132.380935 401.242619,132.544099 401.650106,132.829424 C404.217185,135.234185 406.091453,137.761108 408.658533,140.165869 C409.066019,140.451194 408.902855,141.551492 408.61753,141.958978 C407.924719,142.08114 407.231908,142.203301 406.824421,141.917976 Z M335.596315,88.3998807 C335.188829,88.1145556 335.066667,87.4217443 335.351992,87.0142579 C335.637317,86.6067716 336.615454,86.0771239 337.02294,86.3624489 L345.172667,92.0689492 C345.580153,92.3542742 346.109801,93.3324106 345.824476,93.7398969 C345.539151,94.1473833 344.561015,94.6770309 344.153528,94.3917059 C341.301124,92.3944308 338.448719,90.3971557 335.596315,88.3998807 Z M327.446588,82.6933804 L325.409156,81.2667553 C323.371725,79.8401303 321.619618,78.0060189 319.582186,76.5793938 C319.1747,76.2940688 319.052538,75.6012574 319.623188,74.7862847 C319.908513,74.3787984 320.601325,74.256637 321.416297,74.8272871 C323.168404,76.6613985 325.205836,78.0880235 327.243268,79.5146486 L329.280699,80.9412737 C329.688186,81.2265987 329.810347,81.91941 329.239697,82.7343827 C328.954372,83.1418691 328.261561,83.2640304 327.446588,82.6933804 Z M392.929729,127.937896 C390.770136,125.81846 388.732704,124.391835 386.573111,122.272398 L385.350652,121.416423 C384.943165,121.131098 384.821004,120.438287 385.391654,119.623314 C385.676979,119.215828 386.369791,119.093666 387.184763,119.664316 L388.407222,120.520291 C390.85214,122.232242 392.604247,124.066353 394.76384,126.185789 C395.171327,126.471114 395.293488,127.163926 394.722838,127.978898 C394.030026,128.10106 393.337215,128.223221 392.929729,127.937896 Z M352.181094,99.4053948 C351.773608,99.1200698 351.651446,98.4272585 351.936771,98.0197721 C352.222096,97.6122858 353.200233,97.0826381 353.607719,97.3679631 L362.042771,102.666977 C362.450257,102.952302 362.979905,103.930438 362.69458,104.337925 C362.409255,104.745411 361.431119,105.275059 361.023632,104.989734 L352.181094,99.4053948 Z M369.051198,110.003423 C368.643712,109.718098 368.52155,109.025286 368.806875,108.6178 C369.0922,108.210314 370.070337,107.680666 370.477823,107.965991 L378.62755,113.672491 C379.035036,113.957816 379.157198,114.650628 378.586548,115.4656 C378.301223,115.873087 377.608411,115.995248 377.200925,115.709923 L369.051198,110.003423 Z M312.69592,69.9357595 L312.69592,69.9357595 C310.128841,67.5309981 307.969248,65.4115616 305.402169,63.0068002 C304.994682,62.7214752 305.157846,61.6211775 305.443171,61.2136911 C305.728496,60.8062048 306.828794,60.9693684 307.23628,61.2546935 C309.803359,63.6594549 311.962952,65.7788913 314.530032,68.1836528 C314.937518,68.4689778 315.05968,69.1617891 314.48903,69.9767618 C313.796218,70.0989232 313.103407,70.2210845 312.69592,69.9357595 Z M225.983333,5.57531359 C225.575847,5.28998858 225.453685,4.59717721 225.73901,4.18969087 C226.024335,3.78220452 226.594985,2.96723182 227.409958,3.53788185 C230.425526,4.43485923 233.848581,5.61716162 236.864149,6.514139 C237.271635,6.79946401 238.086608,7.37011404 237.515958,8.18508674 C237.230633,8.59257309 236.659983,9.40754578 235.84501,8.83689576 C232.421955,7.65459336 229.406387,6.75761598 225.983333,5.57531359 C226.390819,5.8606386 225.983333,5.57531359 225.983333,5.57531359 Z M298.393742,55.6703545 C296.234149,53.5509181 293.667069,51.1461567 291.792801,48.6192339 C291.385315,48.3339089 291.548478,47.2336112 291.833803,46.8261248 C292.119128,46.4186385 293.219426,46.5818022 293.626912,46.8671272 C296.193992,49.2718886 298.353585,51.391325 300.227853,53.9182478 L299.657203,54.7332205 L298.393742,55.6703545 Z M284.499049,41.6902746 C281.93197,39.2855132 279.772377,37.1660767 277.205297,34.7613153 C276.797811,34.4759903 276.675649,33.7831789 277.2463,32.9682062 C277.531625,32.5607199 278.224436,32.4385585 279.039409,33.0092086 C281.606488,35.41397 283.766081,37.5334064 286.333161,39.9381679 C286.740647,40.2234929 286.862808,40.9163042 286.292158,41.7312769 C285.599347,41.8534383 284.906535,41.9755996 284.499049,41.6902746 Z M244.728551,12.6281256 C244.321064,12.3428006 244.198903,11.6499892 244.484228,11.2425029 C244.769553,10.8350165 245.747689,10.3053689 246.155176,10.5906939 C249.292905,12.1804826 252.023148,13.4849463 255.160878,15.0747351 C255.568364,15.3600601 256.098012,16.3381965 255.812687,16.7456828 C255.527362,17.1531692 254.549225,17.6828168 254.141739,17.3974918 C250.596523,15.5223781 247.86628,14.2179144 244.728551,12.6281256 Z M269.340895,28.6473287 C266.895977,26.9353786 264.736384,24.8159422 262.291466,23.1039921 L261.476493,22.5333421 C261.069007,22.2480171 260.946846,21.5552057 261.517496,20.740233 C261.802821,20.3327466 262.495632,20.2105853 262.903118,20.4959103 L263.718091,21.0665604 C266.163009,22.7785104 268.607927,24.4904605 270.76752,26.6098969 C271.175007,26.8952219 271.297168,27.5880333 270.726518,28.403006 C270.848679,29.0958174 270.155868,29.2179787 269.340895,28.6473287 Z" id="Shape" fill="#F9F9F9"></path>
                <path d="M175.039928,24.5589342 C198.719367,8.95398295 231.360969,17.8425978 254.302366,34.5136099 C277.243762,51.1846219 294.641823,74.9050633 317.01257,92.3910481 C336.123426,107.594433 358.372857,118.315468 377.483713,133.518852 C416.520398,164.496272 438.968075,214.82887 436.312225,264.587435 C435.372554,281.540389 431.376313,299.389475 420.330642,311.695225 C401.785362,332.109699 369.468396,333.164766 343.143256,325.66262 C316.818115,318.160473 292.164768,303.934379 264.820489,298.754989 C240.084292,294.187252 214.205949,297.321599 189.26474,301.719407 C164.323531,306.117215 139.34132,312.308132 114.359954,312.426911 C89.0932632,312.953176 62.7271205,307.244138 42.8012918,291.470104 C22.8754631,275.696069 11.5093847,247.697444 20.1929878,224.021388 C27.4499659,202.382763 48.1949957,188.366755 68.1652096,178.059126 C88.4207484,167.344011 109.898746,157.484871 123.431183,139.025824 C136.107645,121.789236 139.370919,99.783282 144.671624,79.2039529 C149.157357,58.0539737 157.392471,35.8857015 175.039928,24.5589342 Z" id="Path" fill="url(#linearGradient-2)"></path>
                <circle id="Oval" fill="#7F6ECD" cx="239.842566" cy="356.842566" r="2.8425656"></circle>
                <circle id="Oval" fill="#7F6ECD" cx="22.8425656" cy="115.842566" r="2.8425656"></circle>
                <path d="M369.685131,65.8425656 C369.685131,67.3586006 368.358601,68.6851312 366.842566,68.6851312 C365.326531,68.6851312 364,67.3586006 364,65.8425656 C364,64.3265306 365.326531,63 366.842566,63 C368.358601,63 369.685131,64.3265306 369.685131,65.8425656 Z" id="Path" fill="#7F6ECD"></path>
            </g>
        </g>
    </g>
</svg>