<?xml version="1.0" encoding="UTF-8"?>
<svg width="425px" height="410px" viewBox="0 0 425 410" version="1.1" xmlns="http://www.w3.org/2000/svg" xmlns:xlink="http://www.w3.org/1999/xlink">
    <!-- Generator: Sketch 54.1 (76490) - https://sketchapp.com -->
    <title>Illustration</title>
    <desc>Created with Sketch.</desc>
    <defs>
        <linearGradient x1="83.7632857%" y1="85.0595332%" x2="18.621285%" y2="26.6189462%" id="linearGradient-1">
            <stop stop-color="#796CE7" offset="0%"></stop>
            <stop stop-color="#7D89E9" offset="100%"></stop>
        </linearGradient>
        <linearGradient x1="85.564209%" y1="85.0595332%" x2="16.947554%" y2="26.6189462%" id="linearGradient-2">
            <stop stop-color="#796CE7" offset="0%"></stop>
            <stop stop-color="#7D89E9" offset="100%"></stop>
        </linearGradient>
    </defs>
    <g id="Main" stroke="none" stroke-width="1" fill="none" fill-rule="evenodd">
        <g id="WhiteCapital_Elements" transform="translate(-244.000000, -927.000000)" fill-rule="nonzero">
            <g id="Illustration" transform="translate(244.000000, 927.000000)">
                <path d="M176.422012,36.8064869 C161.995991,32.3294461 147.569971,27.8524052 132.646501,27.8524052 C104.789359,27.8524052 78.4245627,44.2682216 62.0087464,67.1508746 C45.59293,89.5360787 37.6337464,117.890671 35.1465015,145.747813 C32.6592566,170.620262 34.1516035,196.487609 43.6031341,219.867711 C53.0546647,243.247813 70.465379,263.643222 93.3480321,273.094752 C109.266399,279.561589 126.677114,280.556487 142.098032,288.515671 C166.473032,300.951895 178.909257,328.809038 200.299563,345.722303 C222.187318,363.630466 254.024052,369.599854 280.886297,360.645773 C310.235787,351.194242 332.620991,325.326895 345.057216,296.972303 C357.49344,268.120262 360.478134,236.780977 361.473032,205.441691 C362.965379,168.630466 359.980685,127.83965 335.108236,100.479956 C316.702624,81.0794461 289.840379,72.1253644 264.470481,64.1661808 C234.623542,54.7146501 205.771501,45.7605685 176.422012,36.8064869 Z" id="Path" fill="url(#linearGradient-1)" opacity="0.2"></path>
                <path d="M5.99634796,174.918781 L3.50057117,168.41706 C3.14403163,167.488243 2.60922231,166.095017 2.7170914,164.98793 C2.53882163,164.523521 2.82496049,163.880843 3.75377775,163.524303 C4.21818638,163.346034 4.86086478,163.632172 5.21740433,164.56099 C5.57394387,165.489807 6.10875318,166.883033 6.00088409,167.99012 L8.49666088,174.491841 C8.67493065,174.956249 8.38879179,175.598928 7.92438316,175.777198 C6.9955659,176.133737 6.3528875,175.847598 5.99634796,174.918781 Z M10.026152,184.028684 C9.84788224,183.564275 10.1340211,182.921597 10.5984297,182.743327 C11.0628384,182.565057 12.1699254,182.672926 12.3481952,183.137335 C13.8822224,185.745517 15.5945194,188.818108 17.3068165,191.890698 C17.4850862,192.355107 17.3772171,193.462194 16.9128085,193.640464 C16.4483999,193.818733 15.3413129,193.710864 15.1630431,193.246456 C13.4507461,190.173865 11.738449,187.101274 10.026152,184.028684 Z M1.18760028,155.451087 L1.18760028,155.451087 C0.868529145,151.843687 0.0850493794,148.414557 0.408656646,145.093296 C0.230386875,144.628887 0.980934365,143.807939 1.445343,143.629669 C1.90975163,143.451399 2.7306998,144.201947 2.90896957,144.666355 C3.04977093,147.809347 3.36884207,151.416747 3.50964343,154.559738 C3.6879132,155.024147 2.93736571,155.845095 2.47295708,156.023365 C1.54413982,156.379904 1.36587005,155.915496 1.18760028,155.451087 Z M20.6939421,200.714462 C20.5156723,200.250054 20.8018112,199.607375 21.2662198,199.429105 C21.7306285,199.250836 22.6594457,198.894296 23.0159853,199.823113 C25.0144212,202.253026 27.1911268,205.147346 29.1895627,207.577259 C29.8322411,207.863398 29.724372,208.970485 29.2599634,209.148754 C28.7955547,209.327024 27.8667375,209.683564 27.6884677,209.219155 C25.0473534,206.503104 22.8706478,203.608783 20.6939421,200.714462 C20.8722119,201.178871 20.6939421,200.714462 20.6939421,200.714462 Z M0.450661185,135.486052 L0.272391414,135.021643 C0.595998681,131.700382 0.919605947,128.379121 1.70762184,124.87959 C1.9937607,124.236912 2.45816933,124.058642 2.92257797,123.880372 C3.56525637,124.166511 3.74352614,124.63092 3.92179591,125.095328 C2.95551024,128.130451 2.63190297,131.451712 2.30829571,134.772973 C2.02215685,135.415651 1.73601799,136.05833 1.09333959,135.772191 C0.807200727,136.414869 0.628930956,135.950461 0.450661185,135.486052 Z M33.7916445,215.401805 C33.6133747,214.937396 33.8995135,214.294718 33.8995135,214.294718 C34.1856524,213.652039 35.2927394,213.759908 35.4710092,214.224317 L42.8595428,220.979244 C43.5022212,221.265383 43.3943521,222.37247 42.9299434,222.55074 C42.6438046,223.193419 41.5367176,223.085549 41.3584478,222.621141 L33.9699142,215.866213 C33.9699142,215.866213 33.9699142,215.866213 33.7916445,215.401805 Z M4.78474862,116.238632 C4.60647885,115.774224 4.60647885,115.774224 4.89261771,115.131545 C5.85890338,112.096423 7.28959767,108.883031 8.72029197,105.669639 C9.00643083,105.02696 9.93524809,104.670421 10.5779265,104.95656 C11.2206049,105.242699 11.5771444,106.171516 11.2910056,106.814194 C9.68204151,109.563178 8.71575584,112.5983 7.28506154,115.811692 C6.99892268,116.45437 6.53451405,116.63264 5.42742702,116.524771 C4.96301839,116.703041 4.96301839,116.703041 4.78474862,116.238632 Z M49.319259,228.090711 C49.1409893,227.626303 48.9627195,227.161894 49.4271281,226.983624 C49.713267,226.340946 50.820354,226.448815 50.9986238,226.913224 C53.2831985,228.700458 56.2104517,230.77383 58.9594351,232.382794 C59.6021135,232.668933 59.958653,233.59775 59.0298358,233.95429 C58.7436969,234.596968 57.8148796,234.953508 57.4583401,234.024691 C54.7093567,232.415727 51.7821036,230.342354 49.319259,228.090711 C49.4975288,228.55512 49.4975288,228.55512 49.319259,228.090711 Z M65.88356,239.315991 C65.7052902,238.851583 65.7052902,238.851583 65.9914291,238.208904 C66.2775679,237.566226 67.2063852,237.209687 67.8490636,237.495825 C70.598047,239.104789 73.3470304,240.713754 76.5604224,242.144448 C77.2031008,242.430587 77.5596403,243.359404 77.2735014,244.002082 C76.9873626,244.644761 76.0585453,245.0013 75.4158669,244.715161 C72.2024749,243.284467 69.4534915,241.675503 66.7045082,240.066539 C66.0618298,239.7804 65.88356,239.315991 65.88356,239.315991 Z M13.4393151,98.5297758 C13.2610453,98.0653671 13.0827756,97.6009585 13.5471842,97.4226887 C15.6205569,94.4954356 17.8721994,92.0325911 20.1238418,89.5697465 C20.4099807,88.9270681 21.5170677,89.0349372 21.6953375,89.4993459 C22.3380159,89.7854847 22.2301468,90.8925718 21.7657382,91.0708415 C19.5140957,93.533686 17.2624532,95.9965306 15.6534892,98.7455139 C15.3673503,99.3881923 14.2602633,99.2803232 14.0819935,98.8159146 C13.6175849,98.9941844 13.6175849,98.9941844 13.4393151,98.5297758 Z M83.3062775,248.613236 C83.1280077,248.148828 83.1280077,248.148828 83.4141466,247.506149 C83.7002855,246.863471 84.6291027,246.506931 85.2717811,246.79307 C88.4851731,248.223765 91.2341565,249.832729 94.2692787,250.799014 C94.9119571,251.085153 95.2684967,252.01397 94.9823578,252.656649 C94.696219,253.299327 93.7674017,253.655867 93.1247233,253.369728 C89.9113313,251.939034 87.1623479,250.33007 84.1272257,249.363784 C83.4845473,249.077645 83.3062775,248.613236 83.3062775,248.613236 Z M27.1274397,84.2171173 C26.9491699,83.7527087 27.2353088,83.1100303 27.6997174,82.9317605 L28.4502649,82.1108123 C30.8801771,80.1123764 33.4883592,78.5783492 35.6321325,77.2225917 C36.0965412,77.0443219 37.2036282,77.152191 37.381898,77.6165996 C37.5601677,78.0810083 37.4522986,79.1880953 36.98789,79.3663651 C34.379708,80.9003923 32.2359346,82.2561498 29.8060224,84.2545857 L29.0554749,85.0755339 C28.5910663,85.2538036 27.9483879,84.9676648 27.1274397,84.2171173 Z M101.301273,256.625124 C101.123003,256.160716 101.123003,256.160716 101.409142,255.518037 C101.695281,254.875359 102.624098,254.518819 103.266776,254.804958 C106.480168,256.235653 109.515291,257.201938 112.264274,258.810902 C112.906952,259.097041 113.263492,260.025858 112.977353,260.668537 C112.691214,261.311215 111.762397,261.667755 111.119719,261.381616 C107.906327,259.950922 104.871204,258.984636 102.122221,257.375672 C101.657812,257.553942 101.479543,257.089533 101.301273,256.625124 Z M44.1697577,74.4781444 C43.9914879,74.0137358 44.2776267,73.3710574 44.7420354,73.1927876 L45.6708526,72.8362481 C48.4573044,71.7666295 51.2437562,70.6970108 54.2084778,70.0918009 C54.6728864,69.9135311 55.7799734,70.0214002 55.6721043,71.1284872 C55.8503741,71.5928958 55.5642352,72.2355742 54.635418,72.5921138 C51.6706964,73.1973238 48.8842446,74.2669424 46.0977929,75.336561 L45.1689756,75.6931006 C45.4551145,75.0504222 44.3480274,74.9425531 44.1697577,74.4781444 Z M119.760677,264.458743 C119.582407,263.994334 119.582407,263.994334 119.868546,263.351656 C120.154685,262.708977 121.083502,262.352438 121.72618,262.638577 L130.723678,266.644521 C131.366356,266.93066 131.722896,267.859477 131.436757,268.502155 C131.150618,269.144834 130.221801,269.501373 129.579122,269.215234 L120.581625,265.20929 C120.117216,265.38756 119.938946,264.923151 119.760677,264.458743 Z M137.755672,272.470631 C137.577402,272.006222 137.577402,272.006222 137.863541,271.363544 C138.14968,270.720865 139.078497,270.364326 139.721175,270.650465 C142.934567,272.081159 145.683551,273.690123 148.896943,275.120817 C149.539621,275.406956 149.896161,276.335773 149.610022,276.978452 C149.323883,277.62113 148.395066,277.97767 147.752387,277.691531 C145.003404,276.082567 141.790012,274.651873 138.75489,273.685587 C138.112211,273.399448 137.933942,272.935039 137.755672,272.470631 Z M63.459182,69.2049881 C63.1026424,68.2761709 63.8531899,67.4552227 64.4958683,67.7413616 C67.4605899,67.1361516 71.0679898,66.8170804 74.2109811,66.6762791 C74.6753898,66.4980093 75.4963379,67.2485568 75.6746077,67.7129654 C75.8528775,68.177374 75.10233,68.9983222 74.6379214,69.176592 C71.49493,69.3173933 67.8875301,69.6364645 64.9228085,70.2416745 C64.2801301,69.9555356 63.6374517,69.6693968 63.459182,69.2049881 Z M155.642798,281.589606 C155.464528,281.125197 155.464528,281.125197 155.750667,280.482519 C156.036806,279.83984 156.965623,279.483301 157.608302,279.76944 C160.357285,281.378404 163.570677,282.809098 166.49793,284.882471 C167.140609,285.16861 167.497148,286.097427 167.211009,286.740105 C166.92487,287.382784 165.996053,287.739323 165.353375,287.453184 L157.106425,282.626292 C155.821068,282.054015 155.642798,281.589606 155.642798,281.589606 Z M83.2459472,68.0036404 L83.2459472,68.0036404 C83.3538163,66.8965534 83.6399551,66.253875 84.2826335,66.5400138 C87.4256248,66.3992125 90.7468859,66.7228197 94.5325557,66.8681572 C95.1752341,67.1542961 95.8179125,67.4404349 95.5317736,68.0831133 C95.2456347,68.7257918 94.9594959,69.3684702 94.3168175,69.0823313 C90.9955564,68.758724 87.8525651,68.8995254 84.531304,68.5759181 C84.0668953,68.7541879 83.4242169,68.468049 83.2459472,68.0036404 Z M172.493238,292.172208 C172.314968,291.707799 172.136698,291.24339 172.601107,291.065121 C172.887246,290.422442 173.994333,290.530311 174.172603,290.99472 C177.099856,293.068093 179.38443,294.855326 182.311684,296.928699 C182.954362,297.214838 182.846493,298.321925 182.382084,298.500195 C182.095945,299.142873 180.988858,299.035004 180.810589,298.570595 C178.347744,296.318953 175.598761,294.709989 173.135916,292.458346 C172.671508,292.636616 172.493238,292.172208 172.493238,292.172208 Z M188.199122,305.325523 L189.700217,303.683627 C192.163062,305.935269 194.161498,308.365181 196.802612,311.081232 C196.980882,311.545641 197.337421,312.474458 196.408604,312.830998 C195.944195,313.009268 195.015378,313.365807 194.658838,312.43699 C192.482133,309.542669 190.019288,307.291026 188.199122,305.325523 Z M103.281383,68.838197 L103.103113,68.3737883 C103.389252,67.7311099 103.675391,67.0884315 104.318069,67.3745704 L105.425156,67.4824395 C107.63933,67.6981777 110.317913,67.7356461 112.710357,68.4157929 L114.281852,68.3453922 C114.924531,68.6315311 115.567209,68.9176699 115.28107,69.5603483 C114.994932,70.2030267 114.708793,70.8457051 114.066114,70.5595663 L112.494619,70.6299669 C110.280445,70.4142288 107.423592,69.9123517 105.209418,69.6966136 L104.102331,69.5887445 C103.637922,69.7670142 103.459653,69.3026056 103.281383,68.838197 Z M200.654146,319.726727 C200.475876,319.262318 200.762015,318.61964 201.226424,318.44137 C201.690832,318.2631 202.61965,317.90656 202.976189,318.835378 C204.974625,321.26529 207.151331,324.159611 208.685358,326.767793 C208.863628,327.232201 209.220167,328.161019 208.29135,328.517558 C207.826941,328.695828 206.898124,329.052368 206.541585,328.12355 C204.829288,325.05096 202.830852,322.621047 200.654146,319.726727 Z M212.072484,335.591557 C211.894214,335.127148 212.180353,334.48447 212.644761,334.3062 C213.10917,334.12793 214.216257,334.235799 214.394527,334.700208 L220.103696,342.632623 C220.281965,343.097032 220.174096,344.204119 219.709688,344.382389 C219.245279,344.560658 218.138192,344.452789 217.959922,343.988381 L212.072484,335.591557 C212.250753,336.055965 212.250753,336.055965 212.072484,335.591557 Z M223.204682,352.099065 C223.026413,351.634657 223.312552,350.991978 223.77696,350.813709 C224.241369,350.635439 225.170186,350.278899 225.526726,351.207717 C227.525161,353.637629 229.237459,356.710219 231.235894,359.140132 C231.414164,359.60454 231.770704,360.533358 230.841886,360.889897 C230.377478,361.068167 229.448661,361.424706 229.092121,360.495889 C227.558094,357.887707 225.381388,354.993386 223.204682,352.099065 C223.382952,352.563474 223.382952,352.563474 223.204682,352.099065 Z M235.265698,368.250035 C235.087429,367.785626 235.373568,367.142948 235.837976,366.964678 C236.302385,366.786408 237.231202,366.429868 237.587742,367.358686 C238.40869,368.109233 238.58696,368.573642 239.407908,369.324189 C241.228074,371.289693 242.405562,372.969058 244.225728,374.934561 C244.868406,375.2207 244.760537,376.327787 244.296128,376.506057 C244.009989,377.148735 242.902902,377.040866 242.724633,376.576458 C240.904467,374.610954 239.26257,373.109859 237.906813,370.966086 C236.443186,369.929399 236.086647,369.000582 235.265698,368.250035 Z M122.744541,70.9581103 L122.566271,70.4937017 C122.85241,69.8510233 123.138549,69.2083449 123.781227,69.4944838 L133.74501,70.4653056 C134.387689,70.7514444 135.030367,71.0375833 134.744228,71.6802617 C134.458089,72.3229401 134.171951,72.9656185 133.529272,72.6794796 L123.565489,71.7086578 C123.565489,71.7086578 122.922811,71.422519 122.744541,70.9581103 Z M248.827809,382.759107 C248.64954,382.294699 248.935679,381.65202 248.935679,381.65202 C249.221817,381.009342 250.328904,381.117211 250.507174,381.58162 C252.970019,383.833262 255.432863,386.084905 258.181847,387.693869 C258.824525,387.980007 258.716656,389.087095 258.252247,389.265364 C257.966108,389.908043 256.859021,389.800174 256.680752,389.335765 C254.217907,387.084123 251.290654,385.01075 248.827809,382.759107 Z M264.641563,394.805336 C264.463293,394.340927 264.285023,393.876518 264.749432,393.698249 C265.035571,393.05557 265.964388,392.699031 266.320928,393.627848 C269.069911,395.236812 271.997164,397.310185 274.567878,398.45474 C275.210556,398.740879 275.567096,399.669696 275.280957,400.312375 C274.994818,400.955053 274.066001,401.311593 273.423322,401.025454 C270.674339,399.41649 267.460947,397.985795 264.533694,395.912423 C264.819833,395.269744 264.641563,394.805336 264.641563,394.805336 Z M142.779976,71.7926669 C142.887846,70.6855799 143.173984,70.0429015 143.816663,70.3290403 C147.424063,70.0099692 150.567054,69.8691678 153.710045,69.7283665 C154.174454,69.5500967 154.995402,70.3006442 155.173672,70.7650528 C155.351942,71.2294615 154.601394,72.0504096 154.136986,72.2286794 C150.993994,72.3694808 147.564864,73.1529605 144.243603,72.8293533 C143.136516,72.7214842 142.958246,72.2570755 142.779976,71.7926669 Z M282.350419,403.459902 C282.172149,402.995493 282.172149,402.995493 282.458288,402.352815 C282.744427,401.710137 283.208836,401.531867 284.315923,401.639736 L293.42129,404.538593 C294.063968,404.824732 294.242238,405.28914 294.420508,405.753549 C294.134369,406.396227 293.66996,406.574497 293.205551,406.752767 C290.170429,405.786481 286.670898,404.998465 283.635776,404.03218 C282.706959,404.388719 282.528689,403.924311 282.350419,403.459902 Z M162.210202,69.6625019 L162.210202,69.6625019 C161.853663,68.7336847 162.139801,68.0910063 163.246888,68.1988754 L166.962157,66.7727172 C168.819792,66.0596381 170.213018,65.5248288 171.892383,64.3473411 C172.356791,64.1690713 173.463878,64.2769404 173.642148,64.741349 C173.820418,65.2057577 173.712549,66.3128447 173.24814,66.4911145 C171.390506,67.2041935 169.711141,68.3816813 168.317915,68.9164906 L164.138237,70.5209185 C163.03115,70.4130494 162.388472,70.1269106 162.210202,69.6625019 Z M301.776109,408.258398 L301.597839,407.793989 C301.883978,407.151311 302.170117,406.508633 302.812795,406.794772 C306.134056,407.118379 309.277048,406.977577 312.420039,406.836776 C312.884448,406.658506 313.705396,407.409054 313.883665,407.873462 C314.061935,408.337871 313.311388,409.158819 312.846979,409.337089 C309.703988,409.47789 305.918318,409.332553 302.597057,409.008946 C301.954379,408.722807 301.776109,408.258398 301.776109,408.258398 Z M180.073468,60.6740766 C179.895198,60.2096679 180.181337,59.5669895 180.645746,59.3887198 C183.253928,57.8546925 185.68384,55.8562566 188.578161,53.679551 C189.04257,53.5012812 189.971387,53.1447417 190.327927,54.0735589 C190.506196,54.5379675 190.862736,55.4667848 189.933919,55.8233244 C187.039598,58.00003 184.609685,59.9984659 182.179773,61.9969018 C181.537095,61.7107629 180.430008,61.6028938 180.073468,60.6740766 Z M321.098465,407.23532 C320.741926,406.306503 321.492473,405.485555 322.135152,405.771694 C323.063969,405.415154 323.528378,405.236884 324.635465,405.344753 C327.135778,404.917813 329.457821,404.026464 331.779864,403.135115 C332.244272,402.956846 332.886951,403.242985 333.065221,403.707393 C333.24349,404.171802 332.957352,404.81448 332.028534,405.17102 C329.706491,406.062369 327.384448,406.953717 324.884135,407.380658 C323.955318,407.737197 323.490909,407.915467 322.383822,407.807598 C321.919414,407.985868 321.276735,407.699729 321.098465,407.23532 Z M195.581759,48.3269217 C195.403489,47.8625131 195.689628,47.2198347 196.154037,47.0415649 C198.583949,45.043129 200.835591,42.5802845 203.265504,40.5818486 C203.551642,39.9391702 204.65873,40.0470393 204.836999,40.5114479 C205.479678,40.7975868 205.371809,41.9046738 204.9074,42.0829436 C202.655757,44.5457881 200.225845,46.544224 197.331524,48.7209297 C196.867116,48.8991994 196.402707,49.0774692 195.581759,48.3269217 Z M339.674811,400.104529 C339.496541,399.640121 339.78268,398.997442 340.247088,398.819173 C342.85527,397.285145 345.927861,395.572848 348.357773,393.574412 C348.822182,393.396143 349.750999,393.039603 350.107539,393.96842 C350.285808,394.432829 350.642348,395.361646 349.713531,395.718186 C346.81921,397.894891 344.211028,399.428919 341.138437,401.141216 C341.138437,401.141216 340.03135,401.033347 339.674811,400.104529 C339.85308,400.568938 339.85308,400.568938 339.674811,400.104529 Z M210.090832,34.7648107 C209.912562,34.3004021 210.198701,33.6577237 210.663109,33.4794539 L211.878066,32.480236 C213.843569,30.6600699 215.809073,28.8399038 218.238985,26.8414679 C218.703394,26.6631981 219.632211,26.3066586 219.98875,27.2354758 C220.34529,28.1642931 220.52356,28.6287017 219.594743,28.9852413 C217.629239,30.8054074 215.199327,32.8038433 213.698232,34.4457396 L212.483276,35.4449575 C211.554458,35.8014971 210.91178,35.5153582 210.090832,34.7648107 Z M356.004049,388.507922 C355.82578,388.043513 356.111919,387.400835 356.576327,387.222565 C359.006239,385.224129 361.257882,382.761285 363.509524,380.29844 C363.795663,379.655762 364.90275,379.763631 365.08102,380.22804 C365.723698,380.514178 365.615829,381.621265 365.151421,381.799535 C362.899778,384.26238 360.648136,386.725224 357.753815,388.90193 C357.467676,389.544608 356.538859,389.901148 356.004049,388.507922 C356.182319,388.972331 356.182319,388.972331 356.004049,388.507922 Z M225.420853,21.9532472 C225.242583,21.4888386 225.528722,20.8461602 225.99313,20.6678904 C228.887451,18.4911848 231.317363,16.4927489 234.389954,14.7804519 C234.854363,14.6021821 235.96145,14.7100512 236.13972,15.1744598 C236.317989,15.6388685 236.21012,16.7459555 235.745712,16.9242253 C233.13753,18.4582525 230.243209,20.6349582 227.813296,22.6333941 C226.241801,22.7037947 225.777392,22.8820645 225.420853,21.9532472 Z M369.692174,374.195263 C369.513904,373.730855 369.335635,373.266446 369.800043,373.088176 C370.550591,372.267228 371.587277,370.803602 372.337824,369.982654 C373.374511,368.519027 374.875606,366.877131 375.912292,365.413504 C376.198431,364.770826 377.305518,364.878695 377.483788,365.343103 C378.126466,365.629242 378.018597,366.736329 377.554188,366.914599 C376.517502,368.378226 375.016407,370.020122 374.157991,371.948157 C373.407443,372.769105 372.370757,374.232732 371.620209,375.05368 C371.33407,375.696358 370.226983,375.588489 370.048714,375.124081 C369.870444,374.659672 369.692174,374.195263 369.692174,374.195263 Z M242.106631,11.2854571 C241.928361,10.8210485 242.2145,10.1783701 242.678909,10.0001003 C245.751499,8.28780331 249.00236,7.03991492 251.788812,5.97029629 C252.25322,5.79202652 252.895899,6.07816538 253.538577,6.36430424 C253.716847,6.82871287 253.430708,7.47139127 252.966299,7.64966104 C250.179848,8.71927967 246.928987,9.96716806 243.856397,11.6794651 C242.927579,12.0360046 242.284901,11.7498658 242.106631,11.2854571 Z M381.095724,358.095371 C380.917454,357.630963 380.917454,357.630963 381.203593,356.988284 C382.812557,354.239301 384.421521,351.490317 385.852215,348.276925 C386.138354,347.634247 387.067172,347.277707 387.70985,347.563846 C388.352528,347.849985 388.709068,348.778802 388.422929,349.421481 C386.813965,352.170464 385.383271,355.383856 383.309898,358.311109 C383.023759,358.953788 382.094942,359.310327 381.452263,359.024188 C381.273994,358.55978 381.095724,358.095371 381.095724,358.095371 Z M260.040298,3.86852745 C259.683758,2.93971019 259.969897,2.29703178 261.076984,2.40490087 C264.506114,1.62142111 267.935245,0.837941343 271.078236,0.69713998 C271.542645,0.518870209 272.363593,1.2694177 272.541863,1.73382633 C272.720132,2.19823496 271.969585,3.01918313 271.505176,3.1974529 C268.362185,3.33825427 264.933055,4.12173403 261.968333,4.72694403 C261.039516,5.08348357 260.396837,4.79734471 260.040298,3.86852745 Z M390.214699,340.208245 C390.036429,339.743836 390.036429,339.743836 390.322568,339.101158 L394.328512,330.10366 C394.614651,329.460982 395.543468,329.104442 396.186147,329.390581 C396.828825,329.67672 397.185365,330.605537 396.899226,331.248216 C395.93294,334.283338 394.502246,337.49673 392.893282,340.245713 C392.607143,340.888392 391.678326,341.244931 391.035647,340.958793 C390.571239,341.137062 390.392969,340.672654 390.214699,340.208245 Z M397.583909,321.927111 C397.405639,321.462702 397.405639,321.462702 397.691778,320.820024 C398.658063,317.784902 399.624349,314.749779 400.412365,311.250249 C400.698504,310.60757 401.162912,310.4293 401.627321,310.251031 C402.27,310.537169 402.448269,311.001578 402.626539,311.465987 C401.660253,314.501109 400.872237,318.00064 399.905952,321.035762 C399.619813,321.67844 399.155404,321.85671 398.048317,321.748841 C397.762178,322.39152 397.762178,322.39152 397.583909,321.927111 Z M280.113202,2.02450132 L279.934932,1.56009269 C280.221071,0.917414289 280.50721,0.274735888 281.149888,0.560874748 C284.471149,0.884482014 287.792411,1.20808928 291.291941,1.99610518 C291.93462,2.28224404 292.11289,2.74665267 292.291159,3.2110613 C292.00502,3.8537397 291.540612,4.03200947 291.076203,4.21027924 C288.041081,3.24399357 284.71982,2.92038631 281.576829,3.06118767 C280.469742,2.95331858 280.291472,2.48890995 280.113202,2.02450132 Z M402.560675,302.96583 L402.382405,302.501421 C403.170421,299.001891 403.672298,296.145038 403.995905,292.823777 C404.282044,292.181099 404.568183,291.53842 405.210861,291.824559 C405.853539,292.110698 406.496218,292.396837 406.210079,293.039515 C405.886472,296.360776 405.098456,299.860307 404.596579,302.71716 C404.31044,303.359838 404.024301,304.002516 403.381623,303.716378 C402.738944,303.430239 402.560675,302.96583 402.560675,302.96583 Z M405.609405,283.146133 L405.431135,282.681724 C405.754743,279.360463 406.07835,276.039202 405.937549,272.89621 C406.223687,272.253532 406.509826,271.610854 407.152505,271.896992 C407.795183,272.183131 408.437861,272.46927 408.151723,273.111949 C407.828115,276.43321 407.968917,279.576201 407.645309,282.897462 C407.359171,283.54014 407.073032,284.182819 406.430353,283.89668 C405.965945,284.07495 405.787675,283.610541 405.609405,283.146133 Z M299.360622,6.35858876 C299.182352,5.89418013 299.182352,5.89418013 299.468491,5.25150172 C299.75463,4.60882332 300.219038,4.43055355 301.326125,4.53842264 C304.361248,5.50470831 307.57464,6.93540261 310.501893,9.00877531 C311.144571,9.29491417 311.501111,10.2237314 311.214972,10.8664098 C310.928833,11.5090882 310.000016,11.8656278 309.357337,11.5794889 C306.608354,9.97052484 303.394962,8.53983054 300.35984,7.57354488 C299.538892,6.82299739 299.360622,6.35858876 299.360622,6.35858876 Z M405.979553,263.288967 C405.660482,259.681567 405.519681,256.538575 405.200609,252.931175 C405.02234,252.466767 405.772887,251.645819 406.237296,251.467549 C406.701704,251.289279 407.522653,252.039827 407.700922,252.504235 C407.841724,255.647227 408.160795,259.254626 408.301596,262.397618 C408.479866,262.862026 407.729319,263.682975 407.26491,263.861244 C406.800501,264.039514 406.157823,263.753375 405.979553,263.288967 Z M316.783339,15.6558336 C316.605069,15.191425 316.4268,14.7270164 316.891208,14.5487466 C317.177347,13.9060682 318.284434,14.0139373 318.462704,14.4783459 C321.389957,16.5517186 323.674532,18.3389525 326.315646,21.0550036 C326.958325,21.3411424 326.850456,22.4482294 326.386047,22.6264992 C326.099908,23.2691776 324.992821,23.1613085 324.814551,22.6968999 C322.351707,20.4452574 319.888862,18.193615 317.139879,16.5846509 C316.961609,16.1202423 316.961609,16.1202423 316.783339,15.6558336 Z M404.778205,243.502201 C404.459134,239.894801 403.675654,236.465671 403.070444,233.50095 C402.892175,233.036541 403.642722,232.215593 404.107131,232.037323 C404.571539,231.859053 405.392488,232.609601 405.570757,233.07401 C406.354237,236.50314 406.495039,239.646131 407.278518,243.075261 C407.456788,243.53967 406.706241,244.360618 406.241832,244.538888 C405.599154,244.252749 404.956475,243.96661 404.778205,243.502201 Z M375.654368,159.303438 C375.476098,158.839029 375.762237,158.196351 376.226646,158.018081 C376.691055,157.839811 377.798142,157.94768 377.976411,158.412089 L381.541807,167.700262 C381.720077,168.16467 381.612207,169.271757 381.147799,169.450027 C380.68339,169.628297 379.576303,169.520428 379.398033,169.056019 C378.150145,165.805159 376.902257,162.554298 375.654368,159.303438 Z M372.088973,150.015265 L371.197624,147.693222 C370.306275,145.371179 369.879335,142.870866 368.987986,140.548823 C368.809716,140.084414 369.095855,139.441736 370.024672,139.085196 C370.489081,138.906927 371.131759,139.193065 371.488299,140.121883 C371.915239,142.622196 372.806588,144.944239 373.697937,147.266282 L374.589286,149.588325 C374.767555,150.052734 374.481417,150.695412 373.552599,151.051952 C373.088191,151.230221 372.445512,150.944083 372.088973,150.015265 Z M401.076545,224.142376 C400.471335,221.177655 399.579986,218.855612 398.974776,215.89089 L398.439967,214.497664 C398.261697,214.033256 398.547836,213.390577 399.476653,213.034038 C399.941062,212.855768 400.58374,213.141907 400.940279,214.070724 L401.475089,215.46395 C402.544707,218.250402 402.971648,220.750715 403.576858,223.715436 C403.755127,224.179845 403.468989,224.822523 402.540171,225.179063 C401.897493,224.892924 401.254814,224.606785 401.076545,224.142376 Z M383.249568,177.701513 C383.071298,177.237105 383.357437,176.594426 383.821845,176.416157 C384.286254,176.237887 385.393341,176.345756 385.571611,176.810165 L389.601415,185.920067 C389.779685,186.384476 389.671816,187.491563 389.207407,187.669833 C388.742998,187.848103 387.635911,187.740234 387.457641,187.275825 L383.249568,177.701513 Z M391.309176,195.921319 C391.130906,195.45691 391.417045,194.814232 391.881453,194.635962 C392.345862,194.457693 393.452949,194.565562 393.631219,195.02997 L397.196614,204.318143 C397.374884,204.782551 397.088745,205.42523 396.159928,205.781769 C395.695519,205.960039 395.052841,205.6739 394.874571,205.209492 L391.309176,195.921319 Z M366.994086,131.19025 L366.994086,131.19025 C366.210606,127.761119 365.605396,124.796398 364.821917,121.367268 C364.643647,120.902859 365.394194,120.081911 365.858603,119.903641 C366.323012,119.725371 367.14396,120.475919 367.32223,120.940328 C368.105709,124.369458 368.710919,127.334179 369.494399,130.763309 C369.672669,131.227718 369.38653,131.870396 368.457713,132.226936 C367.815034,131.940797 367.172356,131.654658 366.994086,131.19025 Z M331.095998,29.3439582 C330.917728,28.8795496 331.203867,28.2368712 331.668275,28.0586014 C332.132684,27.8803317 333.061501,27.5237921 333.418041,28.4526094 C335.416477,30.8825216 337.593182,33.7768425 339.591618,36.2067547 C339.769888,36.6711634 340.126428,37.5999806 339.19761,37.9565202 C338.733202,38.1347899 337.804384,38.4913295 337.447845,37.5625122 C335.271139,34.6681913 333.272703,32.2382791 331.095998,29.3439582 C331.274267,29.8083669 331.095998,29.3439582 331.095998,29.3439582 Z M363.114156,111.366016 C362.508946,108.401295 361.725466,104.972164 361.584665,101.829173 C361.406395,101.364764 362.156942,100.543816 362.621351,100.365546 C363.08576,100.187277 363.906708,100.937824 364.084978,101.402233 C364.868457,104.831363 365.473667,107.796085 365.614469,110.939076 L364.685651,111.295615 L363.114156,111.366016 Z M359.412495,92.0061911 C358.629015,88.5770609 358.023805,85.6123393 357.240326,82.1832091 C357.062056,81.7188005 357.348195,81.0761221 358.277012,80.7195826 C358.741421,80.5413128 359.384099,80.8274517 359.740639,81.7562689 C360.524118,85.1853991 361.129328,88.1501207 361.912808,91.5792508 C362.091078,92.0436595 361.804939,92.6863379 360.876122,93.0428774 C360.233443,92.7567386 359.590765,92.4705997 359.412495,92.0061911 Z M342.692605,45.6731971 C342.514335,45.2087885 342.800474,44.5661101 343.264883,44.3878403 C343.729291,44.2095705 344.836378,44.3174396 345.014648,44.7818483 C346.726945,47.8544389 348.260973,50.4626209 349.97327,53.5352116 C350.151539,53.9996202 350.04367,55.1067072 349.579262,55.284977 C349.114853,55.4632468 348.007766,55.3553777 347.829496,54.890969 C345.938929,51.3539698 344.404902,48.7457878 342.692605,45.6731971 Z M354.139339,72.7167668 C353.06972,69.930315 352.46451,66.9655934 351.394892,64.1791416 L351.038352,63.2503244 C350.860082,62.7859158 351.146221,62.1432374 352.075038,61.7866978 C352.539447,61.608428 353.182125,61.8945669 353.360395,62.3589755 L353.716935,63.2877928 C354.786553,66.0742446 355.856172,68.8606964 356.461382,71.8254179 C356.639652,72.2898265 356.353513,72.9325049 355.424696,73.2890445 C355.138557,73.9317229 354.495878,73.645584 354.139339,72.7167668 Z" id="Shape" fill="#F9F9F9"></path>
                <path d="M278.246495,16.5949025 C306.603818,16.8991859 328.694482,42.5211335 338.39145,69.1706952 C348.088418,95.8202569 349.247761,125.214266 358.015912,152.220367 C365.357905,175.511199 377.808393,196.841064 385.150386,220.131896 C400.190911,267.642378 390.655248,321.922575 360.628812,361.689163 C350.369817,375.218341 337.075701,387.781234 321.037137,391.806502 C294.246774,398.360479 266.864809,381.163752 249.235426,360.223359 C231.606042,339.282966 219.122622,313.703023 199.349465,294.118387 C181.396475,276.499255 158.189652,264.626761 135.053229,254.325762 C111.916807,244.024763 87.7436979,235.187391 66.966787,221.31646 C45.7254675,207.623799 27.0593977,188.147033 19.3608653,163.927384 C11.6623329,139.707734 17.8960594,110.139992 38.3345752,95.3674605 C56.451048,81.4862784 81.4871095,81.4669546 103.80712,84.088745 C126.591539,86.5322656 149.910767,90.3690121 171.451834,82.6330113 C191.599675,75.4318198 206.610625,59.0128563 222.512923,44.9159361 C238.058683,29.8901985 257.282242,16.1168855 278.246495,16.5949025 Z" id="Path" fill="url(#linearGradient-2)"></path>
                <circle id="Oval" fill="#7B79E8" cx="421.842566" cy="160.842566" r="2.8425656"></circle>
                <circle id="Oval" fill="#7B79E8" cx="96.8425656" cy="334.842566" r="2.8425656"></circle>
                <path d="M108.685131,2.8425656 C108.685131,4.35860058 107.358601,5.6851312 105.842566,5.6851312 C104.326531,5.6851312 103,4.35860058 103,2.8425656 C103,1.32653061 104.326531,3.60600438e-13 105.842566,3.60600438e-13 C107.358601,3.60600438e-13 108.685131,1.32653061 108.685131,2.8425656 Z" id="Path" fill="#7B79E8"></path>
            </g>
        </g>
    </g>
</svg>