<?xml version="1.0" encoding="UTF-8"?>
<svg width="433px" height="390px" viewBox="0 0 433 390" version="1.1" xmlns="http://www.w3.org/2000/svg" xmlns:xlink="http://www.w3.org/1999/xlink">
    <!-- Generator: Sketch 54.1 (76490) - https://sketchapp.com -->
    <title>Illustration03</title>
    <desc>Created with Sketch.</desc>
    <defs>
        <linearGradient x1="14.7766821%" y1="21.2083987%" x2="81.0332314%" y2="88.0923981%" id="linearGradient-1">
            <stop stop-color="#796CE7" offset="0%"></stop>
            <stop stop-color="#8670B1" offset="100%"></stop>
        </linearGradient>
        <linearGradient x1="12.771811%" y1="28.0963841%" x2="82.7996075%" y2="78.9793279%" id="linearGradient-2">
            <stop stop-color="#796CE7" offset="0%"></stop>
            <stop stop-color="#8670B1" offset="100%"></stop>
        </linearGradient>
    </defs>
    <g id="Main" stroke="none" stroke-width="1" fill="none" fill-rule="evenodd">
        <g id="WhiteCapital_Elements" transform="translate(-1592.000000, -270.000000)">
            <g id="Illustration03" transform="translate(1592.000000, 270.000000)">
                <path d="M168.422012,23.8064869 C153.995991,19.3294461 139.569971,14.8524052 124.646501,14.8524052 C96.7893586,14.8524052 70.4245627,31.2682216 54.0087464,54.1508746 C37.59293,76.5360787 29.6337464,104.890671 27.1465015,132.747813 C24.6592566,157.620262 26.1516035,183.487609 35.6031341,206.867711 C45.0546647,230.247813 62.465379,250.643222 85.3480321,260.094752 C101.266399,266.561589 118.677114,267.556487 134.098032,275.515671 C158.473032,287.951895 170.909257,315.809038 192.299563,332.722303 C214.187318,350.630466 246.024052,356.599854 272.886297,347.645773 C302.235787,338.194242 324.620991,312.326895 337.057216,283.972303 C349.49344,255.120262 352.478134,223.780977 353.473032,192.441691 C354.965379,155.630466 351.980685,114.83965 327.108236,87.4799563 C308.702624,68.0794461 281.840379,59.1253644 256.470481,51.1661808 C226.623542,41.7146501 197.771501,32.7605685 168.422012,23.8064869 Z" id="Path" fill="url(#linearGradient-1)" fill-rule="nonzero" opacity="0.2"></path>
                <path d="M100.76895,389.928936 L100.76895,389.928936 C98.2817055,389.928936 95.7944606,389.928936 93.8046647,389.928936 C92.8097668,389.928936 91.3174198,389.928936 90.3225219,389.431487 C89.8250729,389.431487 89.3276239,388.934038 89.3276239,387.93914 C89.3276239,387.441691 89.8250729,386.944242 90.8199708,386.944242 C91.8148688,386.944242 93.3072157,386.944242 94.3021137,387.441691 C96.2919096,387.441691 98.2817055,387.441691 100.76895,387.441691 L101.266399,387.441691 C101.763848,387.441691 102.261297,387.93914 102.261297,388.436589 C102.261297,389.431487 101.763848,389.928936 100.76895,389.928936 Z M110.71793,389.431487 C110.220481,389.431487 109.723032,388.934038 109.723032,388.436589 C109.723032,387.93914 110.220481,386.944242 110.71793,386.944242 C113.702624,386.446793 117.184767,385.949344 120.66691,385.451895 C121.164359,385.451895 122.159257,385.949344 122.159257,386.446793 C122.159257,386.944242 121.661808,387.93914 121.164359,387.93914 C117.682216,388.436589 114.200073,388.934038 110.71793,389.431487 C110.71793,389.431487 110.71793,389.431487 110.71793,389.431487 Z M80.8709913,387.441691 C80.3735423,387.441691 80.3735423,387.441691 80.8709913,387.441691 C77.3888484,386.446793 73.9067055,385.949344 70.9220117,384.456997 C70.4245627,384.456997 69.9271137,383.462099 69.9271137,382.96465 C69.9271137,382.467201 70.9220117,381.969752 71.4194606,381.969752 C74.4041545,382.96465 77.8862974,383.959548 80.8709913,384.954446 C81.3684402,384.954446 81.8658892,385.949344 81.8658892,386.446793 C81.8658892,387.441691 81.3684402,387.441691 80.8709913,387.441691 Z M130.11844,385.451895 C129.620991,385.451895 129.123542,384.954446 129.123542,384.456997 C129.123542,383.959548 129.123542,382.96465 130.11844,382.96465 C133.103134,381.969752 136.585277,380.974854 139.569971,379.979956 C140.06742,379.482507 141.062318,379.979956 141.062318,380.477405 C141.062318,380.974854 141.062318,381.969752 140.564869,381.969752 C137.082726,383.462099 133.600583,384.456997 130.11844,385.451895 C130.615889,385.451895 130.11844,385.451895 130.11844,385.451895 Z M61.96793,380.974854 C61.96793,380.974854 61.470481,380.974854 61.470481,380.974854 C58.4857872,379.482507 55.5010933,377.99016 52.5163994,376.000364 C52.0189504,375.502915 52.0189504,375.005466 52.0189504,374.508017 C52.5163994,374.010569 53.0138484,374.010569 53.5112974,374.010569 C55.9985423,376.000364 58.9832362,377.492711 61.96793,378.985058 C62.465379,379.482507 62.962828,379.979956 62.465379,380.477405 C62.962828,380.974854 62.465379,380.974854 61.96793,380.974854 Z M148.524052,378.487609 C148.026603,378.487609 147.529155,377.99016 147.529155,377.99016 C147.031706,377.492711 147.529155,376.497813 148.026603,376.497813 C151.011297,375.005466 153.995991,373.51312 156.980685,372.020773 C157.478134,371.523324 158.473032,372.020773 158.473032,372.518222 C158.970481,373.015671 158.473032,374.010569 157.975583,374.010569 C154.990889,375.502915 152.006195,376.995262 149.021501,378.487609 C149.021501,378.487609 149.021501,378.487609 148.524052,378.487609 Z M45.5521137,370.030977 C45.0546647,370.030977 45.0546647,370.030977 44.5572157,369.533528 C42.0699708,367.543732 39.5827259,365.056487 37.095481,362.569242 C36.5980321,362.071793 36.5980321,361.076895 37.095481,360.579446 C37.59293,360.081997 38.587828,360.081997 39.085277,360.579446 C41.0750729,363.066691 43.5623178,365.056487 46.0495627,367.543732 C46.5470117,368.041181 46.5470117,368.53863 46.0495627,369.533528 C46.0495627,370.030977 46.0495627,370.030977 45.5521137,370.030977 Z M165.934767,368.53863 C165.437318,368.53863 164.939869,368.53863 164.939869,368.041181 C164.44242,367.543732 164.939869,366.548834 165.437318,366.548834 C167.924563,365.056487 170.909257,363.066691 173.396501,361.076895 C173.89395,360.579446 174.888848,360.579446 174.888848,361.574344 C175.386297,362.071793 175.386297,363.066691 174.391399,363.066691 C171.904155,365.056487 168.919461,367.046283 165.934767,368.53863 C166.432216,368.53863 166.432216,368.53863 165.934767,368.53863 Z M182.350583,357.097303 C181.853134,357.097303 181.853134,357.097303 181.355685,356.599854 C180.858236,356.102405 180.858236,355.107507 181.355685,354.610058 C183.84293,352.620262 186.330175,350.630466 188.81742,348.143222 C189.314869,347.645773 190.309767,347.645773 190.807216,348.143222 C191.304665,348.640671 191.304665,349.635569 190.807216,350.133017 C188.319971,352.620262 185.832726,354.610058 183.345481,356.599854 C182.848032,357.097303 182.350583,357.097303 182.350583,357.097303 Z M32.1209913,355.604956 C31.6235423,355.604956 31.1260933,355.604956 31.1260933,355.107507 C29.1362974,352.122813 27.6439504,349.13812 26.1516035,346.153426 C25.6541545,345.655977 26.1516035,344.661079 26.6490525,344.661079 C27.1465015,344.16363 28.1413994,344.661079 28.1413994,345.158528 C29.6337464,348.143222 31.1260933,351.127915 33.1158892,353.61516 C33.6133382,354.112609 33.1158892,355.107507 32.6184402,355.107507 C32.6184402,355.604956 32.6184402,355.604956 32.1209913,355.604956 Z M197.274052,344.16363 C196.776603,344.16363 196.776603,344.16363 196.279155,343.666181 C195.781706,343.168732 195.781706,342.173834 196.279155,341.676385 C198.766399,339.18914 201.253644,337.199344 203.24344,334.712099 C203.740889,334.21465 204.735787,334.21465 205.233236,334.712099 C205.730685,335.209548 205.730685,336.204446 205.233236,336.701895 C202.745991,339.18914 200.258746,341.178936 198.26895,343.666181 C197.771501,344.16363 197.274052,344.16363 197.274052,344.16363 Z M23.6643586,337.696793 C23.1669096,337.696793 22.6694606,337.199344 22.6694606,336.701895 L22.1720117,335.706997 C21.1771137,332.722303 20.6796647,329.737609 20.1822157,327.250364 C20.1822157,326.752915 20.6796647,325.758017 21.1771137,325.758017 C21.6745627,325.758017 22.6694606,326.255466 22.6694606,326.752915 C23.1669096,329.737609 23.6643586,332.224854 24.6592566,335.209548 L25.1567055,336.204446 C25.1567055,336.701895 24.6592566,337.199344 23.6643586,337.696793 C23.6643586,337.696793 23.6643586,337.696793 23.6643586,337.696793 Z M211.202624,330.235058 C210.705175,330.235058 210.705175,330.235058 210.207726,329.737609 C209.710277,329.24016 209.710277,328.245262 210.207726,327.747813 C212.694971,325.260569 214.684767,322.773324 217.172012,320.783528 C217.669461,320.286079 218.664359,320.286079 219.161808,320.783528 C219.659257,321.280977 219.659257,322.275875 219.161808,322.773324 C216.674563,325.260569 214.684767,327.747813 212.197522,329.737609 C212.197522,330.235058 211.700073,330.235058 211.202624,330.235058 Z M20.6796647,318.296283 C20.1822157,318.296283 19.6847668,317.798834 19.6847668,317.301385 L19.6847668,316.306487 C19.6847668,313.321793 19.6847668,310.337099 20.1822157,307.352405 C20.1822157,306.854956 20.6796647,305.860058 21.6745627,306.357507 C22.1720117,306.357507 22.6694606,306.854956 22.6694606,307.849854 C22.1720117,310.834548 22.1720117,313.819242 22.1720117,316.803936 L22.1720117,317.798834 C21.6745627,317.301385 21.1771137,318.296283 20.6796647,318.296283 C20.6796647,318.296283 20.6796647,318.296283 20.6796647,318.296283 Z M225.131195,315.809038 C224.633746,315.809038 224.633746,315.809038 224.136297,315.311589 C223.638848,314.81414 223.638848,313.819242 224.136297,313.321793 C226.126093,311.331997 228.613338,308.844752 230.603134,306.854956 L231.100583,306.357507 C231.598032,305.860058 232.59293,305.860058 233.090379,306.357507 C233.587828,306.854956 233.587828,307.849854 233.090379,308.347303 L232.59293,308.844752 C230.603134,310.834548 228.115889,313.321793 226.126093,315.311589 C226.126093,315.809038 225.628644,315.809038 225.131195,315.809038 Z M239.059767,301.880466 C238.562318,301.880466 238.562318,301.880466 238.064869,301.383017 C237.56742,300.885569 237.56742,299.890671 238.064869,299.393222 C240.552114,296.905977 243.039359,294.916181 245.526603,292.428936 C246.024052,291.931487 247.01895,291.931487 247.516399,292.428936 C248.013848,292.926385 248.013848,293.921283 247.516399,294.418732 C245.029155,296.408528 242.54191,298.895773 240.552114,301.383017 C240.054665,301.880466 239.557216,301.880466 239.059767,301.880466 Z M22.6694606,298.398324 C22.6694606,298.398324 22.6694606,298.398324 22.6694606,298.398324 C21.6745627,298.398324 21.1771137,297.403426 21.6745627,296.905977 C22.1720117,293.921283 23.1669096,290.43914 24.1618076,287.454446 C24.1618076,286.956997 25.1567055,286.459548 25.6541545,286.459548 C26.1516035,286.459548 26.6490525,287.454446 26.6490525,287.951895 C25.6541545,290.936589 24.6592566,294.418732 24.1618076,297.403426 C23.6643586,297.900875 23.1669096,298.398324 22.6694606,298.398324 Z M253.983236,288.449344 C253.485787,288.449344 253.485787,288.449344 252.988338,287.951895 C252.490889,287.454446 252.490889,286.459548 252.988338,285.962099 C255.475583,283.972303 257.962828,281.485058 260.947522,279.495262 C261.444971,278.997813 262.439869,278.997813 262.937318,279.495262 C263.434767,279.992711 263.434767,280.987609 262.937318,281.485058 C260.450073,283.474854 257.962828,285.46465 255.475583,287.454446 C254.480685,288.449344 253.983236,288.449344 253.983236,288.449344 Z M28.6388484,279.495262 C28.6388484,279.495262 28.1413994,279.495262 28.6388484,279.495262 C27.6439504,278.997813 27.1465015,278.500364 27.6439504,278.002915 C28.6388484,275.018222 30.1311953,272.033528 31.6235423,268.551385 C32.1209913,268.053936 32.6184402,267.556487 33.1158892,268.053936 C33.6133382,268.551385 34.1107872,269.048834 33.6133382,269.546283 C32.1209913,272.530977 31.1260933,275.515671 29.6337464,278.500364 C29.6337464,278.997813 29.1362974,279.495262 28.6388484,279.495262 Z M269.901603,276.510569 C269.404155,276.510569 268.906706,276.510569 268.906706,276.01312 C268.409257,275.515671 268.906706,274.520773 269.404155,274.520773 C272.388848,272.530977 274.876093,271.03863 277.860787,269.048834 C278.358236,268.551385 279.353134,269.048834 279.353134,269.546283 C279.850583,270.043732 279.353134,271.03863 278.855685,271.03863 C275.870991,272.530977 273.383746,274.520773 270.399052,276.01312 C270.399052,276.510569 269.901603,276.510569 269.901603,276.510569 Z M287.809767,266.561589 L287.312318,265.566691 L286.814869,264.571793 C289.799563,263.079446 292.784257,262.084548 296.266399,260.592201 C296.763848,260.592201 297.758746,260.592201 297.758746,261.587099 C297.758746,262.084548 297.758746,263.079446 296.763848,263.079446 C293.281706,264.074344 290.297012,265.566691 287.809767,266.561589 Z M36.5980321,261.08965 C36.5980321,261.08965 36.1005831,261.08965 36.1005831,261.08965 C35.6031341,260.592201 35.1056851,260.094752 35.6031341,259.597303 L36.1005831,258.602405 C37.095481,256.612609 38.090379,254.125364 39.5827259,252.135569 L40.0801749,250.643222 C40.5776239,250.145773 41.0750729,249.648324 41.5725219,250.145773 C42.0699708,250.643222 42.5674198,251.140671 42.0699708,251.63812 L41.5725219,253.130466 C40.5776239,255.120262 39.085277,257.607507 38.090379,259.597303 L37.59293,260.592201 C37.59293,261.08965 37.095481,261.08965 36.5980321,261.08965 Z M305.71793,260.094752 C305.220481,260.094752 304.723032,259.597303 304.723032,259.099854 C304.723032,258.602405 304.723032,257.607507 305.71793,257.607507 C308.702624,256.612609 312.184767,255.617711 315.169461,255.120262 C315.66691,255.120262 316.661808,255.120262 316.661808,256.11516 C316.661808,256.612609 316.661808,257.607507 315.66691,257.607507 C312.184767,258.104956 309.200073,259.099854 305.71793,260.094752 C305.71793,260.094752 305.71793,260.094752 305.71793,260.094752 Z M324.620991,255.120262 C324.123542,255.120262 323.626093,254.622813 323.626093,254.125364 C323.626093,253.627915 324.123542,252.633017 324.620991,252.633017 L334.072522,250.145773 C334.569971,250.145773 335.564869,250.643222 335.564869,251.140671 C335.564869,251.63812 335.06742,252.633017 334.569971,252.633017 L324.620991,255.120262 C325.11844,255.120262 325.11844,255.120262 324.620991,255.120262 Z M344.021501,250.643222 C343.524052,250.643222 343.026603,250.145773 343.026603,249.648324 C343.026603,249.150875 343.026603,248.155977 344.021501,248.155977 C347.006195,247.161079 350.488338,246.66363 353.473032,245.668732 C353.970481,245.668732 354.965379,245.668732 354.965379,246.66363 C354.965379,247.161079 354.965379,248.155977 353.970481,248.155977 C350.985787,248.653426 347.503644,249.648324 344.021501,250.643222 C344.51895,250.643222 344.51895,250.643222 344.021501,250.643222 Z M363.422012,245.171283 C362.924563,245.171283 362.427114,244.673834 362.427114,244.176385 C362.427114,243.678936 362.427114,242.684038 363.422012,242.684038 C364.41691,242.186589 364.914359,242.186589 365.909257,241.68914 C368.396501,240.694242 370.386297,240.196793 372.873542,239.201895 C373.370991,238.704446 374.365889,239.201895 374.365889,239.699344 C374.863338,240.196793 374.365889,241.191691 373.86844,241.191691 C371.381195,242.186589 369.391399,243.181487 366.904155,243.678936 C365.411808,244.673834 364.41691,244.673834 363.422012,245.171283 C363.422012,245.171283 363.422012,245.171283 363.422012,245.171283 Z M45.5521137,243.678936 C45.5521137,243.678936 45.0546647,243.678936 45.0546647,243.678936 C44.5572157,243.181487 44.0597668,242.684038 44.5572157,242.186589 C46.0495627,239.201895 47.5419096,236.217201 49.0342566,233.232507 C49.5317055,232.735058 50.0291545,232.237609 50.5266035,232.735058 C51.0240525,233.232507 51.5215015,233.729956 51.0240525,234.227405 C49.5317055,237.212099 48.0393586,240.196793 46.5470117,243.181487 C46.5470117,243.181487 46.0495627,243.678936 45.5521137,243.678936 Z M381.827624,237.709548 C381.330175,237.709548 380.832726,237.212099 380.832726,237.212099 C380.335277,236.71465 380.832726,235.719752 381.330175,235.719752 C384.314869,234.227405 387.299563,232.735058 389.786808,230.745262 C390.284257,230.247813 391.279155,230.745262 391.279155,231.242711 C391.776603,231.74016 391.279155,232.735058 390.781706,232.735058 C387.797012,234.227405 384.812318,236.217201 381.827624,237.709548 C381.827624,237.709548 381.827624,237.709548 381.827624,237.709548 Z M398.740889,227.26312 C398.24344,227.26312 397.745991,227.26312 397.745991,226.765671 C397.248542,226.268222 397.248542,225.273324 398.24344,225.273324 C400.730685,223.283528 403.715379,221.293732 405.705175,219.303936 C406.202624,218.806487 407.197522,218.806487 407.694971,219.303936 C408.19242,219.801385 408.19242,220.796283 407.694971,221.293732 C405.207726,223.283528 402.720481,225.770773 399.735787,227.760569 C399.238338,227.26312 398.740889,227.26312 398.740889,227.26312 Z M53.5112974,225.273324 C53.5112974,225.273324 53.5112974,225.273324 53.5112974,225.273324 C52.5163994,224.775875 52.0189504,224.278426 52.5163994,223.780977 C53.5112974,220.298834 54.5061953,217.31414 55.5010933,214.329446 C55.5010933,213.831997 56.4959913,213.334548 56.9934402,213.334548 C57.4908892,213.334548 57.9883382,214.329446 57.9883382,214.826895 C56.9934402,217.811589 56.4959913,221.293732 55.0036443,224.278426 C54.5061953,225.273324 54.0087464,225.273324 53.5112974,225.273324 Z M413.16691,213.831997 C412.669461,213.831997 412.669461,213.831997 412.172012,213.334548 C411.674563,212.837099 411.674563,212.33965 412.172012,211.344752 C414.161808,208.857507 416.151603,206.370262 418.141399,203.883017 C418.638848,203.385569 419.136297,203.385569 419.633746,203.385569 C420.131195,203.883017 420.131195,204.380466 420.131195,204.877915 C418.141399,207.36516 416.151603,210.349854 414.161808,212.837099 C414.161808,213.831997 413.664359,213.831997 413.16691,213.831997 Z M58.4857872,206.370262 C57.9883382,206.370262 57.9883382,206.370262 58.4857872,206.370262 C57.4908892,206.370262 56.9934402,205.872813 57.4908892,204.877915 C57.4908892,203.883017 57.4908892,202.88812 57.4908892,201.893222 L57.4908892,200.898324 C57.4908892,198.908528 57.4908892,197.416181 56.9934402,195.426385 C56.9934402,194.928936 57.4908892,193.934038 57.9883382,193.934038 C58.4857872,193.934038 59.4806851,194.431487 59.4806851,194.928936 C59.4806851,196.918732 59.9781341,198.908528 59.9781341,200.400875 L59.9781341,201.395773 C59.9781341,202.390671 59.9781341,203.385569 59.9781341,204.877915 C59.4806851,205.872813 58.9832362,206.370262 58.4857872,206.370262 Z M424.608236,197.416181 C424.608236,197.416181 424.110787,197.416181 424.110787,197.416181 C423.613338,196.918732 423.115889,196.421283 423.613338,195.923834 C425.105685,192.93914 426.100583,189.954446 427.095481,186.969752 C427.095481,186.472303 428.090379,185.974854 428.587828,185.974854 C429.085277,185.974854 429.582726,186.969752 429.582726,187.467201 C428.587828,190.451895 427.095481,193.934038 425.603134,196.918732 C425.105685,197.416181 424.608236,197.416181 424.608236,197.416181 Z M56.4959913,186.472303 C55.9985423,186.472303 55.5010933,185.974854 55.5010933,185.477405 C55.0036443,182.492711 54.0087464,179.508017 53.0138484,176.025875 C53.0138484,175.528426 53.0138484,174.533528 54.0087464,174.533528 C54.5061953,174.533528 55.5010933,174.533528 55.5010933,175.528426 C56.4959913,179.010569 57.4908892,181.995262 58.4857872,184.979956 C57.9883382,185.477405 57.4908892,186.472303 56.4959913,186.472303 C56.4959913,186.472303 56.4959913,186.472303 56.4959913,186.472303 Z M430.577624,179.010569 C430.577624,179.010569 430.577624,179.010569 430.577624,179.010569 C429.582726,179.010569 429.085277,178.015671 429.582726,177.518222 C429.582726,176.523324 429.582726,176.025875 430.080175,175.030977 C430.577624,172.543732 430.577624,170.056487 430.577624,167.569242 C430.577624,167.071793 431.075073,166.574344 431.572522,166.574344 C431.572522,166.574344 431.572522,166.574344 431.572522,166.574344 C432.069971,166.574344 432.56742,167.071793 432.56742,168.066691 C432.56742,170.553936 432.56742,173.041181 432.069971,175.528426 C432.069971,176.523324 432.069971,177.020773 431.572522,178.015671 C431.572522,178.51312 431.075073,179.010569 430.577624,179.010569 Z M50.5266035,167.569242 C50.0291545,167.569242 49.5317055,167.071793 49.5317055,166.574344 C48.5368076,163.58965 47.0444606,160.604956 46.0495627,157.620262 C45.5521137,157.122813 46.0495627,156.127915 46.5470117,156.127915 C47.0444606,155.630466 48.0393586,156.127915 48.0393586,156.625364 C49.5317055,159.610058 50.5266035,162.594752 51.5215015,166.076895 C51.5215015,166.574344 51.5215015,167.071793 50.5266035,167.569242 C50.5266035,167.569242 50.5266035,167.569242 50.5266035,167.569242 Z M430.577624,159.112609 C430.080175,159.112609 429.582726,158.61516 429.582726,158.117711 C429.085277,155.133017 428.587828,151.650875 427.59293,148.666181 C427.59293,148.168732 427.59293,147.173834 428.587828,147.173834 C429.085277,147.173834 430.080175,147.173834 430.080175,148.168732 C431.075073,151.650875 431.572522,154.635569 432.069971,158.117711 C432.069971,158.117711 431.572522,159.112609 430.577624,159.112609 C431.075073,159.112609 431.075073,159.112609 430.577624,159.112609 Z M43.0648688,149.16363 C42.5674198,149.16363 42.0699708,148.666181 42.0699708,148.168732 L41.5725219,146.676385 C40.5776239,144.18914 39.5827259,141.701895 38.587828,138.717201 C38.587828,138.219752 38.587828,137.224854 39.5827259,137.224854 C40.5776239,137.224854 41.0750729,137.224854 41.0750729,138.219752 C42.0699708,140.706997 43.0648688,143.691691 44.0597668,145.681487 L44.5572157,147.173834 C44.5572157,148.168732 44.0597668,148.666181 43.0648688,149.16363 C43.0648688,149.16363 43.0648688,149.16363 43.0648688,149.16363 Z M425.603134,139.712099 C425.105685,139.712099 424.608236,139.21465 424.608236,138.717201 C423.613338,135.732507 422.120991,132.747813 420.628644,129.76312 C420.131195,129.265671 420.628644,128.270773 421.126093,128.270773 C421.623542,127.773324 422.61844,128.270773 422.61844,128.768222 C424.110787,131.752915 425.603134,134.737609 426.598032,138.219752 C427.095481,138.717201 427.095481,139.712099 425.603134,139.712099 C426.100583,139.712099 426.100583,139.712099 425.603134,139.712099 Z M36.5980321,130.260569 C36.1005831,130.260569 35.6031341,129.76312 35.6031341,129.265671 C34.6082362,125.783528 33.6133382,122.798834 33.1158892,119.316691 C33.1158892,118.819242 33.6133382,117.824344 34.1107872,117.824344 C34.6082362,117.824344 35.6031341,118.321793 35.6031341,118.819242 C36.1005831,121.803936 37.095481,125.286079 38.090379,128.270773 C37.59293,129.76312 37.59293,130.260569 36.5980321,130.260569 C36.5980321,130.260569 36.5980321,130.260569 36.5980321,130.260569 Z M417.146501,121.803936 C416.649052,121.803936 416.151603,121.803936 416.151603,121.306487 C415.654155,120.311589 414.659257,118.819242 414.161808,117.824344 C413.16691,116.331997 412.172012,114.342201 411.177114,112.849854 C410.679665,112.352405 411.177114,111.357507 411.674563,111.357507 C412.172012,110.860058 413.16691,111.357507 413.16691,111.854956 C414.161808,113.347303 415.156706,115.337099 416.649052,116.829446 C417.146501,117.824344 418.141399,119.316691 418.638848,120.311589 C419.136297,120.809038 418.638848,121.803936 418.141399,121.803936 C417.64395,121.803936 417.146501,121.803936 417.146501,121.803936 Z M32.6184402,110.860058 C32.1209913,110.860058 31.6235423,110.362609 31.6235423,109.86516 C31.1260933,106.383017 31.1260933,102.900875 31.1260933,99.9161808 C31.1260933,99.4187318 31.6235423,98.9212828 32.1209913,98.4238338 L32.1209913,98.4238338 C32.6184402,98.4238338 33.1158892,98.9212828 33.1158892,99.4187318 C33.1158892,102.403426 33.1158892,105.885569 33.6133382,109.367711 C33.6133382,110.362609 33.1158892,110.860058 32.6184402,110.860058 C32.6184402,110.860058 32.6184402,110.860058 32.6184402,110.860058 Z M406.202624,105.38812 C405.705175,105.38812 405.705175,105.38812 405.207726,104.890671 C403.21793,102.403426 401.228134,99.9161808 398.740889,97.4289359 C398.24344,96.9314869 398.24344,95.9365889 398.740889,95.4391399 C399.238338,94.941691 400.233236,94.941691 400.730685,95.4391399 C402.720481,97.9263848 405.207726,100.41363 407.197522,103.398324 C407.694971,103.895773 407.694971,104.890671 407.197522,105.38812 C406.700073,105.38812 406.202624,105.38812 406.202624,105.38812 Z M32.1209913,91.4595481 C32.1209913,91.4595481 32.1209913,91.4595481 32.1209913,91.4595481 C31.1260933,91.4595481 30.6286443,90.9620991 31.1260933,89.9672012 C31.6235423,86.4850583 32.1209913,83.0029155 33.1158892,80.0182216 C33.1158892,79.5207726 34.1107872,79.0233236 34.6082362,79.0233236 C35.1056851,79.0233236 35.6031341,80.0182216 35.6031341,80.5156706 C34.6082362,83.5003644 34.1107872,86.9825073 33.6133382,89.9672012 C33.6133382,90.9620991 33.1158892,91.4595481 32.1209913,91.4595481 Z M392.771501,90.4646501 C392.274052,90.4646501 392.274052,90.4646501 391.776603,89.9672012 C389.289359,87.4799563 387.299563,85.4901603 384.812318,83.0029155 C384.314869,82.5054665 384.314869,81.5105685 384.812318,81.0131195 C385.309767,80.5156706 386.304665,80.5156706 386.802114,81.0131195 C389.289359,83.0029155 391.776603,85.4901603 393.766399,87.9774052 C394.263848,88.4748542 394.263848,89.4697522 393.766399,89.9672012 C393.766399,90.4646501 393.26895,90.4646501 392.771501,90.4646501 Z M378.345481,77.0335277 C377.848032,77.0335277 377.848032,77.0335277 377.350583,76.5360787 C374.863338,74.5462828 372.376093,72.5564869 369.391399,70.566691 C368.89395,70.069242 368.89395,69.571793 368.89395,69.074344 C369.391399,68.576895 369.888848,68.576895 370.386297,68.576895 C372.873542,70.566691 375.858236,72.5564869 378.345481,74.5462828 C378.84293,75.0437318 378.84293,75.5411808 378.345481,76.5360787 C378.84293,77.0335277 378.84293,77.0335277 378.345481,77.0335277 Z M37.59293,72.0590379 C37.59293,72.0590379 37.095481,72.0590379 37.095481,72.0590379 C36.5980321,71.5615889 36.1005831,71.0641399 36.5980321,70.566691 C38.090379,67.5819971 39.5827259,64.5973032 41.5725219,61.6126093 C42.0699708,61.1151603 42.5674198,61.1151603 43.0648688,61.1151603 C43.5623178,61.6126093 43.5623178,62.1100583 43.5623178,62.6075073 C41.5725219,65.0947522 40.0801749,68.0794461 39.085277,71.0641399 C38.587828,72.0590379 38.090379,72.0590379 37.59293,72.0590379 Z M362.427114,65.5922012 C362.427114,65.5922012 361.929665,65.5922012 361.929665,65.5922012 C358.944971,63.6024052 356.457726,62.1100583 353.473032,60.6177114 C352.975583,60.1202624 352.478134,59.6228134 352.975583,59.1253644 C353.473032,58.6279155 353.970481,58.1304665 354.46793,58.6279155 C357.452624,60.1202624 360.437318,62.1100583 362.924563,63.6024052 C363.422012,64.0998542 363.919461,64.5973032 363.422012,65.0947522 C362.924563,65.5922012 362.427114,65.5922012 362.427114,65.5922012 Z M345.016399,55.6432216 C345.016399,55.6432216 344.51895,55.6432216 344.51895,55.6432216 C341.534257,54.1508746 338.549563,52.6585277 335.564869,51.6636297 C335.06742,51.1661808 334.569971,50.6687318 335.06742,50.1712828 C335.564869,49.6738338 336.062318,49.1763848 336.559767,49.6738338 C339.544461,51.1661808 342.529155,52.1610787 345.513848,53.6534257 C346.011297,54.1508746 346.508746,54.6483236 346.011297,55.1457726 C346.011297,55.6432216 345.513848,55.6432216 345.016399,55.6432216 Z M48.5368076,55.6432216 C48.0393586,55.6432216 48.0393586,55.6432216 47.5419096,55.1457726 C47.0444606,54.6483236 47.0444606,54.1508746 47.5419096,53.1559767 C49.5317055,50.6687318 52.0189504,48.1814869 55.0036443,46.191691 C55.5010933,45.694242 56.4959913,45.694242 56.9934402,46.191691 C57.4908892,46.6891399 57.4908892,47.6840379 56.9934402,48.1814869 C54.5061953,50.1712828 52.0189504,52.6585277 50.0291545,55.1457726 C49.0342566,55.6432216 48.5368076,55.6432216 48.5368076,55.6432216 Z M326.610787,48.1814869 C326.610787,48.1814869 326.610787,48.1814869 326.610787,48.1814869 C323.128644,47.1865889 320.14395,46.191691 316.661808,45.196793 C316.164359,45.196793 315.66691,44.201895 315.66691,43.7044461 C315.66691,43.2069971 316.661808,42.7095481 317.159257,42.7095481 C320.14395,43.7044461 323.626093,44.699344 326.610787,45.694242 C327.108236,45.694242 327.605685,46.6891399 327.605685,47.1865889 C327.605685,47.6840379 327.108236,48.1814869 326.610787,48.1814869 Z M63.460277,42.7095481 C62.962828,42.7095481 62.465379,42.7095481 62.465379,42.2120991 C61.96793,41.7146501 62.465379,40.7197522 62.962828,40.7197522 C65.9475219,38.7299563 68.4347668,37.2376093 71.9169096,35.7452624 C72.4143586,35.2478134 73.4092566,35.7452624 73.4092566,36.2427114 C73.9067055,36.7401603 73.4092566,37.7350583 72.9118076,37.7350583 C69.9271137,39.2274052 66.9424198,40.7197522 64.4551749,42.7095481 C63.9577259,42.7095481 63.9577259,42.7095481 63.460277,42.7095481 Z M307.707726,42.2120991 C307.707726,42.2120991 307.707726,42.2120991 307.707726,42.2120991 C304.225583,41.2172012 300.74344,40.7197522 297.758746,40.2223032 C297.261297,40.2223032 296.763848,39.2274052 296.763848,38.7299563 C296.763848,38.2325073 297.758746,37.7350583 298.256195,37.7350583 C301.738338,38.2325073 304.723032,39.2274052 308.205175,39.7248542 C308.702624,39.7248542 309.200073,40.7197522 309.200073,41.2172012 C308.702624,41.7146501 308.205175,42.2120991 307.707726,42.2120991 Z M218.664359,39.2274052 C218.16691,39.2274052 217.669461,38.7299563 217.669461,38.2325073 C217.669461,37.7350583 218.16691,36.7401603 218.664359,36.7401603 C222.146501,36.7401603 225.131195,36.7401603 228.613338,36.7401603 C229.110787,36.7401603 230.105685,37.2376093 230.105685,37.7350583 C230.105685,38.2325073 229.608236,39.2274052 229.110787,39.2274052 C225.628644,39.2274052 222.146501,39.2274052 218.664359,39.2274052 C218.664359,39.2274052 218.664359,39.2274052 218.664359,39.2274052 Z M208.715379,39.2274052 C208.715379,39.2274052 208.715379,39.2274052 208.715379,39.2274052 C207.720481,39.2274052 207.223032,39.2274052 206.228134,39.2274052 C203.740889,39.2274052 201.253644,38.7299563 198.766399,38.7299563 C198.26895,38.7299563 197.771501,38.2325073 197.771501,37.2376093 C197.771501,36.7401603 198.26895,36.2427114 199.263848,36.2427114 C201.751093,36.7401603 204.238338,36.7401603 206.725583,36.7401603 C207.720481,36.7401603 208.21793,36.7401603 209.212828,36.7401603 C209.710277,36.7401603 210.207726,37.2376093 210.207726,38.2325073 C210.207726,38.7299563 209.710277,39.2274052 208.715379,39.2274052 Z M288.307216,38.7299563 C288.307216,38.7299563 288.307216,38.7299563 288.307216,38.7299563 C285.322522,38.2325073 282.835277,38.2325073 279.850583,37.7350583 L278.358236,37.7350583 C277.860787,37.7350583 277.363338,37.2376093 277.363338,36.2427114 C277.363338,35.7452624 277.860787,35.2478134 278.855685,35.2478134 L280.348032,35.2478134 C283.332726,35.2478134 285.819971,35.7452624 288.804665,36.2427114 C289.302114,36.2427114 289.799563,36.7401603 289.799563,37.7350583 C289.302114,38.2325073 288.804665,38.7299563 288.307216,38.7299563 Z M238.562318,38.7299563 C238.064869,38.7299563 237.56742,38.2325073 237.56742,37.7350583 C237.56742,37.2376093 238.064869,36.2427114 238.562318,36.2427114 L248.511297,35.7452624 C249.008746,35.7452624 250.003644,36.2427114 250.003644,36.7401603 C250.003644,37.2376093 249.506195,38.2325073 249.008746,38.2325073 L238.562318,38.7299563 C238.562318,38.7299563 238.562318,38.7299563 238.562318,38.7299563 Z M258.460277,37.7350583 C257.962828,37.7350583 257.465379,37.2376093 257.465379,36.7401603 C257.465379,36.2427114 257.962828,35.2478134 258.460277,35.2478134 C261.444971,35.2478134 263.932216,35.2478134 266.91691,35.2478134 L268.409257,35.2478134 C268.906706,35.2478134 269.404155,35.7452624 269.404155,36.7401603 C269.404155,37.2376093 268.906706,37.7350583 268.409257,37.7350583 C268.409257,37.7350583 268.409257,37.7350583 268.409257,37.7350583 L266.91691,37.7350583 C263.932216,37.7350583 261.444971,37.7350583 258.460277,37.7350583 C258.460277,37.7350583 258.460277,37.7350583 258.460277,37.7350583 Z M189.314869,37.2376093 C188.81742,37.2376093 188.81742,37.2376093 189.314869,37.2376093 C185.832726,36.7401603 182.848032,36.2427114 179.365889,35.7452624 C178.86844,35.7452624 178.370991,34.7503644 178.370991,34.2529155 C178.370991,33.7554665 179.365889,33.2580175 179.863338,33.2580175 C183.345481,33.7554665 186.330175,34.2529155 189.812318,34.7503644 C190.309767,34.7503644 190.807216,35.2478134 190.807216,36.2427114 C190.309767,36.7401603 189.812318,37.2376093 189.314869,37.2376093 Z M81.3684402,34.2529155 C80.8709913,34.2529155 80.3735423,33.7554665 80.3735423,33.2580175 C80.3735423,32.7605685 80.3735423,31.7656706 81.3684402,31.7656706 C84.3531341,30.7707726 87.835277,29.7758746 90.8199708,28.7809767 C91.3174198,28.7809767 92.3123178,28.7809767 92.3123178,29.7758746 C92.3123178,30.2733236 92.3123178,31.2682216 91.3174198,31.2682216 C87.835277,32.2631195 84.8505831,33.2580175 81.3684402,34.2529155 C81.8658892,34.2529155 81.3684402,34.2529155 81.3684402,34.2529155 Z M169.41691,33.7554665 C166.432216,33.2580175 162.950073,32.7605685 159.965379,31.7656706 C159.46793,31.7656706 158.970481,30.7707726 158.970481,30.2733236 C158.970481,29.7758746 159.965379,29.2784257 160.462828,29.2784257 C163.944971,29.7758746 166.929665,30.2733236 169.914359,31.2682216 L169.914359,32.2631195 L169.41691,33.7554665 Z M150.016399,30.2733236 C150.016399,30.2733236 150.016399,30.2733236 150.016399,30.2733236 C146.534257,29.7758746 143.549563,29.2784257 140.06742,28.7809767 C139.569971,28.7809767 139.072522,28.2835277 139.072522,27.2886297 C139.072522,26.7911808 139.569971,26.2937318 140.564869,26.2937318 C144.047012,26.7911808 147.031706,27.2886297 150.513848,27.7860787 C151.011297,27.7860787 151.508746,28.2835277 151.508746,29.2784257 C151.011297,29.7758746 150.513848,30.2733236 150.016399,30.2733236 Z M100.76895,29.2784257 C100.271501,29.2784257 99.7740525,28.7809767 99.7740525,28.2835277 C99.7740525,27.7860787 100.271501,26.7911808 100.76895,26.7911808 C104.251093,26.2937318 107.235787,25.7962828 110.71793,25.2988338 C111.215379,25.2988338 112.210277,25.7962828 112.210277,26.2937318 C112.210277,26.7911808 111.712828,27.7860787 111.215379,27.7860787 C107.235787,28.2835277 104.251093,28.7809767 100.76895,29.2784257 C100.76895,29.2784257 100.76895,29.2784257 100.76895,29.2784257 Z M130.11844,28.2835277 C130.11844,28.2835277 130.11844,28.2835277 130.11844,28.2835277 C127.133746,28.2835277 124.149052,27.7860787 121.164359,27.7860787 L120.169461,27.7860787 C119.672012,27.7860787 119.174563,27.2886297 119.174563,26.2937318 C119.174563,25.7962828 119.672012,25.2988338 120.169461,25.2988338 C120.169461,25.2988338 120.169461,25.2988338 120.169461,25.2988338 L121.164359,25.2988338 C124.149052,25.2988338 127.133746,25.2988338 130.11844,25.7962828 C130.615889,25.7962828 131.113338,26.2937318 131.113338,27.2886297 C131.610787,27.7860787 131.113338,28.2835277 130.11844,28.2835277 Z" id="Shape" fill="#F9F9F9" fill-rule="nonzero"></path>
                <path d="M50.5266035,79.0233236 C60.9730321,52.6585277 92.8097668,41.2172012 121.164359,41.7146501 C149.51895,42.2120991 177.376093,51.6636297 205.730685,53.1559767 C230.105685,54.6483236 254.480685,50.6687318 278.855685,52.1610787 C328.600583,55.1457726 375.858236,83.5003644 402.223032,125.783528 C411.177114,140.209548 418.141399,157.122813 416.151603,173.53863 C412.669461,200.898324 386.802114,220.298834 360.934767,229.252915 C335.06742,238.206997 306.712828,240.694242 281.34293,252.135569 C258.460277,262.581997 239.059767,279.992711 221.151603,297.900875 C203.24344,315.809038 186.330175,335.209548 165.934767,349.635569 C145.539359,364.559038 120.66691,375.005466 95.2970117,373.51312 C69.9271137,372.020773 44.5572157,355.604956 38.090379,331.229956 C31.6235423,309.342201 40.5776239,285.962099 51.0240525,266.06414 C61.470481,245.668732 73.4092566,225.273324 73.9067055,202.390671 C74.4041545,181.000364 64.4551749,161.102405 56.9934402,141.204446 C48.5368076,121.306487 42.5674198,98.4238338 50.5266035,79.0233236 Z" id="Path" fill="url(#linearGradient-2)" fill-rule="nonzero"></path>
                <circle id="Oval" fill="#7E6DD4" fill-rule="nonzero" cx="375.787172" cy="308.702624" r="2.8425656"></circle>
                <circle id="Oval" fill="#7E6DD4" fill-rule="nonzero" cx="2.8425656" cy="248.440233" r="2.8425656"></circle>
                <path d="M272.886297,2.8425656 C272.886297,4.35860058 271.559767,5.6851312 270.043732,5.6851312 C268.527697,5.6851312 267.201166,4.35860058 267.201166,2.8425656 C267.201166,1.32653061 268.527697,0 270.043732,0 C271.559767,0 272.886297,1.32653061 272.886297,2.8425656 Z" id="Path" fill="#7E6DD4" fill-rule="nonzero"></path>
                <g id="logo" transform="translate(172.000000, 151.000000)" fill="#FFFFFF">
                    <path d="M18.9442629,5.88581714 C18.9769486,6.31324571 19.0259771,6.71050286 19.0913486,7.08010286 C19.1579771,7.44970286 19.2560343,7.79164571 19.3892914,8.10341714 L23.0299771,16.4495886 L25.7026629,10.4065029 L21.3102057,0.315417143 L16.5544343,0.315417143 L1.15066286,35.6323314 L3.95912,35.6323314 C4.71592,35.6323314 5.41363429,35.42616 6.05477714,35.0163314 C6.69592,34.6052457 7.16357714,34.0546171 7.45900571,33.3644457 L18.4753486,8.10341714 C18.7393486,7.51256 18.8952343,6.77210286 18.9442629,5.88581714" id="Fill-23"></path>
                    <path d="M37.6995771,0.31592 L32.9425486,0.31592 C28.5890629,10.3378629 26.3966057,15.3664343 26.3614057,15.39912 C26.39912,15.3073486 26.4142057,15.2092914 26.44312,15.1137486 L24.4442629,19.6872343 L24.4656343,19.7362629 L17.5400343,35.6328343 L20.3484914,35.6328343 C21.1052914,35.6328343 21.8017486,35.4266629 22.4428914,35.0155771 C23.0840343,34.6044914 23.5529486,34.05512 23.8483771,33.3649486 L34.86472,8.10266286 C35.1274629,7.47912 35.2846057,6.75626286 35.3336343,5.93534857 C35.3512343,6.73866286 35.49832,7.46152 35.7774057,8.10266286 L46.7924914,33.3649486 C47.0564914,34.05512 47.5178629,34.6044914 48.1740914,35.0155771 C48.83032,35.4266629 49.5380914,35.6328343 50.2936343,35.6328343 L53.1033486,35.6328343 L37.6995771,0.31592 Z" id="Fill-24"></path>
                    <path d="M3.72604571,41.6801943 C4.10193143,41.6801943 4.33827429,41.70408 4.49038857,41.7443086 L49.6507314,41.7443086 C49.8041029,41.70408 50.0404457,41.6801943 50.4163314,41.6801943 C53.80936,41.6801943 53.8659314,39.3507086 53.8659314,39.3507086 L0.276445714,39.3507086 C0.276445714,39.3507086 0.333017143,41.6801943 3.72604571,41.6801943" id="Fill-25"></path>
                    <path d="M37.0586857,54.7621486 C40.3322857,54.7621486 40.4994857,52.5998629 40.5070286,52.4477486 L23.3583429,52.4477486 C23.3646286,52.5998629 23.5318286,54.7621486 26.8066857,54.7621486 C27.2353714,54.7621486 27.5018857,54.7898057 27.6452,54.8400914 L36.2201714,54.8400914 C36.3622286,54.7898057 36.63,54.7621486 37.0586857,54.7621486" id="Fill-26"></path>
                    <path d="M8.85518857,45.87 C8.85518857,45.87 8.91176,48.1994857 12.3047886,48.1994857 C12.5851314,48.1994857 12.77496,48.2145714 12.9270743,48.2372 L30.24296,48.2372 C30.3950743,48.2145714 30.5849029,48.1994857 30.8652457,48.1994857 C34.2582743,48.1994857 34.3148457,45.87 34.3148457,45.87 L34.3223886,45.8687429 L34.3223886,45.8448571 L8.81244571,45.8448571 L8.81244571,45.8624571 L8.85518857,45.87 Z" id="Fill-27"></path>
                </g>
            </g>
        </g>
    </g>
</svg>