<?xml version="1.0" encoding="UTF-8"?>
<svg width="392px" height="436px" viewBox="0 0 392 436" version="1.1" xmlns="http://www.w3.org/2000/svg" xmlns:xlink="http://www.w3.org/1999/xlink">
    <!-- Generator: Sketch 54.1 (76490) - https://sketchapp.com -->
    <title>Illustration</title>
    <desc>Created with Sketch.</desc>
    <defs>
        <linearGradient x1="78.4814985%" y1="91.7310554%" x2="16.7695583%" y2="18.3566939%" id="linearGradient-1">
            <stop stop-color="#A16CB5" offset="0%"></stop>
            <stop stop-color="#8670B1" offset="100%"></stop>
        </linearGradient>
        <linearGradient x1="73.9170915%" y1="91.7310554%" x2="22.0950246%" y2="18.3566939%" id="linearGradient-2">
            <stop stop-color="#A16CB5" offset="0%"></stop>
            <stop stop-color="#8670B1" offset="100%"></stop>
        </linearGradient>
    </defs>
    <g id="Main" stroke="none" stroke-width="1" fill="none" fill-rule="evenodd">
        <g id="WhiteCapital_Elements" transform="translate(-926.000000, -249.000000)" fill-rule="nonzero">
            <g id="Illustration" transform="translate(926.000000, 249.000000)">
                <path d="M164.422012,44.8064869 C149.995991,40.3294461 135.569971,35.8524052 120.646501,35.8524052 C92.7893586,35.8524052 66.4245627,52.2682216 50.0087464,75.1508746 C33.59293,97.5360787 25.6337464,125.890671 23.1465015,153.747813 C20.6592566,178.620262 22.1516035,204.487609 31.6031341,227.867711 C41.0546647,251.247813 58.465379,271.643222 81.3480321,281.094752 C97.2663994,287.561589 114.677114,288.556487 130.098032,296.515671 C154.473032,308.951895 166.909257,336.809038 188.299563,353.722303 C210.187318,371.630466 242.024052,377.599854 268.886297,368.645773 C298.235787,359.194242 320.620991,333.326895 333.057216,304.972303 C345.49344,276.120262 348.478134,244.780977 349.473032,213.441691 C350.965379,176.630466 347.980685,135.83965 323.108236,108.479956 C304.702624,89.0794461 277.840379,80.1253644 252.470481,72.1661808 C222.623542,62.7146501 193.771501,53.7605685 164.422012,44.8064869 Z" id="Path" fill="url(#linearGradient-1)" opacity="0.2"></path>
                <path d="M241.872133,418.792939 L236.237907,422.886444 C235.433018,423.47123 234.225684,424.34841 233.128401,424.530751 C232.725957,424.823144 232.031119,424.713093 231.446332,423.908204 C231.153939,423.505759 231.263991,422.810921 232.06888,422.226135 C232.873769,421.641348 234.081103,420.764169 235.178386,420.581827 L240.812611,416.488323 C241.215056,416.19593 241.909894,416.305981 242.202287,416.708426 C242.787073,417.513315 242.677022,418.208153 241.872133,418.792939 Z M249.628633,412.542631 C249.226188,412.835024 248.53135,412.724973 248.238957,412.322528 C247.946564,411.920083 247.764222,410.822801 248.166667,410.530408 C250.288942,408.373604 252.813662,405.924407 255.338381,403.47521 C255.740826,403.182817 256.838108,403.000475 257.130502,403.40292 C257.422895,403.805365 257.605236,404.902647 257.202792,405.19504 C254.678072,407.644237 252.153353,410.093434 249.628633,412.542631 Z M224.31238,428.476443 L224.31238,428.476443 C220.910481,429.718306 217.800975,431.362613 214.509127,431.909638 C214.106682,432.202031 213.119451,431.689535 212.827058,431.287091 C212.534665,430.884646 213.047161,429.897415 213.449606,429.605022 C216.44906,428.655552 219.850959,427.413689 222.850414,426.464219 C223.252858,426.171826 224.240089,426.684322 224.532483,427.086767 C225.117269,427.891657 224.714824,428.18405 224.31238,428.476443 Z M262.98483,397.91974 C262.582385,398.212133 261.887548,398.102082 261.595154,397.699637 C261.302761,397.297192 260.717975,396.492303 261.522864,395.907517 C263.352746,393.348268 265.585072,390.496627 267.414954,387.937378 C267.525006,387.24254 268.622288,387.060199 268.914681,387.462643 C269.207074,387.865088 269.791861,388.669977 269.389416,388.962371 C267.449483,392.216457 265.217156,395.068098 262.98483,397.91974 C263.387275,397.627347 262.98483,397.91974 262.98483,397.91974 Z M205.218371,434.355603 L204.815926,434.647996 C201.524078,435.195021 198.232231,435.742046 194.64799,435.886626 C193.953152,435.776575 193.660759,435.37413 193.368366,434.971685 C193.478417,434.276847 193.880862,433.984454 194.283307,433.692061 C197.465103,433.839874 200.75695,433.292849 204.048798,432.745824 C204.743636,432.855875 205.438474,432.965927 205.328422,433.660765 C206.02326,433.770816 205.620815,434.063209 205.218371,434.355603 Z M273.781779,381.466967 C273.379334,381.75936 272.684496,381.649309 272.684496,381.649309 C271.989658,381.539257 271.807317,380.441975 272.209761,380.149581 L276.822227,371.264502 C276.932279,370.569664 278.029561,370.387323 278.321954,370.789767 C279.016792,370.899819 279.199134,371.997101 278.796689,372.289495 L274.184223,381.174574 C274.184223,381.174574 274.184223,381.174574 273.781779,381.466967 Z M185.505046,435.150794 C185.102602,435.443188 185.102602,435.443188 184.407764,435.333136 C181.225968,435.185323 177.751778,434.635066 174.277589,434.084808 C173.582751,433.974757 172.997965,433.169867 173.108017,432.47503 C173.218068,431.780192 174.022957,431.195405 174.717795,431.305457 C177.78954,432.148108 180.971336,432.29592 184.445525,432.846178 C185.140363,432.956229 185.432756,433.358674 185.615098,434.455957 C185.907491,434.858401 185.907491,434.858401 185.505046,435.150794 Z M282.019479,363.184312 C281.617034,363.476706 281.21459,363.769099 280.922196,363.366654 C280.227359,363.256602 280.045017,362.15932 280.447462,361.866927 C281.582505,359.197627 282.827601,355.833489 283.670252,352.761745 C283.780303,352.066907 284.585192,351.48212 285.169979,352.28701 C285.864817,352.397061 286.449603,353.201951 285.644714,353.786737 C284.802063,356.858481 283.556968,360.222619 282.019479,363.184312 C282.421924,362.891919 282.421924,362.891919 282.019479,363.184312 Z M288.57511,344.27911 C288.172666,344.571503 288.172666,344.571503 287.477828,344.461452 C286.78299,344.3514 286.198204,343.546511 286.308255,342.851673 C287.150906,339.779928 287.993557,336.708184 288.543814,333.233995 C288.653866,332.539157 289.458755,331.95437 290.153593,332.064422 C290.848431,332.174473 291.433217,332.979363 291.323165,333.674201 C290.772908,337.14839 289.930257,340.220134 289.087607,343.291879 C288.977555,343.986717 288.57511,344.27911 288.57511,344.27911 Z M166.159638,431.374514 C165.757193,431.666908 165.354749,431.959301 165.062355,431.556856 C161.698218,430.311761 158.736525,428.774272 155.774832,427.236784 C155.079994,427.126732 154.897652,426.02945 155.300097,425.737056 C155.410148,425.042219 156.507431,424.859877 156.799824,425.262322 C159.761517,426.79981 162.72321,428.337299 165.794955,429.179949 C166.489793,429.290001 166.672134,430.387283 166.26969,430.679677 C166.562083,431.082121 166.562083,431.082121 166.159638,431.374514 Z M293.046228,325.043753 C292.643784,325.336146 292.643784,325.336146 291.948946,325.226095 C291.254108,325.116043 290.669321,324.311154 290.779373,323.616316 C291.329631,320.142127 292.172281,317.070382 292.320094,313.888586 C292.430146,313.193748 293.235035,312.608962 293.929873,312.719013 C294.624711,312.829065 295.209497,313.633954 295.099445,314.328792 C294.549188,317.802981 293.706537,320.874726 293.558724,324.056522 C293.448673,324.75136 293.046228,325.043753 293.046228,325.043753 Z M148.791924,421.85719 C148.38948,422.149583 147.694642,422.039532 147.402249,421.637087 L146.415017,421.124591 C143.855769,419.294709 141.698965,417.172434 139.834555,415.452604 C139.542162,415.050159 139.35982,413.952877 139.762265,413.660484 C140.164709,413.36809 141.261992,413.185749 141.554385,413.588193 C143.711189,415.710468 145.575599,417.430299 148.134848,419.26018 L149.122079,419.772676 C149.414472,420.175121 149.30442,420.869959 148.791924,421.85719 Z M296.12767,305.588293 C295.725226,305.880686 295.725226,305.880686 295.030388,305.770635 C294.33555,305.660583 293.750764,304.855694 293.860815,304.160856 C294.411073,300.686667 294.558885,297.504871 295.401536,294.433126 C295.511588,293.738288 296.316477,293.153502 297.011315,293.263554 C297.706153,293.373605 298.290939,294.178494 298.180888,294.873332 C297.63063,298.347522 297.482817,301.529318 296.640167,304.601062 C296.93256,305.003507 296.530115,305.2959 296.12767,305.588293 Z M134.973922,407.916207 C134.571478,408.2086 133.87664,408.098548 133.584247,407.696104 L132.99946,406.891214 C131.245101,404.476546 129.490742,402.061878 128.138828,399.354817 C127.846435,398.952372 127.664093,397.85509 128.761376,397.672748 C129.16382,397.380355 129.858658,397.490406 130.443444,398.295296 C131.795359,401.002357 133.549718,403.417025 135.304077,405.831693 L135.888863,406.636582 C135.194025,406.526531 135.376367,407.623813 134.973922,407.916207 Z M298.916719,285.730389 C298.514275,286.022782 298.514275,286.022782 297.819437,285.91273 C297.124599,285.802679 296.539813,284.99779 296.649864,284.302952 L298.190585,274.575222 C298.300637,273.880384 299.105526,273.295598 299.800364,273.405649 C300.495202,273.515701 301.079988,274.32059 300.969937,275.015428 L299.429215,284.743158 C299.721609,285.145602 299.319164,285.437996 298.916719,285.730389 Z M301.998161,266.274929 C301.595717,266.567322 301.595717,266.567322 300.900879,266.457271 C300.206041,266.347219 299.621255,265.54233 299.731306,264.847492 C300.281564,261.373303 301.124214,258.301558 301.674472,254.827369 C301.784523,254.132531 302.589413,253.547745 303.284251,253.657796 C303.979088,253.767848 304.563875,254.572737 304.453823,255.267575 C303.611173,258.339319 303.060915,261.813509 302.913102,264.995305 C302.803051,265.690143 302.400606,265.982536 301.998161,266.274929 Z M124.887974,390.648847 C124.083085,391.233633 123.095854,390.721137 123.205905,390.026299 C121.853991,387.319238 120.612128,383.917339 119.662658,380.917884 C119.370265,380.51544 119.882761,379.528209 120.285206,379.235815 C120.687651,378.943422 121.674882,379.455918 121.967275,379.858363 C122.916745,382.857818 124.158607,386.259717 125.510522,388.966778 C125.40047,389.661616 125.290419,390.356454 124.887974,390.648847 Z M306.176886,246.637127 C305.774441,246.92952 305.774441,246.92952 305.079604,246.819469 C304.384766,246.709417 303.799979,245.904528 303.910031,245.20969 C304.752682,242.137946 305.302939,238.663756 306.548034,235.299619 C306.658086,234.604781 307.462975,234.019994 308.157813,234.130046 C308.852651,234.240097 309.437437,235.044987 309.327386,235.739825 L306.799434,244.955058 C306.579331,246.344734 306.176886,246.637127 306.176886,246.637127 Z M118.60637,371.847231 L118.60637,371.847231 C117.509087,372.029573 116.814249,371.919521 116.924301,371.224683 C115.974831,368.225229 115.427806,364.933381 114.588388,361.239089 C114.698439,360.544251 114.808491,359.849413 115.503329,359.959465 C116.198167,360.069516 116.893004,360.179568 116.782953,360.874406 C117.329978,364.166253 118.279448,367.165708 118.826473,370.457555 C119.118866,370.86 119.008814,371.554838 118.60637,371.847231 Z M312.03768,227.621873 C311.635235,227.914267 311.23279,228.20666 310.940397,227.804215 C310.245559,227.694164 310.063218,226.596881 310.465662,226.304488 C311.710758,222.94035 312.845801,220.27105 314.090897,216.906913 C314.200948,216.212075 315.298231,216.029733 315.590624,216.432178 C316.285462,216.542229 316.467804,217.639512 316.065359,217.931905 C314.52787,220.893598 313.68522,223.965343 312.147731,226.927036 C312.440124,227.32948 312.03768,227.621873 312.03768,227.621873 Z M320.677825,209.046826 L318.703362,208.021833 C320.240851,205.06014 322.070733,202.500892 324.010666,199.246806 C324.413111,198.954412 325.218,198.369626 325.802786,199.174515 C326.09518,199.57696 326.679966,200.381849 325.875077,200.966636 C323.64275,203.818277 322.105262,206.77997 320.677825,209.046826 Z M114.226937,352.278487 L113.824492,352.57088 C113.129655,352.460829 112.434817,352.350777 112.544868,351.655939 L112.362527,350.558657 C111.997843,348.364092 111.340767,345.767082 111.378528,343.280124 L110.903793,341.780397 C111.013845,341.085559 111.123896,340.390721 111.818734,340.500772 C112.513572,340.610824 113.20841,340.720875 113.098358,341.415713 L113.573093,342.91544 C113.937776,345.110006 114.192408,347.999408 114.557092,350.193973 L114.739433,351.291256 C115.031826,351.693701 114.629382,351.986094 114.226937,352.278487 Z M331.364722,193.288891 C330.962277,193.581284 330.267439,193.471232 329.975046,193.068788 C329.682653,192.666343 329.097866,191.861454 329.902756,191.276667 C331.732638,188.717419 333.964964,185.865777 336.087239,183.708973 C336.489684,183.41658 337.294573,182.831794 337.879359,183.636683 C338.171752,184.039128 338.756539,184.844017 337.951649,185.428804 C335.42693,187.878001 333.597048,190.437249 331.364722,193.288891 Z M343.733688,178.153503 C343.331243,178.445896 342.636405,178.335845 342.344012,177.9334 C342.051619,177.530955 341.869277,176.433673 342.271722,176.14128 L348.456205,168.573586 C348.85865,168.281193 349.955932,168.098851 350.248325,168.501296 C350.540718,168.903741 350.72306,170.001023 350.320615,170.293416 L343.733688,178.153503 C344.136132,177.86111 344.136132,177.86111 343.733688,178.153503 Z M356.797492,163.128167 C356.395047,163.42056 355.700209,163.310509 355.407816,162.908064 C355.115423,162.50562 354.530636,161.70073 355.335526,161.115944 C357.165407,158.556695 359.690127,156.107499 361.520009,153.54825 C361.922453,153.255857 362.727343,152.671071 363.312129,153.47596 C363.604522,153.878405 364.189309,154.683294 363.384419,155.26808 C361.262144,157.424884 359.029818,160.276526 356.797492,163.128167 C357.199936,162.835774 357.199936,162.835774 356.797492,163.128167 Z M369.276509,147.297942 C368.874064,147.590335 368.179227,147.480284 367.886833,147.077839 C367.59444,146.675394 367.009654,145.870505 367.814543,145.285719 C368.327039,144.298488 368.729484,144.006094 369.24198,143.018863 C370.669417,140.752008 371.986803,139.179991 373.41424,136.913136 C373.524291,136.218298 374.621574,136.035956 374.913967,136.438401 C375.608805,136.548452 375.791147,137.645735 375.388702,137.938128 C373.961265,140.204983 372.936273,142.179445 371.216442,144.043856 C370.593895,145.725925 369.789005,146.310711 369.276509,147.297942 Z M111.23718,332.929846 L110.834735,333.222239 C110.139898,333.112188 109.44506,333.002136 109.555111,332.307298 L107.914036,322.431756 C108.024088,321.736918 108.134139,321.04208 108.828977,321.152132 C109.523815,321.262183 110.218653,321.372235 110.108601,322.067072 L111.749676,331.942615 C111.749676,331.942615 111.639625,332.637453 111.23718,332.929846 Z M379.781065,130.442724 C379.37862,130.735118 378.683782,130.625066 378.683782,130.625066 C377.988944,130.515015 377.806603,129.417732 378.209047,129.125339 C379.746536,126.163646 381.284024,123.201953 382.126675,120.130208 C382.236727,119.43537 383.334009,119.253029 383.626402,119.655473 C384.32124,119.765525 384.503582,120.862807 384.101137,121.155201 C382.563649,124.116894 381.318553,127.481031 379.781065,130.442724 Z M387.323927,112.050018 C386.921482,112.342411 386.519038,112.634805 386.226645,112.23236 C385.531807,112.122308 384.94702,111.317419 385.75191,110.732633 C386.59456,107.660888 387.839656,104.29675 388.279862,101.517399 C388.389913,100.822561 389.194803,100.237775 389.88964,100.347826 C390.584478,100.457878 391.169265,101.262767 391.059213,101.957605 C390.216562,105.02935 389.666305,108.503539 388.42121,111.867677 C387.726372,111.757625 387.323927,112.050018 387.323927,112.050018 Z M106.857748,313.361102 C105.760465,313.543444 105.065627,313.433392 105.175679,312.738555 C103.933816,309.336656 102.984346,306.337201 102.034876,303.337747 C101.742483,302.935302 102.254979,301.948071 102.657424,301.655678 C103.059869,301.363285 104.0471,301.875781 104.339493,302.278225 C105.288963,305.27768 106.93327,308.387186 107.480295,311.679033 C107.662637,312.776316 107.260192,313.068709 106.857748,313.361102 Z M391.100207,92.7046099 C390.697762,92.9970031 390.697762,92.9970031 390.002924,92.8869516 C389.308087,92.7769001 389.015693,92.3744554 388.833352,91.2771729 L389.27679,81.7317846 C389.386842,81.0369467 389.789287,80.7445536 390.191731,80.4521604 C390.886569,80.5622119 391.178962,80.9646566 391.471355,81.3671013 C391.323543,84.5488973 391.468123,88.1331381 391.32031,91.3149342 C391.905096,92.1198236 391.502652,92.4122167 391.100207,92.7046099 Z M99.7712538,295.144273 L99.7712538,295.144273 C98.9663644,295.729059 98.2715266,295.619008 98.0891849,294.521725 L95.7500395,291.302168 C94.5804668,289.692389 93.7032873,288.485055 92.1312699,287.167669 C91.8388767,286.765225 91.6565351,285.667942 92.0589797,285.375549 C92.4614244,285.083156 93.5587069,284.900814 93.8511001,285.303259 C95.0206728,286.913038 96.5926902,288.230423 97.4698697,289.437757 L100.101408,293.059759 C100.28375,294.157042 100.173698,294.85188 99.7712538,295.144273 Z M390.70746,72.6988925 L390.305015,72.9912857 C389.610177,72.8812342 388.915339,72.7711827 389.025391,72.0763448 C388.478366,68.7844972 387.528896,65.7850428 386.579427,62.7855884 C386.287033,62.3831437 386.79953,61.3959127 387.201974,61.1035195 C387.604419,60.8111264 388.59165,61.3236225 388.884043,61.7260672 C389.833513,64.7255216 390.672931,68.4198139 391.219956,71.7116615 C391.109905,72.4064993 390.70746,72.6988925 390.70746,72.6988925 Z M86.4657481,280.216058 C86.0633034,280.508452 85.3684656,280.3984 85.0760724,279.995955 C82.9192687,277.87368 80.3600203,276.043799 77.5083787,273.811472 C77.2159855,273.409028 76.6311992,272.604138 77.4360885,272.019352 C77.8385332,271.726959 78.6434226,271.142172 79.2282089,271.947062 C82.0798505,274.179388 84.6390989,276.00927 87.1983473,277.839152 C87.0882958,278.533989 87.2706374,279.631272 86.4657481,280.216058 Z M384.718249,54.2997213 C383.913359,54.8845077 382.926128,54.3720115 383.03618,53.6771736 C382.451393,52.8722843 382.159,52.4698396 381.976659,51.3725571 C380.917137,49.0679405 379.455171,47.0557171 377.993206,45.0434937 C377.700812,44.6410491 377.810864,43.9462112 378.213309,43.653818 C378.615753,43.3614249 379.310591,43.4714764 379.895377,44.2763657 C381.357343,46.2885891 382.819309,48.3008125 383.87883,50.6054291 C384.463617,51.4103184 384.75601,51.8127631 384.938352,52.9100456 C385.230745,53.3124903 385.120693,54.0073282 384.718249,54.2997213 Z M70.5254713,268.431879 C70.1230267,268.724272 69.4281888,268.61422 69.1357956,268.211776 C66.5765472,266.381894 63.6148542,264.844405 61.0556058,263.014524 C60.3607679,262.904472 60.1784262,261.80719 60.5808709,261.514796 C60.6909224,260.819959 61.7882049,260.637617 62.0805981,261.040062 C65.0422912,262.57755 67.6015396,264.407432 70.4531812,266.639758 C70.7455743,267.042203 71.0379675,267.444648 70.5254713,268.431879 Z M373.022522,38.2019342 C372.620077,38.4943274 371.925239,38.3842759 371.632846,37.9818312 C369.476042,35.8595563 367.026845,33.3348367 364.467597,31.504955 C364.175204,31.1025103 363.590417,30.297621 364.395307,29.7128346 C364.797751,29.4204414 365.602641,28.8356551 366.187427,29.6405445 C369.039069,31.8728709 371.195872,33.9951457 373.645069,36.5198653 C373.645069,36.5198653 373.827411,37.6171479 373.022522,38.2019342 C373.424966,37.909541 373.424966,37.909541 373.022522,38.2019342 Z M53.6702537,257.927323 C53.2678091,258.219716 52.5729712,258.109665 52.280578,257.70722 L51.0009538,256.792279 C48.7340986,255.364842 46.4672434,253.937405 43.907995,252.107523 C43.6156018,251.705079 43.0308154,250.900189 43.8357048,250.315403 C44.6405942,249.730617 45.0430388,249.438224 45.6278252,250.243113 C47.8946804,251.67055 50.4539288,253.500432 52.4283909,254.525424 L53.7080151,255.440365 C54.2928014,256.245254 54.1827499,256.940092 53.6702537,257.927323 Z M357.594741,25.4305235 C357.192296,25.7229167 356.497459,25.6128652 356.205065,25.2104205 C353.645817,23.3805388 350.684124,21.8430502 347.722431,20.3055617 C347.027593,20.1955102 346.845251,19.0982276 347.247696,18.8058344 C347.357747,18.1109966 348.45503,17.9286549 348.747423,18.3310996 C351.709116,19.8685882 354.670809,21.4060767 357.522451,23.6384031 C358.217289,23.7484546 358.802075,24.553344 357.594741,25.4305235 C357.997186,25.1381303 357.997186,25.1381303 357.594741,25.4305235 Z M37.3275323,246.435537 C36.9250876,246.72793 36.2302498,246.617878 35.9378566,246.215434 C33.086215,243.983107 30.5269666,242.153226 28.0777697,239.628506 C27.7853766,239.226061 27.6030349,238.128779 28.0054796,237.836386 C28.4079242,237.543992 29.5052068,237.361651 29.7975999,237.764095 C31.9544037,239.88637 34.8060452,242.118697 37.3652936,243.948578 C37.8400285,245.448306 38.1324217,245.85075 37.3275323,246.435537 Z M340.227027,15.913199 C339.824583,16.2055922 339.422138,16.4979854 339.129745,16.0955407 C338.142514,15.5830445 336.460445,14.9604968 335.473214,14.4480006 C333.791145,13.825453 331.816683,12.8004606 330.134614,12.1779129 C329.439776,12.0678614 329.257434,10.9705789 329.659879,10.6781857 C329.769931,9.98334784 330.867213,9.80100617 331.159606,10.2034508 C332.841675,10.8259985 334.816137,11.8509909 336.900651,12.1811454 C337.887882,12.6936416 339.569951,13.3161893 340.557182,13.8286855 C341.25202,13.938737 341.434361,15.0360195 341.031917,15.3284127 C340.629472,15.6208058 340.227027,15.913199 340.227027,15.913199 Z M22.7046411,233.07934 C22.3021964,233.371733 21.6073586,233.261681 21.3149654,232.859237 C18.8657685,230.334517 16.8190163,227.517404 15.0646572,225.102736 C14.7722641,224.700292 14.8823156,224.005454 14.9923671,223.310616 C15.3948117,223.018223 16.0896496,223.128274 16.3820428,223.530719 C18.1364018,225.945387 20.183154,228.7625 22.6323509,231.287219 C23.2171373,232.092109 23.1070858,232.786946 22.7046411,233.07934 Z M321.72427,9.06517447 C321.321825,9.35756764 321.321825,9.35756764 320.626987,9.24751614 C317.555242,8.40486544 314.483498,7.56221474 311.009309,7.01195722 C310.314471,6.90190572 309.729684,6.09701636 309.839736,5.40217851 C309.949787,4.70734066 310.754677,4.12255431 311.449515,4.23260581 C314.521259,5.07525651 317.995449,5.62551403 321.359586,6.8706094 C322.054424,6.98066091 322.63921,7.78555027 322.529159,8.48038812 C322.126714,8.77278129 321.72427,9.06517447 321.72427,9.06517447 Z M10.8988626,217.67639 C10.0939733,218.261177 9.39913542,218.151125 9.21679375,217.053843 C7.57248621,213.944337 5.92817867,210.834831 4.97870898,207.835376 C4.68631581,207.432932 5.19881199,206.445701 5.60125667,206.153307 C6.00370135,205.860914 6.99093237,206.37341 7.28332555,206.775855 C8.23279523,209.77531 9.87710277,212.884815 11.2290171,215.591877 C11.8138035,216.396766 11.703752,217.091604 10.8988626,217.67639 Z M302.086468,4.88644981 C301.684023,5.17884299 301.684023,5.17884299 300.989186,5.06879148 L291.261456,3.52807042 C290.566618,3.41801892 289.981831,2.61312956 290.091883,1.91829171 C290.201934,1.22345386 291.006824,0.638667509 291.701662,0.748719013 C294.883458,0.896531857 298.357647,1.44678938 301.429392,2.28944007 C302.124229,2.39949158 302.709016,3.20438094 302.598964,3.89921879 C302.891357,4.30166347 302.488913,4.59405664 302.086468,4.88644981 Z M282.520957,2.49984554 C282.118512,2.79223872 282.118512,2.79223872 281.423674,2.68218721 C278.241878,2.53437437 275.060082,2.38656153 271.475841,2.53114186 C270.781003,2.42109035 270.48861,2.01864567 270.196217,1.616201 C270.306269,0.921363144 270.708713,0.62896997 271.111158,0.336576796 C274.292954,0.48438964 277.877195,0.339809309 281.058991,0.487622152 C281.753829,0.597673657 282.046222,1.00011834 282.228564,2.09740087 C282.923401,2.20745237 282.923401,2.20745237 282.520957,2.49984554 Z M3.9224203,198.764723 L3.51997562,199.057116 C2.82513777,198.947065 2.13029992,198.837013 2.24035142,198.142175 C1.69332641,194.850328 1.14630141,191.55848 1.00172108,187.974239 C1.11177258,187.279401 1.51421726,186.987008 1.91666194,186.694615 C2.61149979,186.804667 2.90389296,187.207111 3.19628614,187.609556 C3.04847329,190.791352 3.5954983,194.0832 4.54496799,197.082654 C4.72730966,198.179937 4.32486498,198.47233 3.9224203,198.764723 Z M262.917684,2.60019951 L262.515239,2.89259268 C258.930999,3.03717301 256.041596,3.29180485 252.749748,3.83882986 C252.05491,3.72877835 251.360072,3.61872685 251.470124,2.923889 C251.580175,2.22905114 251.690227,1.53421329 252.385065,1.6442648 C255.676912,1.09723979 259.261153,0.952659457 262.150556,0.698027622 C262.845394,0.808079127 263.540232,0.918130631 263.43018,1.61296848 C263.320129,2.30780634 262.917684,2.60019951 262.917684,2.60019951 Z M242.984257,4.78506703 L242.581812,5.07746021 C239.289964,5.62448522 235.998117,6.17151022 232.998662,7.12097991 C232.303825,7.01092841 231.608987,6.9008769 231.719038,6.20603905 C231.82909,5.5112012 231.939141,4.81636335 232.633979,4.92641485 C235.925827,4.37938984 238.925281,3.42992015 242.217129,2.88289515 C242.911967,2.99294665 243.606804,3.10299815 243.496753,3.79783601 C243.789146,4.20028068 243.386701,4.49267386 242.984257,4.78506703 Z M3.12722848,179.051399 C2.72478381,179.343792 2.72478381,179.343792 2.02994595,179.23374 C1.3351081,179.123689 1.04271493,178.721244 0.860373258,177.623962 C1.0081861,174.442166 1.55844362,170.967976 2.803539,167.603839 C2.9135905,166.909001 3.71847986,166.324214 4.41331771,166.434266 C5.10815556,166.544317 5.69294191,167.349207 5.58289041,168.044045 C4.74023971,171.115789 4.18998219,174.589978 4.04216935,177.771775 C3.52967316,178.759006 3.12722848,179.051399 3.12722848,179.051399 Z M223.707906,9.56694429 C220.306007,10.8088072 217.306553,11.7582768 213.904653,13.0001397 C213.502209,13.2925329 212.514978,12.7800367 212.222585,12.377592 C211.930191,11.9751473 212.442688,10.9879163 212.845132,10.6955231 C215.844587,9.74605345 219.246486,8.50419059 222.24594,7.5547209 C222.648385,7.26232773 223.635616,7.77482391 223.928009,8.17726859 C224.220402,8.57971327 224.110351,9.27455112 223.707906,9.56694429 Z M7.59834631,159.816042 C7.19590163,160.108435 6.79345695,160.400828 6.50106378,159.998384 C5.80622593,159.888332 5.62388426,158.791049 6.02632894,158.498656 C7.27142431,155.134519 8.40646818,152.465219 10.3464014,149.211132 C10.4564529,148.516295 11.5537354,148.333953 11.8461286,148.736398 C12.5409665,148.846449 12.7233081,149.943732 12.3208635,150.236125 C10.7833749,153.197818 9.24588636,156.159511 8.40323567,159.231256 C8.00079099,159.523649 8.00079099,159.523649 7.59834631,159.816042 Z M204.90629,15.8485488 C201.504391,17.0904116 198.394885,18.7347192 195.687824,20.0866335 C195.285379,20.3790267 194.298148,19.8665305 194.005755,19.4640858 C193.713362,19.0616412 194.225858,18.0744101 194.628303,17.782017 C197.737809,16.1377094 200.737263,15.1882397 203.846769,13.5439322 C204.249214,13.251539 205.236445,13.7640352 205.528838,14.1664799 C205.418786,14.8613177 205.308735,15.5561556 204.90629,15.8485488 Z M131.114334,65.7722588 C130.711889,66.064652 130.017051,65.9546005 129.724658,65.5521558 C129.432265,65.1497111 129.249923,64.0524286 129.652368,63.7600354 L137.701261,57.912172 C138.103706,57.6197788 139.200989,57.4374371 139.493382,57.8398818 C139.785775,58.2423265 139.968117,59.339609 139.565672,59.6320022 C136.748559,61.6787544 133.931446,63.7255066 131.114334,65.7722588 Z M123.06544,71.6201223 L121.053217,73.0820882 C119.040993,74.5440541 116.736377,75.6035752 114.724153,77.0655411 C114.321709,77.3579343 113.626871,77.2478828 113.042085,76.4429934 C112.749691,76.0405488 112.859743,75.3457109 113.664632,74.7609246 C115.969249,73.7014034 117.981472,72.2394375 119.993696,70.7774716 L122.005919,69.3155058 C122.408364,69.0231126 123.103202,69.1331641 123.687988,69.9380534 C123.980381,70.3404981 123.87033,71.035336 123.06544,71.6201223 Z M187.164196,24.4347698 C184.457134,25.7866842 182.444911,27.24865 179.73785,28.6005644 L178.530516,29.4777439 C178.128071,29.7701371 177.433233,29.6600856 176.848447,28.8551962 C176.556054,28.4527516 176.666105,27.7579137 177.470994,27.1731274 L178.678328,26.2959478 C181.092997,24.5415888 183.397613,23.4820676 186.104674,22.1301532 C186.507119,21.8377601 187.201957,21.9478116 187.786743,22.7527009 C187.676692,23.4475388 187.56664,24.1423766 187.164196,24.4347698 Z M146.919728,53.6740872 C146.517283,53.9664804 145.822445,53.8564289 145.530052,53.4539842 C145.237659,53.0515395 145.055317,51.954257 145.457762,51.6618638 L153.214262,45.4115556 C153.616707,45.1191625 154.713989,44.9368208 155.006383,45.3392655 C155.298776,45.7417102 155.481117,46.8389927 155.078673,47.1313859 L146.919728,53.6740872 Z M162.432728,41.1734709 C162.030284,41.4658641 161.335446,41.3558126 161.043053,40.9533679 C160.75066,40.5509232 160.568318,39.4536407 160.970763,39.1612475 L169.019656,33.313384 C169.422101,33.0209908 170.116939,33.1310423 170.701725,33.9359317 C170.994118,34.3383764 170.884067,35.0332142 170.481622,35.3256074 L162.432728,41.1734709 Z M106.200525,81.4136774 L106.200525,81.4136774 C103.091019,83.0579849 100.383958,84.4098993 97.2744519,86.0542068 C96.8720072,86.3466 95.8847762,85.8341038 95.592383,85.4316591 C95.2999899,85.0292145 95.8124861,84.0419834 96.2149307,83.7495903 C99.3244367,82.1052827 102.031498,80.7533684 105.141004,79.1090608 C105.543448,78.8166676 106.238286,78.9267192 106.823073,79.7316085 C106.713021,80.4264464 106.60297,81.1212842 106.200525,81.4136774 Z M17.1156708,142.448328 C16.7132261,142.740721 16.0183882,142.63067 15.7259951,142.228225 C15.4336019,141.82578 14.8488155,141.020891 15.6537049,140.436105 C17.4835866,137.876856 19.715913,135.025215 21.5457947,132.465966 C21.9482394,132.173573 22.7531288,131.588787 23.3379151,132.393676 C23.6303083,132.796121 24.2150947,133.60101 23.4102053,134.185797 C21.1778789,137.037438 19.3479972,139.596686 17.1156708,142.448328 C17.5181155,142.155935 17.1156708,142.448328 17.1156708,142.448328 Z M88.0559857,90.2922916 C85.3489244,91.644206 82.2394185,93.2885135 79.2399641,94.2379832 C78.8375194,94.5303764 77.8502884,94.0178802 77.5578952,93.6154355 C77.265502,93.2129908 77.7779982,92.2257598 78.1804429,91.9333666 C81.2899488,90.2890591 83.9970101,88.9371447 86.9964645,87.987675 L87.5812508,88.7925644 L88.0559857,90.2922916 Z M70.313891,98.8785126 C67.2043851,100.52282 64.4973238,101.874735 61.3878179,103.519042 C60.9853732,103.811435 60.2905354,103.701384 59.705749,102.896494 C59.4133558,102.49405 59.5234074,101.799212 60.3282967,101.214426 C63.4378026,99.570118 66.1448639,98.2182036 69.2543698,96.5738961 C69.6568145,96.2815029 70.3516523,96.3915544 70.9364387,97.1964438 C70.8263872,97.8912816 70.7163357,98.5861195 70.313891,98.8785126 Z M29.8870815,127.020548 C29.4846368,127.312941 28.789799,127.202889 28.4974058,126.800444 C28.2050126,126.398 28.0226709,125.300717 28.4251156,125.008324 C30.9498352,122.559127 33.0721101,120.402323 35.5968297,117.953127 C35.9992743,117.660733 37.0965569,117.478392 37.38895,117.880836 C37.6813432,118.283281 37.8636849,119.380564 37.4612402,119.672957 C34.534076,122.414547 32.4118011,124.571351 29.8870815,127.020548 Z M53.0465312,108.964461 C50.6318631,110.71882 47.9248018,112.070734 45.5101338,113.825093 L44.7052444,114.40988 C44.3027997,114.702273 43.6079619,114.592221 43.0231755,113.787332 C42.7307824,113.384887 42.8408339,112.690049 43.2432786,112.397656 L44.0481679,111.81287 C46.462836,110.058511 48.877504,108.304152 51.5845653,106.952237 C51.98701,106.659844 52.6818478,106.769896 53.2666342,107.574785 C53.961472,107.684837 53.8514205,108.379675 53.0465312,108.964461 Z" id="Shape" fill="#F9F9F9"></path>
                <path d="M18.4794864,196.796726 C11.4339864,169.326901 30.4654028,141.357511 53.6971426,125.093544 C76.9288825,108.829578 105.021255,100.102009 128.837781,84.6429324 C149.43475,71.5230009 166.815394,53.9761779 187.412362,40.8562464 C229.411189,14.0315971 284.309845,9.19359223 330.492832,27.9045517 C346.216239,34.3123702 361.791832,43.9019848 369.831028,58.3522319 C383.09554,82.5334414 373.57175,113.433229 357.907704,135.881678 C342.243658,158.330127 320.766277,177.008762 306.966642,201.177041 C294.594443,223.078465 289.132862,248.567363 285.171008,273.581526 C281.209153,298.595688 278.929368,324.232399 270.908538,347.891415 C263.180102,371.952875 249.198125,395.023872 227.796266,408.72859 C206.394408,422.433308 176.220755,424.064685 156.661709,408.146007 C138.564628,394.239553 132.066153,370.061576 128.821764,347.823532 C125.284983,325.183043 122.955535,301.665375 109.907893,282.860527 C97.7374316,265.263013 77.9928111,255.013089 60.2604139,243.301199 C41.7231274,232.174096 23.4437053,217.170359 18.4794864,196.796726 Z" id="Path" fill="url(#linearGradient-2)"></path>
                <circle id="Oval" fill="#906EB2" cx="58.8425656" cy="312.842566" r="2.8425656"></circle>
                <circle id="Oval" fill="#906EB2" cx="35.8425656" cy="45.8425656" r="2.8425656"></circle>
                <path d="M381.685131,239.842566 C381.685131,241.358601 380.358601,242.685131 378.842566,242.685131 C377.326531,242.685131 376,241.358601 376,239.842566 C376,238.326531 377.326531,237 378.842566,237 C380.358601,237 381.685131,238.326531 381.685131,239.842566 Z" id="Path" fill="#906EB2"></path>
            </g>
        </g>
    </g>
</svg>