<?xml version="1.0" encoding="UTF-8"?>
<svg width="399px" height="424px" viewBox="0 0 399 424" version="1.1" xmlns="http://www.w3.org/2000/svg" xmlns:xlink="http://www.w3.org/1999/xlink">
    <!-- Generator: Sketch 54.1 (76490) - https://sketchapp.com -->
    <title>Illustration</title>
    <desc>Created with Sketch.</desc>
    <defs>
        <linearGradient x1="17.4446447%" y1="30.3647381%" x2="78.8308474%" y2="88.2108774%" id="linearGradient-1">
            <stop stop-color="#78A7EB" offset="0%"></stop>
            <stop stop-color="#7D89E9" offset="100%"></stop>
        </linearGradient>
        <linearGradient x1="25.3566794%" y1="30.3647381%" x2="71.8239921%" y2="88.2108774%" id="linearGradient-2">
            <stop stop-color="#78A7EB" offset="0%"></stop>
            <stop stop-color="#7D89E9" offset="100%"></stop>
        </linearGradient>
    </defs>
    <g id="Main" stroke="none" stroke-width="1" fill="none" fill-rule="evenodd">
        <g id="WhiteCapital_Elements" transform="translate(-923.000000, -911.000000)" fill-rule="nonzero">
            <g id="Illustration" transform="translate(923.000000, 911.000000)">
                <path d="M167.422012,52.8064869 C152.995991,48.3294461 138.569971,43.8524052 123.646501,43.8524052 C95.7893586,43.8524052 69.4245627,60.2682216 53.0087464,83.1508746 C36.59293,105.536079 28.6337464,133.890671 26.1465015,161.747813 C23.6592566,186.620262 25.1516035,212.487609 34.6031341,235.867711 C44.0546647,259.247813 61.465379,279.643222 84.3480321,289.094752 C100.266399,295.561589 117.677114,296.556487 133.098032,304.515671 C157.473032,316.951895 169.909257,344.809038 191.299563,361.722303 C213.187318,379.630466 245.024052,385.599854 271.886297,376.645773 C301.235787,367.194242 323.620991,341.326895 336.057216,312.972303 C348.49344,284.120262 351.478134,252.780977 352.473032,221.441691 C353.965379,184.630466 350.980685,143.83965 326.108236,116.479956 C307.702624,97.0794461 280.840379,88.1253644 255.470481,80.1661808 C225.623542,70.7146501 196.771501,61.7605685 167.422012,52.8064869 Z" id="Path" fill="url(#linearGradient-1)" opacity="0.2"></path>
                <path d="M398.252562,347.383319 L397.766758,354.33064 C397.697357,355.323115 397.593256,356.811826 397.027619,357.7696 C396.992918,358.265838 396.461981,358.727375 395.469506,358.657974 C394.973269,358.623274 394.511732,358.092336 394.581133,357.099862 C394.650533,356.107387 394.754634,354.618676 395.320272,353.660901 L395.806076,346.71358 C395.840776,346.217343 396.371714,345.755806 396.867951,345.790507 C397.860425,345.859907 398.321962,346.390845 398.252562,347.383319 Z M398.45033,337.423874 C398.41563,337.920112 397.884692,338.381649 397.388455,338.346948 C396.892218,338.312248 395.934444,337.74661 395.969144,337.250373 C395.681109,334.238249 395.427773,330.729889 395.174438,327.221528 C395.209139,326.725291 395.774776,325.767516 396.271014,325.802217 C396.767251,325.836917 397.725025,326.402555 397.690325,326.898792 C397.94366,330.407153 398.196995,333.915514 398.45033,337.423874 Z M394.383364,367.059306 L394.383364,367.059306 C393.147988,370.463566 392.408849,373.902527 390.711935,376.775849 C390.677235,377.272086 389.65006,377.698923 389.153823,377.664223 C388.657586,377.629522 388.230749,376.602348 388.265449,376.10611 C389.466126,373.198088 390.701502,369.793828 391.902178,366.885805 C391.936878,366.389568 392.964053,365.962731 393.46029,365.997431 C394.452765,366.066832 394.418064,366.563069 394.383364,367.059306 Z M395.833744,317.793021 C395.799043,318.289258 395.268106,318.750795 394.771869,318.716094 C394.275631,318.681394 393.283157,318.611994 393.352558,317.619519 C392.568285,314.572695 391.818712,311.029634 391.03444,307.98281 C390.572903,307.451873 391.138541,306.494099 391.634778,306.528799 C392.131015,306.563499 393.123489,306.6329 393.088789,307.129137 C394.334599,310.706898 395.084171,314.249959 395.833744,317.793021 C395.868444,317.296783 395.833744,317.793021 395.833744,317.793021 Z M386.613669,385.465217 L386.578969,385.961454 C384.882056,388.834777 383.185142,391.708099 380.991992,394.546721 C380.461054,395.008258 379.964817,394.973558 379.46858,394.938858 C379.007043,394.40792 379.041743,393.911683 379.076444,393.415446 C381.234894,391.073061 382.931807,388.199738 384.628721,385.326416 C385.159658,384.864879 385.690596,384.403342 386.152133,384.934279 C386.68307,384.472743 386.64837,384.96898 386.613669,385.465217 Z M390.170333,298.946439 C390.135633,299.442677 389.604695,299.904214 389.604695,299.904214 C389.073758,300.365751 388.115984,299.800113 388.150684,299.303876 L384.309154,290.059303 C383.847617,289.528366 384.413255,288.570591 384.909492,288.605292 C385.44043,288.143755 386.398204,288.709393 386.363504,289.20563 L390.205034,298.450202 C390.205034,298.450202 390.205034,298.450202 390.170333,298.946439 Z M374.551341,401.077639 C374.516641,401.573876 374.516641,401.573876 373.985703,402.035413 C371.827253,404.377798 369.172566,406.685483 366.517878,408.993167 C365.986941,409.454704 364.994466,409.385304 364.532929,408.854366 C364.071392,408.323429 364.140793,407.330954 364.67173,406.869417 C367.291718,405.05797 369.450168,402.715585 372.104855,400.4079 C372.635793,399.946363 373.13203,399.981064 374.089804,400.546701 C374.586041,400.581402 374.586041,400.581402 374.551341,401.077639 Z M381.460099,280.884131 C381.425399,281.380368 381.390698,281.876606 380.894461,281.841905 C380.363524,282.303442 379.405749,281.737804 379.44045,281.241567 C378.12524,278.65628 376.348492,275.540056 374.537045,272.920068 C374.075508,272.389131 374.144909,271.396657 375.137383,271.466057 C375.668321,271.00452 376.660795,271.073921 376.591394,272.066395 C378.402842,274.686382 380.179589,277.802607 381.460099,280.884131 C381.494799,280.387894 381.494799,280.387894 381.460099,280.884131 Z M371.191752,263.710196 C371.157052,264.206433 371.157052,264.206433 370.626115,264.66797 C370.095177,265.129507 369.102703,265.060107 368.641166,264.529169 C366.829718,261.909182 365.018271,259.289195 362.710586,256.634507 C362.249049,256.10357 362.31845,255.111095 362.849387,254.649558 C363.380325,254.188021 364.372799,254.257422 364.834336,254.78836 C367.142021,257.443047 368.953468,260.063034 370.764916,262.683022 C371.226453,263.213959 371.191752,263.710196 371.191752,263.710196 Z M359.223554,413.469735 C359.188854,413.965973 359.154154,414.46221 358.657916,414.42751 C355.541692,416.204257 352.460168,417.484767 349.378644,418.765277 C348.847706,419.226814 347.889932,418.661176 347.924632,418.164939 C347.463095,417.634001 348.028733,416.676227 348.52497,416.710927 C351.606494,415.430417 354.688019,414.149907 357.308006,412.33846 C357.838943,411.876923 358.796717,412.442561 358.762017,412.938798 C359.258254,412.973498 359.258254,412.973498 359.223554,413.469735 Z M359.330593,247.920872 C359.295893,248.417109 359.295893,248.417109 358.764955,248.878646 C358.234018,249.340183 357.241544,249.270783 356.780007,248.739845 C354.472322,246.085158 352.660874,243.46517 350.31849,241.30672 C349.856953,240.775783 349.926353,239.783308 350.457291,239.321771 C350.988228,238.860234 351.980703,238.929635 352.44224,239.460572 C354.749924,242.11526 356.561372,244.735247 358.903757,246.893698 C359.365294,247.424635 359.330593,247.920872 359.330593,247.920872 Z M340.769109,420.656558 C340.734409,421.152795 340.203472,421.614332 339.707234,421.579632 L338.68006,422.006468 C335.633236,422.790741 332.621112,423.078777 330.105226,423.401512 C329.608989,423.366812 328.651214,422.801174 328.685915,422.304937 C328.720615,421.8087 329.286253,420.850926 329.78249,420.885626 C332.794614,420.597591 335.3105,420.274855 338.357324,419.490582 L339.384499,419.063745 C339.880736,419.098446 340.342273,419.629383 340.769109,420.656558 Z M346.407559,233.054622 C346.372859,233.550859 346.372859,233.550859 345.841921,234.012396 C345.310984,234.473933 344.318509,234.404533 343.856972,233.873595 C341.549288,231.218908 339.206903,229.060457 337.395455,226.44047 C336.933918,225.909532 337.003319,224.917058 337.534257,224.455521 C338.065194,223.993984 339.057669,224.063385 339.519205,224.594322 C341.82689,227.24901 344.169275,229.40746 345.980723,232.027447 C346.47696,232.062148 346.442259,232.558385 346.407559,233.054622 Z M321.207656,422.28067 C321.172956,422.776907 320.642018,423.238444 320.145781,423.203744 L319.153307,423.134343 C316.175883,422.926142 313.19846,422.71794 310.255737,422.013501 C309.7595,421.978801 308.801726,421.413163 309.367363,420.455389 C309.402064,419.959151 309.933001,419.497615 310.925476,419.567015 C313.868199,420.271454 316.845622,420.479656 319.823045,420.687858 L320.81552,420.757258 C320.284582,421.218795 321.242356,421.784433 321.207656,422.28067 Z M332.988288,218.153672 C332.953588,218.649909 332.953588,218.649909 332.42265,219.111446 C331.891713,219.572983 330.899238,219.503582 330.437701,218.972645 L323.976184,211.53952 C323.514647,211.008582 323.584048,210.016108 324.114985,209.554571 C324.645923,209.093034 325.638397,209.162434 326.099934,209.693372 L332.561451,217.126497 C333.057688,217.161197 333.022988,217.657434 332.988288,218.153672 Z M320.065254,203.287421 C320.030553,203.783659 320.030553,203.783659 319.499616,204.245196 C318.968678,204.706733 317.976204,204.637332 317.514667,204.106394 C315.206982,201.451707 313.395535,198.83172 311.08785,196.177032 C310.626313,195.646095 310.695714,194.65362 311.226651,194.192083 C311.757589,193.730546 312.750063,193.799947 313.2116,194.330884 C315.023048,196.950872 317.330732,199.605559 319.673117,201.76401 C320.134654,202.294947 320.099954,202.791184 320.065254,203.287421 Z M301.496968,418.90771 C301.427568,419.900184 300.400393,420.327021 299.938856,419.796083 C296.996133,419.091644 293.591873,417.856268 290.683851,416.655592 C290.187613,416.620891 289.760777,415.593717 289.795477,415.097479 C289.830177,414.601242 290.857352,414.174406 291.353589,414.209106 C294.261612,415.409782 297.665872,416.645159 300.608595,417.349597 C301.070132,417.880535 301.531669,418.411472 301.496968,418.90771 Z M307.707857,187.463397 C307.673157,187.959634 307.673157,187.959634 307.14222,188.421171 C306.611282,188.882708 305.618808,188.813308 305.157271,188.28237 C303.345823,185.662383 301.038139,183.007695 299.261391,179.891471 C298.799855,179.360533 298.869255,178.368059 299.400193,177.906522 C299.93113,177.444985 300.923605,177.514386 301.385142,178.045323 L306.819484,185.905285 C307.742558,186.96716 307.707857,187.463397 307.707857,187.463397 Z M283.056358,411.634252 L283.056358,411.634252 C282.49072,412.592026 281.959782,413.053563 281.498245,412.522626 C278.590223,411.32195 275.7169,409.625036 272.347341,407.893423 C271.885804,407.362485 271.424267,406.831548 271.955204,406.370011 C272.486142,405.908474 273.017079,405.446937 273.478616,405.977874 C276.351939,407.674788 279.259961,408.875464 282.133284,410.572377 C282.629521,410.607077 283.091058,411.138015 283.056358,411.634252 Z M296.908573,170.750999 C296.873873,171.247237 296.839173,171.743474 296.342936,171.708773 C295.811998,172.17031 294.854224,171.604673 294.888924,171.108435 C293.112177,167.992211 291.796967,165.406924 290.02022,162.290699 C289.558683,161.759762 290.124321,160.801988 290.620558,160.836688 C291.151495,160.375151 292.109269,160.940789 292.074569,161.437026 C293.355079,164.51855 295.166526,167.138538 296.447036,170.220062 C296.943274,170.254762 296.908573,170.750999 296.908573,170.750999 Z M288.233039,152.192454 L286.17869,153.046127 C284.89818,149.964603 284.113907,146.917779 282.868098,143.340018 C282.902798,142.84378 282.972198,141.851306 283.964673,141.920706 C284.46091,141.955407 285.453384,142.024807 285.383984,143.017282 C286.133556,146.560343 287.414066,149.641867 288.233039,152.192454 Z M265.250785,402.410546 L265.216085,402.906783 C264.685147,403.36832 264.15421,403.829857 263.692673,403.29892 L262.734899,402.733282 C260.81935,401.602006 258.407565,400.43603 256.526717,398.808518 L255.072706,398.208179 C254.611169,397.677242 254.149632,397.146304 254.680569,396.684768 C255.211507,396.223231 255.742444,395.761694 256.203981,396.292631 L257.657992,396.892969 C259.573541,398.024245 261.950626,399.686458 263.866174,400.817734 L264.823948,401.383371 C265.320186,401.418072 265.285485,401.914309 265.250785,402.410546 Z M283.031166,133.87681 C282.996465,134.373047 282.465528,134.834584 281.969291,134.799884 C281.473054,134.765184 280.480579,134.695783 280.54998,133.703309 C279.765707,130.656485 279.016135,127.113424 278.728099,124.1013 C278.762799,123.605063 278.8322,122.612588 279.824674,122.681989 C280.320912,122.716689 281.313386,122.78609 281.243985,123.778564 C281.497321,127.286925 282.281593,130.333749 283.031166,133.87681 Z M279.387404,114.672793 C279.352704,115.16903 278.821767,115.630567 278.325529,115.595867 C277.829292,115.561166 276.871518,114.995529 276.906218,114.499291 L275.084338,104.897283 C275.119038,104.401046 275.684676,103.443271 276.180913,103.477972 C276.67715,103.512672 277.634924,104.07831 277.600224,104.574547 L279.387404,114.672793 C279.422105,114.176556 279.422105,114.176556 279.387404,114.672793 Z M276.274581,95.0072388 C276.23988,95.503476 275.708943,95.9650129 275.212706,95.9303126 C274.716468,95.8956123 273.723994,95.8262118 273.793395,94.8337373 C273.009122,91.7869134 272.755787,88.2785526 271.971514,85.2317287 C272.006214,84.7354915 272.075615,83.7430171 273.068089,83.8124177 C273.564326,83.8471179 274.556801,83.9165185 274.4874,84.908993 C274.775436,87.9211166 275.525008,91.4641777 276.274581,95.0072388 C276.309281,94.5110015 276.309281,94.5110015 276.274581,95.0072388 Z M272.169282,75.2722841 C272.134582,75.7685213 271.603645,76.2300582 271.107407,76.1953579 C270.61117,76.1606577 269.618696,76.0912571 269.688096,75.0987826 C269.26126,74.0716079 269.29596,73.5753707 268.869123,72.548196 C268.05015,69.9976093 267.692714,67.9779601 266.873741,65.4273735 C266.412204,64.896436 266.977842,63.9386618 267.474079,63.9733621 C268.005017,63.5118252 268.962791,64.077463 268.928091,64.5737002 C269.747064,67.1242869 270.600737,69.1786363 270.923473,71.6945227 C271.811846,73.2526349 271.742446,74.2451093 272.169282,75.2722841 Z M248.507088,392.263766 L248.472387,392.760003 C247.94145,393.22154 247.410512,393.683077 246.948975,393.15214 L238.329008,388.0614 C237.867471,387.530462 237.405934,386.999525 237.936872,386.537988 C238.467809,386.076451 238.998747,385.614914 239.460284,386.145851 L248.080251,391.236591 C248.080251,391.236591 248.541788,391.767529 248.507088,392.263766 Z M266.009635,56.3910027 C265.974934,56.8872399 265.443997,57.3487768 265.443997,57.3487768 C264.913059,57.8103138 263.955285,57.244676 263.989986,56.7484387 C262.709476,53.6669146 261.428966,50.5853904 259.617518,47.9654032 C259.155981,47.4344657 259.721619,46.4766915 260.217856,46.5113918 C260.748794,46.0498549 261.706568,46.6154926 261.671868,47.1117299 C262.952378,50.193254 264.729125,53.3094785 266.009635,56.3910027 Z M256.768463,38.7902312 C256.733763,39.2864684 256.699062,39.7827057 256.202825,39.7480054 C255.671888,40.2095423 254.679413,40.1401417 254.748814,39.1476673 C252.937366,36.52768 251.160619,33.4114556 249.314471,31.2877056 C248.852934,30.7567681 248.922335,29.7642936 249.453273,29.3027567 C249.98421,28.8412198 250.976685,28.9106203 251.438221,29.4415578 C253.249669,32.0615451 255.557354,34.7162326 257.334101,37.8324571 C256.803163,38.293994 256.768463,38.7902312 256.768463,38.7902312 Z M230.701515,383.04006 C230.135877,383.997834 229.60494,384.459371 229.143403,383.928434 C225.739143,382.693057 222.83112,381.492381 219.923097,380.291705 C219.42686,380.257004 219.000024,379.22983 219.034724,378.733593 C219.069424,378.237355 220.096599,377.810519 220.592836,377.845219 C223.500859,379.045895 226.939819,379.785034 229.813142,381.481948 C230.770916,382.047586 230.736215,382.543823 230.701515,383.04006 Z M244.376366,23.4624441 C244.341666,23.9586813 244.341666,23.9586813 243.810729,24.4202183 C243.279791,24.8817552 242.783554,24.8470549 241.82578,24.2814171 L234.798625,17.8060662 C234.337088,17.2751287 234.371788,16.7788915 234.406488,16.2826543 C234.937426,15.8211173 235.433663,15.8558176 235.9299,15.8905179 C238.272285,18.0489682 241.110908,20.2421188 243.453292,22.4005691 C244.445767,22.4699697 244.411067,22.9662069 244.376366,23.4624441 Z M212.191504,376.759077 L212.191504,376.759077 C212.122103,377.751551 211.591166,378.213088 210.633391,377.64745 L206.663494,377.369848 C204.678545,377.231047 203.189833,377.126946 201.170184,377.484382 C200.673947,377.449682 199.716173,376.884044 199.750873,376.387807 C199.785573,375.89157 200.351211,374.933796 200.847448,374.968496 C202.832397,375.107297 204.852046,374.749861 206.340758,374.853962 L210.806893,375.166264 C211.764667,375.731902 212.226204,376.26284 212.191504,376.759077 Z M228.798645,10.9038786 L228.763944,11.4001158 C228.233007,11.8616528 227.702069,12.3231897 227.240532,11.7922522 C224.36721,10.0953388 221.459187,8.89466267 218.551165,7.69398652 C218.054927,7.65928623 217.628091,6.6321115 217.662791,6.13587429 C217.697491,5.63963707 218.724666,5.21280042 219.220903,5.24750071 C222.128926,6.44817687 225.498486,8.17979053 228.371808,9.87670391 C228.833345,10.4076414 228.798645,10.9038786 228.798645,10.9038786 Z M192.203214,377.356014 C192.168513,377.852252 191.637576,378.313788 191.141339,378.279088 C188.129215,378.567124 185.082391,379.351396 181.53933,380.100969 C181.043093,380.066269 180.050618,379.996868 180.120019,379.004394 C180.154719,378.508156 180.22412,377.515682 181.216594,377.585082 C184.759655,376.83551 187.806479,376.051237 190.853303,375.266965 C191.31484,375.797902 192.272614,376.36354 192.203214,377.356014 Z M210.854271,3.6651214 C210.78487,4.65759583 209.757696,5.08443248 209.296159,4.55349497 C208.303684,4.4840944 207.807447,4.44939411 206.849673,3.88375632 C204.403187,3.21401767 201.922001,3.04051624 199.440815,2.8670148 C198.944578,2.83231452 198.483041,2.30137701 198.517741,1.80513979 C198.552441,1.30890257 199.083379,0.84736564 200.075853,0.916766213 C202.557039,1.09026765 205.038226,1.26376908 207.484711,1.93350773 C208.477186,2.00290831 208.973423,2.03760859 209.931197,2.60324638 C210.427434,2.63794667 210.888971,3.16888418 210.854271,3.6651214 Z M172.929796,381.99225 C172.895096,382.488487 172.364158,382.950024 171.867921,382.915324 C168.821097,383.699597 165.739573,384.980107 162.692749,385.764379 C162.161812,386.225916 161.204037,385.660278 161.238738,385.164041 C160.777201,384.633104 161.342839,383.67533 161.839076,383.71003 C164.9206,382.42952 167.967424,381.645247 171.510485,380.895675 C172.006722,380.930375 172.502959,380.965075 172.929796,381.99225 Z M191.004782,2.27710993 C190.970082,2.77334715 190.439144,3.23488408 189.942907,3.20018379 C186.930784,3.48821929 183.422423,3.7415545 180.375599,4.52582722 C179.879362,4.49112693 178.886887,4.42172636 178.956288,3.42925192 C178.990988,2.9330147 179.060389,1.94054027 180.052863,2.00994084 C183.595924,1.26036841 186.608048,0.972332911 190.116409,0.718997699 C190.116409,0.718997699 191.074183,1.28463549 191.004782,2.27710993 C191.039483,1.78087271 191.039483,1.78087271 191.004782,2.27710993 Z M154.048515,388.151898 C154.013814,388.648135 153.482877,389.109672 152.98664,389.074972 L151.463228,389.467108 C148.912641,390.286081 146.362054,391.105054 143.31523,391.889327 C142.818993,391.854626 141.826519,391.785226 141.895919,390.792751 C141.96532,389.800277 142.00002,389.30404 142.992495,389.37344 C145.543081,388.554467 148.589905,387.770195 150.644255,386.916521 L152.167667,386.524385 C153.160141,386.593785 153.621678,387.124723 154.048515,388.151898 Z M171.304528,5.88617094 C171.269828,6.38240816 170.73889,6.84394509 170.242653,6.8092448 C167.195829,7.59351752 164.114305,8.87402746 161.032781,10.1545374 C160.501843,10.6160743 159.544069,10.0504365 159.578769,9.55419931 C159.117232,9.02326181 159.68287,8.06548766 160.179107,8.10018794 C163.260632,6.81967801 166.342156,5.53916807 169.885217,4.78959564 C170.416154,4.32805871 171.408629,4.39745928 171.304528,5.88617094 C171.339228,5.38993372 171.339228,5.38993372 171.304528,5.88617094 Z M134.740397,393.284371 C134.705696,393.780608 134.174759,394.242145 133.678522,394.207445 C130.13546,394.957017 127.088637,395.74129 123.580276,395.994625 C123.084038,395.959925 122.126264,395.394287 122.160965,394.89805 C122.195665,394.401812 122.761303,393.444038 123.25754,393.478738 C126.269664,393.190703 129.812725,392.441131 132.859549,391.656858 C134.31356,392.257196 134.809797,392.291896 134.740397,393.284371 Z M152.850083,13.0729933 C152.815383,13.5692306 152.780683,14.0654678 152.284445,14.0307675 C151.257271,14.4576041 149.699158,15.3459777 148.671984,15.7728144 C147.113871,16.6611879 145.059522,17.5148612 143.50141,18.4032348 C142.970472,18.8647717 142.012698,18.2991339 142.047398,17.8028967 C141.585861,17.2719592 142.151499,16.3141851 142.647736,16.3488854 C144.205849,15.4605118 146.260198,14.6068385 147.853011,13.2222277 C148.880185,12.795391 150.438298,11.9070175 151.465472,11.4801808 C151.99641,11.0186439 152.954184,11.5842817 152.919484,12.0805189 C152.884783,12.5767561 152.850083,13.0729933 152.850083,13.0729933 Z M115.109543,395.900957 C115.074842,396.397194 114.543905,396.858731 114.047668,396.824031 C110.539307,397.077366 107.065646,396.834464 104.088223,396.626263 C103.591986,396.591562 103.130449,396.060625 102.668912,395.529687 C102.703612,395.03345 103.23455,394.571913 103.730787,394.606613 C106.70821,394.814815 110.181871,395.057717 113.690232,394.804382 C114.682706,394.873782 115.144243,395.40472 115.109543,395.900957 Z M135.710849,22.8451027 C135.676148,23.3413399 135.676148,23.3413399 135.145211,23.8028768 C132.525224,25.6143243 129.905236,27.4257717 127.250549,29.7334564 C126.719611,30.1949933 125.727137,30.1255927 125.2656,29.5946552 C124.804063,29.0637177 124.873464,28.0712433 125.404401,27.6097064 C128.024388,25.7982589 130.679076,23.4905743 133.7953,21.7138271 C134.326238,21.2522902 135.318712,21.3216907 135.780249,21.8526283 C135.745549,22.3488655 135.710849,22.8451027 135.710849,22.8451027 Z M95.7215909,395.043883 C95.6521903,396.036358 95.1212528,396.497895 94.1634786,395.932257 C90.7245184,395.193118 87.2855582,394.453978 84.3775354,393.253302 C83.8812982,393.218602 83.4544616,392.191427 83.4891618,391.69519 C83.5238621,391.198953 84.5510369,390.772116 85.0472741,390.806816 C87.9552968,392.007493 91.3942571,392.746632 94.3369801,393.451071 C95.3294545,393.520471 95.7909915,394.051409 95.7215909,395.043883 Z M119.886824,35.202499 C119.852124,35.6987362 119.852124,35.6987362 119.321186,36.1602732 L111.888061,42.6217902 C111.357124,43.0833271 110.364649,43.0139266 109.903113,42.4829891 C109.441576,41.9520516 109.510976,40.9595771 110.041914,40.4980402 C112.200364,38.1556552 114.855052,35.8479706 117.475039,34.0365231 C118.005976,33.5749862 118.998451,33.6443868 119.459988,34.1753243 C119.956225,34.2100246 119.921525,34.7062618 119.886824,35.202499 Z M105.482111,48.6564706 C105.447411,49.1527078 105.447411,49.1527078 104.916473,49.6142448 C102.758023,51.9566297 100.599573,54.2990147 98.4064221,57.1376368 C97.8754846,57.5991738 97.3792473,57.5644735 96.8830101,57.5297732 C96.4214732,56.9988357 96.4561735,56.5025985 96.4908738,56.0063612 C98.6493241,53.6639763 100.842475,50.8253541 103.000925,48.4829692 C103.531862,48.0214322 104.0281,48.0561325 104.985874,48.6217703 C105.516811,48.1602334 105.516811,48.1602334 105.482111,48.6564706 Z M76.7500425,388.231963 L76.7153422,388.7282 C76.1844047,389.189737 75.6534672,389.651274 75.1919303,389.120336 C72.3186078,387.423423 69.4452854,385.726509 66.6066632,383.533359 C66.1451263,383.002421 66.1798265,382.506184 66.2145268,382.009947 C66.7454643,381.54841 67.2417016,381.58311 67.7379388,381.617811 C70.0803237,383.776261 72.9536462,385.473174 75.8616689,386.67385 C76.8194431,387.239488 76.7847428,387.735725 76.7500425,388.231963 Z M92.9582459,63.737955 L92.9235456,64.2341922 C90.730395,67.0728144 89.0681819,69.4498996 87.3712685,72.3232221 C86.840331,72.784759 86.3093935,73.246296 85.8478566,72.7153585 C85.3863196,72.1844209 84.9247827,71.6534834 85.4557202,71.1919465 C87.1526336,68.3186241 89.3457842,65.4800019 91.0079973,63.1029167 C91.5389348,62.6413797 92.0698723,62.1798428 92.5314092,62.7107803 C92.9929461,63.2417178 92.9582459,63.737955 92.9582459,63.737955 Z M81.8189914,80.4122519 L81.7842912,80.9084892 C80.0873778,83.7818116 78.3904644,86.6551341 77.1897882,89.5631568 C76.6588507,90.0246937 76.1279132,90.4862307 75.6663763,89.9552932 C75.2048394,89.4243557 74.7433024,88.8934182 75.2742399,88.4318812 C76.9711533,85.5585588 78.1718295,82.650536 79.8687429,79.7772136 C80.3996804,79.3156766 80.9306179,78.8541397 81.3921548,79.3850772 C81.888392,79.4197775 81.8536917,79.9160147 81.8189914,80.4122519 Z M61.1376206,376.169634 C61.1029203,376.665872 61.1029203,376.665872 60.5719828,377.127409 C60.0410453,377.588945 59.5448081,377.554245 58.5870339,376.988607 C56.244649,374.830157 53.9369643,372.17547 52.1602171,369.059245 C51.6986802,368.528308 51.7680808,367.535833 52.2990183,367.074296 C52.8299558,366.612759 53.8224302,366.68216 54.2839672,367.213097 C56.0954146,369.833085 58.4030993,372.487772 60.7454842,374.646222 C61.1723209,375.673397 61.1376206,376.169634 61.1376206,376.169634 Z M73.0915226,98.2525247 C71.8561461,101.656785 70.65547,104.564807 69.4200935,107.969067 C69.3853932,108.465305 68.3582185,108.892141 67.8619813,108.857441 C67.3657441,108.822741 66.9389074,107.795566 66.9736077,107.299329 C68.1742839,104.391306 69.4096603,100.987046 70.6103365,98.0790233 C70.6450367,97.5827861 71.6722115,97.1559494 72.1684487,97.1906497 C72.6646859,97.22535 73.1262228,97.7562875 73.0915226,98.2525247 Z M49.2764615,360.38031 C49.2417612,360.876548 49.2070609,361.372785 48.7108237,361.338085 C48.1798862,361.799621 47.222112,361.233984 47.2568123,360.737746 C45.4800652,357.621522 44.1648549,355.036235 42.9190453,351.458474 C42.4575084,350.927536 43.0231462,349.969762 43.5193834,350.004462 C44.0503209,349.542925 45.008095,350.108563 44.9733947,350.6048 C46.2539047,353.686325 47.5344146,356.767849 49.3458621,359.387836 C49.3111618,359.884073 49.3111618,359.884073 49.2764615,360.38031 Z M65.818065,116.693136 C64.5826886,120.097396 63.8435494,123.536356 63.1391104,126.479079 C63.1044101,126.975316 62.0772354,127.402153 61.5809982,127.367452 C61.084761,127.332752 60.6579243,126.305577 60.6926246,125.80934 C61.4317638,122.37038 62.63244,119.462357 63.3715792,116.023397 C63.4062795,115.52716 64.4334542,115.100323 64.9296915,115.135023 C65.3912284,115.665961 65.8527653,116.196898 65.818065,116.693136 Z M56.6292904,205.311396 C56.5945901,205.807633 56.0636526,206.26917 55.5674154,206.23447 C55.0711782,206.19977 54.113404,205.634132 54.1481043,205.137895 L54.84211,195.21315 C54.8768103,194.716913 55.4424481,193.759139 55.9386853,193.793839 C56.4349226,193.828539 57.3926967,194.394177 57.3579964,194.890414 C57.1150944,198.364075 56.8721924,201.837736 56.6292904,205.311396 Z M55.9352847,215.23614 L55.7617832,217.717327 C55.5882818,220.198513 54.9185432,222.644998 54.7450417,225.126185 C54.7103414,225.622422 54.1794039,226.083959 53.1869295,226.014558 C52.6906923,225.979858 52.2291553,225.44892 52.2985559,224.456446 C52.9682946,222.00996 53.141796,219.528774 53.3152974,217.047588 L53.4887989,214.566402 C53.5234991,214.070165 54.0544367,213.608628 55.0469111,213.678028 C55.5431483,213.712729 56.0046852,214.243666 55.9352847,215.23614 Z M60.9910933,135.803485 C60.2866544,138.746208 60.1131529,141.227394 59.408714,144.170117 L59.3046131,145.658829 C59.2699129,146.155066 58.7389754,146.616603 57.7465009,146.547203 C57.2502637,146.512502 56.7887268,145.981565 56.8581273,144.98909 L56.9622282,143.500379 C57.1704299,140.522955 57.8401686,138.07647 58.5446075,135.133746 C58.5793078,134.637509 59.1102453,134.175972 60.1027197,134.245373 C60.5642567,134.77631 61.0257936,135.307248 60.9910933,135.803485 Z M57.5210647,185.427207 C57.4863644,185.923444 56.9554269,186.384981 56.4591896,186.350281 C55.9629524,186.315581 55.0051783,185.749943 55.0398786,185.253706 L55.2376471,175.294261 C55.2723474,174.798024 55.8379852,173.84025 56.3342224,173.87495 C56.8304596,173.90965 57.7882337,174.475288 57.7535335,174.971525 L57.5210647,185.427207 Z M57.9166017,165.508318 C57.8819014,166.004555 57.3509639,166.466092 56.8547267,166.431392 C56.3584895,166.396691 55.4007153,165.831053 55.4354156,165.334816 L56.1294213,155.410072 C56.1641216,154.913835 56.6950591,154.452298 57.6875336,154.521698 C58.1837708,154.556399 58.6453077,155.087336 58.6106074,155.583573 L57.9166017,165.508318 Z M52.5970246,234.450591 L52.5970246,234.450591 C51.8578854,237.889551 51.1534464,240.832274 50.4143072,244.271234 C50.3796069,244.767472 49.3524322,245.194308 48.856195,245.159608 C48.3599578,245.124908 47.9331211,244.097733 47.9678214,243.601496 C48.7069606,240.162535 49.4113996,237.219812 50.1505388,233.780852 C50.1852391,233.284615 50.7161766,232.823078 51.708651,232.892479 C52.170188,233.423416 52.6317249,233.954354 52.5970246,234.450591 Z M42.0896391,341.925866 C42.0549388,342.422103 41.5240013,342.88364 41.0277641,342.848939 C40.5315269,342.814239 39.5390524,342.744839 39.608453,341.752364 C38.8241803,338.70554 38.0746078,335.162479 37.2903351,332.115655 C37.3250354,331.619418 37.394436,330.626944 38.3869104,330.696344 C38.8831476,330.731045 39.8756221,330.800445 39.8062215,331.79292 C40.5557939,335.335981 41.3400667,338.382805 42.0896391,341.925866 C42.1243394,341.429628 42.0896391,341.925866 42.0896391,341.925866 Z M47.7353526,254.057178 C47.0309137,256.999901 46.2917744,260.438861 45.0910983,263.346884 C45.056398,263.843121 44.0292233,264.269957 43.5329861,264.235257 C43.0367488,264.200557 42.6099122,263.173382 42.6446125,262.677145 C43.3837517,259.238185 44.0881906,256.295462 45.2888668,253.387439 L46.2813412,253.45684 L47.7353526,254.057178 Z M42.9083809,273.167527 C42.1692417,276.606487 41.4648027,279.54921 40.7256635,282.988171 C40.6909632,283.484408 40.1600257,283.945945 39.1675513,283.876544 C38.6713141,283.841844 38.2097771,283.310906 38.2791777,282.318432 C39.0183169,278.879472 39.7227559,275.936749 40.4618951,272.497788 C40.4965954,272.001551 41.0275329,271.540014 42.0200073,271.609415 C42.4815443,272.140352 42.9430812,272.67129 42.9083809,273.167527 Z M38.4805781,322.225611 C38.4458778,322.721848 37.9149403,323.183385 37.4187031,323.148685 C36.9224659,323.113985 35.9646917,322.548347 35.999392,322.05211 C35.7460568,318.543749 35.4580213,315.531625 35.2046861,312.023265 C35.2393864,311.527027 35.8050241,310.569253 36.3012614,310.603953 C36.7974986,310.638654 37.7552727,311.204292 37.7205724,311.700529 C37.9392074,315.705127 38.2272429,318.71725 38.4805781,322.225611 Z M39.5354206,292.878215 C39.3272188,295.855638 38.6227799,298.798361 38.4145782,301.775784 L38.3451776,302.768259 C38.3104773,303.264496 37.7795398,303.726033 36.7870654,303.656632 C36.2908282,303.621932 35.8292912,303.090995 35.8639915,302.594757 L35.9333921,301.602283 C36.1415938,298.62486 36.3497955,295.647436 37.0542345,292.704713 C37.0889348,292.208476 37.6198723,291.746939 38.6123467,291.81634 C39.1432842,291.354803 39.6048211,291.88574 39.5354206,292.878215 Z" id="Shape" fill="#F9F9F9"></path>
                <path d="M84.599571,375.815599 C59.0277044,363.555502 49.8350667,330.998214 52.3092203,302.747392 C54.7833739,274.496571 66.1550971,247.366592 69.6217251,219.185172 C72.8107508,194.973649 70.5411671,170.380423 73.7301928,146.1689 C80.1776448,96.7533799 111.759693,51.5887604 155.778972,28.2377122 C170.794457,20.3117506 188.152326,14.5442393 204.389353,17.6742976 C231.439498,23.0564739 248.988335,50.2141205 256.11619,76.643061 C263.244045,103.072002 263.747315,131.531024 273.391056,157.637229 C282.215825,181.192847 298.230816,201.760609 314.846146,220.874359 C331.461475,239.988109 349.634917,258.213486 362.603085,279.56552 C376.067489,300.952255 384.753457,326.492822 381.49503,351.696819 C378.236604,376.900816 360.091061,401.063805 335.324334,405.814575 C313.038792,410.738846 290.340248,400.175663 271.219466,388.36667 C251.602446,376.522976 232.089527,363.190571 209.297315,361.098121 C187.993815,359.109771 167.45032,367.646504 147.080327,373.702051 C126.640933,380.750072 103.397618,385.108706 84.599571,375.815599 Z" id="Path" fill="url(#linearGradient-2)"></path>
                <circle id="Oval" fill="#7A9BEA" cx="201.842566" cy="403.842566" r="2.8425656"></circle>
                <circle id="Oval" fill="#7A9BEA" cx="2.8425656" cy="157.842566" r="2.8425656"></circle>
                <path d="M351.685131,144.842566 C351.685131,146.358601 350.358601,147.685131 348.842566,147.685131 C347.326531,147.685131 346,146.358601 346,144.842566 C346,143.326531 347.326531,142 348.842566,142 C350.358601,142 351.685131,143.326531 351.685131,144.842566 Z" id="Path" fill="#7A9BEA"></path>
            </g>
        </g>
    </g>
</svg>