<svg height="410" viewBox="0 0 425 410" width="425" xmlns="http://www.w3.org/2000/svg" xmlns:xlink="http://www.w3.org/1999/xlink"><linearGradient id="a"><stop offset="0" stop-color="#796ce7"/><stop offset="1" stop-color="#7d89e9"/></linearGradient><linearGradient id="b" x1="83.763286%" x2="18.621285%" xlink:href="#a" y1="85.059533%" y2="26.618946%"/><linearGradient id="c" x1="85.564209%" x2="16.947554%" xlink:href="#a" y1="85.059533%" y2="26.618946%"/><g fill="none"><path d="m176.422012 36.8064869c-14.426021-4.4770408-28.852041-8.9540817-43.775511-8.9540817-27.857142 0-54.2219383 16.4158164-70.6377546 39.2984694-16.4158164 22.3852041-24.375 50.7397964-26.8622449 78.5969384-2.4872449 24.872449-.994898 50.739796 8.4566326 74.119898s26.8622449 43.775511 49.744898 53.227041c15.9183669 6.466837 33.3290819 7.461735 48.7499999 15.420919 24.375 12.436224 36.811225 40.293367 58.201531 57.206632 21.887755 17.908163 53.724489 23.877551 80.586734 14.92347 29.34949-9.451531 51.734694-35.318878 64.170919-63.67347 12.436224-28.852041 15.420918-60.191326 16.415816-91.530612 1.492347-36.811225-1.492347-77.602041-26.364796-104.961735-18.405612-19.4005099-45.267857-28.3545916-70.637755-36.3137752-29.846939-9.4515307-58.69898-18.4056123-88.048469-27.3596939z" fill="url(#b)" opacity=".2"/><path d="m5.99634796 174.918781-2.49577679-6.501721c-.35653954-.928817-.89134886-2.322043-.78347977-3.42913-.17826977-.464409.10786909-1.107087 1.03668635-1.463627.46440863-.178269 1.10708703.107869 1.46362658 1.036687.35653954.928817.89134885 2.322043.78347976 3.42913l2.49577679 6.501721c.17826977.464408-.10786909 1.107087-.57227772 1.285357-.92881726.356539-1.57149566.0704-1.9280352-.858417zm4.02980404 9.109903c-.17826976-.464409.1078691-1.107087.5722777-1.285357.4644087-.17827 1.5714957-.070401 1.7497655.394008 1.5340272 2.608182 3.2463242 5.680773 4.9586213 8.753363.1782697.464409.0704006 1.571496-.394008 1.749766-.4644086.178269-1.5714956.0704-1.7497654-.394008-1.712297-3.072591-3.4245941-6.145182-5.1368911-9.217772zm-8.83855172-28.577597c-.31907113-3.6074-1.1025509-7.03653-.77894363-10.357791-.17826977-.464409.57227772-1.285357 1.03668635-1.463627s1.2853568.572278 1.46362657 1.036686c.14080136 3.142992.4598725 6.750392.60067386 9.893383.17826977.464409-.57227772 1.285357-1.03668635 1.463627-.92881726.356539-1.10708703-.107869-1.2853568-.572278zm19.50634182 45.263375c-.1782698-.464408.1078691-1.107087.5722777-1.285357.4644087-.178269 1.3932259-.534809 1.7497655.394008 1.9984359 2.429913 4.1751415 5.324233 6.1735774 7.754146.6426784.286139.5348093 1.393226.0704007 1.571495-.4644087.17827-1.3932259.53481-1.5714957.070401-2.6411143-2.716051-4.8178199-5.610372-6.9945256-8.504693.1782698.464409 0 0 0 0zm-20.24328091-65.22841-.17826978-.464409c.32360727-3.321261.64721454-6.642522 1.43523043-10.142053.28613886-.642678.75054749-.820948 1.21495613-.999218.6426784.286139.82094817.750548.99921794 1.214956-.96628567 3.035123-1.28989294 6.356384-1.6135002 9.677645-.28613886.642678-.57227772 1.285357-1.21495612.999218-.28613886.642678-.46440863.17827-.6426784-.286139zm33.34098331 79.915753c-.1782698-.464409.107869-1.107087.107869-1.107087.2861389-.642679 1.3932259-.53481 1.5714957-.070401l7.3885336 6.754927c.6426784.286139.5348093 1.393226.0704006 1.571496-.2861388.642679-1.3932258.534809-1.5714956.070401l-7.3885336-6.754928s0 0-.1782697-.464408zm-29.00689588-99.163173c-.17826977-.464408-.17826977-.464408.10786909-1.107087.96628567-3.035122 2.39697996-6.248514 3.82767426-9.461906.28613886-.642679 1.21495612-.999218 1.85763453-.713079.6426784.286139.9992179 1.214956.7130791 1.857634-1.60896409 2.748984-2.57524976 5.784106-4.00594406 8.997498-.28613886.642678-.75054749.820948-1.85763452.713079-.46440863.17827-.46440863.17827-.6426784-.286139zm44.53451038 111.852079c-.1782697-.464408-.3565395-.928817.1078691-1.107087.2861389-.642678 1.3932259-.534809 1.5714957-.0704 2.2845747 1.787234 5.2118279 3.860606 7.9608113 5.46957.6426784.286139.9992179 1.214956.0704007 1.571496-.2861389.642678-1.2149562.999218-1.5714957.070401-2.7489834-1.608964-5.6762365-3.682337-8.1390811-5.93398.1782698.464409.1782698.464409 0 0zm16.564301 11.22528c-.1782698-.464408-.1782698-.464408.1078691-1.107087.2861388-.642678 1.2149561-.999217 1.8576345-.713079 2.7489834 1.608964 5.4979668 3.217929 8.7113588 4.648623.6426784.286139.9992179 1.214956.713079 1.857634-.2861388.642679-1.2149561.999218-1.8576345.713079-3.213392-1.430694-5.9623754-3.039658-8.7113587-4.648622-.6426784-.286139-.8209482-.750548-.8209482-.750548zm-52.4442449-140.7862152c-.1782698-.4644087-.3565395-.9288173.1078691-1.1070871 2.0733727-2.9272531 4.3250152-5.3900976 6.5766576-7.8529422.2861389-.6426784 1.3932259-.5348093 1.5714957-.0704006.6426784.2861388.5348093 1.3932259.0704007 1.5714956-2.2516425 2.4628445-4.503285 4.9256891-6.112249 7.6746724-.2861389.6426784-1.3932259.5348093-1.5714957.0704007-.4644086.1782698-.4644086.1782698-.6426784-.2861388zm69.8669624 150.0834602c-.1782698-.464408-.1782698-.464408.1078691-1.107087.2861389-.642678 1.2149561-.999218 1.8576345-.713079 3.213392 1.430695 5.9623754 3.039659 8.9974976 4.005944.6426784.286139.999218 1.214956.7130791 1.857635-.2861388.642678-1.2149561.999218-1.8576345.713079-3.213392-1.430694-5.9623754-3.039658-8.9974976-4.005944-.6426784-.286139-.8209482-.750548-.8209482-.750548zm-56.1788378-164.3961187c-.1782698-.4644086.1078691-1.107087.5722777-1.2853568l.7505475-.8209482c2.4299122-1.9984359 5.0380943-3.5324631 7.1818676-4.8882206.4644087-.1782698 1.5714957-.0704007 1.7497655.3940079.1782697.4644087.0704006 1.5714957-.394008 1.7497655-2.608182 1.5340272-4.7519554 2.8897847-7.1818676 4.8882206l-.7505475.8209482c-.4644086.1782697-1.107087-.1078691-1.9280352-.8584166zm74.1738333 172.4080067c-.17827-.464408-.17827-.464408.107869-1.107087.286139-.642678 1.214956-.999218 1.857634-.713079 3.213392 1.430695 6.248515 2.39698 8.997498 4.005944.642678.286139.999218 1.214956.713079 1.857635-.286139.642678-1.214956.999218-1.857634.713079-3.213392-1.430694-6.248515-2.39698-8.997498-4.005944-.464409.17827-.642678-.286139-.820948-.750548zm-57.1315153-182.1469796c-.1782698-.4644086.107869-1.107087.5722777-1.2853568l.9288172-.3565395c2.7864518-1.0696186 5.5729036-2.1392373 8.5376252-2.7444472.4644086-.1782698 1.5714956-.0704007 1.4636265 1.0366863.1782698.4644086-.1078691 1.107087-1.0366863 1.4636266-2.9647216.60521-5.7511734 1.6748286-8.5376251 2.7444472l-.9288173.3565396c.2861389-.6426784-.8209482-.7505475-.9992179-1.2149562zm75.5909193 189.9805986c-.17827-.464409-.17827-.464409.107869-1.107087.286139-.642679 1.214956-.999218 1.857634-.713079l8.997498 4.005944c.642678.286139.999218 1.214956.713079 1.857634-.286139.642679-1.214956.999218-1.857635.713079l-8.997497-4.005944c-.464409.17827-.642679-.286139-.820948-.750547zm17.994995 8.011888c-.17827-.464409-.17827-.464409.107869-1.107087.286139-.642679 1.214956-.999218 1.857634-.713079 3.213392 1.430694 5.962376 3.039658 9.175768 4.470352.642678.286139.999218 1.214956.713079 1.857635-.286139.642678-1.214956.999218-1.857635.713079-2.748983-1.608964-5.962375-3.039658-8.997497-4.005944-.642679-.286139-.820948-.750548-.999218-1.214956zm-74.29649-203.2656429c-.3565396-.9288172.3940079-1.7497654 1.0366863-1.4636265 2.9647216-.60521 6.5721215-.9242812 9.7151128-1.0650825.4644087-.1782698 1.2853568.5722777 1.4636266 1.0366863s-.5722777 1.2853568-1.0366863 1.4636266c-3.1429914.1408013-6.7503913.4598725-9.7151129 1.0650825-.6426784-.2861389-1.2853568-.5722777-1.4636265-1.0366864zm92.183616 212.3846179c-.17827-.464409-.17827-.464409.107869-1.107087.286139-.642679 1.214956-.999218 1.857635-.713079 2.748983 1.608964 5.962375 3.039658 8.889628 5.113031.642679.286139.999218 1.214956.713079 1.857634-.286139.642679-1.214956.999218-1.857634.713079l-8.24695-4.826892c-1.285357-.572277-1.463627-1.036686-1.463627-1.036686zm-72.3968508-213.5859656c.1078691-1.107087.3940079-1.7497654 1.0366863-1.4636266 3.1429913-.1408013 6.4642524.1828059 10.2499222.3281434.6426784.2861389 1.2853568.5722777.9992179 1.2149561-.2861389.6426785-.5722777 1.2853569-1.2149561.999218-3.3212611-.3236073-6.4642524-.1828059-9.7855135-.5064132-.4644087.1782698-1.1070871-.1078691-1.2853568-.5722777zm89.2472908 224.1685676c-.17827-.464409-.35654-.928818.107869-1.107087.286139-.642679 1.393226-.53481 1.571496-.070401 2.927253 2.073373 5.211827 3.860606 8.139081 5.933979.642678.286139.534809 1.393226.0704 1.571496-.286139.642678-1.393226.534809-1.571495.0704-2.462845-2.251642-5.211828-3.860606-7.674673-6.112249-.464408.17827-.642678-.286138-.642678-.286138zm15.705884 13.153315 1.501095-1.641896c2.462845 2.251642 4.461281 4.681554 7.102395 7.397605.17827.464409.534809 1.393226-.394008 1.749766-.464409.17827-1.393226.534809-1.749766-.394008-2.176705-2.894321-4.63955-5.145964-6.459716-7.111467zm-84.917739-236.487326-.17827-.4644087c.286139-.6426784.572278-1.2853568 1.214956-.9992179l1.107087.1078691c2.214174.2157382 4.892757.2532066 7.285201.9333534l1.571495-.0704007c.642679.2861389 1.285357.5722777.999218 1.2149561-.286138.6426784-.572277 1.2853568-1.214956.999218l-1.571495.0704006c-2.214174-.2157381-5.071027-.7176152-7.285201-.9333533l-1.107087-.1078691c-.464409.1782697-.642678-.2861389-.820948-.7505475zm97.372763 250.88853c-.17827-.464409.107869-1.107087.572278-1.285357.464408-.17827 1.393226-.53481 1.749765.394008 1.998436 2.429912 4.175142 5.324233 5.709169 7.932415.17827.464408.534809 1.393226-.394008 1.749765-.464409.17827-1.393226.53481-1.749765-.394008-1.712297-3.07259-3.710733-5.502503-5.887439-8.396823zm11.418338 15.86483c-.17827-.464409.107869-1.107087.572277-1.285357.464409-.17827 1.571496-.070401 1.749766.394008l5.709169 7.932415c.178269.464409.0704 1.571496-.394008 1.749766-.464409.178269-1.571496.0704-1.749766-.394008l-5.887438-8.396824c.178269.464408.178269.464408 0 0zm11.132198 16.507508c-.178269-.464408.10787-1.107087.572278-1.285356.464409-.17827 1.393226-.53481 1.749766.394008 1.998435 2.429912 3.710733 5.502502 5.709168 7.932415.17827.464408.53481 1.393226-.394008 1.749765-.464408.17827-1.393225.534809-1.749765-.394008-1.534027-2.608182-3.710733-5.502503-5.887439-8.396824.17827.464409.17827.464409 0 0zm12.061016 16.15097c-.178269-.464409.10787-1.107087.572278-1.285357.464409-.17827 1.393226-.53481 1.749766.394008.820948.750547.999218 1.214956 1.820166 1.965503 1.820166 1.965504 2.997654 3.644869 4.81782 5.610372.642678.286139.534809 1.393226.0704 1.571496-.286139.642678-1.393226.534809-1.571495.070401-1.820166-1.965504-3.462063-3.466599-4.81782-5.610372-1.463627-1.036687-1.820166-1.965504-2.641115-2.716051zm-112.521157-297.2919247-.17827-.4644086c.286139-.6426784.572278-1.2853568 1.214956-.9992179l9.963783.9708218c.642679.2861388 1.285357.5722777.999218 1.2149561s-.572277 1.2853568-1.214956.9992179l-9.963783-.9708218s-.642678-.2861388-.820948-.7505475zm126.083268 311.8009967c-.178269-.464408.10787-1.107087.10787-1.107087.286138-.642678 1.393225-.534809 1.571495-.0704 2.462845 2.251642 4.925689 4.503285 7.674673 6.112249.642678.286138.534809 1.393226.0704 1.571495-.286139.642679-1.393226.53481-1.571495.070401-2.462845-2.251642-5.390098-4.325015-7.852943-6.576658zm15.813754 12.046229c-.17827-.464409-.35654-.928818.107869-1.107087.286139-.642679 1.214956-.999218 1.571496-.070401 2.748983 1.608964 5.676236 3.682337 8.24695 4.826892.642678.286139.999218 1.214956.713079 1.857635-.286139.642678-1.214956.999218-1.857635.713079-2.748983-1.608964-5.962375-3.039659-8.889628-5.113031.286139-.642679.107869-1.107087.107869-1.107087zm-121.861587-323.0126691c.10787-1.107087.394008-1.7497654 1.036687-1.4636266 3.6074-.3190711 6.750391-.4598725 9.893382-.6006738.464409-.1782698 1.285357.5722777 1.463627 1.0366863.17827.4644087-.572278 1.2853568-1.036686 1.4636266-3.142992.1408014-6.572122.9242811-9.893383.6006739-1.107087-.1078691-1.285357-.5722778-1.463627-1.0366864zm139.570443 331.6672351c-.17827-.464409-.17827-.464409.107869-1.107087s.750548-.820948 1.857635-.713079l9.105367 2.898857c.642678.286139.820948.750547.999218 1.214956-.286139.642678-.750548.820948-1.214957.999218-3.035122-.966286-6.534653-1.754302-9.569775-2.720587-.928817.356539-1.107087-.107869-1.285357-.572278zm-120.140217-333.7974001c-.356539-.9288172-.070401-1.5714956 1.036686-1.4636265l3.715269-1.4261582c1.857635-.7130791 3.250861-1.2478884 4.930226-2.4253761.464408-.1782698 1.571495-.0704007 1.749765.3940079.17827.4644087.070401 1.5714957-.394008 1.7497655-1.857634.713079-3.536999 1.8905668-4.930225 2.4253761l-4.179678 1.6044279c-1.107087-.1078691-1.749765-.3940079-1.928035-.8584166zm139.565907 338.5958961-.17827-.464409c.286139-.642678.572278-1.285356 1.214956-.999217 3.321261.323607 6.464253.182805 9.607244.042004.464409-.17827 1.285357.572278 1.463626 1.036686.17827.464409-.572277 1.285357-1.036686 1.463627-3.142991.140801-6.928661-.004536-10.249922-.328143-.642678-.286139-.820948-.750548-.820948-.750548zm-121.702641-347.5843214c-.17827-.4644087.107869-1.1070871.572278-1.2853568 2.608182-1.5340273 5.038094-3.5324632 7.932415-5.7091688.464409-.1782698 1.393226-.5348093 1.749766.3940079.178269.4644086.534809 1.3932259-.394008 1.7497655-2.894321 2.1767056-5.324234 4.1751415-7.754146 6.1735774-.642678-.2861389-1.749765-.394008-2.106305-1.3228252zm141.024997 346.5612434c-.356539-.928817.394008-1.749765 1.036687-1.463626.928817-.35654 1.393226-.53481 2.500313-.426941 2.500313-.42694 4.822356-1.318289 7.144399-2.209638.464408-.178269 1.107087.10787 1.285357.572278.178269.464409-.107869 1.107087-1.036687 1.463627-2.322043.891349-4.644086 1.782697-7.144399 2.209638-.928817.356539-1.393226.534809-2.500313.42694-.464408.17827-1.107087-.107869-1.285357-.572278zm-125.516706-358.9083983c-.17827-.4644086.107869-1.107087.572278-1.2853568 2.429912-1.9984359 4.681554-4.4612804 7.111467-6.4597163.286138-.6426784 1.393226-.5348093 1.571495-.0704007.642679.2861389.53481 1.3932259.070401 1.5714957-2.251643 2.4628445-4.681555 4.4612804-7.575876 6.6379861-.464408.1782697-.928817.3565395-1.749765-.394008zm144.093052 351.7776073c-.17827-.464408.107869-1.107087.572277-1.285356 2.608182-1.534028 5.680773-3.246325 8.110685-5.244761.464409-.178269 1.393226-.534809 1.749766.394008.178269.464409.534809 1.393226-.394008 1.749766-2.894321 2.176705-5.502503 3.710733-8.575094 5.42303 0 0-1.107087-.107869-1.463626-1.036687.178269.464409.178269.464409 0 0zm-129.583979-365.3397183c-.17827-.4644086.107869-1.107087.572277-1.2853568l1.214957-.9992179c1.965503-1.8201661 3.931007-3.6403322 6.360919-5.6387681.464409-.1782698 1.393226-.5348093 1.749765.3940079.35654.9288173.53481 1.3932259-.394007 1.7497655-1.965504 1.8201661-4.395416 3.818602-5.896511 5.4604983l-1.214956.9992179c-.928818.3565396-1.571496.0704007-2.392444-.6801468zm145.913217 353.7431113c-.178269-.464409.10787-1.107087.572278-1.285357 2.429912-1.998436 4.681555-4.46128 6.933197-6.924125.286139-.642678 1.393226-.534809 1.571496-.0704.642678.286138.534809 1.393225.070401 1.571495-2.251643 2.462845-4.503285 4.925689-7.397606 7.102395-.286139.642678-1.214956.999218-1.749766-.394008.17827.464409.17827.464409 0 0zm-130.583196-366.5546748c-.17827-.4644086.107869-1.107087.572277-1.2853568 2.894321-2.1767056 5.324233-4.1751415 8.396824-5.8874385.464409-.1782698 1.571496-.0704007 1.749766.3940079.178269.4644087.0704 1.5714957-.394008 1.7497655-2.608182 1.5340272-5.502503 3.7107329-7.932416 5.7091688-1.571495.0704006-2.035904.2486704-2.392443-.6801469zm144.271321 352.2420158c-.17827-.464408-.356539-.928817.107869-1.107087.750548-.820948 1.787234-2.284574 2.537781-3.105522 1.036687-1.463627 2.537782-3.105523 3.574468-4.56915.286139-.642678 1.393226-.534809 1.571496-.070401.642678.286139.534809 1.393226.0704 1.571496-1.036686 1.463627-2.537781 3.105523-3.396197 5.033558-.750548.820948-1.787234 2.284575-2.537782 3.105523-.286139.642678-1.393226.534809-1.571495.070401-.17827-.464409-.35654-.928818-.35654-.928818zm-127.585543-362.9098059c-.17827-.4644086.107869-1.107087.572278-1.2853568 3.07259-1.71229699 6.323451-2.96018538 9.109903-4.02980401.464408-.17826977 1.107087.10786909 1.749765.39400795.17827.46440863-.107869 1.10708703-.572278 1.2853568-2.786451 1.06961863-6.037312 2.31750702-9.109902 4.02980406-.928818.3565395-1.571496.0704007-1.749766-.394008zm138.989093 346.8099139c-.17827-.464408-.17827-.464408.107869-1.107087 1.608964-2.748983 3.217928-5.497967 4.648622-8.711359.286139-.642678 1.214957-.999218 1.857635-.713079s.999218 1.214956.713079 1.857635c-1.608964 2.748983-3.039658 5.962375-5.113031 8.889628-.286139.642679-1.214956.999218-1.857635.713079-.178269-.464408-.356539-.928817-.356539-.928817zm-121.055426-354.22684355c-.35654-.92881726-.070401-1.57149567 1.036686-1.46362658 3.42913-.78347976 6.858261-1.56695953 10.001252-1.70776089.464409-.17826977 1.285357.57227772 1.463627 1.03668635.178269.46440863-.572278 1.2853568-1.036687 1.46362657-3.142991.14080137-6.572121.92428113-9.536843 1.52949113-.928817.35653954-1.571496.07040068-1.928035-.85841658zm130.174401 336.33971755c-.17827-.464409-.17827-.464409.107869-1.107087l4.005944-8.997498c.286139-.642678 1.214956-.999218 1.857635-.713079.642678.286139.999218 1.214956.713079 1.857635-.966286 3.035122-2.39698 6.248514-4.005944 8.997497-.286139.642679-1.214956.999218-1.857635.71308-.464408.178269-.642678-.286139-.820948-.750548zm7.36921-18.281134c-.17827-.464409-.17827-.464409.107869-1.107087.966285-3.035122 1.932571-6.070245 2.720587-9.569775.286139-.642679.750547-.820949 1.214956-.999218.642679.286138.820948.750547.999218 1.214956-.966286 3.035122-1.754302 6.534653-2.720587 9.569775-.286139.642678-.750548.820948-1.857635.713079-.286139.642679-.286139.642679-.464408.17827zm-117.470707-319.90260968-.17827-.46440863c.286139-.6426784.572278-1.2853568 1.214956-.99921794 3.321261.32360726 6.642523.64721453 10.142053 1.43523043.642679.28613886.820949.75054749.999218 1.21495612-.286139.6426784-.750547.82094817-1.214956.99921794-3.035122-.96628567-6.356383-1.28989293-9.499374-1.14909157-1.107087-.10786909-1.285357-.57227772-1.463627-1.03668635zm122.447473 300.94132868-.17827-.464409c.788016-3.49953 1.289893-6.356383 1.6135-9.677644.286139-.642678.572278-1.285357 1.214956-.999218s1.285357.572278.999218 1.214956c-.323607 3.321261-1.111623 6.820792-1.6135 9.677645-.286139.642678-.572278 1.285356-1.214956.999218-.642679-.286139-.820948-.750548-.820948-.750548zm3.04873-19.819697-.17827-.464409c.323608-3.321261.647215-6.642522.506414-9.785514.286138-.642678.572277-1.285356 1.214956-.999218.642678.286139 1.285356.572278.999218 1.214957-.323608 3.321261-.182806 6.464252-.506414 9.785513-.286138.642678-.572277 1.285357-1.214956.999218-.464408.17827-.642678-.286139-.820948-.750547zm-106.248783-276.78754424c-.17827-.46440863-.17827-.46440863.107869-1.10708704.286139-.6426784.750547-.82094817 1.857634-.71307908 3.035123.96628567 6.248515 2.39697997 9.175768 4.47035267.642678.28613886.999218 1.21495609.713079 1.85763449s-1.214956.999218-1.857635.7130791c-2.748983-1.60896406-5.962375-3.03965836-8.997497-4.00594402-.820948-.75054749-.999218-1.21495612-.999218-1.21495612zm106.618931 256.93037824c-.319071-3.6074-.459872-6.750392-.778944-10.357792-.178269-.464408.572278-1.285356 1.036687-1.463626.464408-.17827 1.285357.572278 1.463626 1.036686.140802 3.142992.459873 6.750391.600674 9.893383.17827.464408-.572277 1.285357-1.036686 1.463626-.464409.17827-1.107087-.107869-1.285357-.572277zm-89.196214-247.6331334c-.17827-.4644086-.356539-.9288172.107869-1.107087.286139-.6426784 1.393226-.5348093 1.571496-.0704007 2.927253 2.0733727 5.211828 3.8606066 7.852942 6.5766577.642679.2861388.53481 1.3932258.070401 1.5714956-.286139.6426784-1.393226.5348093-1.571496.0704007-2.462844-2.2516425-4.925689-4.5032849-7.674672-6.112249-.17827-.4644086-.17827-.4644086-.35654-.9288173zm87.994866 227.8463674c-.319071-3.6074-1.102551-7.03653-1.707761-10.001251-.178269-.464409.572278-1.285357 1.036687-1.463627.464408-.17827 1.285357.572278 1.463626 1.036687.78348 3.42913.924282 6.572121 1.707761 10.001251.17827.464409-.572277 1.285357-1.036686 1.463627-.642678-.286139-1.285357-.572278-1.463627-1.036687zm-29.123837-84.198763c-.17827-.464409.107869-1.107087.572278-1.285357s1.571496-.070401 1.749765.394008l3.565396 9.288173c.17827.464408.0704 1.571495-.394008 1.749765-.464409.17827-1.571496.070401-1.749766-.394008-1.247888-3.25086-2.495776-6.501721-3.743665-9.752581zm-3.565395-9.288173-.891349-2.322043c-.891349-2.322043-1.318289-4.822356-2.209638-7.144399-.17827-.464409.107869-1.107087 1.036686-1.463627.464409-.178269 1.107087.107869 1.463627 1.036687.42694 2.500313 1.318289 4.822356 2.209638 7.144399l.891349 2.322043c.178269.464409-.107869 1.107087-1.036687 1.463627-.464408.178269-1.107087-.107869-1.463626-1.036687zm28.987572 74.127111c-.60521-2.964721-1.496559-5.286764-2.101769-8.251486l-.534809-1.393226c-.17827-.464408.107869-1.107087 1.036686-1.463626.464409-.17827 1.107087.107869 1.463626 1.036686l.53481 1.393226c1.069618 2.786452 1.496559 5.286765 2.101769 8.251486.178269.464409-.107869 1.107087-1.036687 1.463627-.642678-.286139-1.285357-.572278-1.463626-1.036687zm-17.826977-46.440863c-.17827-.464408.107869-1.107087.572277-1.285356.464409-.17827 1.571496-.070401 1.749766.394008l4.029804 9.109902c.17827.464409.070401 1.571496-.394008 1.749766s-1.571496.070401-1.749766-.394008zm8.059608 18.219806c-.17827-.464409.107869-1.107087.572277-1.285357.464409-.178269 1.571496-.0704 1.749766.394008l3.565395 9.288173c.17827.464408-.107869 1.107087-1.036686 1.463626-.464409.17827-1.107087-.107869-1.285357-.572277zm-24.31509-64.731069c-.78348-3.429131-1.38869-6.393852-2.172169-9.822982-.17827-.464409.572277-1.285357 1.036686-1.463627s1.285357.572278 1.463627 1.036687c.783479 3.42913 1.388689 6.393851 2.172169 9.822981.17827.464409-.107869 1.107087-1.036686 1.463627-.642679-.286139-1.285357-.572278-1.463627-1.036686zm-35.898088-101.8462918c-.17827-.4644086.107869-1.107087.572277-1.2853568.464409-.1782697 1.393226-.5348093 1.749766.394008 1.998436 2.4299122 4.175141 5.3242331 6.173577 7.7541453.17827.4644087.53481 1.3932259-.394008 1.7497655-.464408.1782697-1.393226.5348093-1.749765-.394008-2.176706-2.8943209-4.175142-5.3242331-6.351847-8.218554.178269.4644087 0 0 0 0zm32.018158 82.0220578c-.60521-2.964721-1.38869-6.393852-1.529491-9.536843-.17827-.464409.572277-1.285357 1.036686-1.463627.464409-.178269 1.285357.572278 1.463627 1.036687.783479 3.42913 1.388689 6.393852 1.529491 9.536843l-.928818.356539zm-3.701661-19.3598249c-.78348-3.4291302-1.38869-6.3938518-2.172169-9.822982-.17827-.4644086.107869-1.107087 1.036686-1.4636265.464409-.1782698 1.107087.1078691 1.463627 1.0366863.783479 3.4291302 1.388689 6.3938518 2.172169 9.8229819.17827.4644087-.107869 1.1070871-1.036686 1.4636266-.642679-.2861388-1.285357-.5722777-1.463627-1.0366863zm-16.71989-46.332994c-.17827-.4644086.107869-1.107087.572278-1.2853568.464408-.1782698 1.571495-.0704007 1.749765.394008 1.712297 3.0725906 3.246325 5.6807726 4.958622 8.7533633.178269.4644086.0704 1.5714956-.394008 1.7497654-.464409.1782698-1.571496.0704007-1.749766-.394008-1.890567-3.5369992-3.424594-6.1451812-5.136891-9.2177719zm11.446734 27.0435697c-1.069619-2.7864518-1.674829-5.7511734-2.744447-8.5376252l-.35654-.9288172c-.17827-.4644086.107869-1.107087 1.036686-1.4636266.464409-.1782698 1.107087.1078691 1.285357.5722777l.35654.9288173c1.069618 2.7864518 2.139237 5.5729036 2.744447 8.5376251.17827.4644086-.107869 1.107087-1.036686 1.4636266-.286139.6426784-.928818.3565395-1.285357-.5722777z" fill="#f9f9f9"/><path d="m278.246495 16.5949025c28.357323.3042834 50.447987 25.926231 60.144955 52.5757927s10.856311 56.0435708 19.624462 83.0496718c7.341993 23.290832 19.792481 44.620697 27.134474 67.911529 15.040525 47.510482 5.504862 101.790679-24.521574 141.557267-10.258995 13.529178-23.553111 26.092071-39.591675 30.117339-26.790363 6.553977-54.172328-10.64275-71.801711-31.583143-17.629384-20.940393-30.112804-46.520336-49.885961-66.104972-17.95299-17.619132-41.159813-29.491626-64.296236-39.792625-23.136422-10.300999-47.3095311-19.138371-68.086442-33.009302-21.2413195-13.692661-39.9073893-33.169427-47.6059217-57.389076-7.6985324-24.21965-1.4648059-53.787392 18.9737099-68.5599235 18.1164728-13.8811821 43.1525343-13.9005059 65.4725448-11.2787155 22.784419 2.4435206 46.103647 6.2802671 67.644714-1.4557337 20.147841-7.2011915 35.158791-23.620155 51.061089-37.7170752 15.54576-15.0257376 34.769319-28.7990506 55.733572-28.3210336z" fill="url(#c)"/><g fill="#7b79e8"><circle cx="421.842566" cy="160.842566" r="2.842566"/><circle cx="96.842566" cy="334.842566" r="2.842566"/><path d="m108.685131 2.8425656c0 1.51603498-1.32653 2.8425656-2.842565 2.8425656s-2.842566-1.32653062-2.842566-2.8425656c0-1.51603499 1.326531-2.8425656 2.842566-2.8425656s2.842565 1.32653061 2.842565 2.8425656z"/></g></g></svg>