<?xml version="1.0" encoding="UTF-8"?>
<svg width="151px" height="32px" viewBox="0 0 151 32" version="1.1" xmlns="http://www.w3.org/2000/svg" xmlns:xlink="http://www.w3.org/1999/xlink">
    <!-- Generator: Sketch 54.1 (76490) - https://sketchapp.com -->
    <title>Group 9</title>
    <desc>Created with Sketch.</desc>
    <g id="Main" stroke="none" stroke-width="1" fill="none" fill-rule="evenodd">
        <g id="WhiteCapital_LandinPage" transform="translate(-458.000000, -4834.000000)" fill="#000000" fill-rule="nonzero">
            <g id="06-Partners" transform="translate(405.000000, 4613.000000)">
                <g id="01" transform="translate(0.000000, 198.000000)">
                    <g id="jp-morgan" transform="translate(0.000000, -0.000000)">
                        <g id="Group-9">
                            <path d="M68.3943513,23.7957108 L65.4377614,23.7957108 L65.4377614,38.2976324 C65.4377614,43.7442418 63.5204069,45.3822958 58.6595392,45.3822958 C54.5847598,45.369219 53,43.7977827 53,41.7602696 C53,41.2939461 53.1729592,39.7893742 54.6644542,39.7893742 C56.1426258,39.7893742 56.2358905,40.7881454 56.2358905,42.4128758 C56.2358905,43.0918824 56.5156846,44.4234951 58.2600801,44.4234951 C61.0301405,44.4234951 62.2684886,43.1585 62.2684886,38.6840147 L62.2684886,23.7957108 L59.4187337,23.7957108 L59.4187337,23.0231928 L68.3943513,23.0231928 L68.3943513,23.7957108 Z M68.9936634,41.9199052 C68.5009395,41.9199052 68.0748333,42.0795408 67.7419918,42.4259526 C67.3958268,42.7721176 67.2226209,43.1849003 67.2226209,43.6776242 C67.2226209,44.170348 67.3958268,44.5831307 67.7419918,44.9028954 C68.0881569,45.2490605 68.5009395,45.4089428 68.9936634,45.4089428 C69.4863873,45.4089428 69.8991699,45.2493072 70.2589052,44.9028954 C70.6050703,44.5831307 70.7780294,44.170348 70.7780294,43.6776242 C70.7780294,43.1715768 70.6050703,42.7721176 70.2589052,42.4259526 C69.9127402,42.0797876 69.4994641,41.9199052 68.9936634,41.9199052 L68.9936634,41.9199052 Z M88.2365408,41.9199052 C87.743817,41.9199052 87.3310343,42.0795408 86.9848693,42.4259526 C86.6387042,42.7723644 86.4785752,43.1849003 86.4785752,43.6776242 C86.4785752,44.170348 86.6384575,44.5831307 86.9848693,44.9028954 C87.3443578,45.2490605 87.7571405,45.4089428 88.2365408,45.4089428 C88.7292647,45.4089428 89.1553709,45.2493072 89.5015359,44.9028954 C89.847701,44.5831307 90.0209069,44.170348 90.0209069,43.6776242 C90.0209069,43.1715768 89.847701,42.7721176 89.5015359,42.4259526 C89.1553709,42.0797876 88.7292647,41.9199052 88.2365408,41.9199052 L88.2365408,41.9199052 Z M82.6566961,23.0231928 C89.5415065,23.0231928 90.7134837,25.6198007 90.7134837,29.3220147 C90.7134837,32.9842582 88.8089592,35.6608072 82.0040899,35.6608072 L79.6603824,35.6741307 L79.6603824,41.2004346 C79.6603824,41.8796879 79.7403235,42.2127761 79.9002059,42.5853415 C80.073165,43.0247712 80.4462239,43.3578595 81.0053186,43.5841127 C81.4047778,43.7306716 82.0176601,43.8106127 82.8165784,43.8370131 L82.8165784,44.8227075 L73.3615605,44.8227075 L73.3615605,43.8370131 C74.1604788,43.8106127 74.7597908,43.7304248 75.15925,43.5574657 C75.6919444,43.3309657 76.051433,42.9981242 76.2115621,42.5586944 C76.3578742,42.1725588 76.4378154,42.1059412 76.4378154,40.7743284 L76.4378154,23.7954641 L73.8542843,23.7954641 L73.8542843,23.0362696 L82.6566961,23.0231928 L82.6566961,23.0231928 Z M81.4447484,34.822165 C85.5997157,34.822165 87.6636291,33.0244755 87.6636291,29.5087908 C87.6636291,26.0064297 86.518299,23.8623284 81.2715425,23.8623284 L79.6470588,23.8887288 L79.6470588,34.8352418 L81.4447484,34.8352418 L81.4447484,34.822165 Z M117.746678,42.5058938 C117.626766,42.1197582 117.560149,41.6401111 117.560149,41.0277222 L117.560149,23.7957108 L119.837239,23.7957108 L119.837239,23.0231928 L114.284041,23.0231928 C114.217176,23.2230458 107.598837,39.6827859 107.598837,39.6827859 C107.56909,39.7368375 107.513841,39.7719959 107.452278,39.7760507 C107.372337,39.7760507 107.319042,39.7360801 107.292642,39.6827859 C107.292642,39.6827859 100.261273,23.2230458 100.181578,23.0231928 L94.0157451,23.0231928 L94.0157451,23.7821405 L96.5728758,23.7821405 L96.5728758,40.348469 C96.5728758,40.348469 96.5195817,41.8799346 96.5195817,41.8932582 C96.4796111,42.2927173 96.3463758,42.6524526 96.1465229,42.9453235 C95.9335931,43.2517647 95.6005049,43.4913415 95.1610752,43.6512239 C94.8679575,43.7444886 94.4287745,43.8108595 93.8960801,43.824183 L93.8960801,44.8096307 L100.168255,44.8096307 L100.168255,43.824183 C99.6491307,43.7977827 99.4226307,43.7444886 99.1161895,43.6512239 C98.6634363,43.504665 98.330348,43.278165 98.1040948,42.9586471 C97.9042418,42.6655294 97.7710065,42.3060408 97.7310359,41.8799346 C97.7310359,41.8799346 97.6644183,40.348469 97.6644183,40.3351454 L97.6644183,26.0725539 L98.0239069,26.0725539 C98.0239069,26.0725539 105.960783,44.6097778 106.054047,44.8229542 L106.71973,44.8229542 L114.243824,26.2857304 L114.430353,26.2857304 L114.430353,41.0274755 C114.430353,41.6667582 114.363489,42.1728056 114.243824,42.5589412 C114.097265,43.0116944 113.777747,43.3447827 113.31167,43.5710359 C112.965505,43.7306716 112.446134,43.8108595 111.753804,43.8372598 L111.753804,44.8229542 L120.329962,44.8229542 L120.329962,43.8372598 C119.637386,43.7975359 119.104691,43.7175948 118.745203,43.5577124 C118.212755,43.3050588 117.89299,42.9586471 117.746678,42.5058938 L117.746678,42.5058938 Z M129.278933,28.8561846 C133.513595,28.8561846 136.656221,31.7459101 136.656221,37.0459608 C136.656221,43.8508301 131.755876,45.4619902 129.185668,45.4619902 C127.880703,45.4619902 121.848105,44.9559428 121.848105,37.1922729 C121.835028,31.892469 124.71143,28.8561846 129.278933,28.8561846 L129.278933,28.8561846 Z M129.225886,44.5034363 C132.302141,44.5034363 133.247618,42.585835 133.247618,37.0059902 C133.247618,33.130817 133.234047,29.8280621 129.225886,29.8280621 C125.523672,29.8280621 125.257448,33.0242288 125.257448,37.2855376 C125.257448,42.7854412 125.776572,44.5034363 129.225886,44.5034363 L129.225886,44.5034363 Z M148.628399,29.0957614 C145.898556,29.0957614 144.953078,30.7071683 144.193637,32.3585458 C144.193637,32.3585458 143.993784,32.3452222 143.980708,32.3452222 C143.967384,32.3585458 143.43469,29.2289967 143.43469,29.2289967 L138.24098,29.2289967 L138.24098,30.0548088 L141.090982,30.0548088 L141.090982,40.7881454 C141.090982,41.8532876 141.037688,42.6790997 140.757894,43.1318529 C140.438376,43.6512239 139.78577,43.8510768 138.693734,43.8510768 L138.227657,43.8510768 L138.227657,44.8365245 L147.11001,44.8365245 L147.11001,43.8510768 L146.630609,43.8510768 C145.472203,43.8510768 144.872891,43.5981765 144.566696,43.0918824 C144.286902,42.6526993 144.153913,41.8935049 144.153913,40.7881454 L144.153913,35.2216242 C144.153913,33.3439935 145.658732,31.1865686 147.363157,31.1865686 C149.147523,31.1865686 149.200817,33.7434526 151.118665,32.8248693 C152.476925,32.1853399 152.17073,29.0957614 148.628399,29.0957614 L148.628399,29.0957614 Z M183.984605,43.2248709 C184.543946,43.2248709 185.223199,42.6388824 185.369511,41.5337696 L185.902206,41.5337696 C185.755647,44.0640065 184.517299,45.0761013 182.453139,45.0761013 C180.615479,45.0761013 179.603384,43.7708889 179.430178,42.6921765 C178.351712,43.8375065 176.753382,45.2759542 174.223145,45.2759542 C171.946056,45.2759542 170.175013,43.5179886 170.068425,41.5204461 C169.76223,36.4066781 176.487158,35.8609069 179.32359,35.6077598 L179.32359,32.9975817 C179.32359,32.0521046 179.11066,31.2931569 178.697877,30.7204918 C178.258448,30.1211797 177.472606,29.8283088 176.353923,29.8283088 C175.395123,29.8283088 174.689469,30.0681324 174.236716,30.5339624 C173.810363,30.9867157 173.62408,31.4794395 173.491092,32.3318987 C173.304562,33.4903056 172.811838,33.9430588 171.932979,33.9430588 C171.546843,33.9430588 171.240402,33.8364706 170.961101,33.5968938 C170.694631,33.3706405 170.561642,33.0375523 170.561642,32.558152 C170.561642,31.5327337 170.961101,30.8268333 171.973196,30.0548088 C173.011938,29.2558905 174.636668,28.8564314 176.833817,28.8564314 C179.12423,28.8564314 180.70899,29.2825376 181.521232,30.1081029 C182.347044,30.9336683 182.573544,31.892469 182.573544,33.2906993 L182.573544,39.8157745 L182.626838,41.8135637 C182.732933,42.7057467 183.025804,43.2248709 183.984605,43.2248709 L183.984605,43.2248709 Z M179.336913,36.5665605 C177.152842,36.5665605 173.184404,38.018085 173.184404,40.921134 C173.184404,41.8266405 173.504168,43.6376536 175.687993,43.6376536 C176.540206,43.6376536 177.698613,43.1449297 179.217002,41.7602696 L179.283619,41.6934052 C179.336913,41.6534346 179.336913,41.6267876 179.336913,41.5737402 L179.336913,36.5665605 Z M202.122369,43.1318529 C201.736234,42.6526993 201.656046,41.6003873 201.656046,40.801469 L201.656046,33.7436993 C201.656046,32.718281 201.523057,31.8527451 201.136922,31.1335212 C200.750786,30.4409444 200.204768,29.9084967 199.525515,29.5623317 C198.832938,29.2161667 198.04759,29.0429608 197.181807,29.0429608 C194.065582,29.0429608 192.707322,30.8408971 192.094933,32.052598 L191.855109,32.052598 L191.309092,29.2294902 L186.474871,29.2294902 L186.474871,30.041732 L188.89852,30.041732 L188.89852,40.7886389 C188.89852,41.614451 188.831902,42.2135163 188.71199,42.6132222 C188.579002,43.0923758 188.272807,43.4121405 187.819807,43.6119935 C187.526936,43.7316585 187.074183,43.8118464 186.488441,43.8382467 L186.488441,44.8239412 L194.158846,44.8239412 L194.158846,43.8382467 C193.386575,43.7716291 192.867204,43.5720229 192.587657,43.1725637 C192.281216,42.7462108 192.148227,42.0272337 192.148227,40.9618448 L192.148227,36.8470948 C192.148227,35.1290997 192.134657,33.4643987 192.720645,32.4256569 C193.359928,31.3072206 194.518335,30.6812614 195.809977,30.6812614 C196.981954,30.6812614 197.607913,31.0543203 197.980725,31.7999444 C198.393755,32.6388333 198.486773,34.1969461 198.486773,35.4352941 L198.486773,40.5357386 C198.486773,41.387951 198.460373,42.0005866 198.407078,42.4000458 C198.313814,42.8663693 198.207225,43.2525049 197.834413,43.4920817 C197.56819,43.6786111 197.155407,43.7985229 196.609389,43.8382467 L196.609389,44.8103709 L204,44.8103709 L204,43.824183 C203.054523,43.7842124 202.495181,43.6245768 202.122369,43.1318529 L202.122369,43.1318529 Z M167.44517,28.2302255 C168.284059,27.9640016 168.976636,28.1636078 169.202889,29.1093317 C169.309477,29.562085 169.216459,30.1081029 168.949989,30.5872565 C168.697088,31.0666569 168.257412,31.4130686 167.565082,31.6259984 C166.96577,31.8258513 166.326487,31.8258513 165.620833,31.665969 C165.953922,32.3851928 166.233222,33.3972876 166.233222,34.5823415 C166.233222,38.710415 163.077273,39.9490098 159.708147,40.4683807 C156.272404,41.0008284 155.393544,41.4138578 155.393544,42.4923235 C155.393544,43.2248709 155.846297,43.6509771 158.229975,43.6509771 C163.157214,43.8908007 165.354609,43.6110065 166.899399,45.7284608 C167.378552,46.4074673 167.618376,47.3132206 167.618376,48.4452271 C167.618376,49.2707925 167.405446,50.1363284 166.939369,50.9754641 C166.49994,51.8141062 165.674127,52.5466536 164.488827,53.1459657 C163.303526,53.7452778 161.652395,54.0650425 159.628206,54.0650425 C158.09674,54.0650425 156.991381,53.9451307 155.313603,53.4390833 C154.221567,53.1195654 152.783366,52.2407059 152.783366,50.3897222 C152.783366,49.830134 152.876631,49.3643039 153.129531,48.9648448 C153.409325,48.5384918 153.981743,48.2855915 154.461144,48.3655327 C155.313356,48.5120915 155.566257,49.2843627 155.419944,50.0166634 C155.246985,50.7358873 155.406621,51.747982 156.232433,52.2537827 C157.350869,52.9463595 158.576141,53.1059951 160.080959,53.1059951 C161.838925,53.1059951 163.250479,52.7998007 164.289221,52.2271356 C165.407904,51.6011765 165.953922,50.7620408 165.953922,49.7235458 C165.953922,48.964598 165.687451,48.3786095 165.16808,47.9791503 C164.675356,47.6196618 163.996103,47.3798382 163.157214,47.2734967 C162.371373,47.180232 161.159672,47.1138611 159.46857,47.1002908 C157.524322,47.060567 155.979533,46.834067 154.874173,46.3813137 C153.875402,45.968531 153.103131,45.2359837 153.103131,43.8777239 C153.103131,41.627281 155.207015,40.9347042 157.577616,40.4553039 C157.724175,40.4289036 157.724175,40.2290507 157.550969,40.2024036 C154.767832,39.616415 153.502837,38.0183317 153.502837,34.7424706 C153.502837,31.9326863 155.407114,28.8566781 159.735041,28.8566781 C162.411837,28.8566781 163.943302,29.7621846 164.742221,30.494732 C164.982044,30.6810147 165.528062,30.6676912 165.84758,30.5744265 C166.167098,30.4678382 166.406922,30.1083497 166.526587,29.4693137 C166.686222,28.7762435 166.978846,28.3767843 167.44517,28.2302255 L167.44517,28.2302255 Z M159.814489,39.5895212 C161.705443,39.5895212 163.063949,39.0168562 163.063949,34.6889297 C163.063949,31.665969 162.331402,29.6950735 159.814489,29.6950735 C157.65731,29.6950735 156.644969,31.8524984 156.644969,34.7422239 C156.631892,38.8569739 157.790299,39.5895212 159.814489,39.5895212 L159.814489,39.5895212 Z" id="Shape"></path>
                        </g>
                    </g>
                </g>
            </g>
        </g>
    </g>
</svg>