<?xml version="1.0" encoding="UTF-8"?>
<svg width="35px" height="35px" viewBox="0 0 35 35" version="1.1" xmlns="http://www.w3.org/2000/svg" xmlns:xlink="http://www.w3.org/1999/xlink">
    <!-- Generator: Sketch 54.1 (76490) - https://sketchapp.com -->
    <title>logo</title>
    <desc>Created with Sketch.</desc>
    <g id="Main" stroke="none" stroke-width="1" fill="none" fill-rule="evenodd">
        <g id="WhiteCapital_LandinPage" transform="translate(-342.000000, -5280.000000)" fill="#D65151">
            <g id="08-Footer" transform="translate(121.000000, 5180.000000)">
                <g id="logo" transform="translate(221.000000, 99.000000)">
                    <path d="M12.05544,4.74552 C12.07624,5.01752 12.10744,5.27032 12.14904,5.50552 C12.19144,5.74072 12.25384,5.95832 12.33864,6.15672 L14.65544,11.46792 L16.35624,7.62232 L13.56104,1.20072 L10.53464,1.20072 L0.73224,23.67512 L2.51944,23.67512 C3.00104,23.67512 3.44504,23.54392 3.85304,23.28312 C4.26104,23.02152 4.55864,22.67112 4.74664,22.23192 L11.75704,6.15672 C11.92504,5.78072 12.02424,5.30952 12.05544,4.74552" id="Fill-23"></path>
                    <path d="M23.99064,1.20104 L20.96344,1.20104 C18.19304,7.57864 16.79784,10.77864 16.77544,10.79944 C16.79944,10.74104 16.80904,10.67864 16.82744,10.61784 L15.55544,13.52824 L15.56904,13.55944 L11.16184,23.67544 L12.94904,23.67544 C13.43064,23.67544 13.87384,23.54424 14.28184,23.28264 C14.68984,23.02104 14.98824,22.67144 15.17624,22.23224 L22.18664,6.15624 C22.35384,5.75944 22.45384,5.29944 22.48504,4.77704 C22.49624,5.28824 22.58984,5.74824 22.76744,6.15624 L29.77704,22.23224 C29.94504,22.67144 30.23864,23.02104 30.65624,23.28264 C31.07384,23.54424 31.52424,23.67544 32.00504,23.67544 L33.79304,23.67544 L23.99064,1.20104 Z" id="Fill-24"></path>
                    <path d="M2.37112,27.52376 C2.61032,27.52376 2.76072,27.53896 2.85752,27.56456 L31.59592,27.56456 C31.69352,27.53896 31.84392,27.52376 32.08312,27.52376 C34.24232,27.52376 34.27832,26.04136 34.27832,26.04136 L0.17592,26.04136 C0.17592,26.04136 0.21192,27.52376 2.37112,27.52376" id="Fill-25"></path>
                    <path d="M23.5828,35.84864 C25.666,35.84864 25.7724,34.47264 25.7772,34.37584 L14.8644,34.37584 C14.8684,34.47264 14.9748,35.84864 17.0588,35.84864 C17.3316,35.84864 17.5012,35.86624 17.5924,35.89824 L23.0492,35.89824 C23.1396,35.86624 23.31,35.84864 23.5828,35.84864" id="Fill-26"></path>
                    <path d="M5.63512,30.19 C5.63512,30.19 5.67112,31.6724 7.83032,31.6724 C8.00872,31.6724 8.12952,31.682 8.22632,31.6964 L19.24552,31.6964 C19.34232,31.682 19.46312,31.6724 19.64152,31.6724 C21.80072,31.6724 21.83672,30.19 21.83672,30.19 L21.84152,30.1892 L21.84152,30.174 L5.60792,30.174 L5.60792,30.1852 L5.63512,30.19 Z" id="Fill-27"></path>
                </g>
            </g>
        </g>
    </g>
</svg>