<?xml version="1.0" encoding="UTF-8"?>
<svg width="179px" height="18px" viewBox="0 0 179 18" version="1.1" xmlns="http://www.w3.org/2000/svg" xmlns:xlink="http://www.w3.org/1999/xlink">
    <!-- Generator: Sketch 54.1 (76490) - https://sketchapp.com -->
    <title>logo</title>
    <desc>Created with Sketch.</desc>
    <g id="Main" stroke="none" stroke-width="1" fill="none" fill-rule="evenodd">
        <g id="WhiteCapital_Team" transform="translate(-70.000000, -56.000000)">
            <g id="01-Header" transform="translate(70.000000, 40.000000)">
                <g id="logo" transform="translate(0.000000, 16.000000)">
                    <path d="M117.6168,6.31496 C117.6168,6.77296 117.6768,7.21336 117.7968,7.63616 C117.9168,8.05856 118.0848,8.45536 118.2996,8.82576 C118.5152,9.19696 118.774,9.53216 119.0768,9.83176 C119.3792,10.13176 119.7148,10.39096 120.0832,10.60896 C120.4512,10.82696 120.846,10.99496 121.2688,11.11216 C121.6916,11.22936 122.1316,11.28816 122.5904,11.28816 C123.1184,11.28816 123.622,11.20936 124.0988,11.05296 C124.5756,10.89576 125.0164,10.68176 125.42,10.41136 C125.4964,10.36296 125.5792,10.32496 125.6696,10.29816 C125.7588,10.27096 125.8504,10.25736 125.9432,10.25736 C126.1016,10.25736 126.2392,10.28456 126.3568,10.33896 C126.474,10.39336 126.5784,10.46656 126.6716,10.55896 L126.7532,10.64056 C126.208,11.16136 125.5808,11.57056 124.872,11.86616 C124.1628,12.16216 123.4024,12.31016 122.5904,12.31016 C121.7608,12.31016 120.984,12.15376 120.2584,11.84056 C119.5336,11.52616 118.8996,11.09856 118.3572,10.55616 C117.8144,10.01336 117.3864,9.37816 117.0732,8.65016 C116.7596,7.92216 116.6024,7.14376 116.6024,6.31496 C116.6024,5.48616 116.7596,4.70736 117.0732,3.97976 C117.3864,3.25176 117.8144,2.61656 118.3572,2.07376 C118.8996,1.53136 119.5336,1.10336 120.2584,0.78976 C120.984,0.47616 121.7608,0.31976 122.5904,0.31976 C123.4132,0.31976 124.1764,0.46816 124.88,0.76536 C125.5836,1.06256 126.208,1.47576 126.7532,2.00456 L126.6716,2.07816 C126.5732,2.17616 126.464,2.25256 126.344,2.30736 C126.2244,2.36176 126.0908,2.38936 125.9432,2.38936 C125.7528,2.38936 125.5776,2.33456 125.42,2.22496 C125.0164,1.94696 124.5776,1.73056 124.1028,1.57496 C123.6284,1.41976 123.1244,1.34216 122.5904,1.34216 C122.1316,1.34216 121.6916,1.40096 121.2688,1.51776 C120.846,1.63536 120.4512,1.80296 120.0832,2.02096 C119.7148,2.23936 119.3792,2.49816 119.0768,2.79776 C118.774,3.09776 118.5152,3.43296 118.2996,3.80416 C118.0848,4.17456 117.9168,4.57176 117.7968,4.99376 C117.6768,5.41656 117.6168,5.85656 117.6168,6.31496" id="Fill-2" fill="#000000"></path>
                    <path d="M143.7004,6.54384 C144.0496,6.54384 144.378,6.47864 144.686,6.34784 C144.994,6.21664 145.2628,6.03704 145.492,5.80784 C145.7208,5.57904 145.9008,5.31024 146.0316,5.00224 C146.1624,4.69424 146.2276,4.36304 146.2276,4.00864 C146.2276,3.65944 146.1624,3.33104 146.0316,3.02264 C145.9008,2.71504 145.7208,2.44624 145.492,2.21744 C145.2628,1.98824 144.994,1.80784 144.686,1.67744 C144.378,1.54624 144.0496,1.48104 143.7004,1.48104 L140.6332,1.48104 L140.6332,6.54384 L143.7004,6.54384 Z M140.6332,12.17944 L139.6108,12.17944 L139.6108,0.45864 L143.7004,0.45864 C144.1916,0.45864 144.6524,0.55144 145.0828,0.73704 C145.5132,0.92184 145.89,1.17584 146.2112,1.49744 C146.5332,1.81864 146.7868,2.19544 146.9724,2.62584 C147.1576,3.05704 147.2504,3.51784 147.2504,4.00864 C147.2504,4.49904 147.1576,4.96104 146.9724,5.39464 C146.7868,5.82824 146.5332,6.20464 146.2112,6.52344 C145.89,6.84224 145.5132,7.09464 145.0828,7.27984 C144.6524,7.46584 144.1916,7.55784 143.7004,7.55784 L140.6332,7.55784 L140.6332,12.17944 Z" id="Fill-4" fill="#000000"></path>
                    <polygon id="Fill-6" fill="#000000" points="149.5488 12.1792 150.5712 12.1792 150.5712 0.4584 149.5488 0.4584"></polygon>
                    <polygon id="Fill-8" fill="#000000" points="152.50936 1.48096 152.50936 0.45016 161.25256 0.45016 161.25256 1.48096 157.39256 1.48096 157.39256 12.17936 156.36936 12.17936 156.36936 1.48096"></polygon>
                    <polygon id="Fill-9" fill="#000000" points="172.0496 12.1794 172.0496 0.4586 173.072 0.4586 173.072 11.1566 178.4376 11.1566 178.4376 12.1794"></polygon>
                    <path d="M136.98092,9.23916 C136.55812,8.26556 136.13492,7.29516 135.70932,6.32756 C135.28412,5.35956 134.85692,4.38756 134.42892,3.41156 C134.00092,2.43516 133.57132,1.45076 133.14052,0.45876 L132.27372,0.45876 L127.15372,12.17956 L127.61172,12.17956 C127.81332,12.17956 127.99732,12.12636 128.16412,12.01996 C128.33012,11.91396 128.45132,11.77076 128.52772,11.59036 L129.46852,9.40636 L129.47732,9.40636 L130.95852,6.00276 L130.96452,6.00436 L132.55212,2.36436 C132.57932,2.30436 132.60212,2.23476 132.62092,2.15556 C132.64012,2.07676 132.65532,2.00156 132.66652,1.93076 C132.68292,1.84876 132.69612,1.76716 132.70732,1.68516 C132.71252,1.76716 132.72332,1.84876 132.73972,1.93076 C132.75092,2.00156 132.76732,2.07676 132.78892,2.15556 C132.81052,2.23476 132.83532,2.30436 132.86292,2.36436 L135.48812,8.38436 L135.48292,8.38436 L136.26092,10.11916 L136.25052,10.11916 L136.89492,11.59036 C136.97692,11.77076 137.09812,11.91396 137.25892,12.01996 C137.41972,12.12636 137.60172,12.17956 137.80332,12.17956 L138.26092,12.17956 C137.83052,11.19276 137.40372,10.21236 136.98092,9.23916" id="Fill-10" fill="#000000"></path>
                    <path d="M169.5418,9.23916 C169.1194,8.26556 168.6958,7.29516 168.2702,6.32756 C167.845,5.35956 167.4178,4.38756 166.9902,3.41156 C166.5618,2.43516 166.1326,1.45076 165.7014,0.45876 L164.8346,0.45876 L159.7146,12.17956 L160.1726,12.17956 C160.3746,12.17956 160.5582,12.12636 160.725,12.01996 C160.891,11.91396 161.0122,11.77076 161.0886,11.59036 L162.0298,9.40636 L162.0382,9.40636 L163.5194,6.00276 L163.5258,6.00436 L165.113,2.36436 C165.1402,2.30436 165.1634,2.23476 165.1826,2.15556 C165.2014,2.07676 165.2166,2.00156 165.2274,1.93076 C165.2438,1.84876 165.257,1.76716 165.2682,1.68516 C165.2734,1.76716 165.2842,1.84876 165.3006,1.93076 C165.3118,2.00156 165.3282,2.07676 165.3502,2.15556 C165.3718,2.23476 165.3962,2.30436 165.4238,2.36436 L168.0494,8.38436 L168.0438,8.38436 L168.8218,10.11916 L168.8114,10.11916 L169.4558,11.59036 C169.5378,11.77076 169.6594,11.91396 169.8202,12.01996 C169.981,12.12636 170.1626,12.17956 170.3642,12.17956 L170.8218,12.17956 C170.3914,11.19276 169.9646,10.21236 169.5418,9.23916" id="Fill-11" fill="#000000"></path>
                    <path d="M29.816,7.1712 C29.806,7.1816 29.1076,8.7816 27.7224,11.9704 L26.2088,11.9704 L21.3076,0.7332 L22.202,0.7332 C22.442,0.7332 22.6672,0.7988 22.876,0.9296 C23.0856,1.0604 23.2316,1.2352 23.3152,1.4548 L26.8208,9.4928 C26.9092,9.6964 26.9568,9.9268 26.9616,10.1824 C26.9776,9.9212 27.0268,9.6912 27.1104,9.4928 L30.616,1.4548 C30.71,1.2352 30.8588,1.0604 31.0628,0.9296 C31.2668,0.7988 31.4892,0.7332 31.7292,0.7332 L32.6236,0.7332 L30.42,5.7912 L32.0356,9.4928 C32.0768,9.592 32.1084,9.7004 32.1292,9.818 C32.1504,9.9356 32.166,10.0624 32.1764,10.198 C32.192,9.916 32.2416,9.6804 32.3252,9.4928 L35.8308,1.4548 C35.9244,1.2352 36.074,1.0604 36.2776,0.9296 C36.4816,0.7988 36.7036,0.7332 36.944,0.7332 L37.8384,0.7332 L32.9372,11.9704 L31.424,11.9704 L29.9732,8.6376 C29.8108,8.2664 29.73,7.9348 29.73,7.642 C29.73,7.4748 29.7584,7.3176 29.816,7.1712" id="Fill-12" fill="#000000"></path>
                    <polygon id="Fill-13" fill="#000000" points="48.30664 11.97044 46.75424 11.97044 46.75424 7.09324 40.70024 7.09324 40.70024 11.97044 39.14784 11.97044 39.14784 0.73324 40.70024 0.73324 40.70024 5.54044 46.75424 5.54044 46.75424 0.73324 48.30664 0.73324"></polygon>
                    <polygon id="Fill-14" fill="#000000" points="51.3336 11.9704 52.8864 11.9704 52.8864 0.7332 51.3336 0.7332"></polygon>
                    <polygon id="Fill-15" fill="#000000" points="54.74452 2.27824 54.74452 0.72544 63.28412 0.72544 63.28412 2.27824 59.79492 2.27824 59.79492 11.97064 58.24172 11.97064 58.24172 2.27824"></polygon>
                    <path d="M78.78436,6.08172 C79.06796,6.08172 79.33516,6.02852 79.58596,5.92252 C79.83676,5.81612 80.05636,5.66892 80.24436,5.48052 C80.43276,5.29212 80.57996,5.07412 80.68636,4.82612 C80.79276,4.57812 80.84556,4.30932 80.84556,4.02052 C80.84556,3.73692 80.79276,3.46972 80.68636,3.21892 C80.57996,2.96812 80.43276,2.74812 80.24436,2.56012 C80.05636,2.37212 79.83676,2.22452 79.58596,2.11852 C79.33516,2.01212 79.06796,1.95892 78.78436,1.95892 L76.21556,1.95892 L76.21556,6.08172 L78.78436,6.08172 Z M76.21556,12.06172 L74.59596,12.06172 L74.59596,0.33932 L78.78436,0.33932 C79.29156,0.33932 79.76876,0.43612 80.21596,0.62972 C80.66276,0.82332 81.05316,1.08652 81.38556,1.41892 C81.71836,1.75172 81.98156,2.14132 82.17516,2.58892 C82.36876,3.03612 82.46556,3.51332 82.46556,4.02052 C82.46556,4.52732 82.36876,5.00492 82.17516,5.45212 C81.98156,5.89932 81.71836,6.28932 81.38556,6.62172 C81.05316,6.95452 80.66276,7.21772 80.21596,7.41092 C79.76876,7.60492 79.29156,7.70172 78.78436,7.70172 L76.21556,7.70172 L76.21556,12.06172 Z" id="Fill-16" fill="#000000"></path>
                    <path d="M96.33944,1.95908 L96.33944,5.56668 L98.92424,5.56668 C99.17504,5.56668 99.40984,5.51988 99.62784,5.42748 C99.84584,5.33468 100.03664,5.20628 100.20024,5.04308 C100.36424,4.87948 100.49344,4.68828 100.58904,4.47028 C100.68424,4.25228 100.73184,4.01748 100.73184,3.76708 C100.73184,3.51628 100.68424,3.28148 100.58904,3.06348 C100.49344,2.84508 100.36424,2.65428 100.20024,2.49068 C100.03664,2.32708 99.84584,2.19748 99.62784,2.10228 C99.40984,2.00668 99.17504,1.95908 98.92424,1.95908 L96.33944,1.95908 Z M96.33944,12.06188 L94.71944,12.06188 L94.71944,0.33908 L98.92424,0.33908 C99.39864,0.33908 99.84464,0.42908 100.26184,0.60908 C100.67904,0.78908 101.04144,1.03348 101.34944,1.34108 C101.65784,1.64948 101.90184,2.01228 102.08184,2.42948 C102.26184,2.84668 102.35184,3.29228 102.35184,3.76708 C102.35184,4.14868 102.29344,4.51268 102.17624,4.85868 C102.05864,5.20508 101.89384,5.51988 101.68104,5.80348 C101.46824,6.08708 101.21584,6.33428 100.92424,6.54388 C100.63224,6.75388 100.31464,6.91348 99.97144,7.02268 L103.70144,12.06188 L102.58904,12.06188 C102.27264,12.06188 101.99344,12.00068 101.75064,11.87788 C101.50784,11.75468 101.30744,11.57068 101.14944,11.32548 L98.08144,7.18588 L96.33944,7.18588 L96.33944,12.06188 Z" id="Fill-17" fill="#000000"></path>
                    <path d="M108.2582,5.52552 L111.5386,1.07552 C111.6966,0.83032 111.897,0.64592 112.1398,0.52312 C112.3826,0.40032 112.6622,0.33912 112.9782,0.33912 L114.0906,0.33912 L110.0662,5.80352 C110.0058,5.88032 109.9514,5.93592 109.9022,5.97152 C109.8534,6.00712 109.8234,6.02752 109.8126,6.03272 C109.8234,6.04392 109.8534,6.06552 109.9022,6.09832 C109.9514,6.13112 110.0058,6.18552 110.0662,6.26192 L114.361,12.06192 L113.2482,12.06192 C112.9322,12.06192 112.6522,12.00032 112.4098,11.87792 C112.167,11.75472 111.9666,11.57072 111.8086,11.32552 L108.2582,6.53992 C108.187,6.44752 108.1174,6.36952 108.0498,6.30672 C107.9814,6.24432 107.9186,6.19392 107.8614,6.15552 C107.8042,6.11712 107.7562,6.08872 107.7182,6.06952 C107.6802,6.05032 107.6582,6.03832 107.6526,6.03272 C107.6582,6.03272 107.6802,6.02472 107.7182,6.00832 C107.7562,5.99192 107.8042,5.96472 107.8614,5.92632 C107.9186,5.88832 107.9814,5.83632 108.0498,5.77072 C108.1174,5.70552 108.187,5.62392 108.2582,5.52552 L108.2582,5.52552 Z M105.2802,12.06192 L106.9002,12.06192 L106.9002,0.33912 L105.2802,0.33912 L105.2802,12.06192 Z" id="Fill-18" fill="#000000"></path>
                    <path d="M88.28984,0.33916 L86.71104,0.33916 L81.59824,12.06196 L82.53104,12.06196 C82.78704,12.06196 83.02024,11.99356 83.23024,11.85716 C83.44024,11.72076 83.59424,11.53796 83.69264,11.30916 L84.31944,9.86436 L84.31624,9.86436 L86.37944,5.09396 L86.39944,5.10356 L87.34944,2.92436 C87.38704,2.82596 87.41864,2.71956 87.44304,2.60516 C87.46744,2.49076 87.48504,2.36556 87.49664,2.22916 C87.51264,2.50156 87.56464,2.73316 87.65144,2.92436 L89.78664,7.82436 L89.77784,7.82436 L90.47504,9.44396 L90.49024,9.44396 L91.30824,11.30916 C91.41184,11.54396 91.56704,11.72796 91.77464,11.86156 C91.98184,11.99516 92.21384,12.06196 92.46984,12.06196 L93.40264,12.06196 L88.28984,0.33916 Z" id="Fill-19" fill="#000000"></path>
                    <polygon id="Fill-20" fill="#000000" points="64.8684 11.9704 71.816 11.9704 71.816 10.438 64.8684 10.438"></polygon>
                    <polygon id="Fill-21" fill="#000000" points="64.8684 2.238 71.816 2.238 71.816 0.7332 64.8684 0.7332"></polygon>
                    <polygon id="Fill-22" fill="#000000" points="64.86836 5.538 64.86836 7.0756 66.68596 7.0756 66.68596 7.0776 71.79916 7.0776 71.79916 5.538"></polygon>
                    <path d="M6.02772,2.37276 C6.03812,2.50876 6.05372,2.63516 6.07452,2.75276 C6.09572,2.87036 6.12692,2.97916 6.16932,3.07836 L7.32772,5.73396 L8.17812,3.81116 L6.78052,0.60036 L5.26732,0.60036 L0.36612,11.83756 L1.25972,11.83756 C1.50052,11.83756 1.72252,11.77196 1.92652,11.64156 C2.13052,11.51076 2.27932,11.33556 2.37332,11.11596 L5.87852,3.07836 C5.96252,2.89036 6.01212,2.65476 6.02772,2.37276" id="Fill-23" fill="#D65151"></path>
                    <path d="M11.99532,0.60052 L10.48172,0.60052 C9.09652,3.78932 8.39892,5.38932 8.38772,5.39972 C8.39972,5.37052 8.40452,5.33932 8.41372,5.30892 L7.77772,6.76412 L7.78452,6.77972 L5.58092,11.83772 L6.47452,11.83772 C6.71532,11.83772 6.93692,11.77212 7.14092,11.64132 C7.34492,11.51052 7.49412,11.33572 7.58812,11.11612 L11.09332,3.07812 C11.17692,2.87972 11.22692,2.64972 11.24252,2.38852 C11.24812,2.64412 11.29492,2.87412 11.38372,3.07812 L14.88852,11.11612 C14.97252,11.33572 15.11932,11.51052 15.32812,11.64132 C15.53692,11.77212 15.76212,11.83772 16.00252,11.83772 L16.89652,11.83772 L11.99532,0.60052 Z" id="Fill-24" fill="#D65151"></path>
                    <path d="M1.18556,13.76188 C1.30516,13.76188 1.38036,13.76948 1.42876,13.78228 L15.79796,13.78228 C15.84676,13.76948 15.92196,13.76188 16.04156,13.76188 C17.12116,13.76188 17.13916,13.02068 17.13916,13.02068 L0.08796,13.02068 C0.08796,13.02068 0.10596,13.76188 1.18556,13.76188" id="Fill-25" fill="#D65151"></path>
                    <path d="M11.7914,17.92432 C12.833,17.92432 12.8862,17.23632 12.8886,17.18792 L7.4322,17.18792 C7.4342,17.23632 7.4874,17.92432 8.5294,17.92432 C8.6658,17.92432 8.7506,17.93312 8.7962,17.94912 L11.5246,17.94912 C11.5698,17.93312 11.655,17.92432 11.7914,17.92432" id="Fill-26" fill="#D65151"></path>
                    <path d="M2.81756,15.095 C2.81756,15.095 2.83556,15.8362 3.91516,15.8362 C4.00436,15.8362 4.06476,15.841 4.11316,15.8482 L9.62276,15.8482 C9.67116,15.841 9.73156,15.8362 9.82076,15.8362 C10.90036,15.8362 10.91836,15.095 10.91836,15.095 L10.92076,15.0946 L10.92076,15.087 L2.80396,15.087 L2.80396,15.0926 L2.81756,15.095 Z" id="Fill-27" fill="#D65151"></path>
                </g>
            </g>
        </g>
    </g>
</svg>