<?xml version="1.0" encoding="UTF-8"?>
<svg width="170px" height="33px" viewBox="0 0 170 33" version="1.1" xmlns="http://www.w3.org/2000/svg" xmlns:xlink="http://www.w3.org/1999/xlink">
    <!-- Generator: Sketch 54.1 (76490) - https://sketchapp.com -->
    <title>morgan-stanley</title>
    <desc>Created with Sketch.</desc>
    <g id="Main" stroke="none" stroke-width="1" fill="none" fill-rule="evenodd">
        <g id="WhiteCapital_LandinPage" transform="translate(-875.000000, -4829.000000)" fill="#000000" fill-rule="nonzero">
            <g id="06-Partners" transform="translate(405.000000, 4613.000000)">
                <g id="01" transform="translate(426.000000, 198.000000)">
                    <g id="morgan-stanley">
                        <path d="M115.31906,18 L126.168104,28.8472687 L126.168104,18 L115.31906,18 Z M124.54803,24.691403 L119.472134,19.615 L124.547776,19.615 L124.547776,24.691403 L124.54803,24.691403 Z" id="Shape"></path>
                        <g id="Group" transform="translate(130.522388, 24.089552)">
                            <path d="M7.74083582,9.61514925 C5.5881791,8.70044776 3.55579104,7.83497015 3.55579104,5.4998806 C3.55579104,3.53980597 5.0360597,2.00320896 6.92280597,2.00320896 C9.4268806,2.00320896 10.4433284,3.68620896 11.1986866,6.21210448 L11.2144179,6.27020896 L13.3046567,5.62040299 L13.2907015,5.56534328 C12.4026418,2.13844776 10.0723731,0.093880597 7.05702985,0.093880597 C3.63470149,0.093880597 1.24607463,2.44926866 1.24607463,5.82161194 C1.24607463,9.5151791 3.89452239,10.5963284 6.45492537,11.6406866 C8.74307463,12.5749254 10.9041045,13.457403 10.9041045,16.1687761 C10.9041045,18.3300597 9.31980597,19.9590149 7.21713433,19.9590149 C4.46820896,19.9590149 2.72913433,17.5995672 2.27622388,15.4080896 L2.26328358,15.3477015 L0.0352686567,15.8828209 L0.0466865672,15.9399104 C0.778701493,19.5961791 3.51671642,21.8688507 7.19176119,21.8688507 C10.7934776,21.8688507 13.2158507,19.4812388 13.2158507,15.9279851 C13.2158507,11.9451642 10.3068209,10.7077164 7.74083582,9.61514925 L7.74083582,9.61514925 Z M22.232194,8.44697015 L22.232194,6.56428358 L18.8905522,6.56428358 L18.8905522,1.77764179 L16.6868955,1.77764179 L16.6868955,6.56428358 L14.4408657,6.56428358 L14.4408657,8.44697015 L16.6868955,8.44697015 L16.6868955,16.7300299 C16.6868955,16.7300299 16.6848657,17.3643582 16.6848657,17.4866567 C16.6848657,18.9321642 16.7437313,20.2662836 17.5407015,21.0655373 C18.0783582,21.6062388 18.9118657,21.8683433 20.0884179,21.8683433 C20.716403,21.8683433 21.3644328,21.7346269 22.1936269,21.4382687 L22.232194,21.4232985 L22.232194,19.7803881 L22.1583582,19.8001791 C21.6846418,19.924 21.148,19.985403 20.5159552,19.985403 C19.909791,19.985403 19.5129552,19.8704627 19.2645522,19.6230746 C18.8996866,19.2569403 18.8902985,18.6117015 18.8902985,17.7944328 L18.8902985,8.44646269 C19.006,8.44697015 22.232194,8.44697015 22.232194,8.44697015 L22.232194,8.44697015 Z M35.0278657,21.3591045 C34.6665522,20.4763731 34.652597,19.5190448 34.6399104,18.5947015 L34.6315373,18.1184478 L34.6315373,10.7939851 C34.6315373,7.37597015 31.6699851,6.13573134 29.6797164,6.13573134 C27.644791,6.13573134 25.9683881,7.12350746 24.5510448,9.15564179 L24.517806,9.20334328 L26.0843433,10.3705075 L26.1196119,10.3200149 C27.1880746,8.74967164 28.3184478,8.02019403 29.6797164,8.02019403 C31.4007761,8.02019403 32.4276269,8.9671194 32.4276269,10.5539552 L32.4276269,11.3374776 L31.8026866,11.5120448 L31.2074328,11.6716418 C28.0223433,12.5165672 24.058806,13.5672687 24.058806,17.5863731 C24.058806,19.9473433 25.9206866,21.8691045 28.2083284,21.8691045 C29.9656716,21.8691045 31.3124776,20.7326418 32.4410746,19.6360149 C32.4654328,19.8440746 32.6481194,21.4418209 32.6481194,21.4418209 L35.0621194,21.4418209 L35.0278657,21.3591045 L35.0278657,21.3591045 Z M28.2900299,19.7712537 C27.0162985,19.7712537 26.1292537,18.5066567 26.1292537,17.371209 C26.1292537,14.9830896 29.1590597,14.1143134 31.1653134,13.538597 L32.4276269,13.1724627 L32.4276269,17.4031791 C31.8387164,18.1263134 30.2841045,19.7712537 28.2900299,19.7712537 L28.2900299,19.7712537 Z M44.9322687,6.13573134 C43.271597,6.13573134 42.1338657,7.05195522 40.9291493,8.02298507 L40.9276269,8.024 L40.9276269,6.56453731 L38.723209,6.56453731 L38.723209,21.4415672 L40.9276269,21.4415672 L40.9276269,10.1753881 C41.7065821,9.25358209 43.3702985,7.96614925 44.6648358,7.96614925 C45.239791,7.96614925 45.6663134,8.11686567 45.9725672,8.42743284 C46.5959851,9.06074627 46.577209,10.2357761 46.5617313,11.2715075 L46.5571642,11.73 L46.5571642,21.4415672 L48.7605672,21.4415672 L48.7605672,11.1948806 C48.7605672,7.83801493 47.4726269,6.13573134 44.9322687,6.13573134 Z M55.060209,0.521925373 L52.9159254,0.521925373 L52.9159254,21.4413134 L55.1195821,21.4413134 L55.1195821,0.521925373 L55.060209,0.521925373 Z M68.3557313,17.4201791 L68.3240149,17.4752388 C67.9809701,18.0638955 66.7090149,19.9859104 64.7664478,19.9859104 C62.2847015,19.9859104 60.9142985,18.0032537 60.8980597,14.4096567 L69.7941343,14.4096567 L69.798194,14.354597 C69.8273731,13.9968358 69.8423433,13.6428806 69.8423433,13.2950149 C69.8423433,10.9426716 69.1856866,8.86207463 68.0167463,7.59443284 C67.1246269,6.62670149 65.9592388,6.13547761 64.552806,6.13547761 C60.7592687,6.13547761 58.584791,9.00289552 58.584791,14.0021642 C58.584791,19.0014328 60.7592687,21.8683433 64.552806,21.8683433 C66.9579254,21.8683433 69.0679552,20.5519851 69.9278507,18.516806 L69.9471343,18.4711343 L68.3557313,17.4201791 L68.3557313,17.4201791 Z M67.4879701,12.5259552 L60.9508358,12.5259552 C61.0008209,10.3301642 62.2141642,8.01968657 64.3916866,8.01968657 C65.0711791,8.01968657 65.673791,8.28483582 66.1832836,8.80752239 C67.0936716,9.7450597 67.4887313,11.2803881 67.4887313,12.4434925 L67.4879701,12.5259552 Z M83.1916567,6.56428358 L81.1701791,6.56428358 L77.5471493,17.9588507 C77.4337313,17.631791 73.5820896,6.56428358 73.5820896,6.56428358 L71.3441791,6.56428358 C71.3441791,6.56428358 76.4322537,21.0774627 76.445194,21.1157761 C75.9110896,22.8731194 75.2151045,24.5852985 73.1654627,24.5852985 C72.7541642,24.5852985 72.369,24.4848209 71.9785075,24.3726716 L71.9160896,24.3549104 L71.5745672,26.2345522 L71.6230299,26.2512985 C72.1731194,26.4342388 72.6369403,26.5491791 73.2456418,26.5491791 C76.4984776,26.5491791 77.6844179,24.1110746 78.3565522,21.9870896 L83.272597,6.56453731 L83.1916567,6.56453731 L83.1916567,6.56428358 Z" id="Shape"></path>
                        </g>
                        <path d="M60.5016716,24.6114776 L56.7393433,24.6114776 C56.7393433,24.6114776 52.3140149,41.596 52.2795075,41.7259104 C52.245,41.5975224 47.7407612,24.6114776 47.7407612,24.6114776 L44,24.6114776 L44,45.5308657 L46.3097164,45.5308657 L46.3097164,26.8717164 L51.3386716,45.5308657 L53.2211045,45.5308657 L58.2495522,26.871209 L58.2495522,45.5308657 L60.5610448,45.5308657 L60.5610448,24.6114776 L60.5016716,24.6114776 Z M69.8009254,30.2252836 C66.0076418,30.2252836 63.8329104,33.0927015 63.8329104,38.0919701 C63.8329104,43.0912388 66.0076418,45.9581493 69.8009254,45.9581493 C73.5939552,45.9581493 75.7689403,43.0912388 75.7689403,38.0919701 C75.7689403,33.0927015 73.5939552,30.2252836 69.8009254,30.2252836 Z M69.8009254,44.0754627 C66.5252537,44.0754627 66.0360597,40.3260746 66.0360597,38.0919701 C66.0360597,35.8573582 66.5255075,32.1094925 69.8009254,32.1094925 C73.0753284,32.1094925 73.5650299,35.8573582 73.5650299,38.0919701 C73.5650299,40.3258209 73.0753284,44.0754627 69.8009254,44.0754627 Z M86.3360896,30.4386716 L85.533791,30.4386716 C83.357791,30.4386716 82.2781642,32.014597 81.4487164,33.7480896 L81.4487164,30.6538358 L79.2445522,30.6538358 L79.2445522,45.5308657 L81.4487164,45.5308657 L81.4487164,37.1026716 C82.2626866,34.9439254 83.6577015,32.0894478 86.3279701,32.4553284 L86.3949552,32.4657313 L86.3949552,30.4389254 L86.3360896,30.4389254 L86.3360896,30.4386716 Z M112.506701,45.4486567 C112.144119,44.5659254 112.131433,43.6080896 112.118493,42.6819701 L112.110119,42.2082537 L112.110119,34.8835373 C112.110119,31.4655224 109.148567,30.2252836 107.158045,30.2252836 C105.123881,30.2252836 103.446209,31.2130597 102.029373,33.245194 L101.997149,33.2928955 L103.563433,34.4600597 L103.598194,34.4095672 C104.665896,32.8392239 105.797284,32.1097463 107.158045,32.1097463 C108.878343,32.1097463 109.906716,33.0566716 109.906716,34.6435075 L109.906716,35.4270299 L109.281269,35.601597 L108.685761,35.761194 C105.501687,36.6061194 101.538149,37.6568209 101.538149,41.6759254 C101.538149,44.0368955 103.399776,45.9586567 105.688179,45.9586567 C107.442731,45.9586567 108.791567,44.822194 109.920418,43.7255672 C109.943507,43.9336269 110.126448,45.5313731 110.126448,45.5313731 L112.540194,45.5313731 L112.506701,45.4486567 L112.506701,45.4486567 Z M105.767851,43.860806 C104.495134,43.860806 103.608597,42.596209 103.608597,41.4607612 C103.608597,39.0726418 106.63891,38.2038657 108.643642,37.6276418 L109.906716,37.2620149 L109.906716,41.4927313 C109.317806,42.2158657 107.762687,43.860806 105.767851,43.860806 L105.767851,43.860806 Z M122.332955,30.2252836 C120.672284,30.2252836 119.536075,31.1415075 118.330851,32.1125373 L118.328821,32.1135522 L118.328821,30.6540896 L116.124149,30.6540896 L116.124149,45.5311194 L118.328821,45.5311194 L118.328821,34.2649403 C119.107522,33.3431343 120.771239,32.0557015 122.066284,32.0557015 C122.640224,32.0557015 123.068269,32.2064179 123.373507,32.5169851 C123.99794,33.1502985 123.97891,34.3253284 123.963179,35.3610597 L123.957851,35.8195522 L123.957851,45.5311194 L126.162776,45.5311194 L126.162776,35.2844328 C126.162776,31.9275672 124.874328,30.2252836 122.332955,30.2252836 Z M99.9982537,31.7882687 L99.9982537,29.9228358 C98.7412687,29.7896269 97.6174925,30.3173881 96.6512836,31.0344328 C96.6464627,31.0303731 96.6418955,31.0260597 96.635806,31.022 L96.635806,31.0209851 C95.6673134,30.3217015 94.5770299,29.9685075 93.3933731,29.9685075 C90.3387015,29.9685075 88.1208358,32.129791 88.1208358,35.1080896 C88.1208358,36.7865224 88.6201791,37.6697612 89.732791,38.9825672 C89.5031642,39.2507612 89.2618657,39.477597 89.0271642,39.6937761 C88.4258209,40.2507164 87.9064328,40.7320448 87.9064328,41.6850597 C87.9064328,42.7669701 88.8358507,43.3962239 89.6665672,43.7461194 C88.5648657,44.2386119 87.1853284,45.0657761 87.1853284,46.6312985 C87.1853284,47.7581194 87.8054478,50.381194 93.5537313,50.381194 C97.6854925,50.381194 99.8691045,49.0282985 99.8691045,46.471194 C99.8691045,42.8768358 95.8834925,42.5200896 92.9729403,42.2602687 C91.3297761,42.1120896 90.0301642,41.9961343 90.0301642,41.3648507 C90.0301642,40.7845672 90.5840597,40.3598209 91.0293582,40.0182985 L91.2399552,39.8528657 C92.0506269,40.1581045 92.8037015,40.3009552 93.6072687,40.3009552 C94.9956866,40.3009552 96.2737313,39.7800448 97.207209,38.8341343 C98.1328209,37.8955821 98.6397761,36.6208358 98.6397761,35.2392687 L98.6395224,35.1608657 C98.6227761,33.9536119 98.3066269,32.9224478 97.7240597,32.1021343 C98.2513134,31.8187164 98.6283582,31.7885224 99.2139701,31.7885224 L99.9982537,31.7885224 L99.9982537,31.7882687 Z M92.0409851,44.363194 C92.0409851,44.3652239 94.3126418,44.5108657 94.3149254,44.5108657 C96.6236269,44.6752836 97.7456269,45.2730746 97.7456269,46.3359552 C97.7456269,48.3092239 95.1864925,48.6040597 93.660806,48.6040597 C92.5842239,48.6040597 89.3090597,48.6040597 89.3090597,46.523209 C89.3090597,45.3131642 90.7809552,44.6027164 92.0409851,44.363194 L92.0409851,44.363194 Z M93.2601642,38.6047612 C91.2802985,38.6047612 90.2443134,36.8867463 90.2443134,35.1882687 C90.2443134,33.4796418 91.3663134,31.6647015 93.4471642,31.6647015 C95.7117164,31.6647015 96.5165522,33.5489104 96.5165522,35.1613731 C96.5162985,37.2861194 95.2689552,38.6047612 93.2601642,38.6047612 Z" id="Shape"></path>
                    </g>
                </g>
            </g>
        </g>
    </g>
</svg>