<svg width="433" height="390" viewBox="0 0 433 390" xmlns="http://www.w3.org/2000/svg">
    <title>
        Illustration02
    </title>
    <defs>
        <linearGradient x1="78.481%" y1="91.731%" x2="16.77%" y2="18.357%" id="a">
            <stop stop-color="#A16CB5" offset="0%"/>
            <stop stop-color="#8670B1" offset="100%"/>
        </linearGradient>
        <linearGradient x1="80.103%" y1="81.747%" x2="14.878%" y2="25.927%" id="b">
            <stop stop-color="#A16CB5" offset="0%"/>
            <stop stop-color="#8670B1" offset="100%"/>
        </linearGradient>
    </defs>
    <g fill="none" fill-rule="evenodd">
        <path d="M168.422 23.806c-14.426-4.477-28.852-8.954-43.775-8.954-27.858 0-54.222 16.416-70.638 39.299-16.416 22.385-24.375 50.74-26.862 78.597-2.488 24.872-.995 50.74 8.456 74.12 9.452 23.38 26.862 43.775 49.745 53.227 15.918 6.467 33.33 7.461 48.75 15.42 24.375 12.437 36.811 40.294 58.202 57.207 21.887 17.908 53.724 23.878 80.586 14.924 29.35-9.452 51.735-35.32 64.171-63.674 12.436-28.852 15.421-60.191 16.416-91.53 1.492-36.812-1.492-77.602-26.365-104.962-18.405-19.4-45.268-28.355-70.638-36.314a8654.174 8654.174 0 0 0-88.048-27.36z" fill="url(#a)" fill-rule="nonzero" opacity=".2"/>
        <path d="M100.769 389.929h-6.964c-.995 0-2.488 0-3.482-.498-.498 0-.995-.497-.995-1.492 0-.497.497-.995 1.492-.995s2.487 0 3.482.498H101.266c.498 0 .995.497.995.995 0 .994-.497 1.492-1.492 1.492zm9.949-.498c-.498 0-.995-.497-.995-.994 0-.498.497-1.493.995-1.493 2.985-.497 6.467-.995 9.949-1.492.497 0 1.492.497 1.492.995 0 .497-.497 1.492-.995 1.492l-10.446 1.492zm-29.847-1.99c-.497 0-.497 0 0 0-3.482-.994-6.964-1.492-9.949-2.984-.497 0-.995-.995-.995-1.492 0-.498.995-.995 1.492-.995 2.985.995 6.467 1.99 9.452 2.984.497 0 .995.995.995 1.493 0 .995-.498.995-.995.995zm49.247-1.99c-.497 0-.994-.497-.994-.994s0-1.492.994-1.492c2.985-.995 6.467-1.99 9.452-2.985.497-.497 1.492 0 1.492.497 0 .498 0 1.493-.497 1.493-3.482 1.492-6.964 2.487-10.447 3.482.498 0 0 0 0 0zm-68.15-4.476h-.498c-2.984-1.492-5.969-2.985-8.954-4.975-.497-.497-.497-.995-.497-1.492.497-.497.995-.497 1.492-.497 2.488 1.99 5.472 3.482 8.457 4.974.497.498.995.995.497 1.492.498.498 0 .498-.497.498zm86.556-2.487c-.497 0-.995-.498-.995-.498-.497-.497 0-1.492.498-1.492l8.954-4.477c.497-.498 1.492 0 1.492.497.497.498 0 1.493-.497 1.493l-8.954 4.477h-.498zM45.552 370.03c-.497 0-.497 0-.995-.497-2.487-1.99-4.974-4.478-7.462-6.965-.497-.497-.497-1.492 0-1.99.498-.497 1.493-.497 1.99 0 1.99 2.488 4.477 4.477 6.965 6.965.497.497.497.995 0 1.99 0 .497 0 .497-.498.497zm120.383-1.492c-.498 0-.995 0-.995-.498-.498-.497 0-1.492.497-1.492 2.488-1.493 5.472-3.482 7.96-5.472.497-.498 1.492-.498 1.492.497.497.498.497 1.493-.498 1.493-2.487 1.99-5.472 3.98-8.456 5.472.497 0 .497 0 0 0zm16.416-11.442c-.498 0-.498 0-.995-.497-.498-.498-.498-1.492 0-1.99 2.487-1.99 4.974-3.98 7.461-6.467.498-.497 1.493-.497 1.99 0 .498.498.498 1.493 0 1.99-2.487 2.487-4.974 4.477-7.462 6.467-.497.497-.994.497-.994.497zm-150.23-1.492c-.497 0-.995 0-.995-.497-1.99-2.985-3.482-5.97-4.974-8.955-.498-.497 0-1.492.497-1.492.498-.497 1.492 0 1.492.498 1.493 2.984 2.985 5.969 4.975 8.456.497.498 0 1.493-.498 1.493 0 .497 0 .497-.497.497zm165.153-11.441c-.497 0-.497 0-.995-.498-.497-.497-.497-1.492 0-1.99 2.487-2.487 4.975-4.477 6.964-6.964.498-.497 1.493-.497 1.99 0 .498.498.498 1.492 0 1.99-2.487 2.487-4.974 4.477-6.964 6.964-.497.498-.995.498-.995.498zm-173.61-6.467c-.497 0-.995-.498-.995-.995l-.497-.995c-.995-2.985-1.492-5.97-1.99-8.457 0-.497.498-1.492.995-1.492.498 0 1.492.497 1.492.995.498 2.985.995 5.472 1.99 8.457l.498.994c0 .498-.498.995-1.493 1.493zm187.539-7.462c-.498 0-.498 0-.995-.497-.498-.498-.498-1.493 0-1.99 2.487-2.487 4.477-4.975 6.964-6.964.497-.498 1.492-.498 1.99 0 .497.497.497 1.492 0 1.99-2.487 2.487-4.477 4.974-6.964 6.964 0 .497-.498.497-.995.497zM20.68 318.296c-.498 0-.995-.497-.995-.995v-.995c0-2.984 0-5.969.497-8.954 0-.497.498-1.492 1.493-.994.497 0 .994.497.994 1.492-.497 2.985-.497 5.97-.497 8.954v.995c-.497-.498-.995.497-1.492.497zm204.451-2.487c-.497 0-.497 0-.995-.497-.497-.498-.497-1.493 0-1.99l6.467-6.467.498-.497c.497-.498 1.492-.498 1.99 0 .497.497.497 1.492 0 1.99l-.498.497-6.467 6.467c0 .497-.497.497-.995.497zm13.929-13.929c-.498 0-.498 0-.995-.497-.498-.497-.498-1.492 0-1.99 2.487-2.487 4.974-4.477 7.462-6.964.497-.498 1.492-.498 1.99 0 .497.497.497 1.492 0 1.99a46.094 46.094 0 0 0-6.965 6.964c-.497.497-.995.497-1.492.497zm-216.39-3.482c-.995 0-1.493-.995-.995-1.492.497-2.985 1.492-6.467 2.487-9.452 0-.497.995-.994 1.492-.994.498 0 .995.994.995 1.492-.995 2.985-1.99 6.467-2.487 9.451-.498.498-.995.995-1.493.995zm231.313-9.949c-.497 0-.497 0-.995-.497-.497-.498-.497-1.492 0-1.99 2.488-1.99 4.975-4.477 7.96-6.467.497-.497 1.492-.497 1.99 0 .497.498.497 1.493 0 1.99l-7.462 5.97c-.995.994-1.493.994-1.493.994zM28.64 279.495s-.498 0 0 0c-.995-.497-1.492-.995-.995-1.492.995-2.985 2.487-5.97 3.98-9.452.497-.497.994-.995 1.492-.497.497.497.995.995.497 1.492-1.492 2.985-2.487 5.97-3.98 8.954 0 .498-.497.995-.994.995zm241.263-2.984c-.498 0-.995 0-.995-.498-.498-.497 0-1.492.497-1.492 2.985-1.99 5.472-3.482 8.457-5.472.497-.498 1.492 0 1.492.497.498.498 0 1.493-.497 1.493-2.985 1.492-5.472 3.482-8.457 4.974 0 .498-.497.498-.497.498zm17.908-9.95l-.498-.994-.497-.995c2.985-1.493 5.97-2.487 9.451-3.98.498 0 1.493 0 1.493.995 0 .498 0 1.492-.995 1.492-3.482.995-6.467 2.488-8.954 3.483zM36.598 261.09h-.497c-.498-.498-.995-.995-.498-1.493l.498-.995c.994-1.99 1.99-4.477 3.482-6.466l.497-1.493c.498-.497.995-.995 1.493-.497.497.497.994.995.497 1.492l-.497 1.492c-.995 1.99-2.488 4.478-3.483 6.467l-.497.995c0 .498-.498.498-.995.498zm269.12-.995c-.498 0-.995-.498-.995-.995 0-.498 0-1.492.995-1.492 2.985-.995 6.467-1.99 9.451-2.488.498 0 1.493 0 1.493.995 0 .498 0 1.493-.995 1.493-3.482.497-6.467 1.492-9.95 2.487zm18.903-4.975c-.497 0-.995-.497-.995-.995 0-.497.498-1.492.995-1.492l9.452-2.487c.497 0 1.492.497 1.492.995 0 .497-.498 1.492-.995 1.492l-9.949 2.487c.497 0 .497 0 0 0zm19.4-4.477c-.497 0-.994-.497-.994-.995 0-.497 0-1.492.995-1.492 2.984-.995 6.466-1.492 9.451-2.487.497 0 1.492 0 1.492.995 0 .497 0 1.492-.995 1.492-2.984.497-6.466 1.492-9.948 2.487.497 0 .497 0 0 0zm19.401-5.472c-.497 0-.995-.497-.995-.995 0-.497 0-1.492.995-1.492.995-.497 1.492-.497 2.487-.995 2.488-.995 4.477-1.492 6.965-2.487.497-.498 1.492 0 1.492.497.497.498 0 1.493-.498 1.493-2.487.995-4.477 1.99-6.964 2.487-1.492.995-2.487.995-3.482 1.492zm-317.87-1.492h-.497c-.498-.498-.995-.995-.498-1.492l4.477-8.954c.498-.498.995-.995 1.493-.498.497.498.995.995.497 1.492l-4.477 8.954s-.497.498-.995.498zm336.276-5.97c-.498 0-.995-.497-.995-.497-.498-.497 0-1.492.497-1.492 2.985-1.493 5.97-2.985 8.457-4.975.497-.497 1.492 0 1.492.498.498.497 0 1.492-.497 1.492-2.985 1.492-5.97 3.482-8.954 4.975zm16.913-10.446c-.498 0-.995 0-.995-.497-.497-.498-.497-1.493.497-1.493 2.488-1.99 5.472-3.98 7.462-5.97.498-.497 1.493-.497 1.99 0 .497.498.497 1.493 0 1.99-2.487 1.99-4.975 4.478-7.96 6.468-.497-.498-.994-.498-.994-.498zm-345.23-1.99c-.995-.497-1.492-.995-.995-1.492.995-3.482 1.99-6.467 2.985-9.452 0-.497.995-.994 1.492-.994.498 0 .995.994.995 1.492-.995 2.985-1.492 6.467-2.984 9.451-.498.995-.995.995-1.493.995zm359.656-11.441c-.498 0-.498 0-.995-.497-.497-.498-.497-.995 0-1.99l5.97-7.462c.497-.497.994-.497 1.492-.497.497.497.497.994.497 1.492-1.99 2.487-3.98 5.472-5.97 7.96 0 .994-.497.994-.994.994zM58.486 206.37c-.498 0-.498 0 0 0-.995 0-1.493-.497-.995-1.492v-3.98c0-1.99 0-3.482-.498-5.472 0-.497.498-1.492.995-1.492.498 0 1.493.497 1.493.995 0 1.99.497 3.98.497 5.472v4.477c-.497.995-.995 1.492-1.492 1.492zm366.122-8.954h-.497c-.498-.497-.995-.995-.498-1.492 1.493-2.985 2.488-5.97 3.482-8.954 0-.498.995-.995 1.493-.995.497 0 .995.995.995 1.492-.995 2.985-2.488 6.467-3.98 9.452-.497.497-.995.497-.995.497zM56.496 186.472c-.497 0-.995-.497-.995-.995-.497-2.984-1.492-5.969-2.487-9.451 0-.498 0-1.492.995-1.492.497 0 1.492 0 1.492.994.995 3.483 1.99 6.467 2.985 9.452-.498.497-.995 1.492-1.99 1.492zm374.082-7.461c-.995 0-1.493-.995-.995-1.493 0-.995 0-1.492.497-2.487.498-2.487.498-4.975.498-7.462 0-.497.497-.995.995-.995.497 0 .994.498.994 1.493 0 2.487 0 4.974-.497 7.461 0 .995 0 1.493-.497 2.488 0 .497-.498.995-.995.995zM50.527 167.569c-.498 0-.995-.497-.995-.995-.995-2.984-2.488-5.969-3.482-8.954-.498-.497 0-1.492.497-1.492.497-.498 1.492 0 1.492.497 1.493 2.985 2.488 5.97 3.483 9.452 0 .497 0 .995-.995 1.492zm380.05-8.456c-.497 0-.994-.498-.994-.995-.498-2.985-.995-6.467-1.99-9.452 0-.497 0-1.492.995-1.492.497 0 1.492 0 1.492.995.995 3.482 1.493 6.467 1.99 9.949 0 0-.497.995-1.492.995.497 0 .497 0 0 0zm-387.512-9.95c-.498 0-.995-.497-.995-.994l-.497-1.493c-.995-2.487-1.99-4.974-2.985-7.959 0-.497 0-1.492.995-1.492s1.492 0 1.492.995c.995 2.487 1.99 5.472 2.985 7.461l.497 1.493c0 .995-.497 1.492-1.492 1.99zm382.538-9.45c-.497 0-.995-.498-.995-.996-.995-2.984-2.487-5.97-3.98-8.954-.497-.497 0-1.492.498-1.492.498-.498 1.492 0 1.492.497 1.493 2.985 2.985 5.97 3.98 9.452.497.497.497 1.492-.995 1.492.498 0 .498 0 0 0zM36.598 130.26c-.497 0-.995-.498-.995-.995-.995-3.482-1.99-6.467-2.487-9.95 0-.497.497-1.492.995-1.492.497 0 1.492.498 1.492.995.498 2.985 1.492 6.467 2.487 9.452-.497 1.492-.497 1.99-1.492 1.99zm380.549-8.457c-.498 0-.995 0-.995-.498-.498-.994-1.493-2.487-1.99-3.482-.995-1.492-1.99-3.482-2.985-4.974-.497-.498 0-1.492.498-1.492.497-.498 1.492 0 1.492.497.995 1.492 1.99 3.482 3.482 4.974.498.995 1.492 2.488 1.99 3.483.497.497 0 1.492-.498 1.492h-.994zM32.618 110.86c-.497 0-.994-.497-.994-.995-.498-3.482-.498-6.964-.498-9.949 0-.497.498-.995.995-1.492.497 0 .995.497.995.995 0 2.984 0 6.467.497 9.949 0 .995-.497 1.492-.995 1.492zm373.585-5.472c-.498 0-.498 0-.995-.497-1.99-2.488-3.98-4.975-6.467-7.462-.498-.498-.498-1.492 0-1.99.497-.497 1.492-.497 1.99 0 1.99 2.487 4.477 4.975 6.467 7.96.497.497.497 1.492 0 1.99h-.995zM32.12 91.46c-.995 0-1.492-.498-.995-1.493.498-3.482.995-6.964 1.99-9.949 0-.497.995-.995 1.492-.995.498 0 .995.995.995 1.493-.995 2.984-1.492 6.467-1.99 9.451 0 .995-.497 1.493-1.492 1.493zm360.65-.995c-.497 0-.497 0-.994-.498l-6.965-6.964c-.497-.498-.497-1.492 0-1.99.498-.497 1.493-.497 1.99 0a46.094 46.094 0 0 1 6.964 6.964c.498.498.498 1.493 0 1.99 0 .498-.497.498-.994.498zm-14.426-13.431c-.497 0-.497 0-.994-.498-2.488-1.99-4.975-3.98-7.96-5.97-.497-.497-.497-.994-.497-1.492.497-.497.995-.497 1.492-.497 2.488 1.99 5.472 3.98 7.96 5.97.497.497.497.994 0 1.99.497.497.497.497 0 .497zM37.593 72.059h-.498c-.497-.497-.994-.995-.497-1.492 1.492-2.985 2.985-5.97 4.975-8.954.497-.498.994-.498 1.492-.498.497.498.497.995.497 1.493-1.99 2.487-3.482 5.471-4.477 8.456-.497.995-.995.995-1.492.995zm324.834-6.467h-.497c-2.985-1.99-5.472-3.482-8.457-4.974-.497-.498-.995-.995-.497-1.493.497-.497.994-.995 1.492-.497 2.985 1.492 5.97 3.482 8.457 4.974.497.498.994.995.497 1.493-.497.497-.995.497-.995.497zm-17.41-9.949h-.498c-2.985-1.492-5.97-2.984-8.954-3.98-.498-.497-.995-.994-.498-1.492.498-.497.995-.995 1.493-.497 2.984 1.492 5.97 2.487 8.954 3.98.497.497.995.994.497 1.492 0 .497-.497.497-.995.497zm-296.48 0c-.498 0-.498 0-.995-.497-.498-.498-.498-.995 0-1.99 1.99-2.487 4.477-4.975 7.462-6.964.497-.498 1.492-.498 1.99 0 .497.497.497 1.492 0 1.99a46.094 46.094 0 0 0-6.965 6.964c-.995.497-1.492.497-1.492.497zm278.074-7.462c-3.482-.994-6.467-1.99-9.95-2.984-.497 0-.994-.995-.994-1.493 0-.497.995-.994 1.492-.994 2.985.994 6.467 1.99 9.452 2.984.497 0 .995.995.995 1.493 0 .497-.498.994-.995.994zM63.46 42.71c-.498 0-.996 0-.996-.498-.497-.497 0-1.492.498-1.492 2.985-1.99 5.472-3.482 8.954-4.975.497-.497 1.492 0 1.492.498.498.497 0 1.492-.497 1.492-2.985 1.492-5.97 2.985-8.457 4.975h-.995zm244.247-.498c-3.482-.995-6.965-1.492-9.95-1.99-.497 0-.994-.995-.994-1.492s.995-.995 1.492-.995c3.482.498 6.467 1.492 9.95 1.99.497 0 .994.995.994 1.492-.497.498-.995.995-1.492.995zm-89.044-2.985c-.497 0-.995-.497-.995-.994 0-.498.498-1.493.995-1.493h9.95c.497 0 1.492.498 1.492.995 0 .498-.498 1.492-.995 1.492h-10.447zm-9.949 0h-2.487c-2.487 0-4.974-.497-7.462-.497-.497 0-.994-.497-.994-1.492 0-.498.497-.995 1.492-.995 2.487.497 4.974.497 7.462.497h2.487c.497 0 .995.498.995 1.493 0 .497-.498.994-1.493.994zm79.592-.497c-2.984-.497-5.472-.497-8.456-.995h-1.493c-.497 0-.995-.497-.995-1.492 0-.498.498-.995 1.493-.995h1.492c2.985 0 5.472.497 8.457.995.497 0 .995.497.995 1.492-.498.498-.995.995-1.493.995zm-49.745 0c-.497 0-.995-.497-.995-.995 0-.497.498-1.492.995-1.492l9.95-.498c.497 0 1.492.498 1.492.995 0 .498-.498 1.493-.995 1.493l-10.447.497zm19.898-.995c-.497 0-.995-.497-.995-.995 0-.497.498-1.492.995-1.492H268.41c.498 0 .995.497.995 1.492 0 .498-.497.995-.995.995H258.46zm-69.145-.497c-.498 0-.498 0 0 0-3.482-.498-6.467-.995-9.95-1.493-.497 0-.994-.995-.994-1.492 0-.498.995-.995 1.492-.995 3.482.497 6.467.995 9.95 1.492.497 0 .994.498.994 1.493-.497.497-.995.995-1.492.995zM81.368 34.253c-.497 0-.994-.498-.994-.995s0-1.492.994-1.492c2.985-.995 6.467-1.99 9.452-2.985.497 0 1.492 0 1.492.995 0 .497 0 1.492-.995 1.492-3.482.995-6.466 1.99-9.949 2.985.498 0 0 0 0 0zm88.049-.498c-2.985-.497-6.467-.994-9.452-1.99-.497 0-.995-.994-.995-1.492 0-.497.995-.995 1.493-.995 3.482.498 6.467.995 9.451 1.99v.995l-.497 1.492zm-19.4-3.482c-3.483-.497-6.467-.995-9.95-1.492-.497 0-.994-.497-.994-1.492 0-.498.497-.995 1.492-.995 3.482.497 6.467.995 9.949 1.492.497 0 .995.498.995 1.492-.498.498-.995.995-1.493.995zm-49.248-.995c-.497 0-.995-.497-.995-.994 0-.498.498-1.493.995-1.493 3.482-.497 6.467-.995 9.949-1.492.497 0 1.492.497 1.492.995 0 .497-.497 1.492-.995 1.492-3.98.498-6.964.995-10.446 1.492zm29.35-.994c-2.985 0-5.97-.498-8.955-.498h-.995c-.497 0-.994-.497-.994-1.492 0-.498.497-.995.994-.995h.995c2.985 0 5.97 0 8.954.497.498 0 .995.498.995 1.493.498.497 0 .995-.995.995z" fill="#F9F9F9" fill-rule="nonzero"/>
        <path d="M50.527 79.023C60.973 52.66 92.81 41.217 121.164 41.715c28.355.497 56.212 9.949 84.567 11.441 24.375 1.492 48.75-2.487 73.125-.995 49.745 2.985 97.002 31.34 123.367 73.623 8.954 14.426 15.918 31.339 13.929 47.755-3.483 27.36-29.35 46.76-55.217 55.714-25.868 8.954-54.222 11.441-79.592 22.883-22.883 10.446-42.283 27.857-60.191 45.765-17.909 17.908-34.822 37.309-55.217 51.735-20.396 14.923-45.268 25.37-70.638 23.877-25.37-1.492-50.74-17.908-57.207-42.283-6.466-21.888 2.488-45.268 12.934-65.166 10.446-20.395 22.385-40.79 22.883-63.673.497-21.39-9.452-41.289-16.914-61.187-8.456-19.898-14.426-42.78-6.466-62.18z" fill="url(#b)" fill-rule="nonzero"/>
        <circle fill="#906EB2" fill-rule="nonzero" cx="375.787" cy="308.703" r="2.843"/>
        <circle fill="#906EB2" fill-rule="nonzero" cx="2.843" cy="248.44" r="2.843"/>
        <path d="M272.886 2.843c0 1.516-1.326 2.842-2.842 2.842S267.2 4.36 267.2 2.843 268.528 0 270.044 0s2.842 1.327 2.842 2.843z" fill="#906EB2" fill-rule="nonzero"/>
        <g fill="#FFF">
            <path d="M190.944 156.886c.033.427.082.825.147 1.194.067.37.165.712.298 1.023l3.641 8.347 2.673-6.043-4.393-10.092h-4.756l-15.403 35.317h2.808c.757 0 1.455-.206 2.096-.616a3.61 3.61 0 0 0 1.404-1.652l11.016-25.26c.264-.591.42-1.332.47-2.218"/>
            <path d="M209.7 151.316h-4.757c-4.354 10.022-6.546 15.05-6.582 15.083.038-.092.053-.19.082-.285l-1.999 4.573.022.05-6.926 15.896h2.808c.757 0 1.454-.206 2.095-.617a3.61 3.61 0 0 0 1.405-1.651l11.017-25.262c.262-.624.42-1.347.469-2.168.017.804.164 1.527.443 2.168l11.015 25.262c.264.69.726 1.24 1.382 1.65a3.924 3.924 0 0 0 2.12.618h2.81L209.7 151.316z"/>
            <path d="M175.726 192.68c.376 0 .612.024.764.064h45.16c.154-.04.39-.064.766-.064 3.393 0 3.45-2.33 3.45-2.33h-53.59s.057 2.33 3.45 2.33"/>
            <path d="M209.059 205.762c3.273 0 3.44-2.162 3.448-2.314h-17.149c.007.152.174 2.314 3.449 2.314.428 0 .695.028.838.078h8.575c.142-.05.41-.078.839-.078"/>
            <path d="M180.855 196.87s.057 2.33 3.45 2.33c.28 0 .47.015.622.037h17.316c.152-.022.342-.038.622-.038 3.393 0 3.45-2.329 3.45-2.329l.007-.001v-.024h-25.51v.017l.043.008z"/>
        </g>
    </g>
</svg>
