<svg width="392" height="436" viewBox="0 0 392 436" xmlns="http://www.w3.org/2000/svg">
    <title>
        Illustration
    </title>
    <defs>
        <linearGradient x1="78.481%" y1="91.731%" x2="16.77%" y2="18.357%" id="a">
            <stop stop-color="#A16CB5" offset="0%"/>
            <stop stop-color="#8670B1" offset="100%"/>
        </linearGradient>
        <linearGradient x1="73.917%" y1="91.731%" x2="22.095%" y2="18.357%" id="b">
            <stop stop-color="#A16CB5" offset="0%"/>
            <stop stop-color="#8670B1" offset="100%"/>
        </linearGradient>
    </defs>
    <g fill-rule="nonzero" fill="none">
        <path d="M164.422 44.806c-14.426-4.477-28.852-8.954-43.775-8.954-27.858 0-54.222 16.416-70.638 39.299-16.416 22.385-24.375 50.74-26.862 78.597-2.488 24.872-.995 50.74 8.456 74.12 9.452 23.38 26.862 43.775 49.745 53.227 15.918 6.467 33.33 7.461 48.75 15.42 24.375 12.437 36.811 40.294 58.202 57.207 21.887 17.908 53.724 23.878 80.586 14.924 29.35-9.452 51.735-35.32 64.171-63.674 12.436-28.852 15.421-60.191 16.416-91.53 1.492-36.812-1.492-77.602-26.365-104.962-18.405-19.4-45.268-28.355-70.638-36.314a8654.174 8654.174 0 0 0-88.048-27.36z" fill="url(#a)" opacity=".2"/>
        <path d="M241.872 418.793l-5.634 4.093c-.805.585-2.012 1.462-3.11 1.645-.402.292-1.097.182-1.682-.623-.292-.402-.182-1.097.623-1.682.805-.585 2.012-1.462 3.11-1.644l5.634-4.094c.402-.292 1.097-.182 1.39.22.584.805.474 1.5-.33 2.085zm7.757-6.25c-.403.292-1.098.182-1.39-.22-.292-.403-.475-1.5-.072-1.793 2.122-2.156 4.647-4.606 7.171-7.055.403-.292 1.5-.475 1.793-.072.292.402.474 1.5.072 1.792l-7.574 7.348zm-25.317 15.933c-3.402 1.242-6.511 2.887-9.803 3.434-.402.292-1.39-.22-1.682-.623-.292-.402.22-1.39.623-1.682 3-.95 6.401-2.191 9.4-3.14.403-.293 1.39.22 1.682.622.585.805.183 1.097-.22 1.39zm38.673-30.556c-.403.292-1.097.182-1.39-.22-.292-.403-.877-1.208-.072-1.792 1.83-2.56 4.062-5.411 5.892-7.97.11-.695 1.207-.878 1.5-.475.292.402.877 1.207.474 1.5-1.94 3.253-4.172 6.105-6.404 8.957.402-.293 0 0 0 0zm-57.767 36.436l-.402.292c-3.292.547-6.584 1.094-10.168 1.239-.695-.11-.987-.513-1.28-.915.11-.695.513-.988.915-1.28 3.182.148 6.474-.4 9.766-.946.695.11 1.39.22 1.28.915.694.11.292.402-.11.695zm68.564-52.889c-.403.292-1.098.182-1.098.182-.694-.11-.877-1.207-.474-1.5l4.612-8.884c.11-.695 1.208-.878 1.5-.475.695.11.877 1.207.475 1.5l-4.613 8.885-.402.292zm-88.277 53.684c-.402.292-.402.292-1.097.182-3.182-.148-6.656-.698-10.13-1.248-.695-.11-1.28-.915-1.17-1.61.11-.695.915-1.28 1.61-1.17 3.072.843 6.253.99 9.728 1.541.694.11.987.513 1.17 1.61.291.402.291.402-.111.695zm96.514-71.967c-.402.293-.804.585-1.097.183-.695-.11-.877-1.208-.475-1.5 1.136-2.67 2.38-6.034 3.223-9.105.11-.695.915-1.28 1.5-.475.695.11 1.28.915.475 1.5-.843 3.071-2.088 6.436-3.626 9.397.403-.292.403-.292 0 0zm6.556-18.905c-.402.293-.402.293-1.097.182-.695-.11-1.28-.914-1.17-1.61.843-3.071 1.686-6.143 2.236-9.617.11-.695.915-1.28 1.61-1.17.694.11 1.28.915 1.17 1.61-.551 3.474-1.394 6.546-2.236 9.618-.11.695-.513.987-.513.987zM166.16 431.375c-.403.292-.805.584-1.098.182-3.364-1.245-6.325-2.783-9.287-4.32-.695-.11-.877-1.208-.475-1.5.11-.695 1.207-.877 1.5-.475 2.962 1.538 5.923 3.075 8.995 3.918.695.11.877 1.207.475 1.5.292.402.292.402-.11.695zm126.886-106.331c-.402.292-.402.292-1.097.182-.695-.11-1.28-.915-1.17-1.61.55-3.474 1.393-6.546 1.541-9.727.11-.695.915-1.28 1.61-1.17.695.11 1.28.915 1.17 1.61-.55 3.474-1.393 6.546-1.541 9.728-.11.694-.513.987-.513.987zm-144.254 96.813c-.403.293-1.097.183-1.39-.22l-.987-.512c-2.56-1.83-4.716-3.953-6.58-5.672-.293-.403-.475-1.5-.073-1.793.403-.292 1.5-.474 1.792-.072 2.157 2.122 4.022 3.842 6.58 5.672l.988.513c.292.402.182 1.097-.33 2.084zm147.336-116.269c-.403.293-.403.293-1.098.183-.694-.11-1.28-.915-1.17-1.61.551-3.474.699-6.656 1.542-9.728.11-.695.914-1.28 1.61-1.17.694.11 1.279.915 1.169 1.61-.55 3.475-.698 6.656-1.54 9.728.292.403-.11.695-.513.987zM134.974 407.916c-.403.293-1.097.183-1.39-.22l-.585-.805c-1.754-2.414-3.508-4.83-4.86-7.536-.293-.403-.475-1.5.622-1.682.403-.293 1.098-.183 1.682.622 1.352 2.707 3.107 5.122 4.861 7.537l.585.805c-.695-.11-.513.987-.915 1.28zM298.917 285.73c-.403.293-.403.293-1.098.183-.694-.11-1.28-.915-1.17-1.61l1.542-9.728c.11-.695.915-1.28 1.61-1.17.694.11 1.279.916 1.169 1.61l-1.54 9.728c.292.403-.11.695-.513.987zm3.081-19.455c-.402.292-.402.292-1.097.182-.695-.11-1.28-.915-1.17-1.61.55-3.474 1.393-6.545 1.943-10.02.11-.694.915-1.28 1.61-1.17.695.11 1.28.916 1.17 1.61a46.094 46.094 0 0 0-1.54 9.728c-.11.695-.513.988-.916 1.28zm-177.11 124.374c-.805.585-1.792.072-1.682-.623-1.352-2.707-2.594-6.109-3.543-9.108-.293-.403.22-1.39.622-1.682.403-.293 1.39.22 1.682.622.95 3 2.192 6.402 3.544 9.109-.11.695-.22 1.39-.623 1.682zm181.289-144.012c-.403.293-.403.293-1.097.182-.695-.11-1.28-.914-1.17-1.61.843-3.071 1.393-6.545 2.638-9.91.11-.694.915-1.279 1.61-1.169.695.11 1.28.915 1.17 1.61l-2.529 9.215c-.22 1.39-.622 1.682-.622 1.682zm-187.57 125.21c-1.098.183-1.793.073-1.683-.622-.95-3-1.496-6.292-2.336-9.986.11-.695.22-1.39.915-1.28.695.11 1.39.22 1.28.915.547 3.292 1.496 6.292 2.043 9.584.293.402.183 1.097-.22 1.39zm193.43-144.225c-.402.292-.804.585-1.097.182-.694-.11-.877-1.207-.474-1.5 1.245-3.364 2.38-6.033 3.625-9.397.11-.695 1.207-.877 1.5-.475.694.11.877 1.208.474 1.5-1.537 2.962-2.38 6.033-3.917 8.995.292.402-.11.695-.11.695zm8.64-18.575l-1.974-1.025c1.538-2.962 3.368-5.521 5.308-8.775.402-.293 1.207-.877 1.792-.072.292.402.877 1.207.072 1.792-2.232 2.851-3.77 5.813-5.197 8.08zm-206.45 143.231l-.403.293c-.694-.11-1.39-.22-1.28-.915l-.181-1.097c-.365-2.195-1.022-4.792-.984-7.279l-.475-1.5c.11-.694.22-1.39.915-1.28.695.11 1.39.22 1.28.916l.474 1.5c.365 2.194.62 5.083.984 7.278l.182 1.097c.293.403-.11.695-.512.987zm217.138-158.99c-.403.293-1.098.183-1.39-.22-.292-.402-.877-1.207-.072-1.791 1.83-2.56 4.062-5.411 6.184-7.568.403-.292 1.208-.877 1.792-.072.293.402.878 1.207.073 1.792-2.525 2.449-4.355 5.008-6.587 7.86zm12.369-15.134c-.403.292-1.098.182-1.39-.22-.292-.403-.475-1.5-.072-1.793l6.184-7.567c.403-.293 1.5-.475 1.792-.073.293.403.475 1.5.073 1.792l-6.587 7.86c.402-.292.402-.292 0 0zm13.063-15.026c-.402.293-1.097.183-1.39-.22-.292-.402-.876-1.207-.071-1.792 1.83-2.56 4.354-5.009 6.184-7.568.402-.292 1.207-.877 1.792-.072.293.402.877 1.207.072 1.792-2.122 2.157-4.354 5.009-6.587 7.86.403-.292.403-.292 0 0zm12.48-15.83c-.403.292-1.098.182-1.39-.22-.293-.403-.877-1.207-.072-1.792.512-.988.914-1.28 1.427-2.267 1.427-2.267 2.745-3.839 4.172-6.106.11-.695 1.208-.877 1.5-.475.695.11.877 1.208.475 1.5-1.428 2.267-2.453 4.241-4.173 6.106-.622 1.682-1.427 2.267-1.94 3.254zM111.237 332.93l-.402.292c-.695-.11-1.39-.22-1.28-.915l-1.641-9.875c.11-.695.22-1.39.915-1.28.695.11 1.39.22 1.28.915l1.64 9.876s-.11.694-.512.987zm268.544-202.487c-.402.292-1.097.182-1.097.182-.695-.11-.877-1.207-.475-1.5 1.538-2.961 3.075-5.923 3.918-8.995.11-.695 1.207-.877 1.5-.475.694.11.877 1.208.474 1.5-1.537 2.962-2.782 6.326-4.32 9.288zm7.543-18.393c-.403.292-.805.585-1.097.182-.695-.11-1.28-.915-.475-1.5.843-3.071 2.088-6.435 2.528-9.215.11-.694.915-1.28 1.61-1.17.694.11 1.28.916 1.17 1.61-.843 3.072-1.394 6.547-2.639 9.91-.695-.11-1.097.183-1.097.183zM106.858 313.361c-1.098.182-1.792.072-1.682-.622-1.242-3.402-2.192-6.402-3.141-9.401-.293-.403.22-1.39.622-1.682.403-.293 1.39.22 1.682.622.95 3 2.594 6.11 3.141 9.401.183 1.097-.22 1.39-.622 1.682zM391.1 92.705c-.402.292-.402.292-1.097.182-.695-.11-.987-.513-1.17-1.61l.444-9.545c.11-.695.512-.987.915-1.28.695.11.987.513 1.28.915-.148 3.182-.004 6.766-.152 9.948.585.805.183 1.097-.22 1.39zM99.771 295.145c-.805.584-1.5.474-1.682-.623l-2.339-3.22c-1.17-1.61-2.047-2.817-3.619-4.134-.292-.403-.474-1.5-.072-1.792.402-.293 1.5-.475 1.792-.073 1.17 1.61 2.742 2.927 3.619 4.135l2.631 3.622c.183 1.097.073 1.792-.33 2.084zM390.707 72.698l-.402.292c-.695-.11-1.39-.22-1.28-.915-.547-3.292-1.496-6.291-2.446-9.29-.292-.403.22-1.39.623-1.682.402-.293 1.39.22 1.682.622.95 3 1.789 6.694 2.336 9.986-.11.694-.513.987-.513.987zM86.466 280.216c-.403.292-1.098.182-1.39-.22-2.157-2.122-4.716-3.952-7.568-6.185-.292-.402-.877-1.207-.072-1.792.403-.292 1.207-.877 1.792-.072 2.852 2.232 5.411 4.062 7.97 5.892-.11.695.073 1.792-.732 2.377zM384.718 54.3c-.805.585-1.792.072-1.682-.623-.585-.805-.877-1.207-1.06-2.304-1.059-2.305-2.52-4.317-3.983-6.33-.292-.402-.182-1.097.22-1.39.403-.292 1.098-.182 1.682.623 1.462 2.013 2.924 4.025 3.984 6.33.585.804.877 1.207 1.06 2.304.292.402.182 1.097-.22 1.39zM70.525 268.432c-.402.292-1.097.182-1.39-.22-2.558-1.83-5.52-3.368-8.08-5.197-.694-.11-.877-1.208-.474-1.5.11-.695 1.207-.877 1.5-.475 2.961 1.538 5.52 3.367 8.372 5.6.293.402.585.805.072 1.792zm302.498-230.23c-.403.292-1.098.182-1.39-.22-2.157-2.122-4.606-4.647-7.165-6.477-.293-.402-.878-1.207-.073-1.792.403-.293 1.208-.877 1.792-.072 2.852 2.232 5.009 4.354 7.458 6.879 0 0 .182 1.097-.622 1.682.402-.292.402-.292 0 0zM53.67 257.927c-.402.293-1.097.183-1.39-.22l-1.279-.915c-2.267-1.427-4.534-2.855-7.093-4.684-.292-.403-.877-1.208-.072-1.793.805-.584 1.207-.877 1.792-.072 2.267 1.428 4.826 3.257 6.8 4.282l1.28.915c.585.805.475 1.5-.038 2.487zM357.595 25.431c-.403.292-1.098.182-1.39-.22-2.56-1.83-5.52-3.368-8.483-4.905-.694-.11-.877-1.208-.474-1.5.11-.695 1.207-.877 1.5-.475 2.961 1.538 5.923 3.075 8.774 5.307.695.11 1.28.915.073 1.793.402-.293.402-.293 0 0zM37.328 246.436c-.403.292-1.098.182-1.39-.22-2.852-2.233-5.411-4.063-7.86-6.587-.293-.403-.475-1.5-.073-1.793.403-.292 1.5-.474 1.793-.072 2.156 2.122 5.008 4.355 7.567 6.185.475 1.5.767 1.902-.037 2.487zM340.227 15.913c-.402.293-.805.585-1.097.183-.987-.513-2.67-1.136-3.657-1.648-1.682-.623-3.656-1.648-5.338-2.27-.695-.11-.878-1.207-.475-1.5.11-.695 1.207-.877 1.5-.475 1.682.623 3.656 1.648 5.74 1.978.988.513 2.67 1.135 3.657 1.648.695.11.877 1.207.475 1.5l-.805.584zM22.705 233.08c-.403.293-1.098.183-1.39-.22-2.45-2.524-4.496-5.342-6.25-7.756-.293-.403-.183-1.098-.073-1.792.403-.293 1.098-.183 1.39.22 1.754 2.414 3.801 5.231 6.25 7.756.585.805.475 1.5.073 1.792zM321.725 9.065c-.403.293-.403.293-1.098.183-3.072-.843-6.144-1.686-9.618-2.236-.695-.11-1.28-.915-1.17-1.61.11-.695.916-1.28 1.61-1.17 3.072.843 6.546 1.394 9.91 2.639.695.11 1.28.915 1.17 1.61l-.805.584zM10.898 217.676c-.805.585-1.5.475-1.682-.622-1.645-3.11-3.289-6.22-4.238-9.219-.293-.402.22-1.39.622-1.682.403-.292 1.39.22 1.682.623.95 3 2.594 6.109 3.946 8.816.585.805.475 1.5-.33 2.084zM302.086 4.886c-.402.293-.402.293-1.097.183l-9.728-1.54c-.694-.111-1.28-.916-1.17-1.61.11-.696.916-1.28 1.61-1.17 3.182.148 6.657.698 9.728 1.54.695.11 1.28.915 1.17 1.61.292.403-.11.695-.513.987zM282.521 2.5c-.402.292-.402.292-1.097.182-3.182-.148-6.364-.295-9.948-.15-.695-.11-.987-.513-1.28-.916.11-.695.513-.987.915-1.28 3.182.148 6.766.004 9.948.152.695.11.987.512 1.17 1.61.694.11.694.11.292.402zM3.922 198.765l-.402.292c-.695-.11-1.39-.22-1.28-.915-.547-3.292-1.094-6.584-1.238-10.168.11-.695.512-.987.915-1.28.694.11.987.513 1.28.916-.149 3.181.398 6.473 1.348 9.473.182 1.097-.22 1.39-.623 1.682zM262.918 2.6l-.403.293c-3.584.144-6.473.399-9.765.946-.695-.11-1.39-.22-1.28-.915.11-.695.22-1.39.915-1.28 3.292-.547 6.876-.691 9.766-.946.694.11 1.39.22 1.28.915-.11.695-.513.987-.513.987zm-19.934 2.185l-.402.292c-3.292.547-6.584 1.095-9.583 2.044-.695-.11-1.39-.22-1.28-.915.11-.695.22-1.39.915-1.28 3.292-.547 6.291-1.496 9.583-2.043.695.11 1.39.22 1.28.915.292.402-.11.695-.513.987zM3.127 179.051c-.402.293-.402.293-1.097.183-.695-.11-.987-.513-1.17-1.61.148-3.182.698-6.656 1.944-10.02.11-.695.914-1.28 1.61-1.17.694.11 1.279.915 1.169 1.61a46.094 46.094 0 0 0-1.54 9.728c-.513.987-.916 1.28-.916 1.28zM223.707 9.567c-3.401 1.242-6.4 2.191-9.802 3.433-.403.293-1.39-.22-1.682-.622-.293-.403.22-1.39.622-1.682 3-.95 6.401-2.192 9.4-3.141.403-.293 1.39.22 1.683.622.292.403.182 1.098-.22 1.39zM7.599 159.816c-.402.292-.805.585-1.097.182-.695-.11-.877-1.207-.475-1.5 1.245-3.363 2.38-6.033 4.32-9.287.11-.695 1.208-.877 1.5-.475.695.11.877 1.208.475 1.5-1.538 2.962-3.075 5.924-3.918 8.995l-.805.585zM204.906 15.849c-3.402 1.241-6.511 2.886-9.218 4.238-.403.292-1.39-.22-1.682-.623-.293-.402.22-1.39.622-1.682 3.11-1.644 6.11-2.594 9.219-4.238.402-.292 1.39.22 1.682.622-.11.695-.22 1.39-.623 1.683zm-73.792 49.923c-.402.293-1.097.183-1.39-.22-.292-.402-.474-1.5-.072-1.792l8.05-5.848c.402-.292 1.499-.475 1.791-.072.293.402.475 1.5.073 1.792l-8.452 6.14zm-8.049 5.848l-2.012 1.462c-2.012 1.462-4.317 2.522-6.329 3.984-.402.292-1.097.182-1.682-.623-.292-.402-.182-1.097.623-1.682 2.304-1.06 4.316-2.522 6.329-3.984l2.012-1.461c.402-.293 1.097-.183 1.682.622.292.402.182 1.097-.623 1.682zm64.1-47.185c-2.708 1.352-4.72 2.814-7.427 4.166l-1.207.877c-.403.292-1.098.182-1.683-.623-.292-.402-.182-1.097.623-1.682l1.207-.877c2.415-1.754 4.72-2.814 7.427-4.166.402-.292 1.097-.182 1.682.623-.11.695-.22 1.39-.623 1.682zm-40.245 29.24c-.403.291-1.098.181-1.39-.221-.292-.402-.475-1.5-.072-1.792l7.756-6.25c.403-.293 1.5-.475 1.792-.073.293.403.475 1.5.073 1.792l-8.16 6.543zm15.513-12.502c-.403.293-1.098.183-1.39-.22-.292-.402-.475-1.5-.072-1.792l8.049-5.848c.402-.292 1.097-.182 1.682.623.292.402.182 1.097-.22 1.39l-8.05 5.847zM106.2 81.413c-3.11 1.645-5.817 2.997-8.927 4.641-.402.293-1.39-.22-1.682-.622-.292-.403.22-1.39.623-1.682 3.11-1.645 5.816-2.997 8.926-4.64.402-.293 1.097-.183 1.682.622-.11.694-.22 1.39-.622 1.682zm-89.085 61.035c-.403.293-1.098.183-1.39-.22-.292-.402-.877-1.207-.072-1.792 1.83-2.56 4.062-5.41 5.892-7.97.402-.292 1.207-.877 1.792-.072.292.402.877 1.207.072 1.792-2.232 2.851-4.062 5.41-6.294 8.262.402-.292 0 0 0 0zm70.94-52.156c-2.707 1.352-5.817 2.997-8.816 3.946-.402.292-1.39-.22-1.682-.623-.292-.402.22-1.39.622-1.682 3.11-1.644 5.817-2.996 8.816-3.945l.585.805.475 1.5zM70.314 98.88c-3.11 1.644-5.817 2.996-8.926 4.64-.403.292-1.097.182-1.682-.623-.293-.402-.183-1.097.622-1.682 3.11-1.644 5.817-2.996 8.926-4.64.403-.292 1.098-.182 1.682.622-.11.695-.22 1.39-.622 1.683zM29.887 127.02c-.402.292-1.097.182-1.39-.22-.292-.403-.474-1.5-.072-1.793 2.525-2.449 4.647-4.606 7.172-7.055.402-.292 1.5-.475 1.792-.072.292.402.475 1.5.072 1.792-2.927 2.742-5.05 4.898-7.574 7.348zm23.16-18.057c-2.415 1.755-5.122 3.107-7.537 4.861l-.805.585c-.402.292-1.097.182-1.682-.623-.292-.402-.182-1.097.22-1.39l.805-.584c2.415-1.754 4.83-3.509 7.537-4.86.402-.293 1.097-.183 1.682.622.694.11.584.805-.22 1.39z" fill="#F9F9F9"/>
        <path d="M18.48 196.797c-7.046-27.47 11.985-55.44 35.217-71.703 23.232-16.264 51.324-24.992 75.14-40.451 20.598-13.12 37.978-30.667 58.575-43.787 42-26.824 96.898-31.662 143.08-12.951 15.724 6.407 31.3 15.997 39.339 30.447 13.265 24.181 3.74 55.081-11.923 77.53-15.664 22.448-37.142 41.127-50.941 65.295-12.373 21.901-17.834 47.39-21.796 72.405-3.962 25.014-6.242 50.65-14.262 74.31-7.729 24.06-21.71 47.132-43.113 60.837-21.402 13.704-51.575 15.336-71.134-.583-18.097-13.906-24.596-38.084-27.84-60.322-3.537-22.641-5.866-46.159-18.914-64.963-12.17-17.598-31.915-27.848-49.648-39.56-18.537-11.127-36.816-26.13-41.78-46.504z" fill="url(#b)"/>
        <circle fill="#906EB2" cx="58.843" cy="312.843" r="2.843"/>
        <circle fill="#906EB2" cx="35.843" cy="45.843" r="2.843"/>
        <path d="M381.685 239.843c0 1.516-1.326 2.842-2.842 2.842S376 241.36 376 239.843s1.327-2.843 2.843-2.843 2.842 1.327 2.842 2.843z" fill="#906EB2"/>
    </g>
</svg>
