<?xml version="1.0" encoding="UTF-8"?><!DOCTYPE svg PUBLIC "-//W3C//DTD SVG 1.1//EN" "http://www.w3.org/Graphics/SVG/1.1/DTD/svg11.dtd"><svg xmlns="http://www.w3.org/2000/svg"><symbol id="icon-arrow-down" viewBox="0 0 12 8">
    <title>
        Group
    </title>
    <g fill-rule="evenodd">
        <path d="M0 1.42L1.4-.019l4.59 4.58-1.415 1.414z"/>
        <path d="M4.575 5.976L10.587 0 12 1.436 5.99 7.39z"/>
    </g>
</symbol><symbol id="icon-facebook" viewBox="0 0 60.734 60.733">
    <path d="M57.378.001H3.352A3.352 3.352 0 0 0 0 3.353v54.026a3.353 3.353 0 0 0 3.352 3.354h29.086V37.214h-7.914v-9.167h7.914v-6.76c0-7.843 4.789-12.116 11.787-12.116 3.355 0 6.232.251 7.071.36v8.198l-4.854.002c-3.805 0-4.539 1.809-4.539 4.462v5.851h9.078l-1.187 9.166h-7.892v23.52h15.475a3.355 3.355 0 0 0 3.355-3.351V3.351a3.352 3.352 0 0 0-3.354-3.35z"/>
</symbol><symbol id="icon-medium" viewBox="0 0 18 14">
    <title>
        medium
    </title>
    <path d="M18 2.063h-.712c-.264 0-.638.375-.638.615v8.691c0 .24.374.568.638.568H18V14h-6.45v-2.063h1.35V2.8h-.066L9.68 14h-2.44L4.129 2.8H4.05v9.137H5.4V14H0v-2.063h.692c.284 0 .658-.327.658-.568V2.677c0-.24-.374-.614-.658-.614H0V0h6.752L8.97 8.105h.062L11.268 0H18v2.063" fill-rule="evenodd"/>
</symbol><symbol id="icon-twitter" viewBox="0 0 19 15">
    <title>
        twitter
    </title>
    <path d="M12.695.003V0h.891l.326.063c.217.041.414.095.59.162.178.066.35.144.515.233.165.089.316.18.45.271.134.091.254.188.36.29.105.103.269.13.492.08.222-.05.462-.12.72-.208.256-.09.51-.189.762-.3.251-.111.404-.181.459-.211l.086-.05.003-.005.017-.009.017-.008L18.4.3l.017-.009.004-.005.005-.003.005-.003.004-.005.017-.005.017-.004-.004.025-.005.025-.008.025-.009.025-.008.017-.009.017-.009.025A.566.566 0 0 0 18.4.49c-.005.028-.06.139-.162.333a4.15 4.15 0 0 1-.386.591c-.154.2-.292.35-.414.453a3.904 3.904 0 0 0-.245.216.731.731 0 0 1-.146.117l-.086.055-.017.008-.017.008-.003.005-.006.004-.005.003-.003.005-.017.008-.017.009-.004.005-.005.003-.005.003-.004.005-.003.005-.005.004-.005.003-.004.005h.086l.48-.1c.32-.066.625-.147.916-.241l.463-.15.051-.017.026-.008.017-.008.017-.009.017-.008.017-.008.035-.005L19 1.78v.034l-.009.003-.008.005-.004.005-.005.003-.005.004-.003.005-.004.005-.005.003-.005.003-.003.005-.004.005-.005.004-.009.016-.008.017-.005.003-.218.283c-.143.187-.22.281-.231.283-.012.004-.028.02-.048.05a4.83 4.83 0 0 1-.363.371 8.54 8.54 0 0 1-.655.578c-.214.17-.323.379-.325.626-.004.247-.017.525-.04.836-.023.31-.065.646-.128 1.007-.063.36-.16.769-.291 1.224-.132.455-.292.899-.48 1.332a10.26 10.26 0 0 1-.591 1.165 11.276 11.276 0 0 1-1.088 1.548c-.177.211-.401.449-.672.713-.272.263-.42.407-.445.433a11.23 11.23 0 0 1-.336.273 11.75 11.75 0 0 1-.634.476c-.225.157-.432.289-.62.394-.189.106-.416.226-.682.362a8.229 8.229 0 0 1-.86.38c-.308.116-.634.224-.977.324-.342.1-.673.177-.993.233-.32.055-.683.103-1.088.141l-.608.059V15H5.43v-.008l-.146-.009a8.034 8.034 0 0 1-.24-.016c-.062-.006-.3-.036-.71-.092a10.532 10.532 0 0 1-.968-.166 13.12 13.12 0 0 1-1.046-.317 10.338 10.338 0 0 1-1.187-.47 48.002 48.002 0 0 1-.617-.3 4.415 4.415 0 0 1-.277-.154l-.154-.091-.004-.005-.005-.004-.005-.003-.003-.005-.018-.008-.017-.008-.003-.005-.005-.004-.005-.003-.004-.005-.003-.005-.005-.003H0v-.034l.017.004.017.005.077.008c.052.005.192.014.42.025a7.955 7.955 0 0 0 2.467-.275 7.165 7.165 0 0 0 1.008-.336c.305-.131.522-.229.65-.293.129-.063.324-.181.587-.353l.394-.258.003-.005.005-.003.005-.004.004-.005.003-.005.005-.003.005-.003.004-.005.017-.005.017-.004.004-.016.005-.017.005-.003.003-.005-.137-.009a2.643 2.643 0 0 1-.668-.092 3.94 3.94 0 0 1-.591-.199 4.604 4.604 0 0 1-.617-.316 3.033 3.033 0 0 1-.433-.305 7.41 7.41 0 0 1-.343-.34 3.383 3.383 0 0 1-.658-.992l-.142-.303-.009-.025-.008-.025-.005-.016-.004-.017.026.003.026.005.188.025c.126.017.323.022.591.017.269-.006.454-.017.557-.033.103-.017.166-.028.188-.034l.035-.008.043-.008.042-.009.004-.005.005-.003.005-.003.004-.005-.035-.009-.034-.008-.034-.008-.035-.009-.034-.008a3.22 3.22 0 0 1-.12-.033 6.683 6.683 0 0 1-.462-.183 3.573 3.573 0 0 1-.6-.308c-.149-.1-.29-.21-.425-.328a4.767 4.767 0 0 1-.44-.463A3.93 3.93 0 0 1 .89 6.302a3.766 3.766 0 0 1-.123-.692l-.031-.35.017.004.017.005.017.008.017.009.017.008.017.008.266.117c.177.078.397.144.66.2.262.055.42.086.47.091l.078.009h.154l-.003-.005-.005-.004-.006-.003-.003-.005-.003-.005-.006-.003-.005-.004-.003-.005-.017-.008-.017-.008-.004-.005-.005-.004-.005-.003-.004-.005-.017-.008-.017-.009-.003-.005a2.222 2.222 0 0 1-.442-.378 9.877 9.877 0 0 1-.309-.35 2.697 2.697 0 0 1-.274-.39 4.682 4.682 0 0 1-.253-.53 3.68 3.68 0 0 1-.278-1.285c-.006-.21 0-.391.017-.541.017-.15.052-.32.103-.508.051-.189.126-.388.223-.6l.145-.315.009-.025.009-.025.005-.004.003-.005.004-.005.005-.003.005.003.003.005.004.005.005.004.005.003.003.005.004.005.005.003.008.017.009.017.005.003.004.005.23.25c.155.166.338.352.55.557.21.206.328.312.35.32a.249.249 0 0 1 .086.077c.034.04.149.139.343.294.194.156.448.336.762.541.314.206.663.408 1.045.608.383.2.794.38 1.234.541.44.16.748.266.925.316.177.05.48.114.908.192.428.077.75.127.968.15.217.022.365.035.445.038l.12.003-.003-.025-.005-.025-.035-.208a3.803 3.803 0 0 1-.034-.583c0-.25.02-.48.06-.69.04-.211.1-.425.18-.641.08-.217.158-.39.235-.521.077-.13.179-.279.305-.445a3.63 3.63 0 0 1 .488-.516c.2-.178.428-.336.685-.475.257-.138.494-.244.711-.316.217-.072.4-.12.548-.141.149-.023.223-.035.223-.039z" fill-rule="evenodd"/>
</symbol></svg>