<svg width="199" height="45" viewBox="0 0 199 45" xmlns="http://www.w3.org/2000/svg">
    <title>
        credit-suisse
    </title>
    <g fill="none" fill-rule="evenodd">
        <path d="M87.883 27.41H74.797v2.973l.406-.043.01-.05c.087-.439.874-1.28 1.843-1.28h2.923l.001 15.252h2.856l-.017-15.24h2.99c.987 0 1.635.541 1.745 1.05l.012.056.414-.012-.028-2.706h-.069zM2.979 26.388l.049.047-.05-.047A10.775 10.775 0 0 0 0 33.794c0 3.047 1.229 5.818 3.462 7.8 2.133 1.895 4.985 2.938 8.031 2.938 1.595 0 4.724-.272 7.743-2.09l.117-.07.36-4.292-.565-.072-.083.175c-2.217 4.634-5.706 4.634-7.02 4.634-5.884 0-8.565-4.88-8.565-9.416 0-4.386 2.655-8.813 8.586-8.813 1.82 0 5.126.595 6.847 4.573l.096.22.553-.17-.361-4.472-.147-.064c-2.765-1.206-4.994-1.742-7.229-1.742-3.611 0-6.67 1.195-8.846 3.455zm19.547 1.02h-.07l.004.39.036.018c.239.127.506.776.506 1.503V44.26h2.803l-.011-7.678 1.226.032c1.101.061 1.536.79 2.087 1.714l.068.114.353.595c.599 1.011 1.42 2.399 2.273 3.665.614.912 1.38 1.435 2.34 1.601.687.12 2.057.073 2.572-.085l.618-.16.234-.061-.852-.263c-.343-.105-.884-.342-1.611-1.183-.45-.52-1.18-1.682-2.282-3.443l-1.094-1.739-.02-.03c-.293-.428-.782-1.12-1.604-1.56 1.579-.517 3.129-1.956 3.129-4.1 0-.607-.156-1.774-1.2-2.763-1.058-1.003-2.706-1.51-4.899-1.51l-4.606.001zm4.796 1.52c2.876.12 2.958 2.553 2.958 2.828 0 2.447-1.807 3.315-3.354 3.315l-1.124-.024v-6.094c.506-.04 1.013-.048 1.52-.026zm23.889-1.52h-.078l.053.418.033.016c.244.122.475.725.475 1.241l-.017 15.178h4.805c3.172 0 5.797-.988 7.592-2.854a8.497 8.497 0 0 0 2.345-5.836c0-1.305-.44-3.276-1.675-4.892-1.657-2.17-4.283-3.27-7.808-3.27l-5.725-.001zm3.323 1.617l1.503.004c.4.006 1.41.03 2.12.138 4.721.715 5.23 4.716 5.23 6.404 0 1.383-.246 3.35-1.42 4.872-1.15 1.493-2.956 2.25-5.366 2.25-.574 0-1.289-.001-2.068-.038v-13.63zm17.689-1.617H68.93l.01.408.038.019c.303.15.5.698.5 1.395l-.001 15.03h2.811l.004-16.853-.069.001zm56.626 0h-3.314l.033.38.035.017c.298.149.5.72.5 1.425v15.03h2.81l.005-16.853-.069.001zm-81.271 0h-9.422l.053.395.033.016c.257.127.523.723.523 1.498l-.001 14.943h9.41l.683-2.986-.379-.136-.106.166c-.779 1.224-1.57 1.386-4.3 1.386-.972.02-1.92-.065-2.515-.12v-6.877h4.76v-1.519h-4.76V28.93l3.86.044c.869 0 1.824.832 1.909 1.334l.01.059.385-.01-.075-2.953h-.068v.003zm120.452 0h-9.391l.019.431.037.017c.253.127.523.683.523 1.461l-.002 14.943h9.41l.684-2.99-.424-.131-.105.165c-.779 1.224-1.56 1.386-4.254 1.386-.973.02-1.92-.065-2.515-.12v-6.877h4.76v-1.519h-4.76V28.93l3.86.044c1.064 0 1.865.811 1.865 1.338v.073l.438-.029-.075-2.95-.07.001zm-71.958-3.151c-.991.713-2.178 2.023-2.2 4.222v.065c0 2.704 1.722 4.125 4.498 5.533l-.01-.028c.072.06.314.184 1.068.568 2.318 1.164 3.993 2.005 3.993 4.372 0 .812-.307 1.983-1.166 2.833-.715.709-1.677 1.062-2.859 1.05-3.539-.038-4.792-3.14-5.166-4.474l-.064-.23-.595.098.164 4.405.129.073c1.13.657 3.02 1.756 5.726 1.783 1.918.019 3.863-.762 5.202-2.088 1.178-1.165 1.798-2.641 1.798-4.268 0-3.574-2.559-4.914-5.272-6.335l-.51-.267c-2.778-1.395-4.086-2.245-4.067-3.996.012-1.19.908-3.071 3.261-3.048 2.736.028 4.247 2.087 4.556 3.376l.056.234.589-.075-.201-3.813-.11-.074c-1.62-1.093-3.652-1.228-4.452-1.236-1.585-.016-3.178.464-4.368 1.32zm37.315 7.413c-.023 2.334 1.378 3.517 3.648 4.67l.857.435c1.788.898 2.97 1.491 2.97 3.17 0 .292-.06 1.308-.84 2.081-.54.535-1.291.802-2.227.792-2.681-.027-3.665-2.112-4.014-3.352l-.066-.231-.569.093.133 3.55.129.073c.893.52 2.388 1.389 4.538 1.412 1.524.015 3.07-.605 4.136-1.661.937-.928 1.433-2.104 1.433-3.402 0-2.951-2.042-4.02-4.203-5.153l-.382-.2c-2.321-1.166-3.131-1.69-3.118-2.99.008-.914.693-2.265 2.54-2.246 2.258.022 3.245 1.656 3.452 2.518l.054.235.57-.074-.163-3.083-.111-.074c-1.29-.868-2.902-.977-3.536-.982-2.515-.027-5.201 1.514-5.231 4.419zm12.618 0c-.023 2.334 1.378 3.517 3.65 4.67l.856.435c1.788.898 2.97 1.492 2.97 3.17 0 .292-.063 1.308-.841 2.081-.54.535-1.29.802-2.227.792-2.68-.027-3.665-2.112-4.013-3.352l-.066-.231-.57.093.133 3.55.13.073c.892.52 2.388 1.389 4.537 1.412 1.525.015 3.071-.605 4.136-1.661.938-.928 1.434-2.104 1.434-3.402 0-2.951-2.04-4.02-4.203-5.153l-.382-.2c-2.321-1.165-3.132-1.69-3.119-2.99a2.288 2.288 0 0 1 .68-1.576c.453-.447 1.098-.679 1.862-.67 2.259.022 3.243 1.656 3.448 2.519l.058.234.568-.074-.163-3.083-.11-.074c-1.29-.868-2.904-.977-3.536-.982-2.514-.027-5.202 1.514-5.232 4.419zm-24.148-4.276l-2.215.015.036.379.035.017c.11.055.475.32.475 1.384l.013 9.58c0 1.855-.681 4.069-3.923 4.069-3.063 0-3.692-1.832-3.692-4.583l.003-10.846h-3.503l.026.375.032.018c.225.118.602.563.602 1.473v8.98c0 5.577 3.666 6.222 6.426 6.222 1.347 0 5.742-.408 5.742-5.667l.013-11.417-.07.001zm70.356-4.8c1.982.636 4.084 1.53 6.289 2.761-5.413-8.942-15.097-18.68-24.598-24.99 2.45 2.424 6.424 7.761 7.455 13.484 3.892 2.774 7.566 5.725 10.854 8.745zm-.006-.003c-4.644-1.494-8.601-1.568-11.539-1.266 1.034-2.423 1.139-4.978.694-7.463-7.19-5.123-15.116-9.65-22.736-12.881 5.592 3.786 11.756 14.707 14.343 26.422 5.51-1.632 14-2.758 24.94.924a82.863 82.863 0 0 0-5.702-5.736z" fill="#000" fill-rule="nonzero"/>
        <path d="M181.36 13.85c.448 2.488.342 5.048-.692 7.475 2.938-.303 6.9-.227 11.546 1.27-3.29-3.02-6.963-5.972-10.855-8.745z"/>
    </g>
</svg>
