<svg width="425" height="410" viewBox="0 0 425 410" xmlns="http://www.w3.org/2000/svg">
    <title>
        Illustration
    </title>
    <defs>
        <linearGradient x1="83.763%" y1="85.06%" x2="18.621%" y2="26.619%" id="a">
            <stop stop-color="#796CE7" offset="0%"/>
            <stop stop-color="#7D89E9" offset="100%"/>
        </linearGradient>
        <linearGradient x1="85.564%" y1="85.06%" x2="16.948%" y2="26.619%" id="b">
            <stop stop-color="#796CE7" offset="0%"/>
            <stop stop-color="#7D89E9" offset="100%"/>
        </linearGradient>
    </defs>
    <g fill-rule="nonzero" fill="none">
        <path d="M176.422 36.806c-14.426-4.477-28.852-8.954-43.775-8.954-27.858 0-54.222 16.416-70.638 39.299-16.416 22.385-24.375 50.74-26.862 78.597-2.488 24.872-.995 50.74 8.456 74.12 9.452 23.38 26.862 43.775 49.745 53.227 15.918 6.467 33.33 7.461 48.75 15.42 24.375 12.437 36.811 40.294 58.202 57.207 21.887 17.908 53.724 23.878 80.586 14.924 29.35-9.452 51.735-35.32 64.171-63.674 12.436-28.852 15.421-60.191 16.416-91.53 1.492-36.812-1.492-77.602-26.365-104.962-18.405-19.4-45.268-28.355-70.638-36.314a8654.174 8654.174 0 0 0-88.048-27.36z" fill="url(#a)" opacity=".2"/>
        <path d="M5.996 174.919l-2.495-6.502c-.357-.929-.892-2.322-.784-3.43-.178-.463.108-1.106 1.037-1.463.464-.178 1.107.108 1.463 1.037.357.929.892 2.322.784 3.43l2.496 6.5c.178.465-.108 1.108-.573 1.286-.928.357-1.571.07-1.928-.858zm4.03 9.11c-.178-.465.108-1.107.572-1.286.465-.178 1.572-.07 1.75.394 1.534 2.609 3.247 5.681 4.959 8.754.178.464.07 1.571-.394 1.75-.465.178-1.572.07-1.75-.395l-5.137-9.217zM1.188 155.45c-.32-3.607-1.103-7.036-.78-10.358-.178-.464.573-1.285 1.037-1.463.465-.179 1.286.572 1.464 1.036.14 3.143.46 6.75.6 9.894.179.464-.572 1.285-1.036 1.463-.929.357-1.107-.108-1.285-.572zm19.506 45.263c-.178-.464.108-1.107.572-1.285.465-.178 1.393-.535 1.75.394 1.998 2.43 4.175 5.324 6.174 7.754.642.286.534 1.393.07 1.572-.464.178-1.393.535-1.572.07-2.64-2.716-4.817-5.61-6.994-8.505.178.465 0 0 0 0zM.45 135.486l-.179-.464c.324-3.322.648-6.643 1.436-10.142.286-.643.75-.821 1.215-1 .642.287.82.75.999 1.215-.966 3.035-1.29 6.357-1.614 9.678-.286.643-.572 1.285-1.215 1-.286.642-.464.177-.642-.287zm33.34 79.916c-.178-.465.109-1.107.109-1.107.286-.643 1.393-.535 1.571-.07l7.389 6.754c.642.286.534 1.393.07 1.572-.286.642-1.393.535-1.572.07l-7.388-6.755-.178-.464zM4.786 116.239c-.179-.465-.179-.465.108-1.107.966-3.036 2.397-6.249 3.827-9.462.286-.643 1.215-1 1.858-.713.643.286 1 1.215.713 1.857-1.609 2.75-2.575 5.784-4.006 8.998-.286.642-.75.82-1.858.713-.464.178-.464.178-.642-.286zM49.319 228.09c-.178-.465-.356-.93.108-1.107.286-.643 1.393-.535 1.572-.07 2.284 1.786 5.211 3.86 7.96 5.469.643.286 1 1.215.07 1.571-.285.643-1.214 1-1.57.07-2.75-1.608-5.677-3.682-8.14-5.933.179.464.179.464 0 0zm16.565 11.225c-.179-.464-.179-.464.107-1.107.287-.643 1.215-1 1.858-.713 2.749 1.609 5.498 3.218 8.711 4.648.643.287 1 1.215.714 1.858-.287.643-1.215 1-1.858.713-3.214-1.43-5.963-3.04-8.711-4.648-.643-.287-.821-.751-.821-.751zM13.439 98.53c-.178-.465-.356-.929.108-1.107 2.074-2.928 4.325-5.39 6.577-7.853.286-.643 1.393-.535 1.571-.07.643.285.535 1.393.07 1.57-2.25 2.464-4.503 4.927-6.112 7.676-.286.642-1.393.534-1.571.07-.464.178-.464.178-.643-.286zm69.867 150.083c-.178-.464-.178-.464.108-1.107s1.215-1 1.858-.713c3.213 1.43 5.962 3.04 8.997 4.006.643.286 1 1.215.713 1.858-.286.642-1.215.999-1.857.713-3.214-1.431-5.963-3.04-8.998-4.006-.642-.286-.82-.75-.82-.75zM27.127 84.217c-.178-.464.108-1.107.573-1.285l.75-.821c2.43-1.999 5.038-3.533 7.182-4.888.465-.179 1.572-.07 1.75.394.178.464.07 1.571-.394 1.75-2.608 1.533-4.752 2.89-7.182 4.888l-.75.82c-.465.179-1.108-.107-1.929-.858zm74.174 172.408c-.178-.464-.178-.464.108-1.107s1.215-1 1.858-.713c3.213 1.43 6.248 2.397 8.997 4.006.643.286 1 1.215.713 1.858-.286.642-1.215.999-1.857.713-3.214-1.431-6.249-2.397-8.998-4.006-.464.178-.642-.286-.82-.75zM44.17 74.478c-.179-.464.108-1.107.572-1.285l.929-.357c2.786-1.07 5.573-2.139 8.537-2.744.465-.178 1.572-.07 1.464 1.036.178.465-.108 1.108-1.037 1.464-2.964.605-5.75 1.675-8.537 2.745l-.929.356c.286-.643-.821-.75-1-1.215zm75.59 189.98c-.178-.464-.178-.464.109-1.106.286-.643 1.215-1 1.857-.713l8.998 4.006c.642.286.999 1.214.713 1.857-.286.643-1.215 1-1.858.713l-8.997-4.006c-.465.179-.643-.286-.821-.75zm17.996 8.013c-.179-.465-.179-.465.108-1.107.286-.643 1.214-1 1.857-.714 3.214 1.431 5.963 3.04 9.176 4.47.643.287 1 1.216.713 1.858-.286.643-1.215 1-1.858.714a46.094 46.094 0 0 0-8.997-4.006c-.643-.287-.821-.751-1-1.215zM63.459 69.205c-.356-.929.394-1.75 1.037-1.464 2.965-.605 6.572-.924 9.715-1.065.464-.178 1.285.573 1.464 1.037.178.464-.573 1.285-1.037 1.464-3.143.14-6.75.46-9.715 1.065-.643-.286-1.286-.573-1.464-1.037zm92.184 212.385c-.178-.465-.178-.465.108-1.107.286-.643 1.215-1 1.857-.714 2.75 1.61 5.963 3.04 8.89 5.113.643.287 1 1.215.713 1.858-.286.643-1.215 1-1.858.713l-8.247-4.827c-1.285-.572-1.463-1.036-1.463-1.036zM83.246 68.004c.108-1.107.394-1.75 1.037-1.464 3.143-.14 6.464.183 10.25.328.642.286 1.285.572.999 1.215-.286.643-.573 1.285-1.215 1-3.321-.324-6.464-.183-9.786-.507-.464.178-1.107-.108-1.285-.572zm89.247 224.168c-.178-.464-.356-.929.108-1.107.286-.643 1.393-.535 1.572-.07 2.927 2.073 5.211 3.86 8.139 5.934.642.286.534 1.393.07 1.571-.286.643-1.393.535-1.571.07-2.463-2.251-5.212-3.86-7.675-6.112-.464.179-.643-.286-.643-.286zm15.706 13.154l1.501-1.642c2.463 2.251 4.461 4.681 7.103 7.397.178.465.534 1.393-.394 1.75-.465.178-1.394.535-1.75-.394-2.177-2.894-4.64-5.146-6.46-7.111zM103.281 68.838l-.178-.464c.286-.643.572-1.286 1.215-1l1.107.108c2.214.216 4.893.254 7.285.934l1.572-.07c.643.286 1.285.572 1 1.214-.287.643-.573 1.286-1.216 1l-1.571.07c-2.215-.216-5.071-.718-7.286-.933l-1.107-.108c-.464.178-.642-.286-.82-.75zm97.373 250.889c-.178-.465.108-1.107.572-1.286.465-.178 1.394-.534 1.75.394 1.999 2.43 4.175 5.325 5.71 7.933.178.464.534 1.393-.395 1.75-.464.178-1.393.534-1.75-.394-1.712-3.073-3.71-5.503-5.887-8.397zm11.418 15.865c-.178-.465.108-1.108.573-1.286.464-.178 1.571-.07 1.75.394l5.709 7.933c.178.464.07 1.571-.394 1.75-.465.178-1.572.07-1.75-.395l-5.888-8.396c.179.464.179.464 0 0zm11.133 16.507c-.179-.464.108-1.107.572-1.285.464-.179 1.393-.535 1.75.394 1.998 2.43 3.71 5.502 5.709 7.932.178.465.535 1.393-.394 1.75-.465.178-1.393.535-1.75-.394-1.534-2.608-3.71-5.503-5.887-8.397.178.464.178.464 0 0zm12.06 16.151c-.178-.464.109-1.107.573-1.285.464-.179 1.393-.535 1.75.394.82.75.999 1.215 1.82 1.965 1.82 1.966 2.998 3.645 4.818 5.61.642.287.535 1.394.07 1.572-.286.643-1.393.535-1.571.07-1.82-1.965-3.462-3.466-4.818-5.61-1.464-1.037-1.82-1.965-2.641-2.716zM122.746 70.958l-.179-.464c.286-.643.573-1.286 1.215-1l9.964.971c.643.286 1.285.573 1 1.215-.287.643-.573 1.286-1.216 1l-9.964-.971s-.642-.286-.82-.75zM248.828 382.76c-.178-.464.108-1.107.108-1.107.286-.643 1.393-.535 1.571-.07 2.463 2.251 4.926 4.503 7.675 6.112.643.286.535 1.393.07 1.571-.286.643-1.393.535-1.571.07-2.463-2.25-5.39-4.324-7.853-6.576zm15.814 12.046c-.179-.464-.357-.928.107-1.107.287-.642 1.215-.999 1.572-.07 2.749 1.609 5.676 3.682 8.247 4.827.643.286 1 1.215.713 1.857-.286.643-1.215 1-1.858.713-2.749-1.609-5.962-3.04-8.89-5.113.287-.642.109-1.107.109-1.107zM142.78 71.793c.108-1.107.394-1.75 1.037-1.464 3.607-.319 6.75-.46 9.893-.6.464-.179 1.285.572 1.464 1.036.178.464-.573 1.285-1.037 1.464-3.143.14-6.572.924-9.893.6-1.107-.108-1.286-.572-1.464-1.036zM282.35 403.46c-.178-.465-.178-.465.108-1.107.286-.643.75-.821 1.858-.713l9.105 2.899c.643.286.821.75 1 1.215-.287.642-.751.82-1.215.999-3.036-.967-6.535-1.755-9.57-2.72-.929.356-1.107-.109-1.286-.573zM162.21 69.663c-.356-.93-.07-1.572 1.037-1.464l3.715-1.426c1.858-.713 3.251-1.248 4.93-2.426.465-.178 1.572-.07 1.75.394.178.465.07 1.572-.394 1.75-1.857.713-3.537 1.89-4.93 2.425l-4.18 1.605c-1.107-.108-1.75-.394-1.928-.858zm139.566 338.595l-.178-.464c.286-.643.572-1.285 1.215-1 3.321.324 6.464.184 9.607.043.464-.178 1.285.572 1.464 1.036.178.465-.573 1.286-1.037 1.464-3.143.14-6.929-.004-10.25-.328-.643-.286-.82-.75-.82-.75zM180.073 60.674c-.178-.464.108-1.107.573-1.285 2.608-1.534 5.038-3.533 7.932-5.71.465-.178 1.393-.534 1.75.395.178.464.535 1.393-.394 1.75-2.894 2.176-5.324 4.174-7.754 6.173-.643-.286-1.75-.394-2.107-1.323zm141.025 346.561c-.356-.928.394-1.75 1.037-1.463.929-.357 1.393-.535 2.5-.427 2.5-.427 4.823-1.319 7.145-2.21.464-.178 1.107.108 1.285.572.178.465-.108 1.107-1.036 1.464-2.323.891-4.645 1.783-7.145 2.21-.929.356-1.393.534-2.5.427-.465.178-1.107-.108-1.286-.573zM195.582 48.327c-.179-.464.108-1.107.572-1.285 2.43-1.999 4.682-4.462 7.112-6.46.286-.643 1.393-.535 1.571-.07.643.286.535 1.393.07 1.57-2.251 2.464-4.681 4.462-7.575 6.639-.465.178-.93.356-1.75-.394zm144.093 351.778c-.178-.465.108-1.108.572-1.286 2.608-1.534 5.68-3.246 8.11-5.245.465-.178 1.394-.534 1.75.394.179.465.535 1.394-.393 1.75-2.895 2.177-5.503 3.71-8.576 5.423 0 0-1.107-.108-1.463-1.036.178.464.178.464 0 0zM210.09 34.765c-.178-.465.108-1.107.572-1.286l1.215-.999c1.966-1.82 3.931-3.64 6.361-5.639.464-.178 1.393-.534 1.75.394.356.93.535 1.394-.394 1.75-1.966 1.82-4.396 3.819-5.897 5.46l-1.215 1c-.929.356-1.571.07-2.392-.68zm145.913 353.743c-.178-.464.108-1.107.572-1.285 2.43-1.999 4.682-4.462 6.934-6.925.286-.642 1.393-.534 1.571-.07.643.286.535 1.393.07 1.572-2.251 2.462-4.503 4.925-7.397 7.102-.286.643-1.215 1-1.75-.394.178.464.178.464 0 0zM225.421 21.953c-.178-.464.108-1.107.572-1.285 2.894-2.177 5.324-4.175 8.397-5.888.464-.178 1.571-.07 1.75.394.178.465.07 1.572-.394 1.75-2.608 1.534-5.503 3.711-7.933 5.71-1.571.07-2.036.248-2.392-.68zm144.271 352.242c-.178-.464-.356-.929.108-1.107.75-.82 1.787-2.284 2.538-3.105 1.037-1.464 2.538-3.106 3.574-4.57.286-.642 1.394-.534 1.572-.07.642.286.535 1.393.07 1.572-1.036 1.463-2.538 3.105-3.396 5.033-.75.821-1.787 2.285-2.538 3.106-.286.642-1.393.534-1.571.07l-.357-.929zM242.107 11.285c-.179-.464.107-1.107.572-1.285 3.072-1.712 6.323-2.96 9.11-4.03.464-.178 1.107.108 1.75.394.178.465-.108 1.107-.573 1.286-2.786 1.07-6.037 2.317-9.11 4.03-.928.356-1.571.07-1.75-.395zm138.989 346.81c-.179-.464-.179-.464.108-1.107 1.609-2.749 3.218-5.498 4.648-8.711.286-.643 1.215-1 1.858-.713.643.286 1 1.215.713 1.857-1.609 2.75-3.04 5.963-5.113 8.89-.286.643-1.215 1-1.858.713l-.356-.929zM260.04 3.87c-.356-.93-.07-1.572 1.037-1.464 3.43-.784 6.858-1.567 10.001-1.708.465-.178 1.286.572 1.464 1.037.178.464-.572 1.285-1.037 1.463-3.143.141-6.572.925-9.537 1.53-.928.356-1.571.07-1.928-.858zm130.175 336.34c-.179-.465-.179-.465.108-1.108l4.006-8.997c.286-.643 1.214-1 1.857-.713.643.286 1 1.215.713 1.857a46.094 46.094 0 0 1-4.006 8.998c-.286.642-1.215.999-1.857.713-.465.178-.643-.286-.821-.75zm7.369-18.282c-.178-.464-.178-.464.108-1.107.966-3.035 1.932-6.07 2.72-9.57.287-.642.75-.82 1.215-.999.643.286.821.75 1 1.215-.967 3.035-1.755 6.535-2.721 9.57-.286.642-.75.82-1.858.713-.286.643-.286.643-.464.178zM280.114 2.025l-.18-.465c.287-.643.573-1.285 1.216-1 3.321.324 6.642.648 10.142 1.436.643.286.82.75 1 1.215-.287.643-.751.821-1.216 1-3.035-.967-6.356-1.29-9.5-1.15-1.106-.108-1.285-.572-1.463-1.036zm122.447 300.94l-.179-.464c.788-3.5 1.29-6.356 1.614-9.677.286-.643.572-1.286 1.215-1 .643.287 1.285.573 1 1.216-.325 3.32-1.113 6.82-1.614 9.677-.287.643-.573 1.286-1.215 1-.643-.287-.821-.751-.821-.751zm3.048-19.819l-.178-.464c.324-3.322.647-6.643.507-9.786.286-.642.572-1.285 1.215-.999.642.286 1.285.572.999 1.215-.324 3.321-.183 6.464-.507 9.785-.286.643-.572 1.286-1.215 1-.464.178-.642-.286-.82-.75zM299.361 6.36c-.179-.465-.179-.465.107-1.107.287-.643.751-.821 1.858-.714 3.035.967 6.249 2.397 9.176 4.47.643.287 1 1.216.713 1.858-.286.643-1.215 1-1.858.713a46.094 46.094 0 0 0-8.997-4.005c-.821-.751-1-1.215-1-1.215zm106.619 256.93c-.32-3.607-.46-6.75-.78-10.358-.178-.464.573-1.285 1.037-1.463.465-.179 1.286.572 1.464 1.036.14 3.143.46 6.75.6 9.894.179.464-.572 1.285-1.036 1.463-.464.179-1.107-.108-1.285-.572zM316.783 15.656c-.178-.465-.356-.929.108-1.107.286-.643 1.393-.535 1.572-.07 2.927 2.073 5.212 3.86 7.853 6.576.642.286.534 1.393.07 1.571-.286.643-1.393.535-1.571.07-2.463-2.25-4.926-4.502-7.675-6.111l-.357-.93zm87.995 227.846c-.319-3.607-1.102-7.036-1.708-10.001-.178-.464.573-1.285 1.037-1.464.465-.178 1.285.573 1.464 1.037.783 3.43.924 6.572 1.708 10.001.178.465-.573 1.286-1.037 1.464-.643-.286-1.286-.572-1.464-1.037zm-29.124-84.199c-.178-.464.108-1.107.573-1.285.464-.178 1.571-.07 1.75.394l3.565 9.288c.178.465.07 1.572-.394 1.75-.465.178-1.572.07-1.75-.394l-3.744-9.753zm-3.565-9.288l-.891-2.322c-.892-2.322-1.319-4.822-2.21-7.144-.178-.465.108-1.107 1.037-1.464.464-.178 1.107.108 1.463 1.037.427 2.5 1.319 4.822 2.21 7.144l.891 2.322c.179.465-.108 1.107-1.036 1.464-.465.178-1.107-.108-1.464-1.037zm28.988 74.127c-.606-2.964-1.497-5.286-2.102-8.251l-.535-1.393c-.178-.465.108-1.107 1.037-1.464.464-.178 1.107.108 1.463 1.037l.535 1.393c1.07 2.786 1.497 5.287 2.102 8.251.178.465-.108 1.108-1.037 1.464-.643-.286-1.285-.572-1.463-1.037zm-17.827-46.44c-.179-.465.107-1.108.572-1.286.464-.178 1.571-.07 1.75.394l4.03 9.11c.178.464.07 1.572-.395 1.75-.464.178-1.571.07-1.75-.394l-4.207-9.574zm8.06 18.22c-.18-.465.107-1.108.571-1.286.465-.178 1.572-.07 1.75.394l3.566 9.288c.178.465-.108 1.107-1.037 1.464-.464.178-1.107-.108-1.285-.573l-3.566-9.288zm-24.316-64.732c-.783-3.429-1.389-6.394-2.172-9.823-.178-.464.572-1.285 1.037-1.463.464-.179 1.285.572 1.463 1.036.784 3.43 1.389 6.394 2.172 9.823.179.465-.107 1.107-1.036 1.464-.643-.286-1.286-.572-1.464-1.037zM331.096 29.344c-.178-.464.108-1.107.572-1.285.465-.179 1.394-.535 1.75.394 1.998 2.43 4.175 5.324 6.174 7.754.178.464.534 1.393-.394 1.75-.465.178-1.394.534-1.75-.394-2.177-2.895-4.175-5.325-6.352-8.219.178.464 0 0 0 0zm32.018 82.022c-.605-2.965-1.389-6.394-1.53-9.537-.178-.464.573-1.285 1.037-1.463.465-.179 1.286.572 1.464 1.036.783 3.43 1.389 6.394 1.53 9.537l-.93.357-1.57.07zm-3.702-19.36c-.783-3.429-1.388-6.394-2.172-9.823-.178-.464.108-1.107 1.037-1.463.464-.179 1.107.107 1.464 1.036.783 3.43 1.388 6.394 2.172 9.823.178.465-.108 1.107-1.037 1.464-.643-.286-1.285-.572-1.464-1.037zm-16.72-46.333c-.178-.464.108-1.107.573-1.285.464-.178 1.571-.07 1.75.394 1.712 3.072 3.246 5.68 4.958 8.753.179.465.07 1.572-.394 1.75-.464.178-1.571.07-1.75-.394-1.89-3.537-3.424-6.145-5.136-9.218zm11.447 27.044c-1.07-2.787-1.674-5.751-2.744-8.538l-.357-.929c-.178-.464.108-1.107 1.037-1.463.464-.179 1.107.108 1.285.572l.357.929c1.07 2.786 2.14 5.573 2.744 8.537.179.465-.107 1.108-1.036 1.464-.286.643-.93.357-1.286-.572z" fill="#F9F9F9"/>
        <path d="M278.246 16.595c28.358.304 50.448 25.926 60.145 52.576 9.697 26.65 10.857 56.043 19.625 83.05 7.342 23.29 19.792 44.62 27.134 67.91 15.04 47.511 5.505 101.792-24.521 141.558-10.26 13.53-23.553 26.092-39.592 30.118-26.79 6.553-54.172-10.643-71.802-31.584-17.629-20.94-30.112-46.52-49.886-66.105-17.953-17.619-41.16-29.491-64.296-39.792-23.136-10.301-47.31-19.139-68.086-33.01-21.242-13.692-39.908-33.169-47.606-57.389-7.699-24.22-1.465-53.787 18.974-68.56 18.116-13.88 43.152-13.9 65.472-11.278 22.785 2.443 46.104 6.28 67.645-1.456 20.148-7.201 35.159-23.62 51.06-37.717 15.547-15.026 34.77-28.8 55.734-28.321z" fill="url(#b)"/>
        <circle fill="#7B79E8" cx="421.843" cy="160.843" r="2.843"/>
        <circle fill="#7B79E8" cx="96.843" cy="334.843" r="2.843"/>
        <path d="M108.685 2.843c0 1.516-1.326 2.842-2.842 2.842S103 4.36 103 2.843 104.327 0 105.843 0s2.842 1.327 2.842 2.843z" fill="#7B79E8"/>
    </g>
</svg>
