<svg width="399" height="424" viewBox="0 0 399 424" xmlns="http://www.w3.org/2000/svg">
    <title>
        Illustration
    </title>
    <defs>
        <linearGradient x1="17.445%" y1="30.365%" x2="78.831%" y2="88.211%" id="a">
            <stop stop-color="#78A7EB" offset="0%"/>
            <stop stop-color="#7D89E9" offset="100%"/>
        </linearGradient>
        <linearGradient x1="25.357%" y1="30.365%" x2="71.824%" y2="88.211%" id="b">
            <stop stop-color="#78A7EB" offset="0%"/>
            <stop stop-color="#7D89E9" offset="100%"/>
        </linearGradient>
    </defs>
    <g fill-rule="nonzero" fill="none">
        <path d="M167.422 52.806c-14.426-4.477-28.852-8.954-43.775-8.954-27.858 0-54.222 16.416-70.638 39.299-16.416 22.385-24.375 50.74-26.862 78.597-2.488 24.872-.995 50.74 8.456 74.12 9.452 23.38 26.862 43.775 49.745 53.227 15.918 6.467 33.33 7.461 48.75 15.42 24.375 12.437 36.811 40.294 58.202 57.207 21.887 17.908 53.724 23.878 80.586 14.924 29.35-9.452 51.735-35.32 64.171-63.674 12.436-28.852 15.421-60.191 16.416-91.53 1.492-36.812-1.492-77.602-26.365-104.962-18.405-19.4-45.268-28.355-70.638-36.314a8654.174 8654.174 0 0 0-88.048-27.36z" fill="url(#a)" opacity=".2"/>
        <path d="M398.253 347.383l-.486 6.948c-.07.992-.174 2.48-.74 3.439-.034.496-.565.957-1.557.888-.497-.035-.958-.566-.889-1.558.07-.993.174-2.481.74-3.44l.485-6.946c.035-.497.566-.958 1.062-.923.992.069 1.454.6 1.385 1.592zm.197-9.96c-.034.497-.565.959-1.062.924-.496-.035-1.454-.6-1.419-1.097-.288-3.012-.541-6.52-.795-10.028.035-.497.6-1.454 1.097-1.42.496.035 1.454.6 1.42 1.097l.76 10.525zm-4.067 29.636c-1.235 3.405-1.974 6.844-3.671 9.717-.035.496-1.062.923-1.558.888-.496-.034-.923-1.062-.889-1.558 1.201-2.908 2.437-6.312 3.637-9.22.035-.496 1.062-.923 1.558-.889.993.07.958.566.923 1.062zm1.45-49.266c-.034.496-.565.958-1.061.923-.496-.035-1.489-.104-1.42-1.096-.784-3.047-1.533-6.59-2.318-9.637-.461-.531.105-1.489.6-1.454.497.034 1.49.104 1.455.6 1.246 3.578 1.995 7.121 2.745 10.664.034-.496 0 0 0 0zm-9.22 67.672l-.034.496c-1.697 2.874-3.394 5.747-5.587 8.586-.53.461-1.027.427-1.523.392-.462-.531-.427-1.027-.393-1.524 2.159-2.342 3.856-5.215 5.553-8.089.53-.461 1.062-.923 1.523-.392.531-.461.496.035.462.531zm3.557-86.519c-.034.497-.565.958-.565.958-.531.462-1.489-.104-1.454-.6l-3.842-9.245c-.461-.53.104-1.488.6-1.454.531-.461 1.49.104 1.455.6l3.841 9.245-.035.496zm-15.619 102.132c-.034.496-.034.496-.565.957-2.159 2.343-4.813 4.65-7.468 6.958-.531.462-1.524.392-1.985-.139-.462-.53-.392-1.523.139-1.985 2.62-1.811 4.778-4.153 7.433-6.461.53-.462 1.027-.427 1.985.139.496.034.496.034.461.53zm6.91-120.194c-.036.496-.07.993-.567.958-.53.461-1.488-.104-1.454-.6-1.315-2.586-3.092-5.702-4.903-8.322-.461-.53-.392-1.523.6-1.454.531-.461 1.524-.392 1.454.6 1.812 2.62 3.589 5.737 4.87 8.818.034-.496.034-.496 0 0zm-10.27-17.174c-.034.496-.034.496-.565.958-.53.462-1.523.392-1.985-.139-1.811-2.62-3.623-5.24-5.93-7.894-.462-.531-.393-1.524.138-1.985.531-.462 1.524-.393 1.985.138 2.308 2.655 4.12 5.275 5.93 7.895.462.531.428 1.027.428 1.027zm-11.967 149.76c-.035.496-.07.992-.566.958-3.116 1.776-6.198 3.057-9.28 4.337-.53.462-1.488-.104-1.453-.6-.462-.531.104-1.489.6-1.454 3.081-1.28 6.163-2.561 8.783-4.373.53-.461 1.489.105 1.454.6.496.035.496.035.462.532zm.107-165.55c-.035.497-.035.497-.566.959-.531.461-1.523.392-1.985-.14-2.308-2.654-4.12-5.274-6.462-7.432-.461-.531-.392-1.524.14-1.985.53-.462 1.523-.392 1.984.139 2.308 2.654 4.12 5.274 6.462 7.433.461.53.427 1.027.427 1.027zm-18.562 172.737c-.035.496-.566.957-1.062.923l-1.027.426c-3.047.785-6.059 1.073-8.575 1.396-.496-.035-1.454-.6-1.42-1.097.036-.496.601-1.454 1.097-1.42 3.013-.287 5.529-.61 8.575-1.394l1.027-.427c.497.034.958.565 1.385 1.593zm5.639-187.602c-.035.496-.035.496-.566.957-.531.462-1.523.393-1.985-.138-2.308-2.655-4.65-4.814-6.462-7.434-.461-.53-.392-1.523.14-1.984.53-.462 1.523-.393 1.984.138 2.308 2.655 4.65 4.813 6.462 7.433.496.035.461.531.427 1.028zm-25.2 189.226c-.035.496-.566.957-1.062.923l-.993-.07c-2.977-.208-5.955-.416-8.897-1.12-.496-.035-1.454-.6-.889-1.559.035-.496.566-.957 1.558-.888 2.943.704 5.92.913 8.898 1.12l.993.07c-.531.462.426 1.027.392 1.524zm11.78-204.127c-.034.496-.034.496-.565.957-.531.462-1.524.393-1.985-.138l-6.462-7.433c-.461-.531-.392-1.524.139-1.985.53-.462 1.523-.393 1.985.138l6.461 7.433c.497.035.462.531.427 1.028zm-12.923-14.867c-.034.497-.034.497-.565.958-.531.462-1.524.392-1.985-.139-2.308-2.654-4.12-5.274-6.427-7.929-.462-.53-.392-1.523.139-1.985.53-.461 1.523-.392 1.985.139a46.094 46.094 0 0 0 6.461 7.433c.462.53.427 1.027.392 1.523zm-18.568 215.62c-.07.993-1.097 1.42-1.558.89-2.943-.705-6.347-1.94-9.255-3.141-.496-.035-.923-1.062-.889-1.559.035-.496 1.062-.923 1.559-.888 2.908 1.2 6.312 2.436 9.255 3.14.461.532.923 1.062.888 1.559zm6.21-231.444c-.034.497-.034.497-.565.958-.53.462-1.523.392-1.985-.139-1.811-2.62-4.119-5.274-5.896-8.39-.461-.531-.392-1.524.14-1.985.53-.462 1.523-.393 1.984.138l5.434 7.86c.924 1.062.889 1.558.889 1.558zm-24.65 224.171c-.566.958-1.097 1.42-1.559.889-2.908-1.201-5.781-2.898-9.15-4.63-.462-.53-.924-1.061-.393-1.523.531-.462 1.062-.923 1.524-.392 2.873 1.697 5.781 2.897 8.654 4.594.497.035.958.566.923 1.062zm13.852-240.883c-.035.496-.07.992-.566.958-.531.461-1.489-.104-1.454-.6-1.777-3.117-3.092-5.702-4.869-8.818-.461-.531.104-1.489.6-1.454.531-.462 1.49.104 1.455.6 1.28 3.082 3.092 5.702 4.372 8.783.496.035.462.531.462.531zm-8.676-18.559l-2.054.854c-1.28-3.081-2.065-6.128-3.31-9.706.034-.496.103-1.489 1.096-1.42.496.035 1.488.105 1.419 1.097.75 3.543 2.03 6.625 2.849 9.175zm-22.982 250.219l-.035.496c-.53.461-1.062.923-1.523.392l-.958-.566c-1.916-1.131-4.327-2.297-6.208-3.924l-1.454-.6c-.462-.532-.923-1.063-.392-1.524.53-.462 1.061-.923 1.523-.392l1.454.6c1.916 1.131 4.293 2.793 6.208 3.925l.958.565c.496.035.461.531.427 1.028zm17.78-268.534c-.035.496-.565.958-1.062.923-.496-.035-1.488-.104-1.419-1.097-.784-3.047-1.534-6.59-1.822-9.602.035-.496.104-1.488 1.097-1.419.496.035 1.488.104 1.419 1.097.253 3.508 1.038 6.555 1.787 10.098zm-3.644-19.204c-.034.496-.565.958-1.061.923-.497-.035-1.454-.6-1.42-1.097l-1.822-9.602c.035-.496.6-1.454 1.097-1.419.496.035 1.454.6 1.42 1.097l1.786 10.098c.035-.496.035-.496 0 0zm-3.112-19.666c-.035.496-.566.958-1.062.923-.497-.034-1.489-.104-1.42-1.096-.784-3.047-1.037-6.555-1.821-9.602.034-.497.104-1.489 1.096-1.42.496.035 1.489.105 1.42 1.097.287 3.012 1.037 6.555 1.787 10.098.034-.496.034-.496 0 0zm-4.106-19.735c-.034.497-.565.958-1.062.923-.496-.034-1.488-.104-1.419-1.096-.427-1.027-.392-1.524-.819-2.55-.819-2.551-1.176-4.571-1.995-7.122-.462-.53.104-1.488.6-1.454.531-.461 1.489.104 1.454.6.82 2.551 1.673 4.606 1.995 7.122.889 1.558.82 2.55 1.246 3.577zm-23.662 316.992l-.035.496c-.53.462-1.061.923-1.523.392l-8.62-5.09c-.462-.532-.923-1.062-.392-1.524.53-.462 1.062-.923 1.523-.392l8.62 5.09s.462.532.427 1.028zM266.01 56.39c-.035.496-.566.958-.566.958-.53.461-1.489-.104-1.454-.6-1.28-3.082-2.561-6.164-4.372-8.784-.462-.53.104-1.488.6-1.454.53-.461 1.489.104 1.454.6 1.28 3.082 3.057 6.198 4.338 9.28zm-9.242-17.6c-.034.495-.069.992-.565.957-.531.462-1.524.392-1.454-.6-1.812-2.62-3.588-5.737-5.435-7.86-.461-.531-.392-1.524.14-1.985.53-.462 1.523-.392 1.984.139 1.812 2.62 4.12 5.274 5.896 8.39-.53.462-.566.958-.566.958zm-26.066 344.25c-.566.957-1.097 1.418-1.559.887-3.404-1.235-6.312-2.436-9.22-3.636-.496-.035-.923-1.062-.888-1.558.034-.497 1.062-.923 1.558-.889 2.908 1.2 6.347 1.94 9.22 3.637.958.566.923 1.062.889 1.558zm13.674-359.579c-.034.497-.034.497-.565.958-.531.462-1.027.427-1.985-.139l-7.027-6.475c-.462-.53-.427-1.027-.393-1.523.531-.462 1.028-.427 1.524-.392 2.342 2.158 5.18 4.351 7.523 6.51.993.069.958.565.923 1.061zM212.192 376.76c-.07.993-.6 1.454-1.559.888l-3.97-.277c-1.984-.139-3.473-.243-5.493.114-.496-.034-1.454-.6-1.42-1.096.036-.496.601-1.454 1.097-1.42 1.985.14 4.005-.218 5.494-.114l4.466.312c.958.566 1.42 1.097 1.385 1.593zm16.607-365.855l-.035.496c-.531.462-1.062.923-1.523.392-2.874-1.697-5.782-2.897-8.69-4.098-.496-.035-.923-1.062-.888-1.558.034-.496 1.062-.923 1.558-.888 2.908 1.2 6.277 2.932 9.15 4.629.462.53.428 1.027.428 1.027zm-36.596 366.452c-.034.496-.565.958-1.062.923-3.012.288-6.059 1.072-9.602 1.822-.496-.035-1.488-.104-1.419-1.097.035-.496.104-1.488 1.097-1.419 3.543-.75 6.59-1.534 9.636-2.318.462.53 1.42 1.097 1.35 2.089zm18.651-373.69c-.07.992-1.096 1.418-1.558.887-.992-.069-1.489-.104-2.446-.67-2.447-.669-4.928-.842-7.41-1.016-.495-.035-.957-.566-.922-1.062.034-.496.565-.958 1.558-.888 2.481.173 4.962.347 7.409 1.017.992.069 1.488.104 2.446.67.496.034.958.565.923 1.061zM172.93 381.991c-.035.496-.566.958-1.062.923-3.047.785-6.128 2.065-9.175 2.85-.531.46-1.489-.105-1.454-.601-.462-.53.104-1.489.6-1.454 3.082-1.28 6.128-2.065 9.671-2.814.497.034.993.07 1.42 1.096zM191.005 2.277c-.035.496-.566.958-1.062.923-3.012.288-6.52.542-9.567 1.326-.497-.035-1.49-.104-1.42-1.097.035-.496.104-1.488 1.097-1.42 3.543-.749 6.555-1.037 10.063-1.29 0 0 .958.566.889 1.558.034-.496.034-.496 0 0zm-36.956 385.875c-.035.496-.566.958-1.062.923l-1.524.392c-2.55.82-5.1 1.638-8.148 2.422-.496-.034-1.488-.104-1.42-1.096.07-.993.105-1.489 1.097-1.42 2.551-.819 5.598-1.603 7.652-2.456l1.524-.393c.992.07 1.454.6 1.88 1.628zM171.305 5.886c-.035.496-.566.958-1.062.923-3.047.785-6.129 2.065-9.21 3.346-.531.461-1.489-.105-1.454-.6-.462-.532.104-1.49.6-1.455 3.082-1.28 6.163-2.56 9.706-3.31.531-.462 1.524-.393 1.42 1.096.034-.496.034-.496 0 0zM134.74 393.284c-.034.497-.565.958-1.061.923-3.544.75-6.59 1.534-10.099 1.788-.496-.035-1.454-.6-1.419-1.097.035-.496.6-1.454 1.097-1.42 3.012-.287 6.555-1.037 9.602-1.821 1.454.6 1.95.635 1.88 1.627zm18.11-380.211c-.035.496-.07.992-.566.958-1.027.427-2.585 1.315-3.612 1.742-1.558.888-3.612 1.742-5.17 2.63-.532.462-1.49-.104-1.455-.6-.461-.531.104-1.489.6-1.454 1.559-.888 3.613-1.742 5.206-3.127 1.027-.427 2.585-1.315 3.612-1.742.531-.461 1.49.104 1.454.6l-.069.993zm-37.74 382.828c-.035.496-.566.958-1.062.923-3.509.253-6.982.01-9.96-.198-.496-.034-.958-.565-1.42-1.096.036-.497.567-.958 1.063-.923 2.977.208 6.45.45 9.96.197.992.07 1.453.6 1.419 1.097zm20.6-373.056c-.034.496-.034.496-.565.958-2.62 1.811-5.24 3.623-7.894 5.93-.531.462-1.524.393-1.985-.138-.462-.531-.393-1.524.138-1.985 2.62-1.812 5.275-4.12 8.391-5.896.531-.462 1.524-.392 1.985.139l-.07.992zM95.723 395.044c-.07.992-.6 1.454-1.559.888-3.438-.739-6.877-1.478-9.785-2.679-.497-.034-.924-1.062-.889-1.558.035-.496 1.062-.923 1.558-.888 2.908 1.2 6.347 1.94 9.29 2.644.992.07 1.454.6 1.385 1.593zm24.165-359.842c-.035.497-.035.497-.566.958l-7.433 6.462c-.53.461-1.523.392-1.985-.139-.461-.53-.392-1.523.139-1.985a46.094 46.094 0 0 1 7.433-6.461c.531-.462 1.523-.393 1.985.138.496.035.462.531.427 1.027zm-14.405 13.454c-.035.497-.035.497-.566.958-2.158 2.343-4.316 4.685-6.51 7.524-.53.461-1.027.426-1.523.392-.462-.531-.427-1.027-.392-1.524 2.158-2.342 4.351-5.18 6.51-7.523.53-.462 1.027-.427 1.985.139.53-.462.53-.462.496.034zM76.75 388.232l-.035.496c-.53.462-1.062.923-1.523.392-2.873-1.697-5.747-3.393-8.585-5.587-.462-.53-.427-1.027-.392-1.523.53-.462 1.027-.427 1.523-.392 2.342 2.158 5.216 3.855 8.124 5.056.957.565.923 1.062.888 1.558zM92.958 63.738l-.034.496c-2.194 2.839-3.856 5.216-5.553 8.09-.53.46-1.062.922-1.523.391-.462-.53-.923-1.062-.392-1.523 1.697-2.873 3.89-5.712 5.552-8.09.53-.46 1.062-.922 1.523-.391.462.53.427 1.027.427 1.027zM81.82 80.412l-.035.496c-1.697 2.874-3.394 5.747-4.594 8.655-.531.462-1.062.923-1.524.392-.461-.53-.923-1.062-.392-1.523 1.697-2.873 2.898-5.781 4.595-8.655.53-.461 1.062-.923 1.523-.392.496.035.462.531.427 1.027zM61.138 376.17c-.035.496-.035.496-.566.957-.531.462-1.027.427-1.985-.138-2.342-2.159-4.65-4.814-6.427-7.93-.461-.53-.392-1.523.139-1.985.531-.461 1.523-.392 1.985.14a46.094 46.094 0 0 0 6.461 7.432c.427 1.027.393 1.524.393 1.524zM73.092 98.253c-1.236 3.404-2.437 6.312-3.672 9.716-.035.496-1.062.923-1.558.888-.496-.034-.923-1.061-.888-1.558 1.2-2.908 2.436-6.312 3.636-9.22.035-.496 1.062-.923 1.558-.888.497.034.958.565.924 1.062zM49.276 360.38c-.034.497-.069.993-.565.958-.531.462-1.489-.104-1.454-.6-1.777-3.116-3.092-5.702-4.338-9.28-.461-.53.104-1.488.6-1.454.531-.461 1.49.105 1.454.6 1.28 3.082 2.561 6.164 4.373 8.784l-.07.992zm16.542-243.687c-1.235 3.404-1.974 6.843-2.679 9.786-.035.496-1.062.923-1.558.888-.496-.034-.923-1.061-.888-1.558.739-3.439 1.94-6.347 2.679-9.786.034-.496 1.061-.923 1.558-.888.461.531.923 1.062.888 1.558zm-9.189 88.618c-.034.497-.565.958-1.062.923-.496-.034-1.454-.6-1.419-1.096l.694-9.925c.035-.496.6-1.454 1.097-1.42.496.036 1.454.601 1.419 1.097l-.729 10.421zm-.694 9.925l-.173 2.481c-.174 2.482-.843 4.928-1.017 7.41-.035.495-.566.957-1.558.888-.496-.035-.958-.566-.888-1.559.67-2.446.843-4.927 1.016-7.408l.174-2.482c.034-.496.565-.957 1.558-.888.496.035.958.566.888 1.558zm5.056-79.433c-.704 2.943-.878 5.424-1.582 8.367l-.104 1.489c-.035.496-.566.958-1.558.888-.497-.034-.958-.565-.889-1.558l.104-1.489c.208-2.977.878-5.424 1.583-8.366.034-.496.565-.958 1.558-.889.461.531.923 1.062.888 1.558zm-3.47 49.624c-.035.496-.566.958-1.062.923-.496-.034-1.454-.6-1.42-1.096l.199-9.96c.034-.496.6-1.454 1.096-1.419.496.035 1.454.6 1.42 1.097l-.233 10.455zm.396-19.919c-.035.497-.566.958-1.062.923-.497-.034-1.454-.6-1.42-1.096l.694-9.925c.035-.496.566-.958 1.559-.888.496.034.957.565.923 1.062l-.694 9.924zm-5.32 68.943c-.74 3.439-1.444 6.381-2.183 9.82-.034.496-1.062.923-1.558.889-.496-.035-.923-1.062-.888-1.559.739-3.438 1.443-6.381 2.183-9.82.034-.496.565-.958 1.558-.889.461.531.923 1.062.888 1.559zM42.09 341.926c-.035.496-.566.958-1.062.923-.496-.035-1.489-.104-1.42-1.097-.784-3.046-1.533-6.59-2.318-9.636.035-.497.104-1.49 1.097-1.42.496.035 1.489.104 1.42 1.097.749 3.543 1.533 6.59 2.283 10.133.034-.496 0 0 0 0zm5.645-87.869c-.704 2.943-1.443 6.382-2.644 9.29-.035.496-1.062.923-1.558.888-.496-.034-.923-1.062-.888-1.558.739-3.439 1.443-6.382 2.644-9.29l.992.07 1.454.6zm-4.827 19.11c-.739 3.44-1.443 6.382-2.182 9.821-.035.496-.566.958-1.558.889-.497-.035-.958-.566-.889-1.559.74-3.439 1.444-6.381 2.183-9.82.035-.496.566-.958 1.558-.889.462.531.923 1.062.888 1.559zm-4.427 49.059c-.035.496-.566.957-1.062.923-.497-.035-1.454-.6-1.42-1.097-.253-3.508-.541-6.52-.794-10.029.034-.496.6-1.454 1.096-1.419.496.035 1.454.6 1.42 1.097.218 4.004.506 7.016.76 10.525zm1.054-29.348c-.208 2.978-.912 5.92-1.12 8.898l-.07.992c-.035.496-.565.958-1.558.889-.496-.035-.958-.566-.923-1.062l.07-.993c.208-2.977.416-5.955 1.12-8.897.035-.497.566-.958 1.558-.889.531-.461.993.07.923 1.062z" fill="#F9F9F9"/>
        <path d="M84.6 375.816c-25.572-12.26-34.765-44.818-32.29-73.069 2.473-28.25 13.845-55.38 17.312-83.562 3.189-24.211.92-48.805 4.108-73.016 6.448-49.416 38.03-94.58 82.049-117.931 15.015-7.926 32.373-13.694 48.61-10.564 27.05 5.382 44.6 32.54 51.727 58.97 7.128 26.428 7.631 54.887 17.275 80.993 8.825 23.556 24.84 44.124 41.455 63.237 16.615 19.114 34.789 37.34 47.757 58.692 13.464 21.386 22.15 46.927 18.892 72.13-3.258 25.205-21.404 49.368-46.17 54.119-22.286 4.924-44.985-5.64-64.106-17.448-19.617-11.844-39.13-25.176-61.922-27.269-21.303-1.988-41.847 6.549-62.217 12.604-20.44 7.048-43.682 11.407-62.48 2.114z" fill="url(#b)"/>
        <circle fill="#7A9BEA" cx="201.843" cy="403.843" r="2.843"/>
        <circle fill="#7A9BEA" cx="2.843" cy="157.843" r="2.843"/>
        <path d="M351.685 144.843c0 1.516-1.326 2.842-2.842 2.842S346 146.36 346 144.843s1.327-2.843 2.843-2.843 2.842 1.327 2.842 2.843z" fill="#7A9BEA"/>
    </g>
</svg>
