<svg width="454" height="360" viewBox="0 0 454 360" xmlns="http://www.w3.org/2000/svg">
    <title>
        Illustration
    </title>
    <defs>
        <linearGradient x1="14.777%" y1="21.208%" x2="81.033%" y2="88.092%" id="a">
            <stop stop-color="#796CE7" offset="0%"/>
            <stop stop-color="#8670B1" offset="100%"/>
        </linearGradient>
        <linearGradient x1="12.772%" y1="33.905%" x2="82.8%" y2="71.294%" id="b">
            <stop stop-color="#796CE7" offset="0%"/>
            <stop stop-color="#8670B1" offset="100%"/>
        </linearGradient>
    </defs>
    <g fill-rule="nonzero" fill="none">
        <path d="M197.422 22.806c-14.426-4.477-28.852-8.954-43.775-8.954-27.858 0-54.222 16.416-70.638 39.299-16.416 22.385-24.375 50.74-26.862 78.597-2.488 24.872-.995 50.74 8.456 74.12 9.452 23.38 26.862 43.775 49.745 53.227 15.918 6.467 33.33 7.461 48.75 15.42 24.375 12.437 36.811 40.294 58.202 57.207 21.887 17.908 53.724 23.878 80.586 14.924 29.35-9.452 51.735-35.32 64.171-63.674 12.436-28.852 15.421-60.191 16.416-91.53 1.492-36.812-1.492-77.602-26.365-104.962-18.405-19.4-45.268-28.355-70.638-36.314a8654.174 8654.174 0 0 0-88.048-27.36z" fill="url(#a)" opacity=".2"/>
        <path d="M37.868 308.056l-5.705-3.995c-.815-.57-2.037-1.426-2.567-2.405-.407-.285-.53-.978.041-1.793.285-.407.978-.53 1.793.041.815.571 2.038 1.427 2.567 2.405l5.705 3.995c.408.285.53.978.244 1.385-.57.815-1.263.937-2.078.367zm8.435 5.299c-.408-.286-.53-.978-.244-1.386.285-.407 1.263-.937 1.67-.652 2.73 1.305 5.869 2.895 9.006 4.484.408.286.937 1.264.652 1.671-.285.408-1.263.937-1.67.652l-9.414-4.77zm-23.308-18.75c-2.282-2.812-4.849-5.217-6.438-8.151-.407-.285-.244-1.386.041-1.793.286-.408 1.386-.245 1.793.04 1.875 2.528 4.156 5.34 6.03 7.867.408.285.245 1.385-.04 1.793-.57.815-.978.53-1.386.244zm41.483 26.618c-.408-.286-.53-.979-.245-1.386.286-.408.856-1.223 1.671-.652 3.016.897 6.439 2.08 9.454 2.976.693-.122 1.223.856.937 1.264-.285.407-.855 1.222-1.263.937-3.708-.775-7.131-1.957-10.554-3.14.407.286 0 0 0 0zM11.22 278.466l-.408-.286c-1.589-2.934-3.178-5.869-4.481-9.21-.122-.693.163-1.1.448-1.508.693-.122 1.1.163 1.508.448.896 3.057 2.485 5.991 4.074 8.926.122.692.244 1.385-.448 1.507.122.693-.286.408-.693.123zm72.33 47.609c-.408-.286-.53-.978-.53-.978-.123-.693.855-1.223 1.263-.938l9.903 1.469c.692-.122 1.222.856.937 1.263.122.693-.856 1.223-1.264.938l-9.902-1.469-.408-.285zm-79.5-65.99c-.408-.285-.408-.285-.53-.978-.896-3.057-1.507-6.52-2.117-9.985-.123-.692.448-1.507 1.14-1.63.694-.122 1.509.449 1.63 1.142.204 3.178 1.1 6.235 1.711 9.7.122.692-.163 1.1-1.141 1.629-.286.408-.286.408-.693.122zm99.468 67.826c-.408-.285-.815-.57-.53-.978-.122-.693.856-1.222 1.263-.937 2.894.204 6.48.286 9.659.083.693-.122 1.508.448.937 1.263.122.693-.449 1.508-1.264.938-3.178.203-6.765.12-10.065-.369.407.286.407.286 0 0zm20.01.044c-.408-.285-.408-.285-.53-.978-.123-.693.448-1.508 1.14-1.63 3.18-.203 6.358-.407 9.822-1.018.693-.122 1.508.449 1.63 1.142.122.693-.448 1.507-1.141 1.63-3.464.61-6.643.814-9.822 1.017-.692.122-1.1-.163-1.1-.163zM1.321 240.565c-.407-.286-.815-.571-.53-.979.083-3.586.572-6.887 1.062-10.188-.123-.693.856-1.222 1.263-.937.693-.122 1.222.856.937 1.264-.49 3.3-.979 6.601-.776 9.78.123.693-.855 1.222-1.263.937-.285.408-.285.408-.693.122zM143.17 325.92c-.407-.285-.407-.285-.53-.978-.122-.693.449-1.508 1.142-1.63 3.464-.61 6.643-.814 9.7-1.71.692-.122 1.507.448 1.63 1.141.121.693-.45 1.508-1.142 1.63-3.464.61-6.643.814-9.7 1.71-.692.122-1.1-.163-1.1-.163zM4.667 221.044c-.408-.285-.53-.978-.245-1.385l.163-1.1c.897-3.016 2.202-5.746 3.221-8.07.285-.407 1.264-.936 1.671-.651.408.285.937 1.263.652 1.67-1.305 2.731-2.324 5.054-3.22 8.07l-.164 1.1c-.285.407-.978.53-2.078.366zM162.569 322.5c-.408-.286-.408-.286-.53-.979-.122-.692.449-1.507 1.142-1.63 3.464-.61 6.52-1.507 9.699-1.71.693-.122 1.508.449 1.63 1.141.122.693-.449 1.508-1.141 1.63-3.465.611-6.521 1.507-9.7 1.71-.285.408-.693.123-1.1-.162zM13.349 203.44c-.407-.285-.53-.978-.244-1.385l.57-.815c1.713-2.445 3.425-4.89 5.544-7.05.285-.407 1.264-.937 1.793.041.408.286.53.978-.04 1.793-2.12 2.16-3.832 4.605-5.544 7.05l-.57.815c-.123-.693-1.101-.163-1.509-.449zm168.904 115.232c-.408-.286-.408-.286-.53-.979-.122-.692.449-1.507 1.142-1.63l9.699-1.71c.693-.122 1.508.449 1.63 1.141.122.693-.449 1.508-1.141 1.63l-9.7 1.71c-.285.408-.693.123-1.1-.162zm19.399-3.421c-.408-.285-.408-.285-.53-.978-.122-.693.448-1.508 1.141-1.63 3.464-.61 6.643-.814 10.107-1.425.693-.122 1.508.448 1.63 1.141.122.693-.448 1.508-1.141 1.63a46.094 46.094 0 0 0-9.7 1.71c-.692.123-1.1-.163-1.507-.448zM26.392 188.282c-.815-.57-.651-1.67.041-1.793 2.12-2.16 4.932-4.441 7.459-6.316.285-.407 1.386-.244 1.793.041.408.286.244 1.386-.04 1.794-2.528 1.874-5.34 4.156-7.46 6.315-.692.122-1.385.245-1.793-.04zM221.58 312.81c-.407-.286-.407-.286-.53-.979-.122-.692.449-1.507 1.142-1.63 3.178-.203 6.642-.814 10.229-.732.692-.122 1.507.449 1.63 1.142.122.693-.449 1.507-1.142 1.63l-9.536.61c-1.385.244-1.793-.041-1.793-.041zM42.125 176.222c-.53-.979-.652-1.671.04-1.793 2.527-1.875 5.462-3.464 8.682-5.46.692-.122 1.385-.244 1.507.448.123.693.245 1.386-.448 1.508-2.934 1.59-5.461 3.463-8.396 5.052-.285.408-.978.53-1.385.245zm199.342 135.937c-.407-.285-.815-.57-.53-.978-.121-.693.857-1.222 1.264-.937 3.586.082 6.48.286 10.066.368.693-.122 1.222.856.937 1.264.122.693-.856 1.222-1.263.937-3.301-.49-6.48-.286-9.78-.776-.286.408-.694.122-.694.122zm20.376 2.122l.327-2.2c3.3.49 6.316 1.386 10.025 2.161.407.285 1.222.856.651 1.671-.285.407-.856 1.222-1.67.652-3.424-1.183-6.725-1.672-9.333-2.284zM59.201 165.71l-.407-.285c-.122-.693-.244-1.386.448-1.508l.978-.53c1.957-1.06 4.198-2.526 6.562-3.3l1.264-.937c.692-.122 1.385-.244 1.507.448.123.693.245 1.386-.448 1.508l-1.264.937c-1.956 1.06-4.605 2.241-6.561 3.3l-.978.53c-.286.407-.693.122-1.1-.163zm221.021 153.546c-.407-.286-.53-.978-.244-1.386.285-.407.856-1.222 1.67-.652 3.016.897 6.44 2.08 9.17 3.384.407.285 1.222.856.651 1.671-.285.407-.856 1.222-1.67.652-3.138-1.59-6.154-2.487-9.577-3.67zm18.338 6.767c-.408-.285-.53-.978-.244-1.385.285-.408 1.263-.938 1.67-.652l9.17 3.383c.407.286.936 1.264.651 1.671-.285.408-1.263.938-1.67.652l-9.577-3.669c.407.286.407.286 0 0zm18.46 7.46c-.408-.285-.53-.978-.245-1.385.286-.408.856-1.223 1.671-.652 3.016.897 6.154 2.487 9.17 3.384.407.285 1.222.856.651 1.67-.285.408-.856 1.223-1.67.653-2.731-1.305-6.154-2.487-9.577-3.67.407.286.407.286 0 0zm19.03 6.646c-.407-.286-.53-.978-.244-1.386.285-.407.856-1.222 1.67-.652 1.101.164 1.509.449 2.609.612 2.608.612 4.523 1.345 7.131 1.957.693-.122 1.223.856.938 1.264.122.692-.856 1.222-1.264.937-2.608-.612-4.809-.938-7.131-1.957-1.793-.041-2.608-.612-3.709-.775zM76.522 156.584l-.407-.286c-.122-.692-.244-1.385.448-1.507l8.804-4.767c.693-.122 1.385-.245 1.507.448.123.693.245 1.386-.448 1.508l-8.803 4.767s-.693.122-1.1-.163zm278.885 187.99c-.407-.286-.53-.979-.53-.979-.122-.692.856-1.222 1.264-.937 3.3.49 6.602.98 9.78.776.693-.122 1.223.856.938 1.263.122.693-.856 1.223-1.264.938-3.3-.49-6.887-.572-10.188-1.061zm19.847 1.143c-.408-.285-.815-.57-.53-.978-.122-.693.448-1.508 1.263-.937 3.18-.203 6.765-.121 9.537-.61.692-.122 1.507.449 1.63 1.141.122.693-.449 1.508-1.142 1.63-3.179.204-6.643.815-10.229.733-.122-.693-.53-.979-.53-.979zM93.599 146.072c-.53-.978-.652-1.671.041-1.793 2.813-2.282 5.34-4.156 7.866-6.03.286-.408 1.386-.245 1.793.04.408.286.245 1.386-.04 1.794-2.527 1.874-4.932 4.44-7.867 6.03-.978.53-1.385.244-1.793-.041zM394.774 342.99c-.407-.286-.407-.286-.53-.978-.121-.693.164-1.1 1.142-1.63l9.17-2.689c.693-.122 1.1.163 1.508.449.122.692-.164 1.1-.449 1.507-3.057.897-6.398 2.2-9.455 3.096-.57.815-.978.53-1.386.245zM108.517 133.44c-.815-.57-.938-1.263.04-1.792l2.283-3.26c1.141-1.63 1.997-2.853 2.731-4.768.286-.408 1.264-.937 1.671-.652.408.285.937 1.264.652 1.671-1.141 1.63-1.875 3.545-2.731 4.768l-2.568 3.667c-.978.53-1.671.652-2.078.367zm305.045 202.665l-.407-.285c-.122-.693-.244-1.386.448-1.508 2.935-1.589 5.462-3.463 7.989-5.337.285-.408 1.385-.245 1.793.04.407.286.244 1.386-.041 1.794-2.527 1.874-5.747 3.87-8.681 5.46-.693.121-1.1-.164-1.1-.164zM118.3 116c-.408-.285-.53-.978-.245-1.386 1.305-2.73 2.202-5.746 3.384-9.169.285-.407.856-1.222 1.67-.651.408.285 1.223.856.653 1.67-1.183 3.424-2.08 6.44-2.977 9.455-.692.122-1.67.652-2.485.08zm310.71 208.452c-.816-.57-.653-1.67.04-1.793.57-.815.856-1.223 1.834-1.752 1.834-1.752 3.261-3.79 4.688-5.827.285-.408.978-.53 1.385-.245.408.286.53.979-.04 1.794-1.427 2.037-2.854 4.074-4.688 5.827-.57.815-.856 1.222-1.834 1.752-.286.407-.978.53-1.386.244zM124.251 97.092c-.407-.286-.53-.979-.244-1.386.897-3.016 1.386-6.317 2.283-9.332-.122-.693.856-1.223 1.264-.937.692-.122 1.222.856.937 1.263-.49 3.301-1.387 6.317-2.569 9.74-.285.407-.57.815-1.67.652zm316.17 211.06c-.407-.285-.53-.978-.244-1.385 1.304-2.73 2.894-5.868 3.791-8.884.285-.407.856-1.222 1.671-.651.408.285 1.222.856.652 1.67-1.182 3.424-2.487 6.154-4.077 9.292 0 0-.978.53-1.793-.041.408.285.408.285 0 0zM128.697 77.736c-.408-.286-.53-.979-.245-1.386l.449-1.508c.612-2.608 1.223-5.216 2.12-8.232.286-.407.856-1.222 1.671-.651.815.57 1.223.856.652 1.67-.612 2.609-1.509 5.624-1.835 7.825l-.448 1.508c-.571.815-1.264.937-2.364.774zm318.778 211.672c-.408-.285-.53-.978-.244-1.385.897-3.016 1.386-6.317 1.876-9.618-.123-.692.856-1.222 1.263-.937.693-.122 1.223.856.937 1.264-.49 3.3-.979 6.601-2.161 10.025.122.692-.449 1.507-1.671.651.407.286.407.286 0 0zM134.242 58.541c-.408-.285-.53-.978-.244-1.386 1.182-3.423 2.079-6.438 3.669-9.576.285-.408 1.263-.937 1.67-.652.408.285.938 1.264.652 1.671-1.304 2.73-2.486 6.153-3.383 9.169-1.264.937-1.55 1.345-2.364.774zm316.577 211.346c-.407-.285-.815-.57-.53-.978.164-1.1.205-2.893.368-3.994.041-1.793.367-3.993.408-5.786-.122-.693.856-1.223 1.264-.937.693-.123 1.222.855.937 1.263-.041 1.793-.367 3.994 0 6.072-.164 1.1-.205 2.894-.368 3.994.122.693-.856 1.222-1.264.937l-.815-.57zM142.11 40.367c-.407-.286-.529-.979-.244-1.386 1.59-3.138 3.587-5.99 5.3-8.435.285-.408.977-.53 1.67-.652.408.285.53.978.245 1.385-1.712 2.445-3.71 5.298-5.3 8.436-.57.815-1.263.937-1.67.651zM451.27 250.162c-.407-.285-.407-.285-.53-.978-.203-3.179-.406-6.358-1.017-9.822-.122-.692.449-1.507 1.142-1.63.692-.122 1.507.449 1.63 1.142.203 3.179.814 6.643.732 10.229.122.693-.449 1.508-1.142 1.63-.407-.286-.815-.57-.815-.57zM152.83 24.19c-.815-.57-.937-1.263.04-1.793 2.406-2.567 4.81-5.134 7.337-7.008.286-.408 1.386-.245 1.793.04.408.286.245 1.386-.04 1.794-2.528 1.874-4.932 4.441-7.052 6.6-.57.816-1.263.938-2.078.367zm295.998 206.046c-.407-.286-.407-.286-.53-.978l-1.71-9.7c-.122-.693.449-1.508 1.141-1.63.693-.122 1.508.449 1.63 1.142a46.094 46.094 0 0 1 1.71 9.699c.123.693-.448 1.508-1.14 1.63-.286.407-.693.122-1.1-.163zm-4.113-19.277c-.408-.285-.408-.285-.53-.978-.896-3.057-1.792-6.113-3.096-9.455-.122-.693.163-1.1.449-1.508.693-.122 1.1.163 1.507.449.897 3.056 2.2 6.398 3.096 9.455.123.693-.163 1.1-1.14 1.63.121.692.121.692-.286.407zM168.44 11.436l-.408-.286c-.122-.692-.244-1.385.449-1.507 2.934-1.59 5.869-3.178 9.21-4.482.693-.122 1.1.163 1.508.449.122.692-.163 1.1-.448 1.507-3.057.896-5.991 2.485-8.518 4.36-.978.53-1.386.244-1.793-.041zm269.798 181.02l-.408-.286c-1.303-3.342-2.485-5.99-4.074-8.925-.122-.693-.244-1.386.449-1.508.692-.122 1.385-.244 1.507.449 1.59 2.934 2.893 6.276 4.074 8.925.123.693.245 1.386-.448 1.508-.693.122-1.1-.163-1.1-.163zm-8.556-18.137l-.407-.285c-1.59-2.934-3.178-5.869-5.053-8.396-.122-.692-.244-1.385.449-1.507.693-.123 1.386-.245 1.508.448 1.589 2.935 3.463 5.461 5.052 8.396.122.693.244 1.385-.449 1.508-.285.407-.692.122-1.1-.164zM186.82 4.266c-.407-.286-.407-.286-.53-.978-.122-.693.164-1.1 1.142-1.63 3.056-.896 6.52-1.507 10.107-1.425.693-.122 1.508.448 1.63 1.141.122.693-.449 1.508-1.142 1.63a46.094 46.094 0 0 0-9.699 1.71c-1.1-.163-1.508-.448-1.508-.448zM418.885 157.65c-2.282-2.812-4.156-5.339-6.438-8.151-.407-.286-.244-1.386.041-1.793.286-.408 1.386-.245 1.793.04 1.875 2.528 4.156 5.34 6.03 7.867.408.285.245 1.385-.04 1.793-.286.407-.979.53-1.386.244zM206.463 2.23c-.407-.284-.815-.57-.53-.977-.122-.693.857-1.223 1.264-.937 3.586.082 6.48.286 10.188 1.06.693-.122 1.223.857.937 1.264.122.693-.856 1.223-1.263.937-3.301-.49-6.602-.979-9.78-.775l-.816-.571zm200.361 139.688c-2.281-2.812-4.848-5.217-7.008-7.336-.407-.286-.244-1.386.041-1.794.285-.407 1.386-.244 1.793.041 2.567 2.405 4.441 4.932 7.009 7.337.407.285.244 1.385-.041 1.793-.693.122-1.386.244-1.794-.041zM335.596 88.4c-.407-.285-.53-.978-.244-1.386.285-.407 1.263-.937 1.67-.652l8.15 5.707c.408.285.938 1.263.652 1.67-.285.408-1.263.938-1.67.653l-8.558-5.992zm-8.15-5.707l-2.037-1.426c-2.037-1.427-3.79-3.261-5.827-4.688-.407-.285-.53-.978.041-1.793.286-.407.978-.53 1.793.041 1.752 1.834 3.79 3.261 5.827 4.688l2.038 1.426c.407.286.53.978-.041 1.793-.286.408-.978.53-1.793-.04zm65.484 45.245c-2.16-2.12-4.197-3.546-6.357-5.666l-1.222-.856c-.408-.285-.53-.978.04-1.793.286-.407.979-.53 1.794.041l1.222.856c2.445 1.712 4.197 3.546 6.357 5.666.407.285.53.978-.041 1.793-.693.122-1.386.244-1.793-.041zM352.18 99.405c-.407-.285-.53-.978-.244-1.385.285-.408 1.263-.937 1.67-.652l8.436 5.299c.407.285.937 1.263.652 1.67-.286.408-1.264.938-1.671.653l-8.843-5.585zm16.87 10.598c-.407-.285-.53-.978-.244-1.385.285-.408 1.263-.937 1.67-.652l8.15 5.706c.408.286.53.979-.04 1.794-.286.407-.979.53-1.386.244l-8.15-5.707zm-56.355-40.067c-2.567-2.405-4.727-4.524-7.294-6.93-.407-.285-.244-1.385.041-1.792.285-.408 1.386-.245 1.793.04 2.567 2.405 4.727 4.525 7.294 6.93.408.285.53.978-.041 1.793-.693.122-1.386.244-1.793-.041zm-86.713-64.36c-.407-.286-.53-.979-.244-1.386.285-.408.856-1.223 1.671-.652 3.016.897 6.439 2.08 9.454 2.976.408.285 1.223.856.652 1.671-.285.408-.856 1.223-1.671.652-3.423-1.182-6.439-2.08-9.862-3.262.408.286 0 0 0 0zm72.41 50.094c-2.159-2.12-4.726-4.524-6.6-7.05-.408-.286-.245-1.386.04-1.794.286-.407 1.386-.244 1.794.041 2.567 2.405 4.727 4.524 6.6 7.051l-.57.815-1.263.937zM284.5 41.69c-2.567-2.404-4.727-4.524-7.294-6.929-.407-.285-.53-.978.041-1.793.286-.407.978-.53 1.793.041 2.567 2.405 4.727 4.524 7.294 6.93.408.284.53.977-.04 1.792-.694.122-1.386.245-1.794-.04zm-39.77-29.062c-.408-.285-.53-.978-.245-1.385.286-.408 1.264-.938 1.671-.652 3.138 1.59 5.868 2.894 9.006 4.484.407.285.937 1.263.652 1.67-.286.408-1.264.938-1.671.652-3.545-1.875-6.276-3.18-9.413-4.769zm24.612 16.02c-2.445-1.713-4.605-3.832-7.05-5.544l-.815-.57c-.407-.286-.53-.979.041-1.794.286-.407.979-.53 1.386-.244l.815.57c2.445 1.713 4.89 3.424 7.05 5.544.407.285.53.978-.041 1.793.122.693-.571.815-1.386.244z" fill="#F9F9F9"/>
        <path d="M175.04 24.559c23.68-15.605 56.321-6.716 79.262 9.955 22.942 16.67 40.34 40.391 62.71 57.877 19.111 15.203 41.36 25.924 60.472 41.128 39.036 30.977 61.484 81.31 58.828 131.068-.94 16.953-4.936 34.802-15.981 47.108-18.546 20.415-50.863 21.47-77.188 13.968-26.325-7.503-50.978-21.729-78.323-26.908-24.736-4.568-50.614-1.433-75.555 2.964-24.941 4.398-49.924 10.59-74.905 10.708-25.267.526-51.633-5.183-71.559-20.957-19.926-15.774-31.292-43.773-22.608-67.449 7.257-21.638 28.002-35.654 47.972-45.962 20.256-10.715 41.734-20.574 55.266-39.033 12.677-17.237 15.94-39.243 21.24-59.822 4.486-21.15 12.721-43.318 30.369-54.645z" fill="url(#b)"/>
        <circle fill="#7F6ECD" cx="239.843" cy="356.843" r="2.843"/>
        <circle fill="#7F6ECD" cx="22.843" cy="115.843" r="2.843"/>
        <path d="M369.685 65.843c0 1.516-1.326 2.842-2.842 2.842S364 67.36 364 65.843 365.327 63 366.843 63s2.842 1.327 2.842 2.843z" fill="#7F6ECD"/>
    </g>
</svg>
