<svg width="151" height="32" viewBox="0 0 151 32" xmlns="http://www.w3.org/2000/svg">
    <title>
        Group 9
    </title>
    <path d="M15.394.796h-2.956v14.502c0 5.446-1.918 7.084-6.778 7.084C1.585 22.37 0 20.798 0 18.76c0-.466.173-1.97 1.664-1.97 1.479 0 1.572.998 1.572 2.623 0 .679.28 2.01 2.024 2.01 2.77 0 4.008-1.265 4.008-5.739V.796h-2.85V.023h8.976v.773zm.6 18.124c-.493 0-.92.16-1.252.506-.346.346-.52.759-.52 1.252 0 .492.174.905.52 1.225.346.346.759.506 1.252.506.492 0 .905-.16 1.265-.506.346-.32.519-.733.519-1.225 0-.506-.173-.906-.52-1.252-.345-.346-.759-.506-1.264-.506zm19.243 0c-.493 0-.906.16-1.252.506s-.506.759-.506 1.252c0 .492.16.905.506 1.225.36.346.772.506 1.252.506.492 0 .918-.16 1.265-.506.346-.32.519-.733.519-1.225 0-.506-.173-.906-.52-1.252-.346-.346-.772-.506-1.264-.506zM29.657.023c6.885 0 8.056 2.597 8.056 6.299 0 3.662-1.904 6.339-8.709 6.339l-2.344.013V18.2c0 .68.08 1.013.24 1.385.173.44.546.773 1.105 1 .4.146 1.013.226 1.812.252v.986h-9.455v-.986c.798-.026 1.398-.107 1.797-.28.533-.226.892-.559 1.053-.998.146-.386.226-.453.226-1.785V.795h-2.584V.036l8.803-.013zm-1.212 11.8c4.155 0 6.219-1.799 6.219-5.314 0-3.503-1.146-5.647-6.392-5.647L26.647.89v10.946h1.798v-.013zm36.302 7.683c-.12-.386-.187-.866-.187-1.478V.796h2.277V.023h-5.553c-.067.2-6.685 16.66-6.685 16.66a.18.18 0 0 1-.147.093.169.169 0 0 1-.16-.093S47.263.223 47.183.023h-6.166v.76h2.557v16.565l-.053 1.545c-.04.4-.174.76-.373 1.052-.213.307-.546.546-.986.706-.293.093-.732.16-1.265.173v.986h6.272v-.986c-.519-.026-.745-.08-1.052-.173-.453-.146-.786-.373-1.012-.692a2.263 2.263 0 0 1-.373-1.08l-.067-1.544V3.073h.36s7.937 18.537 8.03 18.75h.666l7.524-18.537h.186v14.741c0 .64-.067 1.146-.186 1.532-.147.453-.466.786-.932 1.012-.346.16-.866.24-1.558.266v.986h8.576v-.986c-.693-.04-1.225-.12-1.585-.28-.532-.252-.852-.598-.998-1.051zm11.532-13.65c4.235 0 7.377 2.89 7.377 8.19 0 6.805-4.9 8.416-7.47 8.416-1.305 0-7.338-.506-7.338-8.27-.013-5.3 2.863-8.336 7.43-8.336zm-.053 15.647c3.076 0 4.022-1.917 4.022-7.497 0-3.875-.014-7.178-4.022-7.178-3.702 0-3.969 3.196-3.969 7.458 0 5.5.52 7.217 3.969 7.217zM95.628 6.096c-2.73 0-3.675 1.611-4.434 3.263l-.213-.014c-.014.014-.546-3.116-.546-3.116H85.24v.826h2.85v10.733c0 1.065-.053 1.891-.333 2.344-.32.52-.972.72-2.064.72h-.466v.985h8.882v-.986h-.48c-1.158 0-1.757-.253-2.063-.76-.28-.438-.413-1.197-.413-2.303v-5.566c0-1.878 1.505-4.035 3.21-4.035 1.784 0 1.837 2.556 3.755 1.638 1.358-.64 1.052-3.73-2.49-3.73zm35.357 14.129c.559 0 1.238-.586 1.385-1.691h.532c-.146 2.53-1.385 3.542-3.449 3.542-1.838 0-2.85-1.305-3.023-2.384-1.078 1.146-2.677 2.584-5.207 2.584-2.277 0-4.048-1.758-4.155-3.756-.306-5.113 6.42-5.66 9.256-5.912v-2.61c0-.946-.213-1.705-.626-2.278-.44-.599-1.225-.892-2.344-.892-.959 0-1.665.24-2.117.706-.427.453-.613.945-.746 1.798-.186 1.158-.68 1.611-1.558 1.611-.386 0-.693-.107-.972-.346-.266-.226-.4-.56-.4-1.039 0-1.025.4-1.731 1.412-2.503 1.039-.8 2.664-1.199 4.86-1.199 2.291 0 3.876.427 4.688 1.252.826.826 1.053 1.784 1.053 3.183v6.525l.053 1.998c.106.892.399 1.41 1.358 1.41zm-4.648-6.658c-2.184 0-6.153 1.451-6.153 4.354 0 .906.32 2.717 2.504 2.717.852 0 2.01-.493 3.529-1.878l.067-.067c.053-.04.053-.066.053-.12v-5.006zm22.785 6.565c-.386-.48-.466-1.532-.466-2.33v-7.058c0-1.026-.133-1.891-.52-2.61a3.815 3.815 0 0 0-1.61-1.572c-.693-.346-1.478-.519-2.344-.519-3.116 0-4.475 1.798-5.087 3.01h-.24l-.546-2.824h-4.834v.813h2.424v10.747c0 .825-.067 1.425-.187 1.824-.133.48-.44.8-.892.999-.293.12-.746.2-1.332.226v.986h7.67v-.986c-.771-.066-1.29-.266-1.57-.665-.307-.427-.44-1.146-.44-2.211v-4.115c0-1.718-.013-3.383.573-4.421.639-1.119 1.797-1.745 3.089-1.745 1.172 0 1.798.373 2.17 1.119.414.839.507 2.397.507 3.635v5.1c0 .853-.027 1.466-.08 1.865-.093.466-.2.853-.573 1.092-.266.187-.679.307-1.225.346v.972H151v-.986c-.945-.04-1.505-.2-1.878-.692zM114.445 5.23c.84-.266 1.532-.066 1.758.88.106.452.013.998-.253 1.477-.253.48-.693.826-1.385 1.039-.6.2-1.239.2-1.944.04.333.72.612 1.731.612 2.916 0 4.128-3.156 5.367-6.525 5.886-3.436.533-4.314.946-4.314 2.024 0 .733.452 1.159 2.836 1.159 4.927.24 7.125-.04 8.67 2.077.479.68.718 1.585.718 2.717 0 .826-.213 1.691-.679 2.53-.44.84-1.265 1.572-2.45 2.171-1.185.6-2.837.919-4.86.919-1.532 0-2.638-.12-4.315-.626-1.092-.32-2.53-1.198-2.53-3.05 0-.559.093-1.025.346-1.424.28-.427.852-.68 1.331-.6.852.147 1.105.92.959 1.652-.173.719-.013 1.731.812 2.237 1.119.692 2.344.852 3.849.852 1.758 0 3.17-.306 4.208-.879 1.119-.626 1.665-1.465 1.665-2.503 0-.76-.267-1.345-.786-1.745-.493-.36-1.172-.6-2.01-.706-.787-.093-1.998-.16-3.69-.173-1.944-.04-3.488-.266-4.594-.719-.999-.412-1.77-1.145-1.77-2.503 0-2.25 2.103-2.943 4.474-3.423.146-.026.146-.226-.027-.253-2.783-.586-4.048-2.184-4.048-5.46 0-2.81 1.904-5.885 6.232-5.885 2.677 0 4.208.905 5.007 1.638.24.186.786.173 1.106.08.32-.107.559-.467.679-1.106.16-.693.452-1.092.918-1.239zm-7.63 11.36c1.89 0 3.249-.573 3.249-4.901 0-3.023-.733-4.994-3.25-4.994-2.157 0-3.169 2.157-3.169 5.047-.013 4.115 1.145 4.848 3.17 4.848z" fill="#000" fill-rule="nonzero"/>
</svg>
