<svg width="35" height="35" viewBox="0 0 35 35" xmlns="http://www.w3.org/2000/svg">
    <title>
        logo
    </title>
    <g fill="#D65151" fill-rule="evenodd">
        <path d="M12.055 3.746c.021.272.052.524.094.76.042.235.105.452.19.65l2.316 5.312 1.701-3.846L13.561.201h-3.026L.732 22.675H2.52c.482 0 .926-.131 1.334-.392.408-.261.706-.612.894-1.051l7.01-16.075c.168-.376.267-.847.298-1.411"/>
        <path d="M23.99.201h-3.027c-2.77 6.378-4.165 9.578-4.188 9.598.024-.058.034-.12.052-.181l-1.272 2.91.014.031-4.407 10.116h1.787a2.42 2.42 0 0 0 1.333-.392c.408-.262.706-.612.894-1.05l7.01-16.077c.168-.397.268-.857.299-1.379.011.511.105.971.282 1.38l7.01 16.075c.168.44.462.789.88 1.05.417.262.867.393 1.348.393h1.788L23.991.201z"/>
        <path d="M2.371 26.524c.24 0 .39.015.487.04h28.738c.098-.025.248-.04.487-.04 2.16 0 2.195-1.483 2.195-1.483H.176s.036 1.483 2.195 1.483"/>
        <path d="M23.583 34.849c2.083 0 2.19-1.376 2.194-1.473H14.864c.004.097.11 1.473 2.195 1.473.273 0 .442.017.533.05h5.457c.09-.033.261-.05.534-.05"/>
        <path d="M5.635 29.19s.036 1.482 2.195 1.482c.179 0 .3.01.396.024h11.02c.096-.014.217-.024.396-.024 2.159 0 2.195-1.482 2.195-1.482h.005v-.016H5.608v.011l.027.005z"/>
    </g>
</svg>
