<svg width="170" height="33" viewBox="0 0 170 33" xmlns="http://www.w3.org/2000/svg">
    <title>
        morgan-stanley
    </title>
    <g fill="#000" fill-rule="nonzero">
        <path d="M71.32 0l10.848 10.847V0H71.32zm9.228 6.691l-5.076-5.076h5.076v5.076z"/>
        <path d="M94.263 15.705c-2.152-.915-4.185-1.78-4.185-4.116 0-1.96 1.48-3.496 3.367-3.496 2.504 0 3.52 1.683 4.276 4.209l.016.058 2.09-.65-.014-.055c-.888-3.427-3.218-5.472-6.234-5.472-3.422 0-5.81 2.356-5.81 5.728 0 3.694 2.648 4.775 5.208 5.82 2.288.933 4.45 1.816 4.45 4.527 0 2.162-1.585 3.79-3.687 3.79-2.75 0-4.488-2.359-4.941-4.55l-.013-.06-2.228.534.011.057c.732 3.657 3.47 5.93 7.145 5.93 3.602 0 6.024-2.388 6.024-5.941 0-3.983-2.909-5.22-5.475-6.313zm14.492-1.168v-1.883h-3.342V7.867h-2.204v4.787h-2.246v1.883h2.246v8.283l-.002.756c0 1.446.06 2.78.856 3.58.538.54 1.371.802 2.548.802.628 0 1.276-.134 2.105-.43l.039-.015V25.87l-.074.02c-.474.124-1.01.185-1.643.185-.606 0-1.003-.115-1.251-.362-.365-.367-.374-1.012-.374-1.829v-9.348h3.342zm12.795 12.912c-.361-.883-.375-1.84-.388-2.765l-.008-.476v-7.324c0-3.418-2.962-4.659-4.952-4.659-2.035 0-3.711.988-5.129 3.02l-.033.048 1.567 1.167.035-.05c1.068-1.57 2.199-2.3 3.56-2.3 1.721 0 2.748.947 2.748 2.534v.783l-.625.175-.595.16c-3.185.844-7.149 1.895-7.149 5.914 0 2.36 1.862 4.283 4.15 4.283 1.757 0 3.104-1.137 4.232-2.233.025.208.208 1.805.208 1.805h2.414l-.035-.082zm-6.738-1.588c-1.273 0-2.16-1.265-2.16-2.4 0-2.388 3.03-3.257 5.036-3.833l1.262-.366v4.23c-.589.724-2.144 2.369-4.138 2.369zm16.643-13.636c-1.661 0-2.799.917-4.003 1.888h-.002v-1.459h-2.204v14.877h2.204V16.265c.779-.922 2.443-2.21 3.737-2.21.575 0 1.002.151 1.308.462.623.633.605 1.808.59 2.844l-.005.459v9.711h2.203V17.284c0-3.356-1.288-5.059-3.828-5.059zm10.128-5.614h-2.145v20.92h2.204V6.61h-.06zm13.295 16.899l-.032.055c-.343.588-1.615 2.51-3.557 2.51-2.482 0-3.852-1.982-3.869-5.576h8.897l.004-.055c.029-.358.044-.712.044-1.06 0-2.352-.657-4.432-1.826-5.7-.892-.968-2.057-1.459-3.464-1.459-3.793 0-5.968 2.867-5.968 7.867 0 4.999 2.175 7.866 5.968 7.866 2.405 0 4.515-1.316 5.375-3.352l.02-.045-1.592-1.051zm-.868-4.894h-6.537c.05-2.196 1.264-4.507 3.441-4.507.68 0 1.282.265 1.792.788.91.938 1.305 2.473 1.305 3.636v.083zm15.704-5.962h-2.021l-3.623 11.394-3.966-11.394h-2.237s5.088 14.513 5.1 14.551c-.534 1.758-1.23 3.47-3.28 3.47-.41 0-.796-.1-1.186-.213l-.063-.018-.341 1.88.048.017c.55.183 1.014.298 1.623.298 3.253 0 4.439-2.438 5.11-4.562l4.917-15.423h-.081z"/>
        <path d="M16.502 6.611h-3.763S8.314 23.596 8.28 23.726L3.742 6.61H0v20.92h2.31V8.87l5.029 18.66H9.22L14.25 8.87v18.66h2.311V6.61h-.06zm9.299 5.614c-3.793 0-5.968 2.868-5.968 7.867 0 5 2.175 7.866 5.968 7.866s5.968-2.867 5.968-7.866c0-5-2.175-7.867-5.968-7.867zm0 13.85c-3.276 0-3.765-3.749-3.765-5.983 0-2.235.49-5.983 3.765-5.983 3.274 0 3.764 3.748 3.764 5.983 0 2.234-.49 5.983-3.764 5.983zM42.336 12.44h-.802c-2.176 0-3.256 1.576-4.085 3.31v-3.095h-2.204V27.53h2.204v-8.428c.814-2.16 2.209-5.014 4.879-4.648l.067.01V12.44h-.059zm26.17 15.01c-.362-.883-.375-1.84-.388-2.767l-.008-.474v-7.324c0-3.418-2.961-4.659-4.952-4.659-2.034 0-3.712.988-5.129 3.02l-.032.048 1.566 1.167.035-.05c1.068-1.57 2.2-2.3 3.56-2.3 1.72 0 2.749.947 2.749 2.534v.783l-.626.175-.595.16c-3.184.844-7.148 1.895-7.148 5.914 0 2.36 1.862 4.283 4.15 4.283 1.755 0 3.104-1.137 4.232-2.233l.206 1.805h2.414l-.033-.082zm-6.738-1.588c-1.273 0-2.16-1.265-2.16-2.4 0-2.388 3.03-3.257 5.036-3.833l1.263-.366v4.23c-.59.724-2.144 2.369-4.14 2.369zm16.565-13.636c-1.66 0-2.797.917-4.002 1.888h-.002v-1.459h-2.205v14.877h2.205V16.265c.779-.922 2.442-2.21 3.737-2.21.574 0 1.002.151 1.308.462.624.633.605 1.808.59 2.844l-.006.459v9.711h2.205V17.284c0-3.356-1.289-5.059-3.83-5.059zm-22.335 1.563v-1.865c-1.257-.133-2.38.394-3.347 1.111l-.015-.012v-.001a5.432 5.432 0 0 0-3.243-1.052c-3.054 0-5.272 2.16-5.272 5.14 0 1.678.5 2.56 1.612 3.874-.23.268-.471.495-.706.71-.601.558-1.12 1.039-1.12 1.992 0 1.082.929 1.711 1.76 2.061-1.102.493-2.482 1.32-2.482 2.885 0 1.127.62 3.75 6.369 3.75 4.131 0 6.315-1.353 6.315-3.91 0-3.594-3.986-3.95-6.896-4.21-1.643-.149-2.943-.265-2.943-.896 0-.58.554-1.005 1-1.347l.21-.165c.81.305 1.564.448 2.367.448 1.389 0 2.667-.521 3.6-1.467.926-.938 1.433-2.213 1.433-3.595v-.078c-.017-1.207-.333-2.239-.916-3.059.527-.283.904-.313 1.49-.313h.784zm-7.957 12.575c0 .002 2.272.148 2.274.148 2.309.164 3.43.762 3.43 1.825 0 1.973-2.559 2.268-4.084 2.268-1.077 0-4.352 0-4.352-2.08 0-1.21 1.472-1.921 2.732-2.16zm1.22-5.758c-1.98 0-3.017-1.718-3.017-3.417 0-1.708 1.122-3.523 3.203-3.523 2.265 0 3.07 1.884 3.07 3.496 0 2.125-1.248 3.444-3.257 3.444z"/>
    </g>
</svg>
